<?xml version="1.0" encoding="UTF-8" standalone="no"?><svg xmlns="http://www.w3.org/2000/svg" xmlns:xlink="http://www.w3.org/1999/xlink" contentStyleType="text/css" height="2734.375px" preserveAspectRatio="none" style="width:1899px;height:2734px;background:#FFFFFF;" version="1.1" viewBox="0 0 1899 2734" width="1899.4792px" zoomAndPan="magnify"><defs/><g><rect fill="#FFFFFF" height="1484.0535" style="stroke:#181818;stroke-width:3.6458333333333335;" width="36.4583" x="191.4063" y="920.0887"/><rect fill="#FFFFFF" height="1454.8869" style="stroke:#181818;stroke-width:3.6458333333333335;" width="36.4583" x="749.2188" y="920.0887"/><rect fill="#FFFFFF" height="110.6567" style="stroke:#181818;stroke-width:3.6458333333333335;" width="36.4583" x="1317.9688" y="1480.6641"/><rect fill="#FFFFFF" height="110.6567" style="stroke:#181818;stroke-width:3.6458333333333335;" width="36.4583" x="1704.4271" y="2006.547"/><rect height="2011.8164" style="stroke:#000000;stroke-width:5.46875;fill:none;" width="1839.3229" x="36.4583" y="363.1592"/><rect height="177.5635" style="stroke:#000000;stroke-width:5.46875;fill:none;" width="811.1979" x="72.9167" y="993.0054"/><rect height="509.5337" style="stroke:#000000;stroke-width:5.46875;fill:none;" width="1533.0729" x="72.9167" y="1221.6105"/><rect height="177.5635" style="stroke:#000000;stroke-width:5.46875;fill:none;" width="811.1979" x="72.9167" y="2171.8913"/><line style="stroke:#181818;stroke-width:1.8229166666666667;fill:none;stroke-dasharray:5.0,5.0;" x1="207.8125" x2="207.8125" y1="301.18" y2="2436.9548"/><line style="stroke:#181818;stroke-width:1.8229166666666667;fill:none;stroke-dasharray:5.0,5.0;" x1="767.4479" x2="767.4479" y1="301.18" y2="2436.9548"/><line style="stroke:#181818;stroke-width:1.8229166666666667;fill:none;stroke-dasharray:5.0,5.0;" x1="1336.1979" x2="1336.1979" y1="301.18" y2="2436.9548"/><line style="stroke:#181818;stroke-width:1.8229166666666667;fill:none;stroke-dasharray:5.0,5.0;" x1="1722.6563" x2="1722.6563" y1="301.18" y2="2436.9548"/><text fill="#000000" font-family="sans-serif" font-size="51.0417" lengthAdjust="spacing" textLength="178.6458" x="109.375" y="289.9648">AIAgent</text><ellipse cx="209.6354" cy="49.2188" fill="#E3E3E3" rx="29.1667" ry="29.1667" style="stroke:#181818;stroke-width:1.8229166666666667;"/><path d="M209.6354,78.3854 L209.6354,176.8229 M162.2396,107.5521 L257.0313,107.5521 M209.6354,176.8229 L162.2396,231.5104 M209.6354,176.8229 L257.0313,231.5104 " fill="none" style="stroke:#181818;stroke-width:1.8229166666666667;"/><text fill="#000000" font-family="sans-serif" font-size="51.0417" lengthAdjust="spacing" textLength="178.6458" x="109.375" y="2486.2946">AIAgent</text><ellipse cx="209.6354" cy="2528.4993" fill="#E3E3E3" rx="29.1667" ry="29.1667" style="stroke:#181818;stroke-width:1.8229166666666667;"/><path d="M209.6354,2557.666 L209.6354,2656.1035 M162.2396,2586.8327 L257.0313,2586.8327 M209.6354,2656.1035 L162.2396,2710.791 M209.6354,2656.1035 L257.0313,2710.791 " fill="none" style="stroke:#181818;stroke-width:1.8229166666666667;"/><text fill="#000000" font-family="sans-serif" font-size="51.0417" lengthAdjust="spacing" textLength="138.5417" x="687.2396" y="289.9648">Game</text><ellipse cx="767.4479" cy="178.6458" fill="#E3E3E3" rx="43.75" ry="43.75" style="stroke:#181818;stroke-width:1.8229166666666667;"/><line style="stroke:#181818;stroke-width:1.8229166666666667;" x1="723.6979" x2="811.1979" y1="229.6875" y2="229.6875"/><text fill="#000000" font-family="sans-serif" font-size="51.0417" lengthAdjust="spacing" textLength="138.5417" x="687.2396" y="2486.2946">Game</text><ellipse cx="767.4479" cy="2555.8431" fill="#E3E3E3" rx="43.75" ry="43.75" style="stroke:#181818;stroke-width:1.8229166666666667;"/><line style="stroke:#181818;stroke-width:1.8229166666666667;" x1="723.6979" x2="811.1979" y1="2606.8848" y2="2606.8848"/><path d="M1121.0938,200.5208 L1551.3021,200.5208 C1569.5313,200.5208 1569.5313,250.8504 1569.5313,250.8504 C1569.5313,250.8504 1569.5313,301.18 1551.3021,301.18 L1121.0938,301.18 C1102.8646,301.18 1102.8646,250.8504 1102.8646,250.8504 C1102.8646,250.8504 1102.8646,200.5208 1121.0938,200.5208 " fill="#E3E3E3" style="stroke:#181818;stroke-width:1.8229166666666667;"/><path d="M1551.3021,200.5208 C1533.0729,200.5208 1533.0729,250.8504 1533.0729,250.8504 C1533.0729,301.18 1551.3021,301.18 1551.3021,301.18 " fill="none" style="stroke:#181818;stroke-width:1.8229166666666667;"/><text fill="#000000" font-family="sans-serif" font-size="51.0417" lengthAdjust="spacing" textLength="393.75" x="1121.0938" y="271.7356">MovementQueue</text><path d="M1121.0938,2433.3089 L1551.3021,2433.3089 C1569.5313,2433.3089 1569.5313,2483.6385 1569.5313,2483.6385 C1569.5313,2483.6385 1569.5313,2533.9681 1551.3021,2533.9681 L1121.0938,2533.9681 C1102.8646,2533.9681 1102.8646,2483.6385 1102.8646,2483.6385 C1102.8646,2483.6385 1102.8646,2433.3089 1121.0938,2433.3089 " fill="#E3E3E3" style="stroke:#181818;stroke-width:1.8229166666666667;"/><path d="M1551.3021,2433.3089 C1533.0729,2433.3089 1533.0729,2483.6385 1533.0729,2483.6385 C1533.0729,2533.9681 1551.3021,2533.9681 1551.3021,2533.9681 " fill="none" style="stroke:#181818;stroke-width:1.8229166666666667;"/><text fill="#000000" font-family="sans-serif" font-size="51.0417" lengthAdjust="spacing" textLength="393.75" x="1121.0938" y="2504.5237">MovementQueue</text><text fill="#000000" font-family="sans-serif" font-size="51.0417" lengthAdjust="spacing" textLength="211.4583" x="1605.9896" y="289.9648">Inventory</text><path d="M1657.0313,105.7292 C1657.0313,69.2708 1722.6563,69.2708 1722.6563,69.2708 C1722.6563,69.2708 1788.2813,69.2708 1788.2813,105.7292 L1788.2813,200.5208 C1788.2813,236.9792 1722.6563,236.9792 1722.6563,236.9792 C1722.6563,236.9792 1657.0313,236.9792 1657.0313,200.5208 L1657.0313,105.7292 " fill="#E3E3E3" style="stroke:#181818;stroke-width:5.46875;"/><path d="M1657.0313,105.7292 C1657.0313,142.1875 1722.6563,142.1875 1722.6563,142.1875 C1722.6563,142.1875 1788.2813,142.1875 1788.2813,105.7292 " fill="none" style="stroke:#181818;stroke-width:5.46875;"/><text fill="#000000" font-family="sans-serif" font-size="51.0417" lengthAdjust="spacing" textLength="211.4583" x="1605.9896" y="2486.2946">Inventory</text><path d="M1657.0313,2533.9681 C1657.0313,2497.5098 1722.6563,2497.5098 1722.6563,2497.5098 C1722.6563,2497.5098 1788.2813,2497.5098 1788.2813,2533.9681 L1788.2813,2628.7598 C1788.2813,2665.2181 1722.6563,2665.2181 1722.6563,2665.2181 C1722.6563,2665.2181 1657.0313,2665.2181 1657.0313,2628.7598 L1657.0313,2533.9681 " fill="#E3E3E3" style="stroke:#181818;stroke-width:5.46875;"/><path d="M1657.0313,2533.9681 C1657.0313,2570.4264 1722.6563,2570.4264 1722.6563,2570.4264 C1722.6563,2570.4264 1788.2813,2570.4264 1788.2813,2533.9681 " fill="none" style="stroke:#181818;stroke-width:5.46875;"/><rect fill="#FFFFFF" height="1484.0535" style="stroke:#181818;stroke-width:3.6458333333333335;" width="36.4583" x="191.4063" y="920.0887"/><rect fill="#FFFFFF" height="1454.8869" style="stroke:#181818;stroke-width:3.6458333333333335;" width="36.4583" x="749.2188" y="920.0887"/><rect fill="#FFFFFF" height="110.6567" style="stroke:#181818;stroke-width:3.6458333333333335;" width="36.4583" x="1317.9688" y="1480.6641"/><rect fill="#FFFFFF" height="110.6567" style="stroke:#181818;stroke-width:3.6458333333333335;" width="36.4583" x="1704.4271" y="2006.547"/><path d="M36.4583,363.1592 L258.8542,363.1592 L258.8542,393.6076 L222.3958,430.0659 L36.4583,430.0659 L36.4583,363.1592 " fill="#EEEEEE" style="stroke:#000000;stroke-width:5.46875;"/><rect fill="none" height="2011.8164" style="stroke:#000000;stroke-width:5.46875;" width="1839.3229" x="36.4583" y="363.1592"/><text fill="#000000" font-family="sans-serif" font-size="47.3958" font-weight="bold" lengthAdjust="spacing" textLength="58.3333" x="91.1458" y="416.006">alt</text><text fill="#000000" font-family="sans-serif" font-size="40.1042" font-weight="bold" lengthAdjust="spacing" textLength="368.2292" x="313.5417" y="412.0824">[ifAgentInitialised]</text><polygon fill="#181818" points="723.6979,496.9727,760.1563,511.556,723.6979,526.1393,738.2813,511.556" style="stroke:#181818;stroke-width:3.6458333333333335;"/><line style="stroke:#181818;stroke-width:3.6458333333333335;" x1="209.6354" x2="745.5729" y1="511.556" y2="511.556"/><text fill="#000000" font-family="sans-serif" font-size="47.3958" lengthAdjust="spacing" textLength="222.3958" x="235.1563" y="493.8502">startGame</text><line style="stroke:#181818;stroke-width:3.6458333333333335;" x1="767.4479" x2="920.5729" y1="622.2127" y2="622.2127"/><line style="stroke:#181818;stroke-width:3.6458333333333335;" x1="920.5729" x2="920.5729" y1="622.2127" y2="669.6086"/><line style="stroke:#181818;stroke-width:3.6458333333333335;" x1="771.0938" x2="920.5729" y1="669.6086" y2="669.6086"/><polygon fill="#181818" points="807.5521,655.0252,771.0938,669.6086,807.5521,684.1919,792.9688,669.6086" style="stroke:#181818;stroke-width:3.6458333333333335;"/><text fill="#000000" font-family="sans-serif" font-size="47.3958" lengthAdjust="spacing" textLength="342.7083" x="792.9688" y="604.5069">generateChunks</text><polygon fill="#181818" points="249.7396,765.682,213.2813,780.2653,249.7396,794.8486,235.1563,780.2653" style="stroke:#181818;stroke-width:3.6458333333333335;"/><line style="stroke:#181818;stroke-width:3.6458333333333335;stroke-dasharray:2.0,2.0;" x1="227.8646" x2="763.8021" y1="780.2653" y2="780.2653"/><text fill="#000000" font-family="sans-serif" font-size="47.3958" lengthAdjust="spacing" textLength="302.6042" x="271.6146" y="762.5595">sendGameInfo</text><line style="stroke:#181818;stroke-width:3.6458333333333335;" x1="209.6354" x2="380.9896" y1="872.6929" y2="872.6929"/><line style="stroke:#181818;stroke-width:3.6458333333333335;" x1="380.9896" x2="380.9896" y1="872.6929" y2="920.0887"/><line style="stroke:#181818;stroke-width:3.6458333333333335;" x1="231.5104" x2="380.9896" y1="920.0887" y2="920.0887"/><polygon fill="#181818" points="267.9688,905.5054,231.5104,920.0887,267.9688,934.672,253.3854,920.0887" style="stroke:#181818;stroke-width:3.6458333333333335;"/><text fill="#000000" font-family="sans-serif" font-size="47.3958" lengthAdjust="spacing" textLength="492.1875" x="253.3854" y="854.9871">createGymEnvironment</text><path d="M72.9167,993.0054 L295.3125,993.0054 L295.3125,1023.4538 L258.8542,1059.9121 L72.9167,1059.9121 L72.9167,993.0054 " fill="#EEEEEE" style="stroke:#000000;stroke-width:5.46875;"/><rect fill="none" height="177.5635" style="stroke:#000000;stroke-width:5.46875;" width="811.1979" x="72.9167" y="993.0054"/><text fill="#000000" font-family="sans-serif" font-size="47.3958" font-weight="bold" lengthAdjust="spacing" textLength="58.3333" x="127.6042" y="1045.8522">alt</text><text fill="#000000" font-family="sans-serif" font-size="40.1042" font-weight="bold" lengthAdjust="spacing" textLength="419.2708" x="350" y="1041.9286">[ifRenderingEnabled]</text><polygon fill="#181818" points="267.9688,1126.8188,231.5104,1141.4022,267.9688,1155.9855,253.3854,1141.4022" style="stroke:#181818;stroke-width:3.6458333333333335;"/><line style="stroke:#181818;stroke-width:3.6458333333333335;stroke-dasharray:2.0,2.0;" x1="246.0938" x2="745.5729" y1="1141.4022" y2="1141.4022"/><text fill="#000000" font-family="sans-serif" font-size="47.3958" lengthAdjust="spacing" textLength="408.3333" x="289.8438" y="1123.6964">OpenGameWindow</text><path d="M72.9167,1221.6105 L295.3125,1221.6105 L295.3125,1252.0589 L258.8542,1288.5173 L72.9167,1288.5173 L72.9167,1221.6105 " fill="#EEEEEE" style="stroke:#000000;stroke-width:5.46875;"/><rect fill="none" height="509.5337" style="stroke:#000000;stroke-width:5.46875;" width="1533.0729" x="72.9167" y="1221.6105"/><text fill="#000000" font-family="sans-serif" font-size="47.3958" font-weight="bold" lengthAdjust="spacing" textLength="58.3333" x="127.6042" y="1274.4573">alt</text><text fill="#000000" font-family="sans-serif" font-size="40.1042" font-weight="bold" lengthAdjust="spacing" textLength="339.0625" x="350" y="1270.5338">[ifActionQueued]</text><polygon fill="#181818" points="705.4688,1355.424,741.9271,1370.0073,705.4688,1384.5907,720.0521,1370.0073" style="stroke:#181818;stroke-width:3.6458333333333335;"/><line style="stroke:#181818;stroke-width:3.6458333333333335;" x1="227.8646" x2="727.3438" y1="1370.0073" y2="1370.0073"/><text fill="#000000" font-family="sans-serif" font-size="47.3958" lengthAdjust="spacing" textLength="229.6875" x="253.3854" y="1352.3015">actionInput</text><polygon fill="#181818" points="1274.2188,1466.0807,1310.6771,1480.6641,1274.2188,1495.2474,1288.8021,1480.6641" style="stroke:#181818;stroke-width:3.6458333333333335;"/><line style="stroke:#181818;stroke-width:3.6458333333333335;" x1="785.6771" x2="1296.0938" y1="1480.6641" y2="1480.6641"/><text fill="#000000" font-family="sans-serif" font-size="47.3958" lengthAdjust="spacing" textLength="211.4583" x="811.1979" y="1462.9583">sendKeys</text><polygon fill="#181818" points="825.7813,1576.7375,789.3229,1591.3208,825.7813,1605.9041,811.1979,1591.3208" style="stroke:#181818;stroke-width:3.6458333333333335;"/><line style="stroke:#181818;stroke-width:3.6458333333333335;stroke-dasharray:2.0,2.0;" x1="803.9063" x2="1332.5521" y1="1591.3208" y2="1591.3208"/><text fill="#000000" font-family="sans-serif" font-size="47.3958" lengthAdjust="spacing" textLength="444.7917" x="847.6563" y="1573.615">sendNewCoordinates</text><polygon fill="#181818" points="267.9688,1687.3942,231.5104,1701.9775,267.9688,1716.5609,253.3854,1701.9775" style="stroke:#181818;stroke-width:3.6458333333333335;"/><line style="stroke:#181818;stroke-width:3.6458333333333335;stroke-dasharray:2.0,2.0;" x1="246.0938" x2="745.5729" y1="1701.9775" y2="1701.9775"/><text fill="#000000" font-family="sans-serif" font-size="47.3958" lengthAdjust="spacing" textLength="433.8542" x="289.8438" y="1684.2717">sendNewGameState</text><line style="stroke:#000000;stroke-width:3.6458333333333335;stroke-dasharray:2.0,2.0;" x1="36.4583" x2="1875.7813" y1="1760.3109" y2="1760.3109"/><text fill="#000000" font-family="sans-serif" font-size="40.1042" font-weight="bold" lengthAdjust="spacing" textLength="397.3958" x="54.6875" y="1801.9424">[ifAgentCompleted]</text><polygon fill="#181818" points="705.4688,1881.307,741.9271,1895.8903,705.4688,1910.4736,720.0521,1895.8903" style="stroke:#181818;stroke-width:3.6458333333333335;"/><line style="stroke:#181818;stroke-width:3.6458333333333335;" x1="227.8646" x2="727.3438" y1="1895.8903" y2="1895.8903"/><text fill="#000000" font-family="sans-serif" font-size="47.3958" lengthAdjust="spacing" textLength="204.1667" x="253.3854" y="1878.1845">exitGame</text><polygon fill="#181818" points="1660.6771,1991.9637,1697.1354,2006.547,1660.6771,2021.1304,1675.2604,2006.547" style="stroke:#181818;stroke-width:3.6458333333333335;"/><line style="stroke:#181818;stroke-width:3.6458333333333335;" x1="785.6771" x2="1682.5521" y1="2006.547" y2="2006.547"/><text fill="#000000" font-family="sans-serif" font-size="47.3958" lengthAdjust="spacing" textLength="218.75" x="811.1979" y="1988.8412">clearItems</text><polygon fill="#181818" points="825.7813,2102.6204,789.3229,2117.2038,825.7813,2131.7871,811.1979,2117.2038" style="stroke:#181818;stroke-width:3.6458333333333335;"/><line style="stroke:#181818;stroke-width:3.6458333333333335;stroke-dasharray:2.0,2.0;" x1="803.9063" x2="1719.0104" y1="2117.2038" y2="2117.2038"/><text fill="#000000" font-family="sans-serif" font-size="47.3958" lengthAdjust="spacing" textLength="277.0833" x="847.6563" y="2099.498">itemsCleared</text><path d="M72.9167,2171.8913 L295.3125,2171.8913 L295.3125,2202.3397 L258.8542,2238.798 L72.9167,2238.798 L72.9167,2171.8913 " fill="#EEEEEE" style="stroke:#000000;stroke-width:5.46875;"/><rect fill="none" height="177.5635" style="stroke:#000000;stroke-width:5.46875;" width="811.1979" x="72.9167" y="2171.8913"/><text fill="#000000" font-family="sans-serif" font-size="47.3958" font-weight="bold" lengthAdjust="spacing" textLength="58.3333" x="127.6042" y="2224.7381">alt</text><text fill="#000000" font-family="sans-serif" font-size="40.1042" font-weight="bold" lengthAdjust="spacing" textLength="419.2708" x="350" y="2220.8145">[ifRenderingEnabled]</text><polygon fill="#181818" points="267.9688,2305.7048,231.5104,2320.2881,267.9688,2334.8714,253.3854,2320.2881" style="stroke:#181818;stroke-width:3.6458333333333335;"/><line style="stroke:#181818;stroke-width:3.6458333333333335;stroke-dasharray:2.0,2.0;" x1="246.0938" x2="745.5729" y1="2320.2881" y2="2320.2881"/><text fill="#000000" font-family="sans-serif" font-size="47.3958" lengthAdjust="spacing" textLength="408.3333" x="289.8438" y="2302.5823">closeGameWindow</text><!--MD5=[4a5aa5111c01986260d52d0f1aa0ecb6]
@startuml sequence
skinparam Dpi 350
skinparam Monochrome true
skinparam Shadowing false

actor AIAgent
entity Game
queue MovementQueue
Database Inventory


alt ifAgentInitialised
    AIAgent -> Game : startGame
    Game -> Game : generateChunks
    Game - -> AIAgent : sendGameInfo
    AIAgent -> AIAgent : createGymEnvironment
    activate Game
    activate AIAgent

    alt ifRenderingEnabled        
        Game - -> AIAgent : OpenGameWindow
    end

    alt ifActionQueued
        AIAgent -> Game : actionInput
        Game -> MovementQueue : sendKeys
        activate MovementQueue
        MovementQueue - -> Game : sendNewCoordinates
        deactivate MovementQueue
    Game - -> AIAgent : sendNewGameState
    end

else ifAgentCompleted
    AIAgent -> Game : exitGame
    Game -> Inventory : clearItems
    activate Inventory
    Inventory - -> Game : itemsCleared
    deactivate Inventory
    alt ifRenderingEnabled        
        Game - -> AIAgent : closeGameWindow
    end
    deactivate Game
    activate AIAgent
end



@enduml

PlantUML version 1.2022.5(Sat Apr 30 12:55:52 SAST 2022)
(GPL source distribution)
Java Runtime: Java(TM) SE Runtime Environment
JVM: Java HotSpot(TM) 64-Bit Server VM
Default Encoding: Cp1252
Language: en
Country: ZA
--></g></svg>