<?xml version="1.0" encoding="UTF-8" standalone="no"?><svg xmlns="http://www.w3.org/2000/svg" xmlns:xlink="http://www.w3.org/1999/xlink" contentStyleType="text/css" height="1728.125px" preserveAspectRatio="none" style="width:3551px;height:1728px;background:#FFFFFF;" version="1.1" viewBox="0 0 3551 1728" width="3551.0417px" zoomAndPan="magnify"><defs/><g><!--MD5=[6a33347a64bc0dd3f461407c5dd77522]
cluster ClientDevice--><g id="cluster_ClientDevice"><polygon points="58.3333,58.3333,94.7917,21.875,3489.0625,21.875,3489.0625,1629.6875,3452.6042,1666.1458,58.3333,1666.1458,58.3333,58.3333" style="stroke:#181818;stroke-width:3.6458333333333335;fill:none;"/><line style="stroke:#181818;stroke-width:3.6458333333333335;fill:none;" x1="3452.6042" x2="3489.0625" y1="58.3333" y2="21.875"/><line style="stroke:#181818;stroke-width:3.6458333333333335;fill:none;" x1="58.3333" x2="3452.6042" y1="58.3333" y2="58.3333"/><line style="stroke:#181818;stroke-width:3.6458333333333335;fill:none;" x1="3452.6042" x2="3452.6042" y1="58.3333" y2="1666.1458"/><text fill="#000000" font-family="sans-serif" font-size="51.0417" font-weight="bold" lengthAdjust="spacing" textLength="291.6667" x="1613.2813" y="122.2565">&lt;&lt;device&gt;&gt;</text><text fill="#000000" font-family="sans-serif" font-size="51.0417" font-weight="bold" lengthAdjust="spacing" textLength="328.125" x="1595.0521" y="186.4573">ClientDevice</text></g><!--MD5=[d4854912b7e46cb60cbc8593abcbe5fc]
cluster Python--><g id="cluster_Python"><polygon points="1425.5208,302.6042,1461.9792,266.1458,2402.6042,266.1458,2402.6042,1144.7917,2366.1458,1181.25,1425.5208,1181.25,1425.5208,302.6042" style="stroke:#181818;stroke-width:3.6458333333333335;fill:none;"/><line style="stroke:#181818;stroke-width:3.6458333333333335;fill:none;" x1="2366.1458" x2="2402.6042" y1="302.6042" y2="266.1458"/><line style="stroke:#181818;stroke-width:3.6458333333333335;fill:none;" x1="1425.5208" x2="2366.1458" y1="302.6042" y2="302.6042"/><line style="stroke:#181818;stroke-width:3.6458333333333335;fill:none;" x1="2366.1458" x2="2366.1458" y1="302.6042" y2="1181.25"/><text fill="#000000" font-family="sans-serif" font-size="51.0417" font-weight="bold" lengthAdjust="spacing" textLength="700" x="1549.4792" y="366.5273">&lt;&lt;executionEnvironment&gt;&gt;</text><text fill="#000000" font-family="sans-serif" font-size="51.0417" font-weight="bold" lengthAdjust="spacing" textLength="175" x="1811.9792" y="430.7281">Python</text></g><!--MD5=[39ee33ff44b833d994e60f90449379d0]
entity GameClient--><g id="elem_GameClient"><rect fill="#F1F1F1" height="212.2559" rx="9.1146" ry="9.1146" style="stroke:#181818;stroke-width:1.8229166666666667;" width="379.1667" x="1724.4792" y="911.4583"/><polygon fill="#F1F1F1" points="2041.6667,929.6875,2041.6667,980.7292,2085.4167,980.7292,2085.4167,951.5625,2063.5417,929.6875,2041.6667,929.6875" style="stroke:#181818;stroke-width:1.8229166666666667;"/><line style="stroke:#181818;stroke-width:1.8229166666666667;" x1="2063.5417" x2="2063.5417" y1="929.6875" y2="951.5625"/><line style="stroke:#181818;stroke-width:1.8229166666666667;" x1="2085.4167" x2="2063.5417" y1="951.5625" y2="951.5625"/><text fill="#000000" font-family="sans-serif" font-size="51.0417" lengthAdjust="spacing" textLength="218.75" x="1760.9375" y="1011.8398">«Artifact»</text><text fill="#000000" font-family="sans-serif" font-size="51.0417" lengthAdjust="spacing" textLength="269.7917" x="1760.9375" y="1076.0406">GameClient</text></g><!--MD5=[4abdaffb5e93f6857846e535ae7d2d1c]
entity AIAgentInterface--><g id="elem_AIAgentInterface"><rect fill="#F1F1F1" height="212.2559" rx="9.1146" ry="9.1146" style="stroke:#181818;stroke-width:1.8229166666666667;" width="488.5417" x="1669.7917" y="481.25"/><polygon fill="#F1F1F1" points="2096.3542,499.4792,2096.3542,550.5208,2140.1042,550.5208,2140.1042,521.3542,2118.2292,499.4792,2096.3542,499.4792" style="stroke:#181818;stroke-width:1.8229166666666667;"/><line style="stroke:#181818;stroke-width:1.8229166666666667;" x1="2118.2292" x2="2118.2292" y1="499.4792" y2="521.3542"/><line style="stroke:#181818;stroke-width:1.8229166666666667;" x1="2140.1042" x2="2118.2292" y1="521.3542" y2="521.3542"/><text fill="#000000" font-family="sans-serif" font-size="51.0417" lengthAdjust="spacing" textLength="218.75" x="1706.25" y="581.6315">«Artifact»</text><text fill="#000000" font-family="sans-serif" font-size="51.0417" lengthAdjust="spacing" textLength="379.1667" x="1706.25" y="645.8323">AIAgentInterface</text></g><!--MD5=[8a5e5f3f9387c7ae1637cc73e96781e5]
entity InventoryDatabase--><g id="elem_InventoryDatabase"><path d="M118.4896,1394.5313 C118.4896,1358.0729 371.875,1358.0729 371.875,1358.0729 C371.875,1358.0729 625.2604,1358.0729 625.2604,1394.5313 L625.2604,1555.7454 C625.2604,1592.2038 371.875,1592.2038 371.875,1592.2038 C371.875,1592.2038 118.4896,1592.2038 118.4896,1555.7454 L118.4896,1394.5313 " fill="#F1F1F1" style="stroke:#181818;stroke-width:1.8229166666666667;"/><path d="M118.4896,1394.5313 C118.4896,1430.9896 371.875,1430.9896 371.875,1430.9896 C371.875,1430.9896 625.2604,1430.9896 625.2604,1394.5313 " fill="none" style="stroke:#181818;stroke-width:1.8229166666666667;"/><text fill="#000000" font-family="sans-serif" font-size="51.0417" lengthAdjust="spacing" textLength="218.75" x="154.9479" y="1498.5586">«Artifact»</text><text fill="#000000" font-family="sans-serif" font-size="51.0417" lengthAdjust="spacing" textLength="433.8542" x="154.9479" y="1562.7594">InventoryDatabase</text></g><!--MD5=[329d0890900e3ebe95a51e70978fab58]
entity WorldFile--><g id="elem_WorldFile"><path d="M752.8646,1383.5938 L752.8646,1566.6829 A9.1146,9.1146 0 0 0 761.9792,1575.7975 L1228.6458,1575.7975 A9.1146,9.1146 0 0 0 1237.7604,1566.6829 L1237.7604,1410.9375 L1201.3021,1374.4792 L761.9792,1374.4792 A9.1146,9.1146 0 0 0 752.8646,1383.5938 " fill="#F1F1F1" style="stroke:#181818;stroke-width:1.8229166666666667;"/><path d="M1201.3021,1374.4792 L1201.3021,1401.8229 A9.1146,9.1146 0 0 0 1210.4167,1410.9375 L1237.7604,1410.9375 " fill="#F1F1F1" style="stroke:#181818;stroke-width:1.8229166666666667;"/><text fill="#000000" font-family="sans-serif" font-size="51.0417" lengthAdjust="spacing" textLength="142.1875" x="789.3229" y="1463.9231">«File»</text><text fill="#000000" font-family="sans-serif" font-size="51.0417" lengthAdjust="spacing" textLength="411.9792" x="789.3229" y="1528.124">WorldFallbackFile</text></g><!--MD5=[1c43cd4e6ca67a19fa2864b475308aa0]
entity GameItems--><g id="elem_GameItems"><path d="M1365.3646,1383.5938 L1365.3646,1566.6829 A9.1146,9.1146 0 0 0 1374.4792,1575.7975 L1899.4792,1575.7975 A9.1146,9.1146 0 0 0 1908.5938,1566.6829 L1908.5938,1410.9375 L1872.1354,1374.4792 L1374.4792,1374.4792 A9.1146,9.1146 0 0 0 1365.3646,1383.5938 " fill="#F1F1F1" style="stroke:#181818;stroke-width:1.8229166666666667;"/><path d="M1872.1354,1374.4792 L1872.1354,1401.8229 A9.1146,9.1146 0 0 0 1881.25,1410.9375 L1908.5938,1410.9375 " fill="#F1F1F1" style="stroke:#181818;stroke-width:1.8229166666666667;"/><text fill="#000000" font-family="sans-serif" font-size="51.0417" lengthAdjust="spacing" textLength="142.1875" x="1401.8229" y="1463.9231">«File»</text><text fill="#000000" font-family="sans-serif" font-size="51.0417" lengthAdjust="spacing" textLength="470.3125" x="1401.8229" y="1528.124">GameItemProperties</text></g><!--MD5=[215a931f0b97e23ccf8389c78cad034b]
entity Textures--><g id="elem_Textures"><path d="M2045.3125,1341.6667 L2194.7917,1341.6667 A13.6719,13.6719 0 0 1 2203.9063,1350.7813 L2229.4271,1418.2292 L2344.2708,1418.2292 A9.1146,9.1146 0 0 1 2353.3854,1427.3438 L2353.3854,1599.4954 A9.1146,9.1146 0 0 1 2344.2708,1608.61 L2045.3125,1608.61 A9.1146,9.1146 0 0 1 2036.1979,1599.4954 L2036.1979,1350.7813 A9.1146,9.1146 0 0 1 2045.3125,1341.6667 " fill="#F1F1F1" style="stroke:#181818;stroke-width:1.8229166666666667;"/><line style="stroke:#181818;stroke-width:1.8229166666666667;" x1="2036.1979" x2="2229.4271" y1="1418.2292" y2="1418.2292"/><text fill="#000000" font-family="sans-serif" font-size="51.0417" lengthAdjust="spacing" textLength="207.8125" x="2072.6563" y="1496.7356">«Folder»</text><text fill="#000000" font-family="sans-serif" font-size="51.0417" lengthAdjust="spacing" textLength="200.5208" x="2072.6563" y="1560.9365">Textures</text></g><!--MD5=[824ba275c127a22aff89979fc2919c6a]
entity Sounds--><g id="elem_Sounds"><path d="M2490.1042,1341.6667 L2639.5833,1341.6667 A13.6719,13.6719 0 0 1 2648.6979,1350.7813 L2674.2188,1418.2292 L2789.0625,1418.2292 A9.1146,9.1146 0 0 1 2798.1771,1427.3438 L2798.1771,1599.4954 A9.1146,9.1146 0 0 1 2789.0625,1608.61 L2490.1042,1608.61 A9.1146,9.1146 0 0 1 2480.9896,1599.4954 L2480.9896,1350.7813 A9.1146,9.1146 0 0 1 2490.1042,1341.6667 " fill="#F1F1F1" style="stroke:#181818;stroke-width:1.8229166666666667;"/><line style="stroke:#181818;stroke-width:1.8229166666666667;" x1="2480.9896" x2="2674.2188" y1="1418.2292" y2="1418.2292"/><text fill="#000000" font-family="sans-serif" font-size="51.0417" lengthAdjust="spacing" textLength="207.8125" x="2517.4479" y="1496.7356">«Folder»</text><text fill="#000000" font-family="sans-serif" font-size="51.0417" lengthAdjust="spacing" textLength="175" x="2517.4479" y="1560.9365">Sounds</text></g><!--MD5=[06b90846536c5a9a2f26039604065561]
entity GymEnvironment--><g id="elem_GymEnvironment"><path d="M2936.7188,1341.6667 L3086.1979,1341.6667 A13.6719,13.6719 0 0 1 3095.3125,1350.7813 L3120.8333,1418.2292 L3421.6146,1418.2292 A9.1146,9.1146 0 0 1 3430.7292,1427.3438 L3430.7292,1599.4954 A9.1146,9.1146 0 0 1 3421.6146,1608.61 L2936.7188,1608.61 A9.1146,9.1146 0 0 1 2927.6042,1599.4954 L2927.6042,1350.7813 A9.1146,9.1146 0 0 1 2936.7188,1341.6667 " fill="#F1F1F1" style="stroke:#181818;stroke-width:1.8229166666666667;"/><line style="stroke:#181818;stroke-width:1.8229166666666667;" x1="2927.6042" x2="3120.8333" y1="1418.2292" y2="1418.2292"/><text fill="#000000" font-family="sans-serif" font-size="51.0417" lengthAdjust="spacing" textLength="207.8125" x="2964.0625" y="1496.7356">«Folder»</text><text fill="#000000" font-family="sans-serif" font-size="51.0417" lengthAdjust="spacing" textLength="393.75" x="2964.0625" y="1560.9365">GymEnvironment</text></g><!--MD5=[0934f33c46e4589cfee30c1a046ea0d4]
link GameClient to InventoryDatabase--><g id="link_GameClient_InventoryDatabase"><path d="M1723.9688,1062.4323 C1481.1927,1117.4479 1049.3438,1221.5729 689.0625,1341.6667 C668.1719,1348.6302 646.7344,1356.2865 625.2604,1364.2708 " fill="none" id="GameClient-InventoryDatabase" style="stroke:#181818;stroke-width:3.6458333333333335;"/></g><!--MD5=[d8e71cdf0435b5754ea6a313abde5e62]
link GameClient to WorldFile--><g id="link_GameClient_WorldFile"><path d="M1723.7135,1114.1302 C1568.6563,1190.1094 1350.4531,1297.0417 1193.3542,1374.0417 " fill="none" id="GameClient-WorldFile" style="stroke:#181818;stroke-width:3.6458333333333335;"/></g><!--MD5=[46ea96fcbd35739d352e5cbb1b4f9e37]
link GameClient to Textures--><g id="link_GameClient_Textures"><path d="M1977.7552,1122.9896 C2017.8958,1187.3385 2070.0677,1271.0469 2113.1979,1340.2083 " fill="none" id="GameClient-Textures" style="stroke:#181818;stroke-width:3.6458333333333335;"/></g><!--MD5=[afedeae96da74a6931ecbbd47b180fdb]
link GameClient to Sounds--><g id="link_GameClient_Sounds"><path d="M2078.7083,1122.9896 C2199.0938,1197.7292 2361.5156,1298.5365 2480.5885,1372.4375 " fill="none" id="GameClient-Sounds" style="stroke:#181818;stroke-width:3.6458333333333335;"/></g><!--MD5=[8c0684cb9cd1f71e88ffa6173f6c1da5]
link GameClient to GymEnvironment--><g id="link_GameClient_GymEnvironment"><path d="M2104.1198,1081.3906 C2296.3646,1143.5156 2601.5208,1244.5417 2861.9792,1341.6667 C2883.1615,1349.5781 2905.0365,1357.9635 2926.9479,1366.5677 " fill="none" id="GameClient-GymEnvironment" style="stroke:#181818;stroke-width:3.6458333333333335;"/></g><!--MD5=[b0c872a960380ff97ef31336c9ea7e30]
link GameClient to GameItems--><g id="link_GameClient_GameItems"><path d="M1851.1719,1122.9896 C1804.8698,1198.2396 1742.3073,1299.9219 1696.7708,1373.9688 " fill="none" id="GameClient-GameItems" style="stroke:#181818;stroke-width:3.6458333333333335;"/></g><!--MD5=[4d7be97f8b8af0d8e7a1a9c05d02805a]
link AIAgentInterface to GameClient--><g id="link_AIAgentInterface_GameClient"><path d="M1914.0625,693 C1914.0625,758.9896 1914.0625,844.5208 1914.0625,910.6562 " fill="none" id="AIAgentInterface-GameClient" style="stroke:#181818;stroke-width:3.6458333333333335;"/></g><!--MD5=[8a1a87dcc44b0bed9ca180190ee04ddb]
@startuml deployment
skinparam Dpi 350
skinparam Monochrome true
skinparam Shadowing false

node <<device>>\nClientDevice as ClientDevice  { 
node <<executionEnvironment>>\nPython as Python {
    artifact <<Artifact>>\nGameClient as GameClient{

    }
    artifact <<Artifact>>\nAIAgentInterface as AIAgentInterface{

    }
}
database <<Artifact>>\nInventoryDatabase as InventoryDatabase {
    
}

file <<File>>\nWorldFallbackFile as WorldFile{

}

file <<File>>\nGameItemProperties as GameItems {
    
}
folder <<Folder>>\nTextures as Textures {

}
folder <<Folder>>\nSounds as Sounds {

}
folder <<Folder>>\nGymEnvironment as GymEnvironment {

}
}
GameClient - - InventoryDatabase
GameClient - - WorldFile
GameClient - - Textures
GameClient - - Sounds
GameClient - - GymEnvironment
GameClient - - GameItems
AIAgentInterface - - GameClient
@enduml

PlantUML version 1.2022.5(Sat Apr 30 12:55:52 SAST 2022)
(GPL source distribution)
Java Runtime: Java(TM) SE Runtime Environment
JVM: Java HotSpot(TM) 64-Bit Server VM
Default Encoding: Cp1252
Language: en
Country: ZA
--></g></svg>