<?xml version="1.0" encoding="UTF-8" standalone="no"?><svg xmlns="http://www.w3.org/2000/svg" xmlns:xlink="http://www.w3.org/1999/xlink" contentStyleType="text/css" height="1320px" preserveAspectRatio="none" style="width:490px;height:1320px;background:#FFFFFF;" version="1.1" viewBox="0 0 490 1320" width="490px" zoomAndPan="magnify"><defs/><g><!--MD5=[92b2cba018a37188be25ef10feb2cb3b]
cluster 2DMinecraft--><g id="cluster_2DMinecraft"><rect height="1309.1667" rx="2.0833" ry="2.0833" style="stroke:#181818;stroke-width:0.8333333333333334;fill:none;" width="308.3333" x="106.6667" y="5.8333"/><text fill="#000000" font-family="sans-serif" font-size="11.6667" font-weight="bold" lengthAdjust="spacing" textLength="70.8333" x="225.4167" y="19.611">2DMinecraft</text></g><g id="elem_Generate World from Seed"><ellipse cx="260.9078" cy="55.1816" fill="#F1F1F1" rx="86.7412" ry="19.3482" style="stroke:#181818;stroke-width:0.4166666666666667;"/><text fill="#000000" font-family="sans-serif" font-size="11.6667" lengthAdjust="spacing" textLength="141.6667" x="190.0745" y="58.2887">Generate World from Seed</text></g><g id="elem_Apply textures to differentiate blocks &amp; resources"><ellipse cx="260.7883" cy="133.491" fill="#F1F1F1" rx="140.7883" ry="30.1577" style="stroke:#181818;stroke-width:0.4166666666666667;"/><text fill="#000000" font-family="sans-serif" font-size="11.6667" lengthAdjust="spacing" textLength="256.6667" x="132.455" y="136.5981">Apply textures to differentiate blocks &amp; resources</text></g><g id="elem_Change Rendering Mode"><ellipse cx="260.9735" cy="211.028" fill="#F1F1F1" rx="82.6401" ry="18.528" style="stroke:#181818;stroke-width:0.4166666666666667;"/><text fill="#000000" font-family="sans-serif" font-size="11.6667" lengthAdjust="spacing" textLength="132.5" x="194.7235" y="214.1351">Change Rendering Mode</text></g><g id="elem_Start Game"><ellipse cx="260.9368" cy="271.7535" fill="#F1F1F1" rx="52.6035" ry="13.0035" style="stroke:#181818;stroke-width:0.4166666666666667;"/><text fill="#000000" font-family="sans-serif" font-size="11.6667" lengthAdjust="spacing" textLength="60" x="228.4368" y="275.5173">Start Game</text></g><g id="elem_View Information"><ellipse cx="260.9168" cy="328.35" fill="#F1F1F1" rx="63.0001" ry="14.6" style="stroke:#181818;stroke-width:0.4166666666666667;"/><text fill="#000000" font-family="sans-serif" font-size="11.6667" lengthAdjust="spacing" textLength="85.8333" x="215.5001" y="332.1139">View Information</text></g><g id="elem_Pause Game"><ellipse cx="260.9072" cy="385.8481" fill="#F1F1F1" rx="56.7405" ry="13.3481" style="stroke:#181818;stroke-width:0.4166666666666667;"/><text fill="#000000" font-family="sans-serif" font-size="11.6667" lengthAdjust="spacing" textLength="68.3333" x="224.2405" y="389.6119">Pause Game</text></g><g id="elem_Exit Game"><ellipse cx="261.011" cy="441.7178" fill="#F1F1F1" rx="47.6776" ry="12.9678" style="stroke:#181818;stroke-width:0.4166666666666667;"/><text fill="#000000" font-family="sans-serif" font-size="11.6667" lengthAdjust="spacing" textLength="53.3333" x="231.8443" y="445.4816">Exit Game</text></g><g id="elem_Game control with keyboard &amp; mouse"><ellipse cx="260.9265" cy="508.5186" fill="#F1F1F1" rx="111.7599" ry="24.352" style="stroke:#181818;stroke-width:0.4166666666666667;"/><text fill="#000000" font-family="sans-serif" font-size="11.6667" lengthAdjust="spacing" textLength="195.8333" x="163.0099" y="511.6257">Game control with keyboard &amp; mouse</text></g><g id="elem_Move around game world"><ellipse cx="260.9735" cy="580.1947" fill="#F1F1F1" rx="82.6401" ry="18.528" style="stroke:#181818;stroke-width:0.4166666666666667;"/><text fill="#000000" font-family="sans-serif" font-size="11.6667" lengthAdjust="spacing" textLength="132.5" x="194.7235" y="583.3018">Move around game world</text></g><g id="elem_Break blocks using appropriate tools"><ellipse cx="260.6331" cy="651.46" fill="#F1F1F1" rx="109.7998" ry="23.96" style="stroke:#181818;stroke-width:0.4166666666666667;"/><text fill="#000000" font-family="sans-serif" font-size="11.6667" lengthAdjust="spacing" textLength="191.6667" x="164.7998" y="654.567">Break blocks using appropriate tools</text></g><g id="elem_Use hotbar to see items in use"><ellipse cx="260.9466" cy="725.9393" fill="#F1F1F1" rx="94.6966" ry="20.9393" style="stroke:#181818;stroke-width:0.4166666666666667;"/><text fill="#000000" font-family="sans-serif" font-size="11.6667" lengthAdjust="spacing" textLength="159.1667" x="181.3633" y="729.0464">Use hotbar to see items in use</text></g><g id="elem_Use full inventory to see items collected"><ellipse cx="260.6265" cy="801.6253" fill="#F1F1F1" rx="116.8765" ry="25.3753" style="stroke:#181818;stroke-width:0.4166666666666667;"/><text fill="#000000" font-family="sans-serif" font-size="11.6667" lengthAdjust="spacing" textLength="206.6667" x="157.2932" y="804.7324">Use full inventory to see items collected</text></g><g id="elem_Edit hotbar and inventory"><ellipse cx="260.9735" cy="875.1947" fill="#F1F1F1" rx="82.6401" ry="18.528" style="stroke:#181818;stroke-width:0.4166666666666667;"/><text fill="#000000" font-family="sans-serif" font-size="11.6667" lengthAdjust="spacing" textLength="132.5" x="194.7235" y="878.3018">Edit hotbar and inventory</text></g><g id="elem_Place blocks in the world"><ellipse cx="260.7454" cy="940.7324" fill="#F1F1F1" rx="81.162" ry="18.2324" style="stroke:#181818;stroke-width:0.4166666666666667;"/><text fill="#000000" font-family="sans-serif" font-size="11.6667" lengthAdjust="spacing" textLength="129.1667" x="196.162" y="943.8395">Place blocks in the world</text></g><g id="elem_Craft new items, blocks &amp; tools"><ellipse cx="260.9124" cy="1009.3491" fill="#F1F1F1" rx="95.079" ry="21.0158" style="stroke:#181818;stroke-width:0.4166666666666667;"/><text fill="#000000" font-family="sans-serif" font-size="11.6667" lengthAdjust="spacing" textLength="160" x="180.9124" y="1012.4562">Craft new items, blocks &amp; tools</text></g><g id="elem_Achieve end item - Complete game"><ellipse cx="260.894" cy="1082.3455" fill="#F1F1F1" rx="105.894" ry="23.1788" style="stroke:#181818;stroke-width:0.4166666666666667;"/><text fill="#000000" font-family="sans-serif" font-size="11.6667" lengthAdjust="spacing" textLength="183.3333" x="169.2273" y="1085.4526">Achieve end item - Complete game</text></g><g id="elem_Listen to interactive audio"><ellipse cx="260.8368" cy="1154.1674" fill="#F1F1F1" rx="83.7535" ry="18.7507" style="stroke:#181818;stroke-width:0.4166666666666667;"/><text fill="#000000" font-family="sans-serif" font-size="11.6667" lengthAdjust="spacing" textLength="135" x="193.3368" y="1157.2745">Listen to interactive audio</text></g><g id="elem_Create Minecraft Environment"><ellipse cx="260.6345" cy="1223.2102" fill="#F1F1F1" rx="93.5512" ry="20.7102" style="stroke:#181818;stroke-width:0.4166666666666667;"/><text fill="#000000" font-family="sans-serif" font-size="11.6667" lengthAdjust="spacing" textLength="156.6667" x="182.3012" y="1226.3173">Create Minecraft Environment</text></g><g id="elem_Execute Moves"><ellipse cx="260.9563" cy="1287.4413" fill="#F1F1F1" rx="60.5396" ry="14.1079" style="stroke:#181818;stroke-width:0.4166666666666667;"/><text fill="#000000" font-family="sans-serif" font-size="11.6667" lengthAdjust="spacing" textLength="79.1667" x="218.873" y="1291.2051">Execute Moves</text></g><!--MD5=[fee662a292a0353a69bd162820bae93b]
entity User--><g id="elem_User"><ellipse cx="37.5" cy="626.25" fill="#F1F1F1" rx="6.6667" ry="6.6667" style="stroke:#181818;stroke-width:0.4166666666666667;"/><path d="M37.5,632.9167 L37.5,655.4167 M26.6667,639.5833 L48.3333,639.5833 M37.5,655.4167 L26.6667,667.9167 M37.5,655.4167 L48.3333,667.9167 " fill="none" style="stroke:#181818;stroke-width:0.4166666666666667;"/><text fill="#000000" font-family="sans-serif" font-size="11.6667" lengthAdjust="spacing" textLength="24.1667" x="25.4167" y="681.2777">User</text></g><!--MD5=[9b8d6aa48f6a6e8b17fbf367b9621a4e]
entity AIGymAgent--><g id="elem_AIGymAgent"><ellipse cx="37.5" cy="1229.5833" fill="#F1F1F1" rx="6.6667" ry="6.6667" style="stroke:#181818;stroke-width:0.4166666666666667;"/><path d="M37.5,1236.25 L37.5,1258.75 M26.6667,1242.9167 L48.3333,1242.9167 M37.5,1258.75 L26.6667,1271.25 M37.5,1258.75 L48.3333,1271.25 " fill="none" style="stroke:#181818;stroke-width:0.4166666666666667;"/><text fill="#000000" font-family="sans-serif" font-size="11.6667" lengthAdjust="spacing" textLength="65" x="5" y="1284.611">AIGymAgent</text></g><!--MD5=[97ab183161fd5d1db7fba7485cf76add]
entity Admin--><g id="elem_Admin"><ellipse cx="467.9167" cy="147.0833" fill="#F1F1F1" rx="6.6667" ry="6.6667" style="stroke:#181818;stroke-width:0.4166666666666667;"/><path d="M467.9167,153.75 L467.9167,176.25 M457.0833,160.4167 L478.75,160.4167 M467.9167,176.25 L457.0833,188.75 M467.9167,176.25 L478.75,188.75 " fill="none" style="stroke:#181818;stroke-width:0.4166666666666667;"/><text fill="#000000" font-family="sans-serif" font-size="11.6667" lengthAdjust="spacing" textLength="32.5" x="451.6667" y="202.111">Admin</text></g><!--MD5=[27c9598c591946defdcb694a413d9b97]
link User to Generate World from Seed--><g id="link_User_Generate World from Seed"><path d="M39.7083,618.7833 C44.8,504.275 64.1583,127.8 100,88.3333 C117.8333,68.6917 143.9833,58.95 169.9917,54.5 " fill="none" id="User-to-Generate World from Seed" style="stroke:#181818;stroke-width:0.8333333333333334;"/><polygon fill="#181818" points="174.1667,53.8333,166.2364,51.7187,170.0517,54.4875,167.283,58.3027,174.1667,53.8333" style="stroke:#181818;stroke-width:0.8333333333333334;"/></g><!--MD5=[f0f240a93d97cac5c12a27ef60c141ba]
reverse link Apply textures to differentiate blocks & resources to Admin--><g id="link_Apply textures to differentiate blocks &amp; resources_Admin"><path d="M370.5,154.0833 C402.5083,160.1917 433.725,166.1417 451.65,169.5583 " fill="none" id="Apply textures to differentiate blocks &amp; resources-backto-Admin" style="stroke:#181818;stroke-width:0.8333333333333334;"/><polygon fill="#181818" points="366.1833,153.2583,372.9209,157.9451,370.2754,154.0434,374.1771,151.3979,366.1833,153.2583" style="stroke:#181818;stroke-width:0.8333333333333334;"/></g><!--MD5=[e425f05c666a9c3721d5d3e945307464]
reverse link Change Rendering Mode to Admin--><g id="link_Change Rendering Mode_Admin"><path d="M328.6083,198.3417 C372.2583,190.1917 425.7583,180.2083 451.625,175.3833 " fill="none" id="Change Rendering Mode-backto-Admin" style="stroke:#181818;stroke-width:0.8333333333333334;"/><polygon fill="#181818" points="324.4167,199.125,332.3998,201.0303,328.513,198.3629,331.1804,194.4761,324.4167,199.125" style="stroke:#181818;stroke-width:0.8333333333333334;"/></g><!--MD5=[580f7d96c5a1ae5ec8e29f43046b43bb]
link User to Start Game--><g id="link_User_Start Game"><path d="M39.4,618.9 C42.675,540.2167 55.2333,343.8 100,299.1667 C127.9083,271.3417 173.0583,265.7083 208.2917,266.325 " fill="none" id="User-to-Start Game" style="stroke:#181818;stroke-width:0.8333333333333334;"/><polygon fill="#181818" points="212.5333,266.4333,205.1215,262.9083,208.368,266.3262,204.9501,269.5728,212.5333,266.4333" style="stroke:#181818;stroke-width:0.8333333333333334;"/></g><!--MD5=[a9b8dae702cc645c7214777b5f302667]
link User to View Information--><g id="link_User_View Information"><path d="M40.675,619.0167 C46.3,550.2 62.95,393.5917 100,357.5 C125.0667,333.0833 163.3667,325.475 196.2083,324.1167 " fill="none" id="User-to-View Information" style="stroke:#181818;stroke-width:0.8333333333333334;"/><polygon fill="#181818" points="200.5917,323.975,192.9907,320.8789,196.4271,324.1059,193.2001,327.5423,200.5917,323.975" style="stroke:#181818;stroke-width:0.8333333333333334;"/></g><!--MD5=[b030ad50f4f966d126752e23f4f1a923]
link User to Pause Game--><g id="link_User_Pause Game"><path d="M42.4333,619.075 C50.45,560.7083 70.0833,441.8167 100,414.1667 C127.2583,388.975 168.775,382.1917 202.6833,381.55 " fill="none" id="User-to-Pause Game" style="stroke:#181818;stroke-width:0.8333333333333334;"/><polygon fill="#181818" points="207.2,381.5,199.6624,378.2526,203.0336,381.5476,199.7386,384.9188,207.2,381.5" style="stroke:#181818;stroke-width:0.8333333333333334;"/></g><!--MD5=[0ba08b3a385a91f999e9dac1d44d7019]
link User to Exit Game--><g id="link_User_Exit Game"><path d="M39.65,619.1333 C43.1833,577.7083 55.775,506.9917 100,469.1667 C130.4583,443.1083 176.4583,437.5167 211.325,437.6917 " fill="none" id="User-to-Exit Game" style="stroke:#181818;stroke-width:0.8333333333333334;"/><polygon fill="#181818" points="215.525,437.7417,208.0636,434.3228,211.3586,437.6941,207.9874,440.9891,215.525,437.7417" style="stroke:#181818;stroke-width:0.8333333333333334;"/></g><!--MD5=[cc4f018ba4ec3aa0e322a4ace76ff9e7]
link User to Game control with keyboard & mouse--><g id="link_User_Game control with keyboard &amp; mouse"><path d="M49.4667,619.1167 C59.2,595.525 75.625,564.725 100,546.6667 C116.5667,534.3917 136.5167,526 156.6167,520.2583 " fill="none" id="User-to-Game control with keyboard &amp; mouse" style="stroke:#181818;stroke-width:0.8333333333333334;"/><polygon fill="#181818" points="160.6417,519.15,152.5219,517.9543,156.6282,520.2695,154.313,524.3758,160.6417,519.15" style="stroke:#181818;stroke-width:0.8333333333333334;"/></g><!--MD5=[20aca4330c4cd19bf8032eef05ca9a3c]
link User to Move around game world--><g id="link_User_Move around game world"><path d="M49.6833,642.6417 C61.55,633.6583 81.0583,620.1333 100,612.5 C126.45,601.8417 156.825,594.5333 183.9583,589.6 " fill="none" id="User-to-Move around game world" style="stroke:#181818;stroke-width:0.8333333333333334;"/><polygon fill="#181818" points="188.2833,588.8333,180.3175,586.8567,184.1803,589.5588,181.4783,593.4216,188.2833,588.8333" style="stroke:#181818;stroke-width:0.8333333333333334;"/></g><!--MD5=[d97ed809cfa79eaaf8efaf4577cc8132]
link User to Break blocks using appropriate tools--><g id="link_User_Break blocks using appropriate tools"><path d="M49.6333,651.6667 C68.1917,651.6667 107,651.6667 146.3,651.6667 " fill="none" id="User-to-Break blocks using appropriate tools" style="stroke:#181818;stroke-width:0.8333333333333334;"/><polygon fill="#181818" points="150.5917,651.6667,143.0917,648.3333,146.425,651.6667,143.0917,655,150.5917,651.6667" style="stroke:#181818;stroke-width:0.8333333333333334;"/></g><!--MD5=[459bdf1996da1e48b5c4477fa456f5b2]
link User to Use hotbar to see items in use--><g id="link_User_Use hotbar to see items in use"><path d="M49.75,660.4083 C61.6667,669.1333 81.2167,682.3167 100,690 C124.7583,700.125 152.9,707.65 178.6083,713.1083 " fill="none" id="User-to-Use hotbar to see items in use" style="stroke:#181818;stroke-width:0.8333333333333334;"/><polygon fill="#181818" points="182.7083,713.9667,176.0559,709.1598,178.631,713.1083,174.6825,715.6834,182.7083,713.9667" style="stroke:#181818;stroke-width:0.8333333333333334;"/></g><!--MD5=[5259a85eacb5272b46431e980804b5e0]
link User to Use full inventory to see items collected--><g id="link_User_Use full inventory to see items collected"><path d="M48.825,684.3667 C58.3667,708.95 74.85,741.5833 100,760.8333 C116.05,773.1167 135.3833,781.725 154.9917,787.7667 " fill="none" id="User-to-Use full inventory to see items collected" style="stroke:#181818;stroke-width:0.8333333333333334;"/><polygon fill="#181818" points="159.175,789.0083,152.9418,783.669,155.1824,787.8165,151.0349,790.0571,159.175,789.0083" style="stroke:#181818;stroke-width:0.8333333333333334;"/></g><!--MD5=[869f48abb78a7a71cd460acfec546b15]
link User to Edit hotbar and inventory--><g id="link_User_Edit hotbar and inventory"><path d="M39.375,684.525 C42.5917,727.2333 54.825,801.1417 100,841.6667 C120.15,859.7417 147.5,868.975 173.8833,873.4417 " fill="none" id="User-to-Edit hotbar and inventory" style="stroke:#181818;stroke-width:0.8333333333333334;"/><polygon fill="#181818" points="178.1083,874.125,171.2266,869.6525,173.9936,873.469,170.1771,876.236,178.1083,874.125" style="stroke:#181818;stroke-width:0.8333333333333334;"/></g><!--MD5=[3064fa2102ee0b8924efc3be3ba8c27b]
link User to Place blocks in the world--><g id="link_User_Place blocks in the world"><path d="M41.8583,684.225 C49.225,745.975 68.2167,876.6917 100,907.5 C119.9167,926.8083 147.9583,936.2333 175.0167,940.5 " fill="none" id="User-to-Place blocks in the world" style="stroke:#181818;stroke-width:0.8333333333333334;"/><polygon fill="#181818" points="179.35,941.1417,172.4287,936.7307,175.2296,940.5224,171.4379,943.3233,179.35,941.1417" style="stroke:#181818;stroke-width:0.8333333333333334;"/></g><!--MD5=[978730d86c9df271974c31418e819968]
link User to Craft new items, blocks & tools--><g id="link_User_Craft new items, blocks &amp; tools"><path d="M40.1583,684.425 C44.9333,757.8417 60.2667,932.3583 100,973.3333 C116.4583,990.3083 139.0917,1000.0417 162.15,1005.45 " fill="none" id="User-to-Craft new items, blocks &amp; tools" style="stroke:#181818;stroke-width:0.8333333333333334;"/><polygon fill="#181818" points="166.4583,1006.4083,159.86,1001.5274,162.3909,1005.5045,158.4138,1008.0353,166.4583,1006.4083" style="stroke:#181818;stroke-width:0.8333333333333334;"/></g><!--MD5=[1f8ad5b5747f9ede7c2770aa52b54ecb]
link User to Achieve end item - Complete game--><g id="link_User_Achieve end item - Complete game"><path d="M38.95,684.4583 C41.2167,769.0833 51.7333,991.9167 100,1044.1667 C114.35,1059.7083 133.7917,1069.4667 154.175,1075.4833 " fill="none" id="User-to-Achieve end item - Complete game" style="stroke:#181818;stroke-width:0.8333333333333334;"/><polygon fill="#181818" points="158.2667,1076.6417,151.9524,1071.3984,154.2563,1075.5111,150.1436,1077.815,158.2667,1076.6417" style="stroke:#181818;stroke-width:0.8333333333333334;"/></g><!--MD5=[650d2e8c0d42ad5ff3008871ed9467ce]
link User to Listen to interactive audio--><g id="link_User_Listen to interactive audio"><path d="M37.9333,684.4417 C37.4833,780.1583 41.3667,1056.5167 100,1120 C118.5667,1140.1 145.8167,1149.9167 172.5917,1154.3333 " fill="none" id="User-to-Listen to interactive audio" style="stroke:#181818;stroke-width:0.8333333333333334;"/><polygon fill="#181818" points="176.8833,1155,169.987,1150.55,172.7665,1154.3575,168.959,1157.1369,176.8833,1155" style="stroke:#181818;stroke-width:0.8333333333333334;"/></g><!--MD5=[7758aa1a209ffc6980b499b0f4f108e0]
link AIGymAgent to Create Minecraft Environment--><g id="link_AIGymAgent_Create Minecraft Environment"><path d="M70.0917,1250.4667 C98.0417,1246.4667 140,1240.475 177.375,1235.1333 " fill="none" id="AIGymAgent-to-Create Minecraft Environment" style="stroke:#181818;stroke-width:0.8333333333333334;"/><polygon fill="#181818" points="181.675,1234.525,173.7826,1232.2731,177.5493,1235.1076,174.7148,1238.8743,181.675,1234.525" style="stroke:#181818;stroke-width:0.8333333333333334;"/></g><!--MD5=[8fd3f8181e062f2838d2f2f53fd37bfd]
link AIGymAgent to Execute Moves--><g id="link_AIGymAgent_Execute Moves"><path d="M70.0917,1259.6583 C105.2167,1264.8083 162.4583,1273.2 204.925,1279.425 " fill="none" id="AIGymAgent-to-Execute Moves" style="stroke:#181818;stroke-width:0.8333333333333334;"/><polygon fill="#181818" points="209.25,1280.0583,202.3144,1275.6698,205.1276,1279.4525,201.345,1282.2656,209.25,1280.0583" style="stroke:#181818;stroke-width:0.8333333333333334;"/></g><!--MD5=[583378581a9b347907194c169188d509]
@startuml uc
skinparam Dpi 80
skinparam Shadowing false
skinparam Monochrome true

left to right direction
skinparam packageStyle rectangle
actor User
actor AIGymAgent
actor Admin

rectangle 2DMinecraft {
  User - -> (Generate World from Seed)
  (Apply textures to differentiate blocks & resources) <- - Admin
  (Change Rendering Mode) <- - Admin
  User - -> (Start Game)
  User - -> (View Information) 
  User - -> (Pause Game)
  User - -> (Exit Game)
  User - -> (Game control with keyboard & mouse) 
  User - -> (Move around game world)
  User - -> (Break blocks using appropriate tools)
  User - -> (Use hotbar to see items in use)
  User - -> (Use full inventory to see items collected)
  User - -> (Edit hotbar and inventory)
  User - -> (Place blocks in the world) 
  User - -> (Craft new items, blocks & tools) 
  User - -> (Achieve end item - Complete game)
  User - -> (Listen to interactive audio)
  
  AIGymAgent - -> (Create Minecraft Environment)
  AIGymAgent - -> (Execute Moves)
  
}
@enduml

PlantUML version 1.2022.5(Sat Apr 30 12:55:52 SAST 2022)
(GPL source distribution)
Java Runtime: Java(TM) SE Runtime Environment
JVM: Java HotSpot(TM) 64-Bit Server VM
Default Encoding: Cp1252
Language: en
Country: ZA
--></g></svg>