<?xml version="1.0" encoding="UTF-8" standalone="no"?><svg xmlns="http://www.w3.org/2000/svg" xmlns:xlink="http://www.w3.org/1999/xlink" contentStyleType="text/css" height="9255.2083px" preserveAspectRatio="none" style="width:9098px;height:9255px;background:#FFFFFF;" version="1.1" viewBox="0 0 9098 9255" width="9098.9583px" zoomAndPan="magnify"><defs/><g><rect fill="#555555" height="41.6667" style="stroke:none;stroke-width:5.208333333333333;" width="416.6667" x="7447.9167" y="36.4583"/><rect fill="#555555" height="41.6667" style="stroke:none;stroke-width:5.208333333333333;" width="416.6667" x="3526.0417" y="2666.6667"/><rect fill="#555555" height="41.6667" style="stroke:none;stroke-width:5.208333333333333;" width="416.6667" x="5645.8333" y="4057.2917"/><rect fill="#555555" height="41.6667" style="stroke:none;stroke-width:5.208333333333333;" width="416.6667" x="4312.5" y="6307.2917"/><rect fill="#555555" height="41.6667" style="stroke:none;stroke-width:5.208333333333333;" width="416.6667" x="4651.0417" y="4890.625"/><rect fill="#555555" height="41.6667" style="stroke:none;stroke-width:5.208333333333333;" width="416.6667" x="3369.7917" y="8026.0417"/><rect fill="#555555" height="41.6667" style="stroke:none;stroke-width:5.208333333333333;" width="416.6667" x="4385.4167" y="1729.1667"/><ellipse cx="7656.25" cy="614.5833" fill="#222222" rx="52.0833" ry="52.0833" style="stroke:none;stroke-width:5.208333333333333;"/><g id="StartScreen"><rect fill="#F1F1F1" height="260.4167" rx="65.1042" ry="65.1042" style="stroke:#181818;stroke-width:2.6041666666666665;" width="494.7917" x="7736.9792" y="1151.0417"/><line style="stroke:#181818;stroke-width:2.6041666666666665;" x1="7736.9792" x2="8231.7708" y1="1294.8405" y2="1294.8405"/><text fill="#000000" font-family="sans-serif" font-size="72.9167" lengthAdjust="spacing" textLength="390.625" x="7789.0625" y="1252.7771">StartScreen</text></g><g id="BeginGame"><rect fill="#F1F1F1" height="260.4167" rx="65.1042" ry="65.1042" style="stroke:#181818;stroke-width:2.6041666666666665;" width="489.5833" x="4947.9167" y="484.375"/><line style="stroke:#181818;stroke-width:2.6041666666666665;" x1="4947.9167" x2="5437.5" y1="628.1738" y2="628.1738"/><text fill="#000000" font-family="sans-serif" font-size="72.9167" lengthAdjust="spacing" textLength="385.4167" x="5000" y="586.1104">BeginGame</text></g><g id="ExitGame"><rect fill="#F1F1F1" height="260.4167" rx="65.1042" ry="65.1042" style="stroke:#181818;stroke-width:2.6041666666666665;" width="416.6667" x="7119.7917" y="4781.25"/><line style="stroke:#181818;stroke-width:2.6041666666666665;" x1="7119.7917" x2="7536.4583" y1="4925.0488" y2="4925.0488"/><text fill="#000000" font-family="sans-serif" font-size="72.9167" lengthAdjust="spacing" textLength="312.5" x="7171.875" y="4882.9854">ExitGame</text></g><g id="Options"><rect fill="#F1F1F1" height="260.4167" rx="65.1042" ry="65.1042" style="stroke:#181818;stroke-width:2.6041666666666665;" width="359.375" x="8263.0208" y="484.375"/><line style="stroke:#181818;stroke-width:2.6041666666666665;" x1="8263.0208" x2="8622.3958" y1="628.1738" y2="628.1738"/><text fill="#000000" font-family="sans-serif" font-size="72.9167" lengthAdjust="spacing" textLength="255.2083" x="8315.1042" y="586.1104">Options</text></g><g id="GenerateWorld"><rect fill="#F1F1F1" height="260.4167" rx="65.1042" ry="65.1042" style="stroke:#181818;stroke-width:2.6041666666666665;" width="609.375" x="3216.1458" y="1151.0417"/><line style="stroke:#181818;stroke-width:2.6041666666666665;" x1="3216.1458" x2="3825.5208" y1="1294.8405" y2="1294.8405"/><text fill="#000000" font-family="sans-serif" font-size="72.9167" lengthAdjust="spacing" textLength="505.2083" x="3268.2292" y="1252.7771">GenerateWorld</text></g><g id="LoadPlayer"><rect fill="#F1F1F1" height="260.4167" rx="65.1042" ry="65.1042" style="stroke:#181818;stroke-width:2.6041666666666665;" width="479.1667" x="4010.4167" y="1151.0417"/><line style="stroke:#181818;stroke-width:2.6041666666666665;" x1="4010.4167" x2="4489.5833" y1="1294.8405" y2="1294.8405"/><text fill="#000000" font-family="sans-serif" font-size="72.9167" lengthAdjust="spacing" textLength="375" x="4062.5" y="1252.7771">LoadPlayer</text></g><g id="LoadTextures"><rect fill="#F1F1F1" height="260.4167" rx="65.1042" ry="65.1042" style="stroke:#181818;stroke-width:2.6041666666666665;" width="557.2917" x="4674.4792" y="1151.0417"/><line style="stroke:#181818;stroke-width:2.6041666666666665;" x1="4674.4792" x2="5231.7708" y1="1294.8405" y2="1294.8405"/><text fill="#000000" font-family="sans-serif" font-size="72.9167" lengthAdjust="spacing" textLength="453.125" x="4726.5625" y="1252.7771">LoadTextures</text></g><g id="LoadCamera"><rect fill="#F1F1F1" height="260.4167" rx="65.1042" ry="65.1042" style="stroke:#181818;stroke-width:2.6041666666666665;" width="531.25" x="5416.6667" y="1151.0417"/><line style="stroke:#181818;stroke-width:2.6041666666666665;" x1="5416.6667" x2="5947.9167" y1="1294.8405" y2="1294.8405"/><text fill="#000000" font-family="sans-serif" font-size="72.9167" lengthAdjust="spacing" textLength="427.0833" x="5468.75" y="1252.7771">LoadCamera</text></g><g id="LoadSounds"><rect fill="#F1F1F1" height="260.4167" rx="65.1042" ry="65.1042" style="stroke:#181818;stroke-width:2.6041666666666665;" width="520.8333" x="6130.2083" y="1151.0417"/><line style="stroke:#181818;stroke-width:2.6041666666666665;" x1="6130.2083" x2="6651.0417" y1="1294.8405" y2="1294.8405"/><text fill="#000000" font-family="sans-serif" font-size="72.9167" lengthAdjust="spacing" textLength="416.6667" x="6182.2917" y="1252.7771">LoadSounds</text></g><g id="LoadGame"><rect fill="#F1F1F1" height="260.4167" rx="65.1042" ry="65.1042" style="stroke:#181818;stroke-width:2.6041666666666665;" width="468.75" x="3671.875" y="2088.5417"/><line style="stroke:#181818;stroke-width:2.6041666666666665;" x1="3671.875" x2="4140.625" y1="2232.3405" y2="2232.3405"/><text fill="#000000" font-family="sans-serif" font-size="72.9167" lengthAdjust="spacing" textLength="364.5833" x="3723.9583" y="2190.2771">LoadGame</text></g><g id="UpdateWorld"><rect fill="#F1F1F1" height="260.4167" rx="65.1042" ry="65.1042" style="stroke:#181818;stroke-width:2.6041666666666665;" width="531.25" x="4281.25" y="8963.5417"/><line style="stroke:#181818;stroke-width:2.6041666666666665;" x1="4281.25" x2="4812.5" y1="9107.3405" y2="9107.3405"/><text fill="#000000" font-family="sans-serif" font-size="72.9167" lengthAdjust="spacing" textLength="427.0833" x="4333.3333" y="9065.2771">UpdateWorld</text></g><g id="MovePlayer"><rect fill="#F1F1F1" height="260.4167" rx="65.1042" ry="65.1042" style="stroke:#181818;stroke-width:2.6041666666666665;" width="489.5833" x="3734.375" y="3114.5833"/><line style="stroke:#181818;stroke-width:2.6041666666666665;" x1="3734.375" x2="4223.9583" y1="3258.3822" y2="3258.3822"/><text fill="#000000" font-family="sans-serif" font-size="72.9167" lengthAdjust="spacing" textLength="385.4167" x="3786.4583" y="3216.3188">MovePlayer</text></g><g id="MovementSound"><rect fill="#F1F1F1" height="260.4167" rx="65.1042" ry="65.1042" style="stroke:#181818;stroke-width:2.6041666666666665;" width="656.25" x="4270.8333" y="3947.9167"/><line style="stroke:#181818;stroke-width:2.6041666666666665;" x1="4270.8333" x2="4927.0833" y1="4091.7155" y2="4091.7155"/><text fill="#000000" font-family="sans-serif" font-size="72.9167" lengthAdjust="spacing" textLength="552.0833" x="4322.9167" y="4049.6521">MovementSound</text></g><g id="GenerateNewChunk"><rect fill="#F1F1F1" height="260.4167" rx="65.1042" ry="65.1042" style="stroke:#181818;stroke-width:2.6041666666666665;" width="765.625" x="3596.3542" y="5864.5833"/><line style="stroke:#181818;stroke-width:2.6041666666666665;" x1="3596.3542" x2="4361.9792" y1="6008.3822" y2="6008.3822"/><text fill="#000000" font-family="sans-serif" font-size="72.9167" lengthAdjust="spacing" textLength="661.4583" x="3648.4375" y="5966.3188">GenerateNewChunk</text></g><g id="BreakBlocks"><rect fill="#F1F1F1" height="260.4167" rx="65.1042" ry="65.1042" style="stroke:#181818;stroke-width:2.6041666666666665;" width="510.4167" x="2348.9583" y="3114.5833"/><line style="stroke:#181818;stroke-width:2.6041666666666665;" x1="2348.9583" x2="2859.375" y1="3258.3822" y2="3258.3822"/><text fill="#000000" font-family="sans-serif" font-size="72.9167" lengthAdjust="spacing" textLength="406.25" x="2401.0417" y="3216.3188">BreakBlocks</text></g><g id="BreakBlockSound"><rect fill="#F1F1F1" height="260.4167" rx="65.1042" ry="65.1042" style="stroke:#181818;stroke-width:2.6041666666666665;" width="687.5" x="2151.0417" y="4364.5833"/><line style="stroke:#181818;stroke-width:2.6041666666666665;" x1="2151.0417" x2="2838.5417" y1="4508.3822" y2="4508.3822"/><text fill="#000000" font-family="sans-serif" font-size="72.9167" lengthAdjust="spacing" textLength="583.3333" x="2203.125" y="4466.3188">BreakBlockSound</text></g><g id="AddInventory"><rect fill="#F1F1F1" height="260.4167" rx="65.1042" ry="65.1042" style="stroke:#181818;stroke-width:2.6041666666666665;" width="536.4583" x="3309.8958" y="7447.9167"/><line style="stroke:#181818;stroke-width:2.6041666666666665;" x1="3309.8958" x2="3846.3542" y1="7591.7155" y2="7591.7155"/><text fill="#000000" font-family="sans-serif" font-size="72.9167" lengthAdjust="spacing" textLength="432.2917" x="3361.9792" y="7549.6521">AddInventory</text></g><g id="PlaceBlocks"><rect fill="#F1F1F1" height="260.4167" rx="65.1042" ry="65.1042" style="stroke:#181818;stroke-width:2.6041666666666665;" width="500" x="1010.4167" y="3531.25"/><line style="stroke:#181818;stroke-width:2.6041666666666665;" x1="1010.4167" x2="1510.4167" y1="3675.0488" y2="3675.0488"/><text fill="#000000" font-family="sans-serif" font-size="72.9167" lengthAdjust="spacing" textLength="395.8333" x="1062.5" y="3632.9854">PlaceBlocks</text></g><g id="RemoveInventory"><rect fill="#F1F1F1" height="260.4167" rx="65.1042" ry="65.1042" style="stroke:#181818;stroke-width:2.6041666666666665;" width="677.0833" x="2380.2083" y="7447.9167"/><line style="stroke:#181818;stroke-width:2.6041666666666665;" x1="2380.2083" x2="3057.2917" y1="7591.7155" y2="7591.7155"/><text fill="#000000" font-family="sans-serif" font-size="72.9167" lengthAdjust="spacing" textLength="572.9167" x="2432.2917" y="7549.6521">RemoveInventory</text></g><g id="CraftMenu"><rect fill="#F1F1F1" height="260.4167" rx="65.1042" ry="65.1042" style="stroke:#181818;stroke-width:2.6041666666666665;" width="447.9167" x="4864.5833" y="5447.9167"/><line style="stroke:#181818;stroke-width:2.6041666666666665;" x1="4864.5833" x2="5312.5" y1="5591.7155" y2="5591.7155"/><text fill="#000000" font-family="sans-serif" font-size="72.9167" lengthAdjust="spacing" textLength="343.75" x="4916.6667" y="5549.6521">CraftMenu</text></g><g id="CanCraft"><rect fill="#F1F1F1" height="260.4167" rx="65.1042" ry="65.1042" style="stroke:#181818;stroke-width:2.6041666666666665;" width="401.0417" x="3440.1042" y="6781.25"/><line style="stroke:#181818;stroke-width:2.6041666666666665;" x1="3440.1042" x2="3841.1458" y1="6925.0488" y2="6925.0488"/><text fill="#000000" font-family="sans-serif" font-size="72.9167" lengthAdjust="spacing" textLength="296.875" x="3492.1875" y="6882.9854">CanCraft</text></g><g id="CannotCraft"><rect fill="#F1F1F1" height="260.4167" rx="65.1042" ry="65.1042" style="stroke:#181818;stroke-width:2.6041666666666665;" width="505.2083" x="4825.5208" y="6781.25"/><line style="stroke:#181818;stroke-width:2.6041666666666665;" x1="4825.5208" x2="5330.7292" y1="6925.0488" y2="6925.0488"/><text fill="#000000" font-family="sans-serif" font-size="72.9167" lengthAdjust="spacing" textLength="401.0417" x="4877.6042" y="6882.9854">CannotCraft</text></g><g id="UpdateInventory"><rect fill="#F1F1F1" height="260.4167" rx="65.1042" ry="65.1042" style="stroke:#181818;stroke-width:2.6041666666666665;" width="640.625" x="3549.4792" y="8385.4167"/><line style="stroke:#181818;stroke-width:2.6041666666666665;" x1="3549.4792" x2="4190.1042" y1="8529.2155" y2="8529.2155"/><text fill="#000000" font-family="sans-serif" font-size="72.9167" lengthAdjust="spacing" textLength="536.4583" x="3601.5625" y="8487.1521">UpdateInventory</text></g><g id="PauseMenu"><rect fill="#F1F1F1" height="260.4167" rx="65.1042" ry="65.1042" style="stroke:#181818;stroke-width:2.6041666666666665;" width="494.7917" x="5606.7708" y="3114.5833"/><line style="stroke:#181818;stroke-width:2.6041666666666665;" x1="5606.7708" x2="6101.5625" y1="3258.3822" y2="3258.3822"/><text fill="#000000" font-family="sans-serif" font-size="72.9167" lengthAdjust="spacing" textLength="390.625" x="5658.8542" y="3216.3188">PauseMenu</text></g><g id="Continue"><rect fill="#F1F1F1" height="260.4167" rx="65.1042" ry="65.1042" style="stroke:#181818;stroke-width:2.6041666666666665;" width="401.0417" x="5341.1458" y="4781.25"/><line style="stroke:#181818;stroke-width:2.6041666666666665;" x1="5341.1458" x2="5742.1875" y1="4925.0488" y2="4925.0488"/><text fill="#000000" font-family="sans-serif" font-size="72.9167" lengthAdjust="spacing" textLength="296.875" x="5393.2292" y="4882.9854">Continue</text></g><ellipse cx="7328.125" cy="5578.125" fill="none" rx="52.0833" ry="52.0833" style="stroke:#222222;stroke-width:5.208333333333333;"/><ellipse cx="7330.7292" cy="5580.7292" fill="#222222" rx="31.25" ry="31.25" style="stroke:none;stroke-width:5.208333333333333;"/><!--MD5=[c9486b866dadd91f17859818c6564407]
link *start to StartScreen--><g id="link_*start_StartScreen"><path d="M7650.625,668.8021 C7644.3229,743.2813 7640.8854,887.6042 7692.7083,994.7917 C7717.1875,1045.4167 7754.7917,1091.8229 7794.9479,1131.7708 " fill="none" id="*start-to-StartScreen" style="stroke:#181818;stroke-width:5.208333333333333;"/><polygon fill="#181818" points="7814.8438,1150.8333,7795.3704,1103.3772,7796.025,1132.8327,7766.5694,1133.4873,7814.8438,1150.8333" style="stroke:#181818;stroke-width:5.208333333333333;"/><text fill="#000000" font-family="sans-serif" font-size="67.7083" lengthAdjust="spacing" textLength="145.8333" x="7697.9167" y="976.5371">Start</text></g><!--MD5=[e4a90c7e25d9549eea9e0fb760dd34b5]
link StartScreen to fork_startScreen--><g id="link_StartScreen_fork_startScreen"><path d="M7958.2292,1150.3646 C7924.7917,993.4896 7863.1771,717.3438 7796.875,484.375 C7756.6146,342.7604 7698.2812,178.0729 7671.1979,103.2292 " fill="none" id="StartScreen-to-fork_startScreen" style="stroke:#181818;stroke-width:5.208333333333333;"/><polygon fill="#181818" points="7662.1354,78.4375,7658.6255,129.6134,7671.0589,102.9026,7697.7697,115.3359,7662.1354,78.4375" style="stroke:#181818;stroke-width:5.208333333333333;"/></g><!--MD5=[ec8b7ce55dafc24eb0deab78f713c58c]
link fork_startScreen to BeginGame--><g id="link_fork_startScreen_BeginGame"><path d="M7478.125,78.1771 C7235.9375,101.5625 6790.0521,151.8229 6416.6667,234.375 C6083.0729,308.125 5708.8021,428.4896 5462.9688,512.9167 " fill="none" id="fork_startScreen-to-BeginGame" style="stroke:#181818;stroke-width:5.208333333333333;"/><polygon fill="#181818" points="5438.125,521.5104,5489.2333,525.8962,5462.7393,513.0073,5475.6283,486.5133,5438.125,521.5104" style="stroke:#181818;stroke-width:5.208333333333333;"/><text fill="#000000" font-family="sans-serif" font-size="67.7083" lengthAdjust="spacing" textLength="765.625" x="6421.875" y="309.8704">Click Begin Game Button</text></g><!--MD5=[722c67201264527e489bb028302e8570]
link fork_startScreen to ExitGame--><g id="link_fork_startScreen_ExitGame"><path d="M7636.7188,79.1146 C7566.0417,141.1458 7328.125,368.0208 7328.125,609.375 C7328.125,609.375 7328.125,609.375 7328.125,4083.3333 C7328.125,4316.9792 7328.125,4587.9167 7328.125,4753.1771 " fill="none" id="fork_startScreen-to-ExitGame" style="stroke:#181818;stroke-width:5.208333333333333;"/><polygon fill="#181818" points="7328.125,4780.7813,7348.9583,4733.9063,7328.125,4754.7396,7307.2917,4733.9063,7328.125,4780.7813" style="stroke:#181818;stroke-width:5.208333333333333;"/><text fill="#000000" font-family="sans-serif" font-size="67.7083" lengthAdjust="spacing" textLength="713.5417" x="7333.3333" y="2247.3704">Click Exit Game Button</text></g><!--MD5=[44e118f013666fc62f3d539e7c7aeea6]
link fork_startScreen to Options--><g id="link_fork_startScreen_Options"><path d="M7732.3958,78.2812 C7829.0625,100.9375 7997.8646,149.6354 8119.7917,234.375 C8207.5,295.3646 8286.1458,385.5208 8343.9063,462.1875 " fill="none" id="fork_startScreen-to-Options" style="stroke:#181818;stroke-width:5.208333333333333;"/><polygon fill="#181818" points="8359.5833,483.3854,8348.4101,433.3209,8344.0773,462.4634,8314.9348,458.1306,8359.5833,483.3854" style="stroke:#181818;stroke-width:5.208333333333333;"/><text fill="#000000" font-family="sans-serif" font-size="67.7083" lengthAdjust="spacing" textLength="833.3333" x="8223.9583" y="309.8704">Click Question Mark Button</text></g><!--MD5=[63711ee0b2ee64ca266bc4b01ed9281a]
link BeginGame to GenerateWorld--><g id="link_BeginGame_GenerateWorld"><path d="M4947.8125,715.9375 C4657.8646,829.7396 4173.6979,1019.7917 3850.8854,1146.5104 " fill="none" id="BeginGame-to-GenerateWorld" style="stroke:#181818;stroke-width:5.208333333333333;"/><polygon fill="#181818" points="3825.9896,1156.25,3877.2322,1158.5935,3850.2451,1146.7717,3862.0669,1119.7846,3825.9896,1156.25" style="stroke:#181818;stroke-width:5.208333333333333;"/></g><!--MD5=[0fe61ca331243effb9640ad7aabe1868]
link BeginGame to LoadPlayer--><g id="link_BeginGame_LoadPlayer"><path d="M5010.9375,746.3021 C4850.6771,857.9167 4617.4479,1020.2083 4451.5104,1135.7292 " fill="none" id="BeginGame-to-LoadPlayer" style="stroke:#181818;stroke-width:5.208333333333333;"/><polygon fill="#181818" points="4429.5833,1150.9896,4479.9525,1141.282,4450.9489,1136.1007,4456.1303,1107.0971,4429.5833,1150.9896" style="stroke:#181818;stroke-width:5.208333333333333;"/></g><!--MD5=[ea37bd0547947a1f0f48734fc04139f4]
link BeginGame to LoadTextures--><g id="link_BeginGame_LoadTextures"><path d="M5146.5104,746.3021 C5107.0833,854.375 5050.2604,1010 5008.3854,1124.6354 " fill="none" id="BeginGame-to-LoadTextures" style="stroke:#181818;stroke-width:5.208333333333333;"/><polygon fill="#181818" points="4999.1667,1149.8958,5034.8009,1112.9974,5008.0901,1125.4307,4995.6568,1098.7199,4999.1667,1149.8958" style="stroke:#181818;stroke-width:5.208333333333333;"/></g><!--MD5=[d231969e3ab5195fe261c24c261fe059]
link BeginGame to LoadCamera--><g id="link_BeginGame_LoadCamera"><path d="M5287.0833,746.3021 C5368.6979,855.7292 5486.7708,1013.9063 5572.5521,1128.9583 " fill="none" id="BeginGame-to-LoadCamera" style="stroke:#181818;stroke-width:5.208333333333333;"/><polygon fill="#181818" points="5588.1771,1149.8958,5576.8333,1099.8697,5572.5998,1129.0268,5543.4428,1124.7933,5588.1771,1149.8958" style="stroke:#181818;stroke-width:5.208333333333333;"/></g><!--MD5=[401159328c7c4b6c56efa6b9504fe3c5]
link BeginGame to LoadSounds--><g id="link_BeginGame_LoadSounds"><path d="M5422.2396,745.5208 C5626.6146,857.5 5925.0521,1020.9896 6136.5104,1136.8229 " fill="none" id="BeginGame-to-LoadSounds" style="stroke:#181818;stroke-width:5.208333333333333;"/><polygon fill="#181818" points="6161.8229,1150.7292,6130.7034,1109.9509,6138.9781,1138.2278,6110.7012,1146.5025,6161.8229,1150.7292" style="stroke:#181818;stroke-width:5.208333333333333;"/></g><!--MD5=[000cf41eb57483cc85209e1ebbf0e255]
link GenerateWorld to join_loadGame--><g id="link_GenerateWorld_join_loadGame"><path d="M3814.0104,1411.7187 C4060.625,1517.0312 4394.3229,1659.5833 4531.1979,1718.0729 " fill="none" id="GenerateWorld-to-join_loadGame" style="stroke:#181818;stroke-width:5.208333333333333;"/><polygon fill="#181818" points="4555.8854,1728.5938,4521.0071,1690.9799,4531.9493,1718.3354,4504.5938,1729.2776,4555.8854,1728.5938" style="stroke:#181818;stroke-width:5.208333333333333;"/></g><!--MD5=[be3d02426224c9ccbc6df343c7c9e875]
link LoadSounds to join_loadGame--><g id="link_LoadSounds_join_loadGame"><path d="M6128.6458,1382.6042 C6097.7604,1392.8646 6066.5104,1402.7083 6036.4583,1411.4583 C5545.6771,1554.2708 4946.9271,1676.3542 4704.0104,1723.6979 " fill="none" id="LoadSounds-to-join_loadGame" style="stroke:#181818;stroke-width:5.208333333333333;"/><polygon fill="#181818" points="4677.5521,1728.8542,4727.5453,1740.3419,4703.1134,1723.8756,4719.5797,1699.4437,4677.5521,1728.8542" style="stroke:#181818;stroke-width:5.208333333333333;"/></g><!--MD5=[3f7b2f1ca9bc4f5feee3be775773cba5]
link LoadPlayer to join_loadGame--><g id="link_LoadPlayer_join_loadGame"><path d="M4343.9063,1411.7187 C4418.3333,1510.8854 4517.4479,1643.0729 4565.4167,1707.0313 " fill="none" id="LoadPlayer-to-join_loadGame" style="stroke:#181818;stroke-width:5.208333333333333;"/><polygon fill="#181818" points="4581.6146,1728.5938,4570.1562,1678.5938,4565.9896,1707.7604,4536.8229,1703.5938,4581.6146,1728.5938" style="stroke:#181818;stroke-width:5.208333333333333;"/></g><!--MD5=[8067513c0b58af5dde9ce2c45e4123f1]
link LoadTextures to join_loadGame--><g id="link_LoadTextures_join_loadGame"><path d="M4854.9479,1411.7187 C4777.1354,1510.8854 4673.4896,1643.0729 4623.3854,1707.0313 " fill="none" id="LoadTextures-to-join_loadGame" style="stroke:#181818;stroke-width:5.208333333333333;"/><polygon fill="#181818" points="4606.4583,1728.5938,4651.7541,1704.5192,4622.508,1708.0858,4618.9414,1678.8397,4606.4583,1728.5938" style="stroke:#181818;stroke-width:5.208333333333333;"/></g><!--MD5=[43bfee96cd6c1957d33026fb3c92d161]
link LoadCamera to join_loadGame--><g id="link_LoadCamera_join_loadGame"><path d="M5415.9896,1398.5937 C5162.3958,1505.3646 4798.6979,1658.4896 4655.2604,1718.9062 " fill="none" id="LoadCamera-to-join_loadGame" style="stroke:#181818;stroke-width:5.208333333333333;"/><polygon fill="#181818" points="4631.1458,1729.0625,4682.4292,1730.2081,4655.1733,1719.0201,4666.3613,1691.7642,4631.1458,1729.0625" style="stroke:#181818;stroke-width:5.208333333333333;"/></g><!--MD5=[f08c0755306175e78014a8fe8c733cb3]
link join_loadGame to LoadGame--><g id="link_join_loadGame_LoadGame"><path d="M4569.2708,1771.5104 C4497.6042,1819.2708 4282.8646,1962.4479 4116.9792,2073.0729 " fill="none" id="join_loadGame-to-LoadGame" style="stroke:#181818;stroke-width:5.208333333333333;"/><polygon fill="#181818" points="4094.9479,2087.7604,4145.5065,2079.0932,4116.6159,2073.3151,4122.394,2044.4245,4094.9479,2087.7604" style="stroke:#181818;stroke-width:5.208333333333333;"/></g><!--MD5=[ddff583c54e7308260b45522063551e8]
link LoadGame to fork_beginGame--><g id="link_LoadGame_fork_beginGame"><path d="M3859.2708,2349.2187 C3822.7604,2446.6667 3774.2708,2575.9375 3749.8438,2641.0417 " fill="none" id="LoadGame-to-fork_beginGame" style="stroke:#181818;stroke-width:5.208333333333333;"/><polygon fill="#181818" points="3740.4167,2666.0938,3776.3824,2629.5184,3749.5605,2641.7102,3737.3687,2614.8882,3740.4167,2666.0938" style="stroke:#181818;stroke-width:5.208333333333333;"/></g><!--MD5=[8081990edf0186226a335e70e442671f]
link UpdateWorld to fork_beginGame--><g id="link_UpdateWorld_fork_beginGame"><path d="M4279.5833,9083.2292 C3309.5312,9060.4687 31.25,8951.7188 31.25,8520.8333 C31.25,3239.5833 31.25,3239.5833 31.25,3239.5833 C31.25,2635.1563 743.3854,2970.1042 1338.5417,2864.5833 C2121.0417,2725.8333 3066.1458,2698.4375 3498.1771,2693.4375 " fill="none" id="UpdateWorld-to-fork_beginGame" style="stroke:#181818;stroke-width:5.208333333333333;"/><polygon fill="#181818" points="3525.8854,2693.1771,3478.7754,2672.8808,3499.8455,2693.4747,3479.2516,2714.5447,3525.8854,2693.1771" style="stroke:#181818;stroke-width:5.208333333333333;"/><text fill="#000000" font-family="sans-serif" font-size="67.7083" lengthAdjust="spacing" textLength="942.7083" x="36.4583" y="6356.7454">Update the way the world looks</text></g><!--MD5=[2a323248cc828a3b9769b47e28b7a51d]
link fork_beginGame to MovePlayer--><g id="link_fork_beginGame_MovePlayer"><path d="M3728.8542,2709.0104 C3715.3125,2751.7187 3684.0104,2869.7396 3718.75,2958.3333 C3738.3854,3008.3854 3771.5104,3054.8437 3807.7604,3095 " fill="none" id="fork_beginGame-to-MovePlayer" style="stroke:#181818;stroke-width:5.208333333333333;"/><polygon fill="#181818" points="3825.7292,3114.2188,3808.8681,3065.7729,3807.9182,3095.2204,3778.4707,3094.2705,3825.7292,3114.2188" style="stroke:#181818;stroke-width:5.208333333333333;"/><text fill="#000000" font-family="sans-serif" font-size="67.7083" lengthAdjust="spacing" textLength="1463.5417" x="3723.9583" y="2940.0787">Use A, D and SpaceBar keys to move the player</text></g><!--MD5=[721fb3f26c7581e819e96a842a403b13]
link MovePlayer to MovementSound--><g id="link_MovePlayer_MovementSound"><path d="M4074.6354,3376.7708 C4185.9896,3524.5833 4369.7396,3768.5937 4487.5,3924.9479 " fill="none" id="MovePlayer-to-MovementSound" style="stroke:#181818;stroke-width:5.208333333333333;"/><polygon fill="#181818" points="4504.375,3947.3437,4492.7166,3897.39,4488.6667,3926.5731,4459.4836,3922.5232,4504.375,3947.3437" style="stroke:#181818;stroke-width:5.208333333333333;"/></g><!--MD5=[6b6e8b32dcf6d2f520af37a76d5d7b39]
link MovementSound to movement_fork--><g id="link_MovementSound_movement_fork"><path d="M4639.0625,4210.1042 C4699.0625,4399.6354 4809.0625,4747.2396 4846.5104,4865.5729 " fill="none" id="MovementSound-to-movement_fork" style="stroke:#181818;stroke-width:5.208333333333333;"/><polygon fill="#181818" points="4854.375,4890.4688,4860.0528,4839.4878,4846.4975,4865.6471,4820.3382,4852.0918,4854.375,4890.4688" style="stroke:#181818;stroke-width:5.208333333333333;"/></g><!--MD5=[4a8808ddae2355be495c3ae433bfe5f8]
link movement_fork to UpdateWorld--><g id="link_movement_fork_UpdateWorld"><path d="M4902.1875,4932.5521 C4973.4375,4958.4896 5121.3542,5010.2083 5250,5041.6667 C6039.5833,5234.6875 7000,4760.1042 7000,5572.9167 C7000,5572.9167 7000,5572.9167 7000,8520.8333 C7000,8959.5313 5491.9792,9059.3229 4840.6771,9081.9271 " fill="none" id="movement_fork-to-UpdateWorld" style="stroke:#181818;stroke-width:5.208333333333333;"/><polygon fill="#181818" points="4814.0625,9082.8125,4861.6238,9102.0274,4840.0889,9081.9202,4860.1961,9060.3852,4814.0625,9082.8125" style="stroke:#181818;stroke-width:5.208333333333333;"/></g><!--MD5=[757b6dc5edfc04432394f962bcee5c23]
link movement_fork to GenerateNewChunk--><g id="link_movement_fork_GenerateNewChunk"><path d="M4845.5729,4933.5417 C4761.5625,5035.8854 4316.25,5578.75 4098.8021,5843.75 " fill="none" id="movement_fork-to-GenerateNewChunk" style="stroke:#181818;stroke-width:5.208333333333333;"/><polygon fill="#181818" points="4082.2917,5863.9062,4128.1544,5840.9302,4098.8309,5843.791,4095.97,5814.4674,4082.2917,5863.9062" style="stroke:#181818;stroke-width:5.208333333333333;"/></g><!--MD5=[f4da7895395461a13e5e1c8d0f7e15a5]
link GenerateNewChunk to UpdateWorld--><g id="link_GenerateNewChunk_UpdateWorld"><path d="M3839.6354,6126.6667 C3716.4583,6254.4792 3570.3125,6456.5104 3666.6667,6625 C3734.6875,6743.9062 3820.2604,6702.4479 3932.2917,6781.25 C4168.8542,6947.7083 4272.2396,6956.9792 4432.2917,7197.9167 C4528.6979,7343.0729 4546.875,7398.6458 4546.875,7572.9167 C4546.875,7572.9167 4546.875,7572.9167 4546.875,8520.8333 C4546.875,8661.3542 4546.875,8821.4583 4546.875,8935.7292 " fill="none" id="GenerateNewChunk-to-UpdateWorld" style="stroke:#181818;stroke-width:5.208333333333333;"/><polygon fill="#181818" points="4546.875,8962.2917,4567.7083,8915.4167,4546.875,8936.25,4526.0417,8915.4167,4546.875,8962.2917" style="stroke:#181818;stroke-width:5.208333333333333;"/></g><!--MD5=[fbcd5ea9e5fab6c2163552ece2c4f6c8]
link fork_beginGame to BreakBlocks--><g id="link_fork_beginGame_BreakBlocks"><path d="M3525.3646,2694.2187 C3343.4375,2704.5312 3079.2708,2742.0833 2885.4167,2864.5833 C2798.75,2919.3229 2729.2708,3010.9896 2681.0417,3090 " fill="none" id="fork_beginGame-to-BreakBlocks" style="stroke:#181818;stroke-width:5.208333333333333;"/><polygon fill="#181818" points="2666.7708,3114.0625,2708.5635,3084.3191,2680.0265,3091.647,2672.6987,3063.11,2666.7708,3114.0625" style="stroke:#181818;stroke-width:5.208333333333333;"/><text fill="#000000" font-family="sans-serif" font-size="67.7083" lengthAdjust="spacing" textLength="765.625" x="2890.625" y="2940.0787">Left Click to break blocks</text></g><!--MD5=[534813735a99fc1779e9c8ec18795084]
link BreakBlocks to BreakBlockSound--><g id="link_BreakBlocks_BreakBlockSound"><path d="M2593.0729,3375.6771 C2572.8646,3604.8958 2530.0521,4090.0521 2508.2292,4337.5 " fill="none" id="BreakBlocks-to-BreakBlockSound" style="stroke:#181818;stroke-width:5.208333333333333;"/><polygon fill="#181818" points="2505.8854,4363.5937,2530.7844,4318.7459,2508.1895,4337.6542,2489.2811,4315.0593,2505.8854,4363.5937" style="stroke:#181818;stroke-width:5.208333333333333;"/><text fill="#000000" font-family="sans-serif" font-size="67.7083" lengthAdjust="spacing" textLength="796.875" x="2588.5417" y="3690.0787">Play block breaking sound</text></g><!--MD5=[762b69bb5d51ef293de3cd656ef5df61]
link BreakBlockSound to AddInventory--><g id="link_BreakBlockSound_AddInventory"><path d="M2461.5104,4625.8333 C2355.6771,5056.6146 2072.4479,6489.4792 2750,7291.6667 C2786.4583,7334.7917 3060.2083,7422.8125 3283.125,7488.9062 " fill="none" id="BreakBlockSound-to-AddInventory" style="stroke:#181818;stroke-width:5.208333333333333;"/><polygon fill="#181818" points="3308.6458,7496.4583,3269.597,7463.1945,3283.6719,7489.078,3257.7884,7503.1528,3308.6458,7496.4583" style="stroke:#181818;stroke-width:5.208333333333333;"/><text fill="#000000" font-family="sans-serif" font-size="67.7083" lengthAdjust="spacing" textLength="932.2917" x="2333.3333" y="6023.4121">Add the blocks to the inventory</text></g><!--MD5=[d3dbce93dd45aed1e38a8e33ed6bfd50]
link fork_beginGame to PlaceBlocks--><g id="link_fork_beginGame_PlaceBlocks"><path d="M3525.6771,2694.7396 C2993.0729,2701.875 1614.3229,2733.0208 1458.3333,2864.5833 C1273.8021,3020.2083 1247.2396,3319.375 1250.1042,3502.0313 " fill="none" id="fork_beginGame-to-PlaceBlocks" style="stroke:#181818;stroke-width:5.208333333333333;"/><polygon fill="#181818" points="1250.7813,3530.3125,1270.4027,3482.9175,1250.1118,3504.2794,1228.7498,3483.9885,1250.7813,3530.3125" style="stroke:#181818;stroke-width:5.208333333333333;"/><text fill="#000000" font-family="sans-serif" font-size="67.7083" lengthAdjust="spacing" textLength="1270.8333" x="1463.5417" y="2940.0787">right Click to remove blocks from inventory</text></g><!--MD5=[6c1d1dc5b8aaec9b489dc3c2a8287d71]
link PlaceBlocks to RemoveInventory--><g id="link_PlaceBlocks_RemoveInventory"><path d="M1260.4167,3792.1354 C1260.4167,3953.4896 1260.4167,4242.4479 1260.4167,4489.5833 C1260.4167,4489.5833 1260.4167,4489.5833 1260.4167,6916.6667 C1260.4167,7394.1146 1918.5417,7526.25 2350.5729,7561.5625 " fill="none" id="PlaceBlocks-to-RemoveInventory" style="stroke:#181818;stroke-width:5.208333333333333;"/><polygon fill="#181818" points="2378.6979,7563.75,2333.5695,7539.3631,2352.7338,7561.7413,2330.3556,7580.9056,2378.6979,7563.75" style="stroke:#181818;stroke-width:5.208333333333333;"/><text fill="#000000" font-family="sans-serif" font-size="67.7083" lengthAdjust="spacing" textLength="906.25" x="1265.625" y="5606.7454">Remove Blocks from inventory</text></g><!--MD5=[0bd04028f07fb51666653506de3bec15]
link movement_fork to CraftMenu--><g id="link_movement_fork_CraftMenu"><path d="M4865.0521,4932.8646 C4888.1771,4999.2188 4977.2396,5254.1667 5035.6771,5421.5625 " fill="none" id="movement_fork-to-CraftMenu" style="stroke:#181818;stroke-width:5.208333333333333;"/><polygon fill="#181818" points="5044.7917,5447.6563,5049.0392,5396.5363,5036.222,5423.065,5009.6933,5410.2478,5044.7917,5447.6563" style="stroke:#181818;stroke-width:5.208333333333333;"/><text fill="#000000" font-family="sans-serif" font-size="67.7083" lengthAdjust="spacing" textLength="1119.7917" x="4994.7917" y="5273.4121">Open Craft Menu if near crafting table</text></g><!--MD5=[3207c0e16045ddb758676add8ce4bd26]
link CraftMenu to fork_craft--><g id="link_CraftMenu_fork_craft"><path d="M4992.2396,5708.8021 C4859.8438,5881.25 4628.9583,6182.0313 4549.0104,6286.1979 " fill="none" id="CraftMenu-to-fork_craft" style="stroke:#181818;stroke-width:5.208333333333333;"/><polygon fill="#181818" points="4532.8646,6307.2917,4577.9109,6282.7534,4548.7029,6286.62,4544.8363,6257.4121,4532.8646,6307.2917" style="stroke:#181818;stroke-width:5.208333333333333;"/></g><!--MD5=[f942464669e684a5f7d7b80f46c78f9d]
link fork_craft to CanCraft--><g id="link_fork_craft_CanCraft"><path d="M4310.8854,6335.9375 C4143.125,6349.1146 3912.5521,6393.6458 3765.625,6531.25 C3704.5312,6588.4896 3673.2812,6676.3542 3657.2917,6752.6563 " fill="none" id="fork_craft-to-CanCraft" style="stroke:#181818;stroke-width:5.208333333333333;"/><polygon fill="#181818" points="3652.0833,6780.1562,3681.2576,6737.9644,3656.9184,6754.5674,3640.3154,6730.2282,3652.0833,6780.1562" style="stroke:#181818;stroke-width:5.208333333333333;"/><text fill="#000000" font-family="sans-serif" font-size="67.7083" lengthAdjust="spacing" textLength="661.4583" x="3770.8333" y="6606.7454">Able to Craft new Tool</text></g><!--MD5=[fcd79d5c6715be188cde788c51620b11]
link fork_craft to CannotCraft--><g id="link_fork_craft_CannotCraft"><path d="M4513.4896,6350.8333 C4494.5833,6398.9063 4449.4271,6535.4687 4505.2083,6625 C4570.5729,6729.8958 4687.7604,6796.8229 4799.2188,6838.8542 " fill="none" id="fork_craft-to-CannotCraft" style="stroke:#181818;stroke-width:5.208333333333333;"/><polygon fill="#181818" points="4824.375,6848.0208,4787.4766,6812.3866,4799.9099,6839.0974,4773.1991,6851.5307,4824.375,6848.0208" style="stroke:#181818;stroke-width:5.208333333333333;"/><text fill="#000000" font-family="sans-serif" font-size="67.7083" lengthAdjust="spacing" textLength="760.4167" x="4510.4167" y="6606.7454">Not able to Craft new tool</text></g><!--MD5=[c894ec830cfbfdb5a5eef76f31273b4b]
link CanCraft to RemoveInventory--><g id="link_CanCraft_RemoveInventory"><path d="M3439.1146,6939.1146 C3261.5625,6969.1146 3007.2396,7038.5417 2848.9583,7197.9167 C2790.1563,7257.1354 2757.8125,7344.2708 2740.1042,7419.6354 " fill="none" id="CanCraft-to-RemoveInventory" style="stroke:#181818;stroke-width:5.208333333333333;"/><polygon fill="#181818" points="2734.2188,7446.8229,2764.494,7405.414,2739.7261,7421.3703,2723.7698,7396.6023,2734.2188,7446.8229" style="stroke:#181818;stroke-width:5.208333333333333;"/><text fill="#000000" font-family="sans-serif" font-size="67.7083" lengthAdjust="spacing" textLength="708.3333" x="2854.1667" y="7273.4121">Remove Blocks needed</text></g><!--MD5=[44dd9d090d2642ff8ca10c9370ee3314]
link CanCraft to AddInventory--><g id="link_CanCraft_AddInventory"><path d="M3628.5938,7043.1771 C3618.3333,7150.7813 3603.5937,7305.5729 3592.7083,7420.0521 " fill="none" id="CanCraft-to-AddInventory" style="stroke:#181818;stroke-width:5.208333333333333;"/><polygon fill="#181818" points="3590.1562,7446.7708,3615.3217,7402.0719,3592.6147,7420.8455,3573.8412,7398.1384,3590.1562,7446.7708" style="stroke:#181818;stroke-width:5.208333333333333;"/><text fill="#000000" font-family="sans-serif" font-size="67.7083" lengthAdjust="spacing" textLength="770.8333" x="3619.7917" y="7273.4121">Add new Tool to inventory</text></g><!--MD5=[fd47b4992ea6f05bd84e952de90e5c3d]
link CannotCraft to CraftMenu--><g id="link_CannotCraft_CraftMenu"><path d="M5203.9063,6781.1979 C5241.3021,6735.8854 5277.3958,6681.7708 5296.875,6625 C5402.3958,6317.3958 5263.6979,5939.3229 5167.1875,5733.8021 " fill="none" id="CannotCraft-to-CraftMenu" style="stroke:#181818;stroke-width:5.208333333333333;"/><polygon fill="#181818" points="5155.625,5709.6354,5156.9685,5760.914,5166.8212,5733.1474,5194.5877,5743.0001,5155.625,5709.6354" style="stroke:#181818;stroke-width:5.208333333333333;"/></g><!--MD5=[52b7ef89ea914d37f8d696822bd3f466]
link CraftMenu to UpdateWorld--><g id="link_CraftMenu_UpdateWorld"><path d="M5269.375,5709.1667 C5319.4792,5752.7604 5368.8542,5805.625 5401.0417,5864.5833 C5550.4167,6138.3333 5609.375,6475.625 5609.375,7864.5833 C5609.375,7864.5833 5609.375,7864.5833 5609.375,8520.8333 C5609.375,8871.25 5154.2708,9006.1458 4839.7917,9057.5521 " fill="none" id="CraftMenu-to-UpdateWorld" style="stroke:#181818;stroke-width:5.208333333333333;"/><polygon fill="#181818" points="4813.5938,9061.6667,4863.1581,9074.8828,4839.3125,9057.5784,4856.6169,9033.7328,4813.5938,9061.6667" style="stroke:#181818;stroke-width:5.208333333333333;"/><text fill="#000000" font-family="sans-serif" font-size="67.7083" lengthAdjust="spacing" textLength="1104.1667" x="5614.5833" y="7606.7454">Press ESC key to exit crafting menu</text></g><!--MD5=[5c4362e8a0cb43f880af60fbbf4817f2]
link RemoveInventory to join_inventory--><g id="link_RemoveInventory_join_inventory"><path d="M2953.5938,7708.5937 C3148.6458,7812.6042 3411.7187,7952.9167 3523.8542,8012.7083 " fill="none" id="RemoveInventory-to-join_inventory" style="stroke:#181818;stroke-width:5.208333333333333;"/><polygon fill="#181818" points="3547.8125,8025.4687,3516.2765,7985.0117,3524.8407,8013.2023,3496.6501,8021.7665,3547.8125,8025.4687" style="stroke:#181818;stroke-width:5.208333333333333;"/></g><!--MD5=[7f341bcbcbd48b562cc8ee4d0a84157e]
link AddInventory to join_inventory--><g id="link_AddInventory_join_inventory"><path d="M3578.125,7708.5937 C3578.125,7805.1562 3578.125,7932.9688 3578.125,7998.6458 " fill="none" id="AddInventory-to-join_inventory" style="stroke:#181818;stroke-width:5.208333333333333;"/><polygon fill="#181818" points="3578.125,8025.4687,3598.9583,7978.5937,3578.125,7999.4271,3557.2917,7978.5937,3578.125,8025.4687" style="stroke:#181818;stroke-width:5.208333333333333;"/></g><!--MD5=[ec57456a8d91d079e1c98afe8008d279]
link join_inventory to UpdateInventory--><g id="link_join_inventory_UpdateInventory"><path d="M3589.2187,8069.4792 C3619.5313,8117.1354 3706.1458,8253.2813 3775.2083,8361.7708 " fill="none" id="join_inventory-to-UpdateInventory" style="stroke:#181818;stroke-width:5.208333333333333;"/><polygon fill="#181818" points="3789.6354,8384.4792,3782.09,8333.741,3775.6735,8362.4966,3746.9179,8356.0801,3789.6354,8384.4792" style="stroke:#181818;stroke-width:5.208333333333333;"/></g><!--MD5=[8464d68489ed7c322edf446fa3807338]
link UpdateInventory to UpdateWorld--><g id="link_UpdateInventory_UpdateWorld"><path d="M4020.0521,8646.8229 C4125.6771,8735.4167 4267.1875,8854.0104 4376.9271,8946.0417 " fill="none" id="UpdateInventory-to-UpdateWorld" style="stroke:#181818;stroke-width:5.208333333333333;"/><polygon fill="#181818" points="4397.0313,8962.9167,4374.4421,8916.8621,4377.056,8946.2087,4347.7093,8948.8226,4397.0313,8962.9167" style="stroke:#181818;stroke-width:5.208333333333333;"/></g><!--MD5=[cfaa48ce86dc64c4f40e97086f212ca2]
link fork_beginGame to PauseMenu--><g id="link_fork_beginGame_PauseMenu"><path d="M3942.7604,2696.5104 C4341.7708,2706.5104 5197.8125,2742.0313 5463.5417,2864.5833 C5574.5312,2915.7292 5673.4896,3011.6146 5744.0625,3093.6458 " fill="none" id="fork_beginGame-to-PauseMenu" style="stroke:#181818;stroke-width:5.208333333333333;"/><polygon fill="#181818" points="5761.3542,3114.1667,5747.062,3064.9018,5744.5661,3094.2587,5715.2092,3091.7627,5761.3542,3114.1667" style="stroke:#181818;stroke-width:5.208333333333333;"/><text fill="#000000" font-family="sans-serif" font-size="67.7083" lengthAdjust="spacing" textLength="828.125" x="5609.375" y="2940.0787">Press P to pause the game</text></g><!--MD5=[d4e7c3132c2429a51c6cec983bd33e69]
link PauseMenu to fork_pause--><g id="link_PauseMenu_fork_pause"><path d="M5854.1667,3376.7708 C5854.1667,3565.5208 5854.1667,3910.9375 5854.1667,4030.7292 " fill="none" id="PauseMenu-to-fork_pause" style="stroke:#181818;stroke-width:5.208333333333333;"/><polygon fill="#181818" points="5854.1667,4057.1354,5875,4010.2604,5854.1667,4031.0938,5833.3333,4010.2604,5854.1667,4057.1354" style="stroke:#181818;stroke-width:5.208333333333333;"/></g><!--MD5=[4a3f44e0c9a5d97052047b6d0e8a9c10]
link fork_pause to Continue--><g id="link_fork_pause_Continue"><path d="M5833.75,4099.7917 C5786.0417,4139.5313 5667.3958,4246.25 5614.5833,4364.5833 C5559.4792,4488.125 5543.125,4642.0833 5539.4792,4754.2187 " fill="none" id="fork_pause-to-Continue" style="stroke:#181818;stroke-width:5.208333333333333;"/><polygon fill="#181818" points="5538.8021,4780.3646,5560.7011,4733.9779,5539.3972,4754.3297,5519.0453,4733.0258,5538.8021,4780.3646" style="stroke:#181818;stroke-width:5.208333333333333;"/><text fill="#000000" font-family="sans-serif" font-size="67.7083" lengthAdjust="spacing" textLength="588.5417" x="5619.7917" y="4523.4121">press C to continue</text></g><!--MD5=[c152fc27801946a7b2331d847a291588]
link Continue to fork_beginGame--><g id="link_Continue_fork_beginGame"><path d="M5525.6771,4780.2083 C5469.8958,4345.5208 5283.75,2931.7708 5213.5417,2864.5833 C5125.6771,2780.4687 4367.2917,2727.1354 3971.9792,2704.7917 " fill="none" id="Continue-to-fork_beginGame" style="stroke:#181818;stroke-width:5.208333333333333;"/><polygon fill="#181818" points="3944.1667,2703.2292,3989.7768,2726.7028,3970.1659,2704.7148,3992.1539,2685.104,3944.1667,2703.2292" style="stroke:#181818;stroke-width:5.208333333333333;"/></g><!--MD5=[d9aac3f5d91ebcf8727f786d38ba5419]
link fork_pause to ExitGame--><g id="link_fork_pause_ExitGame"><path d="M5882.2396,4099.8438 C5948.4896,4139.6875 6117.8646,4246.5625 6234.375,4364.5833 C6334.5833,4466.0938 6306.0938,4541.6667 6421.875,4625 C6622.1354,4769.1146 6898.2813,4840.8854 7092.9687,4875.625 " fill="none" id="fork_pause-to-ExitGame" style="stroke:#181818;stroke-width:5.208333333333333;"/><polygon fill="#181818" points="7118.6458,4880.0521,7076.0477,4851.4743,7092.9915,4875.5775,7068.8883,4892.5213,7118.6458,4880.0521" style="stroke:#181818;stroke-width:5.208333333333333;"/><text fill="#000000" font-family="sans-serif" font-size="67.7083" lengthAdjust="spacing" textLength="760.4167" x="6427.0833" y="4523.4121">Press Q to exit the game</text></g><!--MD5=[acaf5f71a481102909d7e108d08f32f4]
link Options to StartScreen--><g id="link_Options_StartScreen"><path d="M8354.3229,746.3021 C8278.2292,855.2604 8168.3333,1012.6042 8088.125,1127.5 " fill="none" id="Options-to-StartScreen" style="stroke:#181818;stroke-width:5.208333333333333;"/><polygon fill="#181818" points="8072.5,1149.8958,8116.3925,1123.3489,8087.3889,1128.5302,8082.2076,1099.5266,8072.5,1149.8958" style="stroke:#181818;stroke-width:5.208333333333333;"/><text fill="#000000" font-family="sans-serif" font-size="67.7083" lengthAdjust="spacing" textLength="468.75" x="8244.7917" y="976.5371">Press ESC key</text></g><!--MD5=[0571f3b32aafadf6499669f77f8bf9ef]
link ExitGame to *end--><g id="link_ExitGame_*end"><path d="M7328.125,5043.1771 C7328.125,5177.9167 7328.125,5386.6146 7328.125,5497.6042 " fill="none" id="ExitGame-to-*end" style="stroke:#181818;stroke-width:5.208333333333333;"/><polygon fill="#181818" points="7328.125,5524.8438,7348.9583,5477.9688,7328.125,5498.8021,7307.2917,5477.9688,7328.125,5524.8438" style="stroke:#181818;stroke-width:5.208333333333333;"/><text fill="#000000" font-family="sans-serif" font-size="67.7083" lengthAdjust="spacing" textLength="296.875" x="7333.3333" y="5273.4121">end game</text></g><!--MD5=[31a0c10c204fa3a3e4179181f8472486]
@startuml state

skinparam dpi 500

state fork_startScreen <<fork>>
state fork_beginGame <<fork>>
state fork_pause <<fork>>
state fork_craft <<fork>>
state movement_fork <<fork>>
state join_inventory <<join>>
state join_loadGame <<join>>

[*] - -> StartScreen : Start
StartScreen - -> fork_startScreen
fork_startScreen - -> BeginGame : Click Begin Game Button
fork_startScreen - -> ExitGame : Click Exit Game Button
fork_startScreen - -> Options : Click Question Mark Button
BeginGame - -> GenerateWorld
BeginGame - -> LoadPlayer
BeginGame - -> LoadTextures
BeginGame - -> LoadCamera
BeginGame - -> LoadSounds

GenerateWorld - -> join_loadGame
LoadSounds - -> join_loadGame
LoadPlayer - -> join_loadGame
LoadTextures - -> join_loadGame
LoadCamera - -> join_loadGame
join_loadGame - -> LoadGame 
LoadGame - -> fork_beginGame

UpdateWorld - -> fork_beginGame : Update the way the world looks


fork_beginGame - -> MovePlayer : Use A, D and SpaceBar keys to move the player
MovePlayer - -> MovementSound
MovementSound - -> movement_fork
movement_fork - -> UpdateWorld
movement_fork - -> GenerateNewChunk
GenerateNewChunk - -> UpdateWorld

fork_beginGame - -> BreakBlocks : Left Click to break blocks
BreakBlocks - -> BreakBlockSound : Play block breaking sound
BreakBlockSound - -> AddInventory : Add the blocks to the inventory

fork_beginGame - -> PlaceBlocks : right Click to remove blocks from inventory
PlaceBlocks - -> RemoveInventory : Remove Blocks from inventory

movement_fork - -> CraftMenu : Open Craft Menu if near crafting table
CraftMenu - -> fork_craft
fork_craft - -> CanCraft : Able to Craft new Tool
fork_craft - -> CannotCraft : Not able to Craft new tool
CanCraft - -> RemoveInventory : Remove Blocks needed 
CanCraft - -> AddInventory : Add new Tool to inventory
CannotCraft - -> CraftMenu
CraftMenu - -> UpdateWorld : Press ESC key to exit crafting menu

RemoveInventory - -> join_inventory
AddInventory - -> join_inventory
join_inventory - -> UpdateInventory 

UpdateInventory - -> UpdateWorld
fork_beginGame - -> PauseMenu : Press P to pause the game


PauseMenu - -> fork_pause
fork_pause - -> Continue : press C to continue
Continue - -> fork_beginGame
fork_pause - -> ExitGame : Press Q to exit the game
Options - -> StartScreen : Press ESC key
ExitGame - -> [*] : end game
@enduml 

PlantUML version 1.2022.7(Mon Aug 22 19:01:30 SAST 2022)
(GPL source distribution)
Java Runtime: Java(TM) SE Runtime Environment
JVM: Java HotSpot(TM) 64-Bit Server VM
Default Encoding: UTF-8
Language: en
Country: ZA
--></g></svg>