<?xml version="1.0" encoding="UTF-8" standalone="no"?><svg xmlns="http://www.w3.org/2000/svg" xmlns:xlink="http://www.w3.org/1999/xlink" contentStyleType="text/css" height="2489.5833px" preserveAspectRatio="none" style="width:2984px;height:2489px;background:#FFFFFF;" version="1.1" viewBox="0 0 2984 2489" width="2984.375px" zoomAndPan="magnify"><defs/><g><rect fill="#555555" height="41.6667" style="stroke:none;stroke-width:5.208333333333333;" width="416.6667" x="1117.1875" y="453.125"/><rect fill="#555555" height="41.6667" style="stroke:none;stroke-width:5.208333333333333;" width="416.6667" x="986.9792" y="1390.625"/><rect fill="#555555" height="41.6667" style="stroke:none;stroke-width:5.208333333333333;" width="416.6667" x="986.9792" y="1750"/><ellipse cx="1325.5208" cy="83.3333" fill="#222222" rx="52.0833" ry="52.0833" style="stroke:none;stroke-width:5.208333333333333;"/><g id="LoadAgent"><rect fill="#F1F1F1" height="260.4167" rx="65.1042" ry="65.1042" style="stroke:#181818;stroke-width:2.6041666666666665;" width="463.5417" x="36.4583" y="812.5"/><line style="stroke:#181818;stroke-width:2.6041666666666665;" x1="36.4583" x2="500" y1="956.2988" y2="956.2988"/><text fill="#000000" font-family="sans-serif" font-size="72.9167" lengthAdjust="spacing" textLength="359.375" x="88.5417" y="914.2354">LoadAgent</text></g><g id="LoadTextures"><rect fill="#F1F1F1" height="260.4167" rx="65.1042" ry="65.1042" style="stroke:#181818;stroke-width:2.6041666666666665;" width="557.2917" x="682.2917" y="812.5"/><line style="stroke:#181818;stroke-width:2.6041666666666665;" x1="682.2917" x2="1239.5833" y1="956.2988" y2="956.2988"/><text fill="#000000" font-family="sans-serif" font-size="72.9167" lengthAdjust="spacing" textLength="453.125" x="734.375" y="914.2354">LoadTextures</text></g><g id="LoadCamera"><rect fill="#F1F1F1" height="260.4167" rx="65.1042" ry="65.1042" style="stroke:#181818;stroke-width:2.6041666666666665;" width="531.25" x="1424.4792" y="812.5"/><line style="stroke:#181818;stroke-width:2.6041666666666665;" x1="1424.4792" x2="1955.7292" y1="956.2988" y2="956.2988"/><text fill="#000000" font-family="sans-serif" font-size="72.9167" lengthAdjust="spacing" textLength="427.0833" x="1476.5625" y="914.2354">LoadCamera</text></g><g id="generateEnvironment"><rect fill="#F1F1F1" height="260.4167" rx="65.1042" ry="65.1042" style="stroke:#181818;stroke-width:2.6041666666666665;" width="812.5" x="2138.0208" y="812.5"/><line style="stroke:#181818;stroke-width:2.6041666666666665;" x1="2138.0208" x2="2950.5208" y1="956.2988" y2="956.2988"/><text fill="#000000" font-family="sans-serif" font-size="72.9167" lengthAdjust="spacing" textLength="708.3333" x="2190.1042" y="914.2354">generateEnvironment</text></g><g id="agentMovments"><rect fill="#F1F1F1" height="260.4167" rx="65.1042" ry="65.1042" style="stroke:#181818;stroke-width:2.6041666666666665;" width="625" x="882.8125" y="2197.9167"/><line style="stroke:#181818;stroke-width:2.6041666666666665;" x1="882.8125" x2="1507.8125" y1="2341.7155" y2="2341.7155"/><text fill="#000000" font-family="sans-serif" font-size="72.9167" lengthAdjust="spacing" textLength="520.8333" x="934.8958" y="2299.6521">agentMovments</text></g><ellipse cx="1742.1875" cy="2328.125" fill="none" rx="52.0833" ry="52.0833" style="stroke:#222222;stroke-width:5.208333333333333;"/><ellipse cx="1744.7917" cy="2330.7292" fill="#222222" rx="31.25" ry="31.25" style="stroke:none;stroke-width:5.208333333333333;"/><!--MD5=[89d3cfe42e7d750172f41f51cf57497d]
link *start to fork_environment--><g id="link_*start_fork_environment"><path d="M1325.5208,136.7188 C1325.5208,210.8854 1325.5208,351.9792 1325.5208,424.0104 " fill="none" id="*start-to-fork_environment" style="stroke:#181818;stroke-width:5.208333333333333;"/><polygon fill="#181818" points="1325.5208,451.7708,1346.3542,404.8958,1325.5208,425.7292,1304.6875,404.8958,1325.5208,451.7708" style="stroke:#181818;stroke-width:5.208333333333333;"/></g><!--MD5=[ceb79df33da5cffa04c30563299f74bc]
link fork_environment to LoadAgent--><g id="link_fork_environment_LoadAgent"><path d="M1287.9167,495.4687 C1167.8125,547.5521 786.3021,712.9167 525.5729,825.9375 " fill="none" id="fork_environment-to-LoadAgent" style="stroke:#181818;stroke-width:5.208333333333333;"/><polygon fill="#181818" points="500.7292,836.7187,552.0229,837.2101,524.6266,826.3707,535.466,798.9743,500.7292,836.7187" style="stroke:#181818;stroke-width:5.208333333333333;"/></g><!--MD5=[b3b670b57f3a6b684896739040dd6a79]
link fork_environment to LoadTextures--><g id="link_fork_environment_LoadTextures"><path d="M1311.6667,496.5625 C1273.6458,544.4271 1164.5833,681.5104 1078.0729,790.2604 " fill="none" id="fork_environment-to-LoadTextures" style="stroke:#181818;stroke-width:5.208333333333333;"/><polygon fill="#181818" points="1061.0938,811.5625,1106.6233,787.933,1077.3437,791.2128,1074.0639,761.9332,1061.0938,811.5625" style="stroke:#181818;stroke-width:5.208333333333333;"/></g><!--MD5=[71b5281988c3133d75b96c5105fd0ea9]
link fork_environment to LoadCamera--><g id="link_fork_environment_LoadCamera"><path d="M1339.375,496.5625 C1377.3958,544.4271 1486.4583,681.5104 1572.9687,790.2604 " fill="none" id="fork_environment-to-LoadCamera" style="stroke:#181818;stroke-width:5.208333333333333;"/><polygon fill="#181818" points="1589.9479,811.5625,1576.9778,761.9332,1573.698,791.2128,1544.4183,787.933,1589.9479,811.5625" style="stroke:#181818;stroke-width:5.208333333333333;"/></g><!--MD5=[28443abf98a87c46ffa24ca2aa0bb57c]
link fork_environment to generateEnvironment--><g id="link_fork_environment_generateEnvironment"><path d="M1367.4479,494.9479 C1495.3125,543.0208 1889.375,691.1979 2186.5625,802.9688 " fill="none" id="fork_environment-to-generateEnvironment" style="stroke:#181818;stroke-width:5.208333333333333;"/><polygon fill="#181818" points="2211.4062,812.2917,2174.8671,776.2892,2187.0319,803.1233,2160.1977,815.2881,2211.4062,812.2917" style="stroke:#181818;stroke-width:5.208333333333333;"/></g><!--MD5=[773c4d23faad8d9746eb156e6a762e6b]
link LoadCamera to join_environment--><g id="link_LoadCamera_join_environment"><path d="M1554.8958,1073.1771 C1445.8854,1174.1146 1300.0521,1309.2188 1232.5,1371.7708 " fill="none" id="LoadCamera-to-join_environment" style="stroke:#181818;stroke-width:5.208333333333333;"/><polygon fill="#181818" points="1212.7604,1390.0521,1261.3085,1373.4877,1231.8674,1372.3577,1232.9975,1342.9166,1212.7604,1390.0521" style="stroke:#181818;stroke-width:5.208333333333333;"/></g><!--MD5=[b743d646580f64a092883adc6511075f]
link LoadTextures to join_environment--><g id="link_LoadTextures_join_environment"><path d="M1025,1073.1771 C1075.2604,1171.5104 1142.1354,1302.1875 1175.1042,1366.7708 " fill="none" id="LoadTextures-to-join_environment" style="stroke:#181818;stroke-width:5.208333333333333;"/><polygon fill="#181818" points="1187.0313,1390.0521,1184.2428,1338.8318,1175.1768,1366.865,1147.1435,1357.799,1187.0313,1390.0521" style="stroke:#181818;stroke-width:5.208333333333333;"/></g><!--MD5=[c40a8e2f1388a469d4f9c9e7e26b0203]
link LoadAgent to join_environment--><g id="link_LoadAgent_join_environment"><path d="M502.1875,1063.5937 C715.5208,1169.0625 1015.625,1317.4479 1139.0104,1378.4375 " fill="none" id="LoadAgent-to-join_environment" style="stroke:#181818;stroke-width:5.208333333333333;"/><polygon fill="#181818" points="1162.5521,1390.0521,1129.7909,1350.5806,1139.2151,1378.4955,1111.3003,1387.9197,1162.5521,1390.0521" style="stroke:#181818;stroke-width:5.208333333333333;"/></g><!--MD5=[a38a728341c56827ec06f7d9a531b0e1]
link generateEnvironment to join_environment--><g id="link_generateEnvironment_join_environment"><path d="M2175.6771,1073.1771 C1861.7187,1179.8438 1435.5729,1324.6354 1267.6042,1381.6667 " fill="none" id="generateEnvironment-to-join_environment" style="stroke:#181818;stroke-width:5.208333333333333;"/><polygon fill="#181818" points="1242.9167,1390.0521,1294.0087,1394.6237,1267.5617,1381.6385,1280.547,1355.1916,1242.9167,1390.0521" style="stroke:#181818;stroke-width:5.208333333333333;"/></g><!--MD5=[5abb261e08b820d4ce316ecc954661bb]
link join_environment to agent_fork--><g id="link_join_environment_agent_fork"><path d="M1195.3125,1433.4896 C1195.3125,1485.4167 1195.3125,1644.375 1195.3125,1722.0312 " fill="none" id="join_environment-to-agent_fork" style="stroke:#181818;stroke-width:5.208333333333333;"/><polygon fill="#181818" points="1195.3125,1749.7917,1216.1458,1702.9167,1195.3125,1723.75,1174.4792,1702.9167,1195.3125,1749.7917" style="stroke:#181818;stroke-width:5.208333333333333;"/></g><!--MD5=[e0b81058c01917395c0b7a95d1cbef52]
link agentMovments to agent_fork--><g id="link_agentMovments_agent_fork"><path d="M1255.7292,2196.1979 C1274.0625,2073.5417 1266.9271,1895 1234.1667,1816.0937 " fill="none" id="agentMovments-to-agent_fork" style="stroke:#181818;stroke-width:5.208333333333333;"/><polygon fill="#181818" points="1220.9896,1791.8229,1225.2162,1842.9446,1233.491,1814.6677,1261.7679,1822.9424,1220.9896,1791.8229" style="stroke:#181818;stroke-width:5.208333333333333;"/></g><!--MD5=[a6a49cf144c116a859ebccf991254484]
link agent_fork to agentMovments--><g id="link_agent_fork_agentMovments"><path d="M1171.0938,1791.8229 C1132.2917,1846.6667 1120.2604,2033.0729 1134.9479,2169.5833 " fill="none" id="agent_fork-to-agentMovments" style="stroke:#181818;stroke-width:5.208333333333333;"/><polygon fill="#181818" points="1138.2813,2196.1979,1153.209,2147.1219,1135.0877,2170.3528,1111.8568,2152.2315,1138.2813,2196.1979" style="stroke:#181818;stroke-width:5.208333333333333;"/></g><!--MD5=[c7c4322edc592c4d5a4874bd49337caa]
link agent_fork to *end--><g id="link_agent_fork_*end"><path d="M1218.8021,1791.6667 C1260.9896,1820.2604 1351.6146,1883.9583 1419.2708,1947.9167 C1526.7708,2049.5313 1635.7812,2184.1146 1695.5729,2261.3021 " fill="none" id="agent_fork-to-*end" style="stroke:#181818;stroke-width:5.208333333333333;"/><polygon fill="#181818" points="1712.5,2283.3333,1700.3286,2233.5021,1696.579,2262.7253,1667.3558,2258.9757,1712.5,2283.3333" style="stroke:#181818;stroke-width:5.208333333333333;"/><text fill="#000000" font-family="sans-serif" font-size="67.7083" lengthAdjust="spacing" textLength="1140.625" x="1513.0208" y="2023.4121">Press the exit button to end the game</text></g><!--MD5=[b94ada10556cf8bc8a8cef2ffe8d2cf0]
@startuml state2

skinparam dpi 500

state fork_environment <<fork>>
state join_environment <<join>> 
state agent_fork <<fork>>

[*] - -> fork_environment
fork_environment - -> LoadAgent
fork_environment - -> LoadTextures 
fork_environment - -> LoadCamera
fork_environment - -> generateEnvironment

LoadCamera - -> join_environment
LoadTextures - -> join_environment
LoadAgent - -> join_environment
generateEnvironment - -> join_environment

join_environment - -> agent_fork

agentMovments - -> agent_fork
agent_fork - -> agentMovments
agent_fork - -> [*] : Press the exit button to end the game

@enduml

PlantUML version 1.2022.7(Mon Aug 22 19:01:30 SAST 2022)
(GPL source distribution)
Java Runtime: Java(TM) SE Runtime Environment
JVM: Java HotSpot(TM) 64-Bit Server VM
Default Encoding: UTF-8
Language: en
Country: ZA
--></g></svg>