<?xml version="1.0" encoding="UTF-8" standalone="no"?><svg xmlns="http://www.w3.org/2000/svg" xmlns:xlink="http://www.w3.org/1999/xlink" contentStyleType="text/css" height="3645.8333px" preserveAspectRatio="none" style="width:3166px;height:3645px;background:#FFFFFF;" version="1.1" viewBox="0 0 3166 3645" width="3166.6667px" zoomAndPan="magnify"><defs/><g><rect fill="#555555" height="41.6667" style="stroke:none;stroke-width:5.208333333333333;" width="416.6667" x="1331.5197" y="453.125"/><rect fill="#555555" height="41.6667" style="stroke:none;stroke-width:5.208333333333333;" width="416.6667" x="1201.3113" y="1390.625"/><rect fill="#555555" height="41.6667" style="stroke:none;stroke-width:5.208333333333333;" width="416.6667" x="1201.3113" y="1750"/><ellipse cx="1539.853" cy="83.3333" fill="#222222" rx="52.0833" ry="52.0833" style="stroke:none;stroke-width:5.208333333333333;"/><g id="LoadAgent"><rect fill="#F1F1F1" height="260.4167" rx="65.1042" ry="65.1042" style="stroke:#181818;stroke-width:2.6041666666666665;" width="463.5417" x="250.7905" y="812.5"/><line style="stroke:#181818;stroke-width:2.6041666666666665;" x1="250.7905" x2="714.3322" y1="956.2988" y2="956.2988"/><text fill="#000000" font-family="sans-serif" font-size="72.9167" lengthAdjust="spacing" textLength="359.375" x="302.8738" y="914.2354">LoadAgent</text></g><g id="LoadTextures"><rect fill="#F1F1F1" height="260.4167" rx="65.1042" ry="65.1042" style="stroke:#181818;stroke-width:2.6041666666666665;" width="557.2917" x="896.6238" y="812.5"/><line style="stroke:#181818;stroke-width:2.6041666666666665;" x1="896.6238" x2="1453.9155" y1="956.2988" y2="956.2988"/><text fill="#000000" font-family="sans-serif" font-size="72.9167" lengthAdjust="spacing" textLength="453.125" x="948.7072" y="914.2354">LoadTextures</text></g><g id="LoadCamera"><rect fill="#F1F1F1" height="260.4167" rx="65.1042" ry="65.1042" style="stroke:#181818;stroke-width:2.6041666666666665;" width="531.25" x="1638.8113" y="812.5"/><line style="stroke:#181818;stroke-width:2.6041666666666665;" x1="1638.8113" x2="2170.0613" y1="956.2988" y2="956.2988"/><text fill="#000000" font-family="sans-serif" font-size="72.9167" lengthAdjust="spacing" textLength="427.0833" x="1690.8947" y="914.2354">LoadCamera</text></g><g id="generateCustomEnv"><rect fill="#F1F1F1" height="260.4167" rx="65.1042" ry="65.1042" style="stroke:#181818;stroke-width:2.6041666666666665;" width="776.0417" x="2354.9572" y="812.5"/><line style="stroke:#181818;stroke-width:2.6041666666666665;" x1="2354.9572" x2="3130.9988" y1="956.2988" y2="956.2988"/><text fill="#000000" font-family="sans-serif" font-size="72.9167" lengthAdjust="spacing" textLength="671.875" x="2407.0405" y="914.2354">generateCustomEnv</text></g><ellipse cx="138.8113" cy="2328.125" fill="none" rx="52.0833" ry="52.0833" style="stroke:#222222;stroke-width:5.208333333333333;"/><ellipse cx="141.4155" cy="2330.7292" fill="#222222" rx="31.25" ry="31.25" style="stroke:none;stroke-width:5.208333333333333;"/><g id="agentObservation"><rect fill="#F1F1F1" height="260.4167" rx="65.1042" ry="65.1042" style="stroke:#181818;stroke-width:2.6041666666666665;" width="692.7083" x="854.9572" y="2197.9167"/><line style="stroke:#181818;stroke-width:2.6041666666666665;" x1="854.9572" x2="1547.6655" y1="2341.7155" y2="2341.7155"/><text fill="#000000" font-family="sans-serif" font-size="72.9167" lengthAdjust="spacing" textLength="588.5417" x="907.0405" y="2299.6521">agentObservation</text></g><g id="agentActions"><rect fill="#F1F1F1" height="260.4167" rx="65.1042" ry="65.1042" style="stroke:#181818;stroke-width:2.6041666666666665;" width="531.25" x="998.1863" y="2776.0417"/><line style="stroke:#181818;stroke-width:2.6041666666666665;" x1="998.1863" x2="1529.4363" y1="2919.8405" y2="2919.8405"/><text fill="#000000" font-family="sans-serif" font-size="72.9167" lengthAdjust="spacing" textLength="427.0833" x="1050.2697" y="2877.7771">agentActions</text></g><g id="agentRewards"><rect fill="#F1F1F1" height="260.4167" rx="65.1042" ry="65.1042" style="stroke:#181818;stroke-width:2.6041666666666665;" width="578.125" x="1255.9988" y="3354.1667"/><line style="stroke:#181818;stroke-width:2.6041666666666665;" x1="1255.9988" x2="1834.1238" y1="3497.9655" y2="3497.9655"/><text fill="#000000" font-family="sans-serif" font-size="72.9167" lengthAdjust="spacing" textLength="473.9583" x="1308.0822" y="3455.9021">agentRewards</text></g><!--MD5=[89d3cfe42e7d750172f41f51cf57497d]
link *start to fork_environment--><g id="link_*start_fork_environment"><path d="M1539.853,136.7188 C1539.853,210.8854 1539.853,351.9792 1539.853,424.0104 " fill="none" id="*start-to-fork_environment" style="stroke:#181818;stroke-width:5.208333333333333;"/><polygon fill="#181818" points="1539.853,451.7708,1560.6863,404.8958,1539.853,425.7292,1519.0197,404.8958,1539.853,451.7708" style="stroke:#181818;stroke-width:5.208333333333333;"/></g><!--MD5=[ceb79df33da5cffa04c30563299f74bc]
link fork_environment to LoadAgent--><g id="link_fork_environment_LoadAgent"><path d="M1502.1968,495.4687 C1382.0926,547.5521 1000.5822,712.9167 739.853,825.9375 " fill="none" id="fork_environment-to-LoadAgent" style="stroke:#181818;stroke-width:5.208333333333333;"/><polygon fill="#181818" points="715.0093,836.7187,766.3042,837.0757,738.8795,826.3081,749.6471,798.8834,715.0093,836.7187" style="stroke:#181818;stroke-width:5.208333333333333;"/></g><!--MD5=[b3b670b57f3a6b684896739040dd6a79]
link fork_environment to LoadTextures--><g id="link_fork_environment_LoadTextures"><path d="M1525.9988,496.5625 C1487.9259,544.4271 1378.9155,681.5104 1292.4051,790.2604 " fill="none" id="fork_environment-to-LoadTextures" style="stroke:#181818;stroke-width:5.208333333333333;"/><polygon fill="#181818" points="1275.4259,811.5625,1320.9133,787.8519,1291.6395,791.1839,1288.3076,761.9101,1275.4259,811.5625" style="stroke:#181818;stroke-width:5.208333333333333;"/></g><!--MD5=[71b5281988c3133d75b96c5105fd0ea9]
link fork_environment to LoadCamera--><g id="link_fork_environment_LoadCamera"><path d="M1553.6551,496.5625 C1591.728,544.4271 1700.7905,681.5104 1787.2488,790.2604 " fill="none" id="fork_environment-to-LoadCamera" style="stroke:#181818;stroke-width:5.208333333333333;"/><polygon fill="#181818" points="1804.228,811.5625,1791.3464,761.9101,1788.0144,791.1839,1758.7406,787.8519,1804.228,811.5625" style="stroke:#181818;stroke-width:5.208333333333333;"/></g><!--MD5=[64ccf97bdd5745db22e32762b28f4422]
link fork_environment to generateCustomEnv--><g id="link_fork_environment_generateCustomEnv"><path d="M1581.2593,494.9479 C1707.4572,543.0208 2096.4676,691.1979 2389.8009,802.9687 " fill="none" id="fork_environment-to-generateCustomEnv" style="stroke:#181818;stroke-width:5.208333333333333;"/><polygon fill="#181818" points="2414.3322,812.2917,2377.986,776.0943,2390.0072,802.9931,2363.1083,815.0143,2414.3322,812.2917" style="stroke:#181818;stroke-width:5.208333333333333;"/></g><!--MD5=[773c4d23faad8d9746eb156e6a762e6b]
link LoadCamera to join_environment--><g id="link_LoadCamera_join_environment"><path d="M1769.228,1073.1771 C1660.2176,1174.1146 1514.3322,1309.2188 1446.8322,1371.7708 " fill="none" id="LoadCamera-to-join_environment" style="stroke:#181818;stroke-width:5.208333333333333;"/><polygon fill="#181818" points="1427.0926,1390.0521,1475.6407,1373.4877,1446.1996,1372.3577,1447.3296,1342.9166,1427.0926,1390.0521" style="stroke:#181818;stroke-width:5.208333333333333;"/></g><!--MD5=[b743d646580f64a092883adc6511075f]
link LoadTextures to join_environment--><g id="link_LoadTextures_join_environment"><path d="M1239.2801,1073.1771 C1289.5926,1171.5104 1356.4155,1302.1875 1389.4363,1366.7708 " fill="none" id="LoadTextures-to-join_environment" style="stroke:#181818;stroke-width:5.208333333333333;"/><polygon fill="#181818" points="1401.3634,1390.0521,1398.6416,1338.8282,1389.5391,1366.8496,1361.5177,1357.7471,1401.3634,1390.0521" style="stroke:#181818;stroke-width:5.208333333333333;"/></g><!--MD5=[c40a8e2f1388a469d4f9c9e7e26b0203]
link LoadAgent to join_environment--><g id="link_LoadAgent_join_environment"><path d="M716.4676,1063.5937 C929.8009,1169.0625 1229.9572,1317.4479 1353.2905,1378.4375 " fill="none" id="LoadAgent-to-join_environment" style="stroke:#181818;stroke-width:5.208333333333333;"/><polygon fill="#181818" points="1376.8843,1390.0521,1344.1231,1350.5806,1353.5473,1378.4955,1325.6325,1387.9197,1376.8843,1390.0521" style="stroke:#181818;stroke-width:5.208333333333333;"/></g><!--MD5=[d5bdfb96f31602d53d41ee51e177bc7d]
link generateCustomEnv to join_environment--><g id="link_generateCustomEnv_join_environment"><path d="M2378.603,1073.1771 C2069.5926,1179.375 1650.5301,1323.4375 1483.1343,1380.9896 " fill="none" id="generateCustomEnv-to-join_environment" style="stroke:#181818;stroke-width:5.208333333333333;"/><polygon fill="#181818" points="1456.6759,1390.0521,1507.7801,1394.4856,1481.2982,1381.5719,1494.2118,1355.09,1456.6759,1390.0521" style="stroke:#181818;stroke-width:5.208333333333333;"/></g><!--MD5=[5abb261e08b820d4ce316ecc954661bb]
link join_environment to agent_fork--><g id="link_join_environment_agent_fork"><path d="M1409.6447,1433.4896 C1409.6447,1485.4167 1409.6447,1644.375 1409.6447,1722.0312 " fill="none" id="join_environment-to-agent_fork" style="stroke:#181818;stroke-width:5.208333333333333;"/><polygon fill="#181818" points="1409.6447,1749.7917,1430.478,1702.9167,1409.6447,1723.75,1388.8113,1702.9167,1409.6447,1749.7917" style="stroke:#181818;stroke-width:5.208333333333333;"/></g><!--MD5=[c7c4322edc592c4d5a4874bd49337caa]
link agent_fork to *end--><g id="link_agent_fork_*end"><path d="M1200.6343,1772.1875 C872.7697,1771.0938 260.6343,1790.8854 123.1863,1947.9167 C50.6863,2030.7292 80.6343,2167.5 109.4363,2250.9896 " fill="none" id="agent_fork-to-*end" style="stroke:#181818;stroke-width:5.208333333333333;"/><polygon fill="#181818" points="118.9676,2277.0833,122.4775,2225.9074,110.0442,2252.6182,83.3333,2240.1849,118.9676,2277.0833" style="stroke:#181818;stroke-width:5.208333333333333;"/><text fill="#000000" font-family="sans-serif" font-size="67.7083" lengthAdjust="spacing" textLength="1140.625" x="128.3947" y="2023.4121">Press the exit button to end the game</text></g><!--MD5=[46b30b5e6a486d47adfd0df5aa6c673d]
link agent_fork to agentObservation--><g id="link_agent_fork_agentObservation"><path d="M1403.603,1791.8229 C1382.6134,1846.875 1311.103,2034.6354 1259.0197,2171.3021 " fill="none" id="agent_fork-to-agentObservation" style="stroke:#181818;stroke-width:5.208333333333333;"/><polygon fill="#181818" points="1249.5405,2196.1979,1285.7379,2159.8518,1258.8391,2171.8729,1246.8179,2144.9741,1249.5405,2196.1979" style="stroke:#181818;stroke-width:5.208333333333333;"/></g><!--MD5=[598706172dfcfe9c31568db729308568]
link agentObservation to agentActions--><g id="link_agentObservation_agentActions"><path d="M1215.1655,2459.3229 C1224.5405,2544.5833 1236.9884,2657.7083 1246.9363,2748.125 " fill="none" id="agentObservation-to-agentActions" style="stroke:#181818;stroke-width:5.208333333333333;"/><polygon fill="#181818" points="1249.9572,2775.4167,1265.5791,2726.5572,1247.1303,2749.5289,1224.1587,2731.0801,1249.9572,2775.4167" style="stroke:#181818;stroke-width:5.208333333333333;"/></g><!--MD5=[87918c77b276a4a874f37f17a2f8ac60]
link agentActions to agentRewards--><g id="link_agentActions_agentRewards"><path d="M1326.2072,3037.4479 C1368.8113,3123.4375 1425.4259,3237.7604 1470.4259,3328.5938 " fill="none" id="agentActions-to-agentRewards" style="stroke:#181818;stroke-width:5.208333333333333;"/><polygon fill="#181818" points="1482.7697,3353.5417,1480.6373,3302.2899,1471.213,3330.2047,1443.2982,3320.7805,1482.7697,3353.5417" style="stroke:#181818;stroke-width:5.208333333333333;"/></g><!--MD5=[c6a18ce2e3988b10ee4809eff0cda8de]
link agentRewards to agent_fork--><g id="link_agentRewards_agent_fork"><path d="M1580.3738,3353.1771 C1639.853,3120.7813 1743.7072,2610.7812 1638.8113,2197.9167 C1599.6447,2043.9583 1491.7801,1885.4167 1439.1759,1814.4271 " fill="none" id="agentRewards-to-agent_fork" style="stroke:#181818;stroke-width:5.208333333333333;"/><polygon fill="#181818" points="1422.5613,1792.4479,1434.2197,1842.4017,1438.2696,1813.2185,1467.4527,1817.2684,1422.5613,1792.4479" style="stroke:#181818;stroke-width:5.208333333333333;"/></g><!--MD5=[7ddfd97f338283a0bca3fe3f2bd33b74]
@startuml state2

skinparam dpi 500

state fork_environment <<fork>>
state join_environment <<join>> 
state agent_fork <<fork>>

[*] - -> fork_environment
fork_environment - -> LoadAgent
fork_environment - -> LoadTextures 
fork_environment - -> LoadCamera
fork_environment - -> generateCustomEnv

LoadCamera - -> join_environment
LoadTextures - -> join_environment
LoadAgent - -> join_environment
generateCustomEnv - -> join_environment

join_environment - -> agent_fork

agent_fork - -> [*] : Press the exit button to end the game
agent_fork - -> agentObservation
agentObservation - -> agentActions
agentActions - -> agentRewards
agentRewards - -> agent_fork

@enduml

PlantUML version 1.2022.7(Mon Aug 22 19:01:30 SAST 2022)
(GPL source distribution)
Java Runtime: Java(TM) SE Runtime Environment
JVM: Java HotSpot(TM) 64-Bit Server VM
Default Encoding: UTF-8
Language: en
Country: ZA
--></g></svg>