<?xml version="1.0" encoding="UTF-8" standalone="no"?><svg xmlns="http://www.w3.org/2000/svg" xmlns:xlink="http://www.w3.org/1999/xlink" contentStyleType="text/css" height="3067.7083px" preserveAspectRatio="none" style="width:3161px;height:3067px;background:#FFFFFF;" version="1.1" viewBox="0 0 3161 3067" width="3161.4583px" zoomAndPan="magnify"><defs/><g><rect fill="#555555" height="41.6667" style="stroke:none;stroke-width:5.208333333333333;" width="416.6667" x="1326.7947" y="453.125"/><rect fill="#555555" height="41.6667" style="stroke:none;stroke-width:5.208333333333333;" width="416.6667" x="1196.5863" y="1390.625"/><rect fill="#555555" height="41.6667" style="stroke:none;stroke-width:5.208333333333333;" width="416.6667" x="1196.5863" y="1750"/><ellipse cx="1535.128" cy="83.3333" fill="#222222" rx="52.0833" ry="52.0833" style="stroke:none;stroke-width:5.208333333333333;"/><g id="LoadAgent"><rect fill="#F1F1F1" height="260.4167" rx="65.1042" ry="65.1042" style="stroke:#181818;stroke-width:2.6041666666666665;" width="463.5417" x="246.0655" y="812.5"/><line style="stroke:#181818;stroke-width:2.6041666666666665;" x1="246.0655" x2="709.6072" y1="956.2988" y2="956.2988"/><text fill="#000000" font-family="sans-serif" font-size="72.9167" lengthAdjust="spacing" textLength="359.375" x="298.1488" y="914.2354">LoadAgent</text></g><g id="LoadTextures"><rect fill="#F1F1F1" height="260.4167" rx="65.1042" ry="65.1042" style="stroke:#181818;stroke-width:2.6041666666666665;" width="557.2917" x="891.8988" y="812.5"/><line style="stroke:#181818;stroke-width:2.6041666666666665;" x1="891.8988" x2="1449.1905" y1="956.2988" y2="956.2988"/><text fill="#000000" font-family="sans-serif" font-size="72.9167" lengthAdjust="spacing" textLength="453.125" x="943.9822" y="914.2354">LoadTextures</text></g><g id="LoadCamera"><rect fill="#F1F1F1" height="260.4167" rx="65.1042" ry="65.1042" style="stroke:#181818;stroke-width:2.6041666666666665;" width="531.25" x="1634.0863" y="812.5"/><line style="stroke:#181818;stroke-width:2.6041666666666665;" x1="1634.0863" x2="2165.3363" y1="956.2988" y2="956.2988"/><text fill="#000000" font-family="sans-serif" font-size="72.9167" lengthAdjust="spacing" textLength="427.0833" x="1686.1697" y="914.2354">LoadCamera</text></g><g id="generateCustomEnv"><rect fill="#F1F1F1" height="260.4167" rx="65.1042" ry="65.1042" style="stroke:#181818;stroke-width:2.6041666666666665;" width="776.0417" x="2350.2322" y="812.5"/><line style="stroke:#181818;stroke-width:2.6041666666666665;" x1="2350.2322" x2="3126.2738" y1="956.2988" y2="956.2988"/><text fill="#000000" font-family="sans-serif" font-size="72.9167" lengthAdjust="spacing" textLength="671.875" x="2402.3155" y="914.2354">generateCustomEnv</text></g><ellipse cx="134.0863" cy="2328.125" fill="none" rx="52.0833" ry="52.0833" style="stroke:#222222;stroke-width:5.208333333333333;"/><ellipse cx="136.6905" cy="2330.7292" fill="#222222" rx="31.25" ry="31.25" style="stroke:none;stroke-width:5.208333333333333;"/><g id="agentActions"><rect fill="#F1F1F1" height="260.4167" rx="65.1042" ry="65.1042" style="stroke:#181818;stroke-width:2.6041666666666665;" width="531.25" x="972.628" y="2197.9167"/><line style="stroke:#181818;stroke-width:2.6041666666666665;" x1="972.628" x2="1503.878" y1="2341.7155" y2="2341.7155"/><text fill="#000000" font-family="sans-serif" font-size="72.9167" lengthAdjust="spacing" textLength="427.0833" x="1024.7113" y="2299.6521">agentActions</text></g><g id="agentRewards"><rect fill="#F1F1F1" height="260.4167" rx="65.1042" ry="65.1042" style="stroke:#181818;stroke-width:2.6041666666666665;" width="578.125" x="1220.0238" y="2776.0417"/><line style="stroke:#181818;stroke-width:2.6041666666666665;" x1="1220.0238" x2="1798.1488" y1="2919.8405" y2="2919.8405"/><text fill="#000000" font-family="sans-serif" font-size="72.9167" lengthAdjust="spacing" textLength="473.9583" x="1272.1072" y="2877.7771">agentRewards</text></g><!--MD5=[89d3cfe42e7d750172f41f51cf57497d]
link *start to fork_environment--><g id="link_*start_fork_environment"><path d="M1535.128,136.7188 C1535.128,210.8854 1535.128,351.9792 1535.128,424.0104 " fill="none" id="*start-to-fork_environment" style="stroke:#181818;stroke-width:5.208333333333333;"/><polygon fill="#181818" points="1535.128,451.7708,1555.9613,404.8958,1535.128,425.7292,1514.2947,404.8958,1535.128,451.7708" style="stroke:#181818;stroke-width:5.208333333333333;"/></g><!--MD5=[ceb79df33da5cffa04c30563299f74bc]
link fork_environment to LoadAgent--><g id="link_fork_environment_LoadAgent"><path d="M1497.5238,495.4687 C1377.4197,547.5521 995.9092,712.9167 735.1801,825.9375 " fill="none" id="fork_environment-to-LoadAgent" style="stroke:#181818;stroke-width:5.208333333333333;"/><polygon fill="#181818" points="710.3363,836.7187,761.6301,837.2101,734.2337,826.3707,745.0732,798.9743,710.3363,836.7187" style="stroke:#181818;stroke-width:5.208333333333333;"/></g><!--MD5=[b3b670b57f3a6b684896739040dd6a79]
link fork_environment to LoadTextures--><g id="link_fork_environment_LoadTextures"><path d="M1521.2738,496.5625 C1483.253,544.4271 1374.1905,681.5104 1287.6801,790.2604 " fill="none" id="fork_environment-to-LoadTextures" style="stroke:#181818;stroke-width:5.208333333333333;"/><polygon fill="#181818" points="1270.7009,811.5625,1316.2305,787.933,1286.9508,791.2128,1283.671,761.9332,1270.7009,811.5625" style="stroke:#181818;stroke-width:5.208333333333333;"/></g><!--MD5=[71b5281988c3133d75b96c5105fd0ea9]
link fork_environment to LoadCamera--><g id="link_fork_environment_LoadCamera"><path d="M1548.9822,496.5625 C1587.003,544.4271 1696.0655,681.5104 1782.5759,790.2604 " fill="none" id="fork_environment-to-LoadCamera" style="stroke:#181818;stroke-width:5.208333333333333;"/><polygon fill="#181818" points="1799.5551,811.5625,1786.585,761.9332,1783.3052,791.2128,1754.0255,787.933,1799.5551,811.5625" style="stroke:#181818;stroke-width:5.208333333333333;"/></g><!--MD5=[64ccf97bdd5745db22e32762b28f4422]
link fork_environment to generateCustomEnv--><g id="link_fork_environment_generateCustomEnv"><path d="M1576.5342,494.9479 C1702.7322,543.0208 2091.7426,691.1979 2385.128,802.9688 " fill="none" id="fork_environment-to-generateCustomEnv" style="stroke:#181818;stroke-width:5.208333333333333;"/><polygon fill="#181818" points="2409.6072,812.2917,2373.261,776.0943,2385.2822,802.9931,2358.3833,815.0143,2409.6072,812.2917" style="stroke:#181818;stroke-width:5.208333333333333;"/></g><!--MD5=[773c4d23faad8d9746eb156e6a762e6b]
link LoadCamera to join_environment--><g id="link_LoadCamera_join_environment"><path d="M1764.503,1073.1771 C1655.4926,1174.1146 1509.6592,1309.2188 1442.1072,1371.7708 " fill="none" id="LoadCamera-to-join_environment" style="stroke:#181818;stroke-width:5.208333333333333;"/><polygon fill="#181818" points="1422.3676,1390.0521,1470.9157,1373.4877,1441.4745,1372.3577,1442.6046,1342.9166,1422.3676,1390.0521" style="stroke:#181818;stroke-width:5.208333333333333;"/></g><!--MD5=[b743d646580f64a092883adc6511075f]
link LoadTextures to join_environment--><g id="link_LoadTextures_join_environment"><path d="M1234.6072,1073.1771 C1284.8676,1171.5104 1351.7426,1302.1875 1384.7113,1366.7708 " fill="none" id="LoadTextures-to-join_environment" style="stroke:#181818;stroke-width:5.208333333333333;"/><polygon fill="#181818" points="1396.6384,1390.0521,1393.85,1338.8318,1384.7839,1366.865,1356.7507,1357.799,1396.6384,1390.0521" style="stroke:#181818;stroke-width:5.208333333333333;"/></g><!--MD5=[c40a8e2f1388a469d4f9c9e7e26b0203]
link LoadAgent to join_environment--><g id="link_LoadAgent_join_environment"><path d="M711.7947,1063.5937 C925.128,1169.0625 1225.2322,1317.4479 1348.6176,1378.4375 " fill="none" id="LoadAgent-to-join_environment" style="stroke:#181818;stroke-width:5.208333333333333;"/><polygon fill="#181818" points="1372.1592,1390.0521,1339.3981,1350.5806,1348.8223,1378.4955,1320.9074,1387.9197,1372.1592,1390.0521" style="stroke:#181818;stroke-width:5.208333333333333;"/></g><!--MD5=[d5bdfb96f31602d53d41ee51e177bc7d]
link generateCustomEnv to join_environment--><g id="link_generateCustomEnv_join_environment"><path d="M2373.9301,1073.1771 C2064.8676,1179.375 1645.8572,1323.4375 1478.4613,1380.9896 " fill="none" id="generateCustomEnv-to-join_environment" style="stroke:#181818;stroke-width:5.208333333333333;"/><polygon fill="#181818" points="1452.003,1390.0521,1503.095,1394.6237,1476.6481,1381.6385,1489.6333,1355.1916,1452.003,1390.0521" style="stroke:#181818;stroke-width:5.208333333333333;"/></g><!--MD5=[5abb261e08b820d4ce316ecc954661bb]
link join_environment to agent_fork--><g id="link_join_environment_agent_fork"><path d="M1404.9197,1433.4896 C1404.9197,1485.4167 1404.9197,1644.375 1404.9197,1722.0312 " fill="none" id="join_environment-to-agent_fork" style="stroke:#181818;stroke-width:5.208333333333333;"/><polygon fill="#181818" points="1404.9197,1749.7917,1425.753,1702.9167,1404.9197,1723.75,1384.0863,1702.9167,1404.9197,1749.7917" style="stroke:#181818;stroke-width:5.208333333333333;"/></g><!--MD5=[c7c4322edc592c4d5a4874bd49337caa]
link agent_fork to *end--><g id="link_agent_fork_*end"><path d="M1195.8572,1772.6042 C871.2738,1772.1875 269.3988,1793.0729 134.0863,1947.9167 C61.7426,2030.7292 84.8676,2167.5 108.9822,2250.9896 " fill="none" id="agent_fork-to-*end" style="stroke:#181818;stroke-width:5.208333333333333;"/><polygon fill="#181818" points="117.0551,2277.0833,123.1497,2226.1505,109.3809,2252.1981,83.3333,2238.4293,117.0551,2277.0833" style="stroke:#181818;stroke-width:5.208333333333333;"/><text fill="#000000" font-family="sans-serif" font-size="67.7083" lengthAdjust="spacing" textLength="1140.625" x="139.2947" y="2023.4121">Press the exit button to end the game</text></g><!--MD5=[9c5232691e0e43c4302f86c20afbfb61]
link agent_fork to agentActions--><g id="link_agent_fork_agentActions"><path d="M1400.128,1791.8229 C1383.4092,1846.6667 1326.5863,2033.0729 1284.9717,2169.5833 " fill="none" id="agent_fork-to-agentActions" style="stroke:#181818;stroke-width:5.208333333333333;"/><polygon fill="#181818" points="1276.8988,2196.1979,1310.4823,2157.4237,1284.4841,2171.2854,1270.6224,2145.2872,1276.8988,2196.1979" style="stroke:#181818;stroke-width:5.208333333333333;"/></g><!--MD5=[87918c77b276a4a874f37f17a2f8ac60]
link agentActions to agentRewards--><g id="link_agentActions_agentRewards"><path d="M1298.3572,2459.3229 C1339.3988,2545.3125 1393.9301,2659.6354 1437.2634,2750.4688 " fill="none" id="agentActions-to-agentRewards" style="stroke:#181818;stroke-width:5.208333333333333;"/><polygon fill="#181818" points="1449.1384,2775.4167,1447.7256,2724.14,1437.9105,2751.9198,1410.1307,2742.1047,1449.1384,2775.4167" style="stroke:#181818;stroke-width:5.208333333333333;"/></g><!--MD5=[c6a18ce2e3988b10ee4809eff0cda8de]
link agentRewards to agent_fork--><g id="link_agentRewards_agent_fork"><path d="M1548.4613,2775.4687 C1587.1592,2633.9062 1634.7634,2397.5521 1592.4197,2197.9167 C1560.7009,2048.4896 1472.2634,1887.7083 1429.1905,1815.3125 " fill="none" id="agentRewards-to-agent_fork" style="stroke:#181818;stroke-width:5.208333333333333;"/><polygon fill="#181818" points="1415.5447,1792.8125,1422.046,1843.695,1429.052,1815.0773,1457.6696,1822.0833,1415.5447,1792.8125" style="stroke:#181818;stroke-width:5.208333333333333;"/></g><!--MD5=[67a07f55f804d7f766abc93536c2cf81]
@startuml state2

skinparam dpi 500

state fork_environment <<fork>>
state join_environment <<join>> 
state agent_fork <<fork>>

[*] - -> fork_environment
fork_environment - -> LoadAgent
fork_environment - -> LoadTextures 
fork_environment - -> LoadCamera
fork_environment - -> generateCustomEnv

LoadCamera - -> join_environment
LoadTextures - -> join_environment
LoadAgent - -> join_environment
generateCustomEnv - -> join_environment

join_environment - -> agent_fork

agent_fork - -> [*] : Press the exit button to end the game
agent_fork - -> agentActions
agentActions - -> agentRewards
agentRewards - -> agent_fork

@enduml

PlantUML version 1.2022.7(Mon Aug 22 19:01:30 SAST 2022)
(GPL source distribution)
Java Runtime: Java(TM) SE Runtime Environment
JVM: Java HotSpot(TM) 64-Bit Server VM
Default Encoding: UTF-8
Language: en
Country: ZA
--></g></svg>