<?xml version="1.0" encoding="UTF-8" standalone="no"?><svg xmlns="http://www.w3.org/2000/svg" xmlns:xlink="http://www.w3.org/1999/xlink" contentStyleType="text/css" height="402.8px" preserveAspectRatio="none" style="width:873px;height:402px;background:#FFFFFF;" version="1.1" viewBox="0 0 873 402" width="873.2px" zoomAndPan="magnify"><defs/><g><!--MD5=[6a7bbfa3d72452af17f24c65754d4e2c]
cluster Files--><g id="cluster_Files"><path d="M696.8,2.4 L710.8,2.4 A1.5,1.5 0 0 1 711.8,3.4 L714.6,11.8438 L802.4,11.8438 A1,1 0 0 1 803.4,12.8438 L803.4,41.4 A1,1 0 0 1 802.4,42.4 L696.8,42.4 A1,1 0 0 1 695.8,41.4 L695.8,3.4 A1,1 0 0 1 696.8,2.4 " style="stroke:#000000;stroke-width:0.6000000000000001;fill:none;"/><line style="stroke:#000000;stroke-width:0.6000000000000001;fill:none;" x1="695.8" x2="714.6" y1="11.8438" y2="11.8438"/><text fill="#000000" font-family="sans-serif" font-size="5.6" font-weight="bold" lengthAdjust="spacing" textLength="13.6" x="697.4" y="9.0133">Files</text></g><!--MD5=[e56f7492f04ae9d94986440eb8a25ddd]
entity Sprites--><g id="elem_Sprites"><rect fill="#F1F1F1" height="19.0438" rx="1" ry="1" style="stroke:#181818;stroke-width:0.20000000000000004;" width="33.6" x="763.4" y="16.8"/><rect fill="#F1F1F1" height="4" style="stroke:#181818;stroke-width:0.20000000000000004;" width="6" x="789" y="18.8"/><rect fill="#F1F1F1" height="0.8" style="stroke:#181818;stroke-width:0.20000000000000004;" width="1.6" x="788.2" y="19.6"/><rect fill="#F1F1F1" height="0.8" style="stroke:#181818;stroke-width:0.20000000000000004;" width="1.6" x="788.2" y="21.2"/><text fill="#000000" font-family="sans-serif" font-size="5.6" lengthAdjust="spacing" textLength="17.6" x="769.4" y="30.6133">Sprites</text></g><!--MD5=[eccc74c5d4e81b373d80cabf52c45d8c]
entity Recipe Json--><g id="elem_Recipe Json"><rect fill="#F1F1F1" height="19.0438" rx="1" ry="1" style="stroke:#181818;stroke-width:0.20000000000000004;" width="46.8" x="702.4" y="16.8"/><rect fill="#F1F1F1" height="4" style="stroke:#181818;stroke-width:0.20000000000000004;" width="6" x="741.2" y="18.8"/><rect fill="#F1F1F1" height="0.8" style="stroke:#181818;stroke-width:0.20000000000000004;" width="1.6" x="740.4" y="19.6"/><rect fill="#F1F1F1" height="0.8" style="stroke:#181818;stroke-width:0.20000000000000004;" width="1.6" x="740.4" y="21.2"/><text fill="#000000" font-family="sans-serif" font-size="5.6" lengthAdjust="spacing" textLength="30.8" x="708.4" y="30.6133">Recipe Json</text></g><!--MD5=[ec467500b4fd5e3c9827eac1bb8e0f6b]
entity Game Settings--><g id="elem_Game Settings"><rect fill="#F1F1F1" height="19.0438" rx="1" ry="1" style="stroke:#181818;stroke-width:0.20000000000000004;" width="53.2" x="654.4" y="381.6"/><rect fill="#F1F1F1" height="4" style="stroke:#181818;stroke-width:0.20000000000000004;" width="6" x="699.6" y="383.6"/><rect fill="#F1F1F1" height="0.8" style="stroke:#181818;stroke-width:0.20000000000000004;" width="1.6" x="698.8" y="384.4"/><rect fill="#F1F1F1" height="0.8" style="stroke:#181818;stroke-width:0.20000000000000004;" width="1.6" x="698.8" y="386"/><text fill="#000000" font-family="sans-serif" font-size="5.6" lengthAdjust="spacing" textLength="37.2" x="660.4" y="395.4133">Game Settings</text></g><!--MD5=[20a1033d75ee8087235cacd9e4898522]
entity Crafting--><g id="elem_Crafting"><rect fill="#F1F1F1" height="19.0438" rx="1" ry="1" style="stroke:#181818;stroke-width:0.20000000000000004;" width="36" x="652.2" y="108"/><rect fill="#F1F1F1" height="4" style="stroke:#181818;stroke-width:0.20000000000000004;" width="6" x="680.2" y="110"/><rect fill="#F1F1F1" height="0.8" style="stroke:#181818;stroke-width:0.20000000000000004;" width="1.6" x="679.4" y="110.8"/><rect fill="#F1F1F1" height="0.8" style="stroke:#181818;stroke-width:0.20000000000000004;" width="1.6" x="679.4" y="112.4"/><text fill="#000000" font-family="sans-serif" font-size="5.6" lengthAdjust="spacing" textLength="20" x="658.2" y="121.8133">Crafting</text></g><!--MD5=[45d7808020dbd92216b02228f7e599f6]
entity Block--><g id="elem_Block"><rect fill="#F1F1F1" height="19.0438" rx="1" ry="1" style="stroke:#181818;stroke-width:0.20000000000000004;" width="29.6" x="595.4" y="290.4"/><rect fill="#F1F1F1" height="4" style="stroke:#181818;stroke-width:0.20000000000000004;" width="6" x="617" y="292.4"/><rect fill="#F1F1F1" height="0.8" style="stroke:#181818;stroke-width:0.20000000000000004;" width="1.6" x="616.2" y="293.2"/><rect fill="#F1F1F1" height="0.8" style="stroke:#181818;stroke-width:0.20000000000000004;" width="1.6" x="616.2" y="294.8"/><text fill="#000000" font-family="sans-serif" font-size="5.6" lengthAdjust="spacing" textLength="13.6" x="601.4" y="304.2133">Block</text></g><!--MD5=[ab59c2c83936ce77a0901c710a4c2b89]
entity Item--><g id="elem_Item"><rect fill="#F1F1F1" height="19.0438" rx="1" ry="1" style="stroke:#181818;stroke-width:0.20000000000000004;" width="26.4" x="653.8" y="290.4"/><rect fill="#F1F1F1" height="4" style="stroke:#181818;stroke-width:0.20000000000000004;" width="6" x="672.2" y="292.4"/><rect fill="#F1F1F1" height="0.8" style="stroke:#181818;stroke-width:0.20000000000000004;" width="1.6" x="671.4" y="293.2"/><rect fill="#F1F1F1" height="0.8" style="stroke:#181818;stroke-width:0.20000000000000004;" width="1.6" x="671.4" y="294.8"/><text fill="#000000" font-family="sans-serif" font-size="5.6" lengthAdjust="spacing" textLength="10.4" x="659.8" y="304.2133">Item</text></g><!--MD5=[3d6f32cb5b891463c0dffd3944c7a07b]
entity Breaking and Placing--><g id="elem_Breaking and Placing"><rect fill="#F1F1F1" height="19.0438" rx="1" ry="1" style="stroke:#181818;stroke-width:0.20000000000000004;" width="69.6" x="355.8" y="16.8"/><rect fill="#F1F1F1" height="4" style="stroke:#181818;stroke-width:0.20000000000000004;" width="6" x="417.4" y="18.8"/><rect fill="#F1F1F1" height="0.8" style="stroke:#181818;stroke-width:0.20000000000000004;" width="1.6" x="416.6" y="19.6"/><rect fill="#F1F1F1" height="0.8" style="stroke:#181818;stroke-width:0.20000000000000004;" width="1.6" x="416.6" y="21.2"/><text fill="#000000" font-family="sans-serif" font-size="5.6" lengthAdjust="spacing" textLength="53.6" x="361.8" y="30.6133">Breaking and Placing</text></g><!--MD5=[de2effd8dc5bf946a609466312d0f75f]
entity Player--><g id="elem_Player"><rect fill="#F1F1F1" height="19.0438" rx="1" ry="1" style="stroke:#181818;stroke-width:0.20000000000000004;" width="32" x="374.6" y="108"/><rect fill="#F1F1F1" height="4" style="stroke:#181818;stroke-width:0.20000000000000004;" width="6" x="398.6" y="110"/><rect fill="#F1F1F1" height="0.8" style="stroke:#181818;stroke-width:0.20000000000000004;" width="1.6" x="397.8" y="110.8"/><rect fill="#F1F1F1" height="0.8" style="stroke:#181818;stroke-width:0.20000000000000004;" width="1.6" x="397.8" y="112.4"/><text fill="#000000" font-family="sans-serif" font-size="5.6" lengthAdjust="spacing" textLength="16" x="380.6" y="121.8133">Player</text></g><!--MD5=[6bcad810eaef885ccefa2942ddd222fc]
entity Player Movement--><g id="elem_Player Movement"><rect fill="#F1F1F1" height="19.0438" rx="1" ry="1" style="stroke:#181818;stroke-width:0.20000000000000004;" width="59.6" x="811.2" y="16.8"/><rect fill="#F1F1F1" height="4" style="stroke:#181818;stroke-width:0.20000000000000004;" width="6" x="862.8" y="18.8"/><rect fill="#F1F1F1" height="0.8" style="stroke:#181818;stroke-width:0.20000000000000004;" width="1.6" x="862" y="19.6"/><rect fill="#F1F1F1" height="0.8" style="stroke:#181818;stroke-width:0.20000000000000004;" width="1.6" x="862" y="21.2"/><text fill="#000000" font-family="sans-serif" font-size="5.6" lengthAdjust="spacing" textLength="43.6" x="817.2" y="30.6133">Player Movement</text></g><!--MD5=[c8f729b8e352a0860913e8756c4779b6]
entity Camera--><g id="elem_Camera"><rect fill="#F1F1F1" height="19.0438" rx="1" ry="1" style="stroke:#181818;stroke-width:0.20000000000000004;" width="36" x="310.6" y="108"/><rect fill="#F1F1F1" height="4" style="stroke:#181818;stroke-width:0.20000000000000004;" width="6" x="338.6" y="110"/><rect fill="#F1F1F1" height="0.8" style="stroke:#181818;stroke-width:0.20000000000000004;" width="1.6" x="337.8" y="110.8"/><rect fill="#F1F1F1" height="0.8" style="stroke:#181818;stroke-width:0.20000000000000004;" width="1.6" x="337.8" y="112.4"/><text fill="#000000" font-family="sans-serif" font-size="5.6" lengthAdjust="spacing" textLength="20" x="316.6" y="121.8133">Camera</text></g><!--MD5=[6a30fd0128a7413820ab77e27b80c321]
entity Game World--><g id="elem_Game World"><rect fill="#F1F1F1" height="19.0438" rx="1" ry="1" style="stroke:#181818;stroke-width:0.20000000000000004;" width="47.6" x="89.2" y="108"/><rect fill="#F1F1F1" height="4" style="stroke:#181818;stroke-width:0.20000000000000004;" width="6" x="128.8" y="110"/><rect fill="#F1F1F1" height="0.8" style="stroke:#181818;stroke-width:0.20000000000000004;" width="1.6" x="128" y="110.8"/><rect fill="#F1F1F1" height="0.8" style="stroke:#181818;stroke-width:0.20000000000000004;" width="1.6" x="128" y="112.4"/><text fill="#000000" font-family="sans-serif" font-size="5.6" lengthAdjust="spacing" textLength="31.6" x="95.2" y="121.8133">Game World</text></g><!--MD5=[c3a82e844d23968b7ce72d3a5f9fb6d3]
entity Inventory--><g id="elem_Inventory"><rect fill="#F1F1F1" height="19.0438" rx="1" ry="1" style="stroke:#181818;stroke-width:0.20000000000000004;" width="39.2" x="621.8" y="199.2"/><rect fill="#F1F1F1" height="4" style="stroke:#181818;stroke-width:0.20000000000000004;" width="6" x="653" y="201.2"/><rect fill="#F1F1F1" height="0.8" style="stroke:#181818;stroke-width:0.20000000000000004;" width="1.6" x="652.2" y="202"/><rect fill="#F1F1F1" height="0.8" style="stroke:#181818;stroke-width:0.20000000000000004;" width="1.6" x="652.2" y="203.6"/><text fill="#000000" font-family="sans-serif" font-size="5.6" lengthAdjust="spacing" textLength="23.2" x="627.8" y="213.0133">Inventory</text></g><!--MD5=[9c626053e623f48c145be2aac1d12849]
entity User Interface--><g id="elem_User Interface"><rect fill="#F1F1F1" height="19.0438" rx="1" ry="1" style="stroke:#181818;stroke-width:0.20000000000000004;" width="51.2" x="571.4" y="108"/><rect fill="#F1F1F1" height="4" style="stroke:#181818;stroke-width:0.20000000000000004;" width="6" x="614.6" y="110"/><rect fill="#F1F1F1" height="0.8" style="stroke:#181818;stroke-width:0.20000000000000004;" width="1.6" x="613.8" y="110.8"/><rect fill="#F1F1F1" height="0.8" style="stroke:#181818;stroke-width:0.20000000000000004;" width="1.6" x="613.8" y="112.4"/><text fill="#000000" font-family="sans-serif" font-size="5.6" lengthAdjust="spacing" textLength="35.2" x="577.4" y="121.8133">User Interface</text></g><!--MD5=[176614c6f3a8e6e15f452eeb3396fe40]
entity Game Menu--><g id="elem_Game Menu"><rect fill="#F1F1F1" height="19.0438" rx="1" ry="1" style="stroke:#181818;stroke-width:0.20000000000000004;" width="46.8" x="89.6" y="199.2"/><rect fill="#F1F1F1" height="4" style="stroke:#181818;stroke-width:0.20000000000000004;" width="6" x="128.4" y="201.2"/><rect fill="#F1F1F1" height="0.8" style="stroke:#181818;stroke-width:0.20000000000000004;" width="1.6" x="127.6" y="202"/><rect fill="#F1F1F1" height="0.8" style="stroke:#181818;stroke-width:0.20000000000000004;" width="1.6" x="127.6" y="203.6"/><text fill="#000000" font-family="sans-serif" font-size="5.6" lengthAdjust="spacing" textLength="30.8" x="95.6" y="213.0133">Game Menu</text></g><!--MD5=[1a8f18ec5d3b3f418f4294ccc7f67a9b]
entity GT1--><g id="elem_GT1"><ellipse cx="787" cy="72" fill="#F1F1F1" rx="3.2" ry="3.2" style="stroke:#181818;stroke-width:0.20000000000000004;"/><text fill="#000000" font-family="sans-serif" font-size="5.6" lengthAdjust="spacing" textLength="30" x="772" y="84.6133">Get Texture</text></g><!--MD5=[f1ff46596a9076ec4408fb4820ef3e2e]
entity GT2--><g id="elem_GT2"><ellipse cx="472.6" cy="72" fill="#F1F1F1" rx="3.2" ry="3.2" style="stroke:#181818;stroke-width:0.20000000000000004;"/><text fill="#000000" font-family="sans-serif" font-size="5.6" lengthAdjust="spacing" textLength="30" x="457.6" y="84.6133">Get Texture</text></g><!--MD5=[8aa48eece13b069ef17ea2b2a2e0d94a]
entity GBlockInfo--><g id="elem_GBlockInfo"><ellipse cx="610.2" cy="345.6" fill="#F1F1F1" rx="3.2" ry="3.2" style="stroke:#181818;stroke-width:0.20000000000000004;"/><text fill="#000000" font-family="sans-serif" font-size="5.6" lengthAdjust="spacing" textLength="52" x="584.2" y="358.2133">Get Block Properties</text></g><!--MD5=[eaef40ceae70d53d702928da1ceb95c0]
entity GBItemInfo--><g id="elem_GBItemInfo"><ellipse cx="681" cy="345.6" fill="#F1F1F1" rx="3.2" ry="3.2" style="stroke:#181818;stroke-width:0.20000000000000004;"/><text fill="#000000" font-family="sans-serif" font-size="5.6" lengthAdjust="spacing" textLength="48.8" x="656.6" y="358.2133">Get Item Properties</text></g><!--MD5=[88072e861a9acb9d8434eb03350cf594]
entity GBlock--><g id="elem_GBlock"><ellipse cx="617.4" cy="254.4" fill="#F1F1F1" rx="3.2" ry="3.2" style="stroke:#181818;stroke-width:0.20000000000000004;"/><text fill="#000000" font-family="sans-serif" font-size="5.6" lengthAdjust="spacing" textLength="24.4" x="605.2" y="267.0133">Get Block</text></g><!--MD5=[42405b7584953efb4ee1e909ccfc963b]
entity GItem--><g id="elem_GItem"><ellipse cx="660.2" cy="254.4" fill="#F1F1F1" rx="3.2" ry="3.2" style="stroke:#181818;stroke-width:0.20000000000000004;"/><text fill="#000000" font-family="sans-serif" font-size="5.6" lengthAdjust="spacing" textLength="21.2" x="649.6" y="267.0133">Get Item</text></g><!--MD5=[da147cd71508b1913a41bb6b4b01a772]
entity StoreRetrieveBlock--><g id="elem_StoreRetrieveBlock"><ellipse cx="628.2" cy="72" fill="#F1F1F1" rx="3.2" ry="3.2" style="stroke:#181818;stroke-width:0.20000000000000004;"/><text fill="#000000" font-family="sans-serif" font-size="5.6" lengthAdjust="spacing" textLength="51.6" x="602.4" y="84.6133">Store/Retrieve Block</text></g><!--MD5=[d26c08427d166fc46bfdb907375634c7]
entity SelectItemBlock--><g id="elem_SelectItemBlock"><ellipse cx="491.8" cy="163.2" fill="#F1F1F1" rx="3.2" ry="3.2" style="stroke:#181818;stroke-width:0.20000000000000004;"/><text fill="#000000" font-family="sans-serif" font-size="5.6" lengthAdjust="spacing" textLength="42.8" x="470.4" y="175.8133">Select Item/Block</text></g><!--MD5=[a9ca98f5762c40b68b842c463b31ef35]
entity BreakPlaceBlock--><g id="elem_BreakPlaceBlock"><ellipse cx="390.6" cy="72" fill="#F1F1F1" rx="3.2" ry="3.2" style="stroke:#181818;stroke-width:0.20000000000000004;"/><text fill="#000000" font-family="sans-serif" font-size="5.6" lengthAdjust="spacing" textLength="45.6" x="367.8" y="84.6133">Break/Place Block</text></g><!--MD5=[f912c3dc76be78071eecc274b3d6d7ff]
entity PlaceBlock--><g id="elem_PlaceBlock"><ellipse cx="17" cy="163.2" fill="#F1F1F1" rx="3.2" ry="3.2" style="stroke:#181818;stroke-width:0.20000000000000004;"/><text fill="#000000" font-family="sans-serif" font-size="5.6" lengthAdjust="spacing" textLength="29.2" x="2.4" y="175.8133">Place Block</text></g><!--MD5=[801d9971c74be9d07ffc18d022fa1b86]
entity Craft--><g id="elem_Craft"><ellipse cx="553" cy="163.2" fill="#F1F1F1" rx="3.2" ry="3.2" style="stroke:#181818;stroke-width:0.20000000000000004;"/><text fill="#000000" font-family="sans-serif" font-size="5.6" lengthAdjust="spacing" textLength="39.6" x="533.2" y="175.8133">Craft Item/Block</text></g><!--MD5=[e25fa1a09df03286a4013fc67ada0c07]
entity GetRecipes--><g id="elem_GetRecipes"><ellipse cx="725.8" cy="163.2" fill="#F1F1F1" rx="3.2" ry="3.2" style="stroke:#181818;stroke-width:0.20000000000000004;"/><text fill="#000000" font-family="sans-serif" font-size="5.6" lengthAdjust="spacing" textLength="31.2" x="710.2" y="175.8133">Get Recipes</text></g><!--MD5=[74aef968b7954e707f3796f5a35ab757]
entity StoreRetrieveBlockItem--><g id="elem_StoreRetrieveBlockItem"><ellipse cx="722.6" cy="254.4" fill="#F1F1F1" rx="3.2" ry="3.2" style="stroke:#181818;stroke-width:0.20000000000000004;"/><text fill="#000000" font-family="sans-serif" font-size="5.6" lengthAdjust="spacing" textLength="63.6" x="690.8" y="267.0133">Store/Retrieve Item/Block</text></g><!--MD5=[ea574140fec53518e19733d715d15af5]
entity BlocKGen--><g id="elem_BlocKGen"><ellipse cx="319.4" cy="345.6" fill="#F1F1F1" rx="3.2" ry="3.2" style="stroke:#181818;stroke-width:0.20000000000000004;"/><text fill="#000000" font-family="sans-serif" font-size="5.6" lengthAdjust="spacing" textLength="48" x="295.4" y="358.2133">Get Blocks for Gen</text></g><!--MD5=[da9abac6f303204ac08af8f3142bbdb5]
entity GenWorld--><g id="elem_GenWorld"><ellipse cx="113" cy="163.2" fill="#F1F1F1" rx="3.2" ry="3.2" style="stroke:#181818;stroke-width:0.20000000000000004;"/><text fill="#000000" font-family="sans-serif" font-size="5.6" lengthAdjust="spacing" textLength="65.6" x="80.2" y="175.8133">Generate world from seed</text></g><!--MD5=[56ee8b33924492548bd9da39795eb7ef]
entity DisplayWorld--><g id="elem_DisplayWorld"><ellipse cx="183.4" cy="163.2" fill="#F1F1F1" rx="3.2" ry="3.2" style="stroke:#181818;stroke-width:0.20000000000000004;"/><text fill="#000000" font-family="sans-serif" font-size="5.6" lengthAdjust="spacing" textLength="34.8" x="166" y="175.8133">Display World</text></g><!--MD5=[0e27917c4a4f58a74db95a6dbb62aec7]
entity DisplayPlayer--><g id="elem_DisplayPlayer"><ellipse cx="290.6" cy="163.2" fill="#F1F1F1" rx="3.2" ry="3.2" style="stroke:#181818;stroke-width:0.20000000000000004;"/><text fill="#000000" font-family="sans-serif" font-size="5.6" lengthAdjust="spacing" textLength="36" x="272.6" y="175.8133">Display Player</text></g><!--MD5=[beea72e0d01653e4c9f99928df8e17cd]
entity DisplayUI--><g id="elem_DisplayUI"><ellipse cx="437.8" cy="163.2" fill="#F1F1F1" rx="3.2" ry="3.2" style="stroke:#181818;stroke-width:0.20000000000000004;"/><text fill="#000000" font-family="sans-serif" font-size="5.6" lengthAdjust="spacing" textLength="24.8" x="425.4" y="175.8133">Display UI</text></g><!--MD5=[941f54ee38a768d85a8ad4c4b4555377]
entity DisplayCrafting--><g id="elem_DisplayCrafting"><ellipse cx="641.4" cy="163.2" fill="#F1F1F1" rx="3.2" ry="3.2" style="stroke:#181818;stroke-width:0.20000000000000004;"/><text fill="#000000" font-family="sans-serif" font-size="5.6" lengthAdjust="spacing" textLength="40" x="621.4" y="175.8133">Display Crafting</text></g><!--MD5=[206894d240f45f21cb6119ef6cf55bbc]
entity DisplayInventory--><g id="elem_DisplayInventory"><ellipse cx="563.4" cy="254.4" fill="#F1F1F1" rx="3.2" ry="3.2" style="stroke:#181818;stroke-width:0.20000000000000004;"/><text fill="#000000" font-family="sans-serif" font-size="5.6" lengthAdjust="spacing" textLength="43.2" x="541.8" y="267.0133">Display Inventory</text></g><!--MD5=[45c23742ac8285756e1ac42d52cd8745]
entity MovePlayerWorld--><g id="elem_MovePlayerWorld"><ellipse cx="236.6" cy="163.2" fill="#F1F1F1" rx="3.2" ry="3.2" style="stroke:#181818;stroke-width:0.20000000000000004;"/><text fill="#000000" font-family="sans-serif" font-size="5.6" lengthAdjust="spacing" textLength="31.2" x="221" y="175.8133">Move Player</text></g><!--MD5=[3f2a2fb92bf9f01413912c470826f626]
entity MovePlayerCamera--><g id="elem_MovePlayerCamera"><ellipse cx="367" cy="163.2" fill="#F1F1F1" rx="3.2" ry="3.2" style="stroke:#181818;stroke-width:0.20000000000000004;"/><text fill="#000000" font-family="sans-serif" font-size="5.6" lengthAdjust="spacing" textLength="76" x="329" y="175.8133">Move Camera on Player Move</text></g><!--MD5=[833bae06c0cf30466acbc405d55ed788]
link Sprites to GT1--><g id="link_Sprites_GT1"><path d="M781.608,36.084 C783.132,46.128 785.484,61.612 786.5,68.316 " fill="none" id="Sprites-GT1" style="stroke:#181818;stroke-width:0.4000000000000001;"/></g><!--MD5=[31406db7eb95a52c6e3387555d623df7]
reverse link GT1 to Game Settings--><g id="link_GT1_Game Settings"><path d="M787.98,79.728 C789.952,95.1 794.2,131.84 794.2,162.8 C794.2,162.8 794.2,162.8 794.2,300.4 C794.2,344.476 741.152,370.572 707.684,382.648 " fill="none" id="GT1-backto-Game Settings" style="stroke:#181818;stroke-width:0.4000000000000001;"/><path d="M784.2576,77.336 A3.6,3.6 0 0 0 790.9661 76.4577" fill="none" style="stroke:#181818;stroke-width:0.6000000000000001;"/></g><!--MD5=[b04ad571f909b26a9d4513388aff1f63]
link Sprites to GT2--><g id="link_Sprites_GT2"><path d="M770.968,36.084 C766.808,39.692 761.616,43.46 756.2,45.6 C722.172,59.036 628.628,56.636 592.2,60 C546.5,64.224 491.02,69.756 476.32,71.228 " fill="none" id="Sprites-GT2" style="stroke:#181818;stroke-width:0.4000000000000001;"/></g><!--MD5=[51160945cc9d277d81098ce725fef6d8]
reverse link GT2 to Player--><g id="link_GT2_Player"><path d="M465.432,76.316 C452.408,83.432 424.568,98.64 406.76,108.372 " fill="none" id="GT2-backto-Player" style="stroke:#181818;stroke-width:0.4000000000000001;"/><path d="M466.2679,72.0075 A3.6,3.6 0 0 0 469.5158 77.9427" fill="none" style="stroke:#181818;stroke-width:0.6000000000000001;"/></g><!--MD5=[6cbb0df46079e74cba3e8104e07a3a5e]
link Block to GBlockInfo--><g id="link_Block_GBlockInfo"><path d="M610.2,309.684 C610.2,318.04 610.2,330.164 610.2,337.864 " fill="none" id="Block-to-GBlockInfo" style="stroke:#181818;stroke-width:0.4000000000000001;"/><path d="M613.5829,340.6847 A3.6,3.6 0 0 0 606.8171 340.6847" fill="none" style="stroke:#181818;stroke-width:0.6000000000000001;"/></g><!--MD5=[3c272064933e94207695fb4d13fb9d77]
link GBlockInfo to Game Settings--><g id="link_GBlockInfo_Game Settings"><path d="M613.808,348.284 C623.36,354.328 649.72,371.008 666.444,381.588 " fill="none" id="GBlockInfo-Game Settings" style="stroke:#181818;stroke-width:0.4000000000000001;"/></g><!--MD5=[2f4c065f2b491914fbcaa0c0a9dced04]
link Item to GBItemInfo--><g id="link_Item_GBItemInfo"><path d="M669.9,309.684 C672.536,318.12 676.372,330.392 678.776,338.08 " fill="none" id="Item-to-GBItemInfo" style="stroke:#181818;stroke-width:0.4000000000000001;"/><path d="M682.8369,339.7308 A3.6,3.6 0 0 0 676.3798 341.751" fill="none" style="stroke:#181818;stroke-width:0.6000000000000001;"/></g><!--MD5=[a3942f16af6aea663a47f2af12875deb]
link GBItemInfo to Game Settings--><g id="link_GBItemInfo_Game Settings"><path d="M681,349.22 C681,355.884 681,371.388 681,381.468 " fill="none" id="GBItemInfo-Game Settings" style="stroke:#181818;stroke-width:0.4000000000000001;"/></g><!--MD5=[d6d32cedfe030439373b336cb5000e96]
link Inventory to GBlock--><g id="link_Inventory_GBlock"><path d="M636.428,218.484 C631.864,227 625.212,239.42 621.1,247.092 " fill="none" id="Inventory-to-GBlock" style="stroke:#181818;stroke-width:0.4000000000000001;"/><path d="M622.7237,251.2257 A3.6,3.6 0 0 0 616.7577 248.0348" fill="none" style="stroke:#181818;stroke-width:0.6000000000000001;"/></g><!--MD5=[118a765e966355423c34d4af725f384a]
link GBlock to Block--><g id="link_GBlock_Block"><path d="M616.884,258.02 C615.812,264.684 613.32,280.188 611.7,290.268 " fill="none" id="GBlock-Block" style="stroke:#181818;stroke-width:0.4000000000000001;"/></g><!--MD5=[dfa6cd361c6b793f4677081cbc43bb1d]
link Inventory to GItem--><g id="link_Inventory_GItem"><path d="M645.296,218.484 C648.852,226.96 654.032,239.308 657.256,246.984 " fill="none" id="Inventory-to-GItem" style="stroke:#181818;stroke-width:0.4000000000000001;"/><path d="M661.4659,248.2705 A3.6,3.6 0 0 0 655.2283 250.8912" fill="none" style="stroke:#181818;stroke-width:0.6000000000000001;"/></g><!--MD5=[325b17ebab9b6016a31cb1a9784fdd6b]
link GItem to Item--><g id="link_GItem_Item"><path d="M660.688,258.02 C661.7,264.684 664.052,280.188 665.584,290.268 " fill="none" id="GItem-Item" style="stroke:#181818;stroke-width:0.4000000000000001;"/></g><!--MD5=[25af1755c2324c2326503938705c752b]
link Breaking and Placing to StoreRetrieveBlock--><g id="link_Breaking and Placing_StoreRetrieveBlock"><path d="M425.404,33.364 C482.048,44.044 590.848,64.556 620.548,70.156 " fill="none" id="Breaking and Placing-to-StoreRetrieveBlock" style="stroke:#181818;stroke-width:0.4000000000000001;"/><path d="M623.8982,67.3473 A3.6,3.6 0 0 0 622.642 73.9955" fill="none" style="stroke:#181818;stroke-width:0.6000000000000001;"/></g><!--MD5=[9e217f0be4295e8271d6a435f23b87a2]
link StoreRetrieveBlock to Inventory--><g id="link_StoreRetrieveBlock_Inventory"><path d="M631.844,73.268 C649.504,77.7 726.34,99.628 751.8,151.2 C756.52,160.764 758.164,166.64 751.8,175.2 C740.932,189.816 689.716,200.432 661.016,205.344 " fill="none" id="StoreRetrieveBlock-Inventory" style="stroke:#181818;stroke-width:0.4000000000000001;"/></g><!--MD5=[e74f0ae00824837c9572152c9f65e0cd]
link SelectItemBlock to Inventory--><g id="link_SelectItemBlock_Inventory"><path d="M495.416,165.056 C501.196,167.356 512.888,171.908 523,175.2 C557.408,186.4 598.16,197.324 621.768,203.428 " fill="none" id="SelectItemBlock-Inventory" style="stroke:#181818;stroke-width:0.4000000000000001;"/></g><!--MD5=[40106af54c5523aa758db7b9d86448e4]
link Player to SelectItemBlock--><g id="link_Player_SelectItemBlock"><path d="M406.636,125.1 C428.888,134.948 468.22,152.36 484.464,159.552 " fill="none" id="Player-to-SelectItemBlock" style="stroke:#181818;stroke-width:0.4000000000000001;"/><path d="M488.398,157.5961 A3.6,3.6 0 0 0 485.6618 163.784" fill="none" style="stroke:#181818;stroke-width:0.6000000000000001;"/></g><!--MD5=[1ee7cbf5ef8d2075090c0756baf58aec]
link Breaking and Placing to BreakPlaceBlock--><g id="link_Breaking and Placing_BreakPlaceBlock"><path d="M390.6,36.084 C390.6,46.128 390.6,61.612 390.6,68.316 " fill="none" id="Breaking and Placing-BreakPlaceBlock" style="stroke:#181818;stroke-width:0.4000000000000001;"/></g><!--MD5=[4ba018fd2aac3000e629c9054405dd99]
reverse link BreakPlaceBlock to Player--><g id="link_BreakPlaceBlock_Player"><path d="M390.6,79.66 C390.6,87.34 390.6,99.48 390.6,107.868 " fill="none" id="BreakPlaceBlock-backto-Player" style="stroke:#181818;stroke-width:0.4000000000000001;"/><path d="M387.2171,76.8513 A3.6,3.6 0 0 0 393.9829 76.8513" fill="none" style="stroke:#181818;stroke-width:0.6000000000000001;"/></g><!--MD5=[bf2800027f078a606b20da05126be894]
link Game World to PlaceBlock--><g id="link_Game World_PlaceBlock"><path d="M93.224,127.228 C69.844,138.14 32.6,155.52 20.752,161.048 " fill="none" id="Game World-PlaceBlock" style="stroke:#181818;stroke-width:0.4000000000000001;"/></g><!--MD5=[d85fcbc4def0fba87b6109e07813c447]
link Breaking and Placing to PlaceBlock--><g id="link_Breaking and Placing_PlaceBlock"><path d="M355.736,30.9 C296.636,38.932 174.244,60.292 82.2,108 C57.108,121.004 33.14,145.14 22.604,156.532 " fill="none" id="Breaking and Placing-to-PlaceBlock" style="stroke:#181818;stroke-width:0.4000000000000001;"/><path d="M23.2165,160.8836 A3.6,3.6 0 0 0 18.2198 156.3218" fill="none" style="stroke:#181818;stroke-width:0.6000000000000001;"/></g><!--MD5=[d97bc650b134c668d2d0bc8760395a7b]
link Crafting to Craft--><g id="link_Crafting_Craft"><path d="M652.144,124.9 C623.892,135.7 570.976,155.928 556.656,161.404 " fill="none" id="Crafting-Craft" style="stroke:#181818;stroke-width:0.4000000000000001;"/></g><!--MD5=[5f3df63fa38e93bd3dec1679891c80ef]
link Player to Craft--><g id="link_Player_Craft"><path d="M406.676,121.36 C431.768,126.752 481.664,138.08 523,151.2 C530.796,153.672 539.488,157.112 545.504,159.604 " fill="none" id="Player-to-Craft" style="stroke:#181818;stroke-width:0.4000000000000001;"/><path d="M549.5312,157.6283 A3.6,3.6 0 0 0 546.9105 163.8659" fill="none" style="stroke:#181818;stroke-width:0.6000000000000001;"/></g><!--MD5=[dbaa1f3b8b77d9001dabe906e4ed8be3]
link Crafting to GetRecipes--><g id="link_Crafting_GetRecipes"><path d="M681.72,127.284 C692.944,136.328 709.64,149.78 718.928,157.264 " fill="none" id="Crafting-to-GetRecipes" style="stroke:#181818;stroke-width:0.4000000000000001;"/><path d="M723.2632,156.4131 A3.6,3.6 0 0 0 719.019 161.6821" fill="none" style="stroke:#181818;stroke-width:0.6000000000000001;"/></g><!--MD5=[c98b33fc196342044df8e7c9a7be6562]
link Recipe Json to GetRecipes--><g id="link_Recipe Json_GetRecipes"><path d="M725.8,36.04 C725.8,63.304 725.8,142.552 725.8,159.56 " fill="none" id="Recipe Json-GetRecipes" style="stroke:#181818;stroke-width:0.4000000000000001;"/></g><!--MD5=[faf5538fb3abce4c287cd57d989a2286]
link Crafting to StoreRetrieveBlockItem--><g id="link_Crafting_StoreRetrieveBlockItem"><path d="M673.76,127.24 C683.628,152.852 711.176,224.344 719.908,247.012 " fill="none" id="Crafting-to-StoreRetrieveBlockItem" style="stroke:#181818;stroke-width:0.4000000000000001;"/><path d="M724.0647,248.3933 A3.6,3.6 0 0 0 717.7527 250.8292" fill="none" style="stroke:#181818;stroke-width:0.6000000000000001;"/></g><!--MD5=[8316efd59f7fcc42c947664f8b098d59]
link Inventory to StoreRetrieveBlockItem--><g id="link_Inventory_StoreRetrieveBlockItem"><path d="M658.224,218.484 C677.644,229.196 708.26,246.088 718.852,251.932 " fill="none" id="Inventory-StoreRetrieveBlockItem" style="stroke:#181818;stroke-width:0.4000000000000001;"/></g><!--MD5=[d6acfa1a20bd9ae53f8d0b34dda04335]
link Game World to BlocKGen--><g id="link_Game World_BlocKGen"><path d="M95.928,127.264 C86.876,133.016 76.308,141.216 69.8,151.2 C55.504,173.124 55.8,182.228 55.8,208.4 C55.8,208.4 55.8,208.4 55.8,254.8 C55.8,310.348 267.896,338.98 311.588,344.288 " fill="none" id="Game World-to-BlocKGen" style="stroke:#181818;stroke-width:0.4000000000000001;"/><path d="M314.8506,341.271 A3.6,3.6 0 0 0 314.0483 347.989" fill="none" style="stroke:#181818;stroke-width:0.6000000000000001;"/></g><!--MD5=[8d2b84f7b19e966e9b06e221bc4e6082]
link Block to BlocKGen--><g id="link_Block_BlocKGen"><path d="M595.38,302.684 C540.632,311.116 351.504,340.256 323.008,344.644 " fill="none" id="Block-BlocKGen" style="stroke:#181818;stroke-width:0.4000000000000001;"/></g><!--MD5=[3b02fe774791b8c2ad1de92b05cb65d4]
link Game World to GenWorld--><g id="link_Game World_GenWorld"><path d="M113,127.284 C113,137.328 113,152.812 113,159.516 " fill="none" id="Game World-GenWorld" style="stroke:#181818;stroke-width:0.4000000000000001;"/></g><!--MD5=[718477ea6ad283fbc8dcaa0c99902448]
reverse link GenWorld to Game Menu--><g id="link_GenWorld_Game Menu"><path d="M113,170.86 C113,178.54 113,190.68 113,199.068 " fill="none" id="GenWorld-backto-Game Menu" style="stroke:#181818;stroke-width:0.4000000000000001;"/><path d="M109.6171,168.0513 A3.6,3.6 0 0 0 116.3829 168.0513" fill="none" style="stroke:#181818;stroke-width:0.6000000000000001;"/></g><!--MD5=[ce53c0dd0a691013d768cd79576454a5]
link User Interface to DisplayCrafting--><g id="link_User Interface_DisplayCrafting"><path d="M606.2,127.284 C614.912,136.072 627.748,149.024 635.276,156.62 " fill="none" id="User Interface-to-DisplayCrafting" style="stroke:#181818;stroke-width:0.4000000000000001;"/><path d="M639.6859,156.261 A3.6,3.6 0 0 0 634.8776 161.0209" fill="none" style="stroke:#181818;stroke-width:0.6000000000000001;"/></g><!--MD5=[edf66ab3cdf5bca1abd96e2616a0233c]
link User Interface to DisplayInventory--><g id="link_User Interface_DisplayInventory"><path d="M594.716,127.24 C588.404,152.8 570.8,224.048 565.16,246.872 " fill="none" id="User Interface-to-DisplayInventory" style="stroke:#181818;stroke-width:0.4000000000000001;"/><path d="M567.7795,250.376 A3.6,3.6 0 0 0 561.2112 248.7533" fill="none" style="stroke:#181818;stroke-width:0.6000000000000001;"/></g><!--MD5=[c24d5849b99aa7b41bd365c538f4a333]
link Crafting to DisplayCrafting--><g id="link_Crafting_DisplayCrafting"><path d="M664.232,127.284 C657.776,137.328 647.82,152.812 643.512,159.516 " fill="none" id="Crafting-DisplayCrafting" style="stroke:#181818;stroke-width:0.4000000000000001;"/></g><!--MD5=[070fbf2d164a533150642b1b43fee6b6]
link Inventory to DisplayInventory--><g id="link_Inventory_DisplayInventory"><path d="M625.24,218.484 C606.588,229.196 577.172,246.088 567,251.932 " fill="none" id="Inventory-DisplayInventory" style="stroke:#181818;stroke-width:0.4000000000000001;"/></g><!--MD5=[26c4895d8cc59df4a395c8c051f0ed9e]
link Camera to DisplayWorld--><g id="link_Camera_DisplayWorld"><path d="M310.584,122.3 C287.248,128.044 245.424,138.932 210.6,151.2 C203.732,153.62 196.124,156.92 190.704,159.38 " fill="none" id="Camera-to-DisplayWorld" style="stroke:#181818;stroke-width:0.4000000000000001;"/><path d="M189.5698,163.6293 A3.6,3.6 0 0 0 186.7388 157.4843" fill="none" style="stroke:#181818;stroke-width:0.6000000000000001;"/></g><!--MD5=[4c1498c39fa8a73509cefd8bf87ee60c]
link Camera to DisplayPlayer--><g id="link_Camera_DisplayPlayer"><path d="M320.728,127.284 C313.336,135.996 302.48,148.796 296.016,156.416 " fill="none" id="Camera-to-DisplayPlayer" style="stroke:#181818;stroke-width:0.4000000000000001;"/><path d="M296.7602,160.7655 A3.6,3.6 0 0 0 291.6008 156.3887" fill="none" style="stroke:#181818;stroke-width:0.6000000000000001;"/></g><!--MD5=[c97f339238bcf692952904a793869808]
link Camera to DisplayUI--><g id="link_Camera_DisplayUI"><path d="M346.692,124.332 C364.328,130.648 391.804,140.876 415,151.2 C420.28,153.552 426.084,156.508 430.516,158.852 " fill="none" id="Camera-to-DisplayUI" style="stroke:#181818;stroke-width:0.4000000000000001;"/><path d="M434.6582,157.2289 A3.6,3.6 0 0 0 431.4598 163.191" fill="none" style="stroke:#181818;stroke-width:0.6000000000000001;"/></g><!--MD5=[2b59e7a64008b19389b948aca0ac1d81]
link Game World to DisplayWorld--><g id="link_Game World_DisplayWorld"><path d="M127.588,127.284 C144.18,137.84 170.208,154.404 179.744,160.472 " fill="none" id="Game World-DisplayWorld" style="stroke:#181818;stroke-width:0.4000000000000001;"/></g><!--MD5=[36976bc424124ba4f6508b3d1bf060a2]
link Player to DisplayPlayer--><g id="link_Player_DisplayPlayer"><path d="M374.532,125.196 C350.684,135.884 307.328,155.308 294.36,161.116 " fill="none" id="Player-DisplayPlayer" style="stroke:#181818;stroke-width:0.4000000000000001;"/></g><!--MD5=[b85e66af217458cd32f6b66e79a12a70]
link User Interface to DisplayUI--><g id="link_User Interface_DisplayUI"><path d="M571.368,122.316 C543.464,127.452 497.796,137.136 460.2,151.2 C453.308,153.776 445.816,157.968 441.48,160.544 " fill="none" id="User Interface-DisplayUI" style="stroke:#181818;stroke-width:0.4000000000000001;"/></g><!--MD5=[1149a06f0ba453b7a15ef21c9cd0fba3]
link Player to MovePlayerWorld--><g id="link_Player_MovePlayerWorld"><path d="M374.5,121.996 C342.452,129.98 272.84,147.444 262.2,151.2 C255.884,153.428 248.976,156.604 243.932,159.068 " fill="none" id="Player-to-MovePlayerWorld" style="stroke:#181818;stroke-width:0.4000000000000001;"/><path d="M242.9414,163.3401 A3.6,3.6 0 0 0 239.9273 157.2828" fill="none" style="stroke:#181818;stroke-width:0.6000000000000001;"/></g><!--MD5=[e95873f13a987f744203a66e819b773a]
link Game World to MovePlayerWorld--><g id="link_Game World_MovePlayerWorld"><path d="M136.888,125.448 C156.784,131.812 185.772,141.464 210.6,151.2 C218.7,154.376 227.952,158.668 232.944,161.04 " fill="none" id="Game World-MovePlayerWorld" style="stroke:#181818;stroke-width:0.4000000000000001;"/></g><!--MD5=[f23ca20a5e6f486cbdfa5965fd657bef]
link Camera to MovePlayerCamera--><g id="link_Camera_MovePlayerCamera"><path d="M336.556,127.284 C345.168,137.328 358.44,152.812 364.188,159.516 " fill="none" id="Camera-MovePlayerCamera" style="stroke:#181818;stroke-width:0.4000000000000001;"/></g><!--MD5=[661f1571f64c8c5c6a143056833ac226]
link Player to MovePlayerCamera--><g id="link_Player_MovePlayerCamera"><path d="M385.712,127.284 C381.224,135.8 374.68,148.22 370.64,155.892 " fill="none" id="Player-to-MovePlayerCamera" style="stroke:#181818;stroke-width:0.4000000000000001;"/><path d="M372.2943,160.0075 A3.6,3.6 0 0 0 366.312 156.8472" fill="none" style="stroke:#181818;stroke-width:0.6000000000000001;"/></g><!--MD5=[fe49cb0edb1701096dc34111940909e4]
@startuml
[Game Settings]

[Crafting]
[Block]
[Item]
[Breaking and Placing]
[Player]
[Player Movement]
[Camera]
[Game World]
[Inventory]
[User Interface]
[Game Menu]
folder "Files"{
    [Sprites]
    [Recipe Json]
}
() "Get Texture" as GT1
() "Get Texture" as GT2
[Sprites] - - GT1
GT1 )- - [Game Settings]
[Sprites] - - GT2
GT2 )- - [Player]

() "Get Block Properties" as GBlockInfo
() "Get Item Properties" as GBItemInfo
[Block] - -( GBlockInfo
GBlockInfo - - [Game Settings]
[Item] - -( GBItemInfo
GBItemInfo - - [Game Settings]

() "Get Block" as GBlock
() "Get Item" as GItem

[Inventory] - -( GBlock
GBlock - - [Block]
[Inventory] - -( GItem
GItem - - [Item]

() "Store/Retrieve Block" as StoreRetrieveBlock
[Breaking and Placing] - -( StoreRetrieveBlock
StoreRetrieveBlock - - [Inventory]

() "Select Item/Block" as SelectItemBlock
SelectItemBlock - - [Inventory]
[Player] - -( SelectItemBlock

() "Break/Place Block" as BreakPlaceBlock
[Breaking and Placing] - - BreakPlaceBlock
BreakPlaceBlock )- - [Player]

() "Place Block" as PlaceBlock
[Game World] - - PlaceBlock
[Breaking and Placing] - -( PlaceBlock

() "Craft Item/Block" as Craft
[Crafting] - - Craft
[Player] - -( Craft

() "Get Recipes" as GetRecipes
[Crafting] - -( GetRecipes
[Recipe Json] - - GetRecipes

() "Store/Retrieve Item/Block" as StoreRetrieveBlockItem
[Crafting] - -( StoreRetrieveBlockItem
[Inventory] - - StoreRetrieveBlockItem

() "Get Blocks for Gen" as BlocKGen
[Game World] - -( BlocKGen
[Block] - - BlocKGen

() "Generate world from seed" as GenWorld
[Game World] - - GenWorld
GenWorld )- - [Game Menu]

() "Display World" as DisplayWorld
() "Display Player" as DisplayPlayer
() "Display UI" as DisplayUI

() "Display Crafting" as DisplayCrafting
() "Display Inventory" as DisplayInventory

[User Interface] - -( DisplayCrafting
[User Interface] - -( DisplayInventory
[Crafting] - - DisplayCrafting
[Inventory] - - DisplayInventory

[Camera] - -( DisplayWorld
[Camera] - -( DisplayPlayer
[Camera] - -( DisplayUI
[Game World] - - DisplayWorld
[Player] - - DisplayPlayer
[User Interface] - - DisplayUI

() "Move Player" as MovePlayerWorld
[Player] - -( MovePlayerWorld
[Game World] - - MovePlayerWorld

() "Move Camera on Player Move" as MovePlayerCamera
[Camera] - - MovePlayerCamera
[Player] - -( MovePlayerCamera



@enduml

PlantUML version 1.2022.4(Sat Apr 09 15:29:17 CAT 2022)
(GPL source distribution)
Java Runtime: OpenJDK Runtime Environment
JVM: OpenJDK 64-Bit Server VM
Default Encoding: Cp1252
Language: en
Country: GB
--></g></svg>