<?xml version="1.0" encoding="UTF-8" standalone="no"?><svg xmlns="http://www.w3.org/2000/svg" xmlns:xlink="http://www.w3.org/1999/xlink" contentStyleType="text/css" height="1007px" preserveAspectRatio="none" style="width:2155px;height:1007px;background:#FFFFFF;" version="1.1" viewBox="0 0 2155 1007" width="2155px" zoomAndPan="magnify"><defs/><g><!--MD5=[6a7bbfa3d72452af17f24c65754d4e2c]
cluster Files--><g id="cluster_Files"><path d="M208.5,6 L243.5,6 A3.75,3.75 0 0 1 246,8.5 L253,29.6094 L472.5,29.6094 A2.5,2.5 0 0 1 475,32.1094 L475,103.5 A2.5,2.5 0 0 1 472.5,106 L208.5,106 A2.5,2.5 0 0 1 206,103.5 L206,8.5 A2.5,2.5 0 0 1 208.5,6 " style="stroke:#000000;stroke-width:1.5;fill:none;"/><line style="stroke:#000000;stroke-width:1.5;fill:none;" x1="206" x2="253" y1="29.6094" y2="29.6094"/><text fill="#000000" font-family="sans-serif" font-size="14" font-weight="bold" lengthAdjust="spacing" textLength="34" x="210" y="22.5332">Files</text></g><!--MD5=[e56f7492f04ae9d94986440eb8a25ddd]
entity Sprites--><g id="elem_Sprites"><rect fill="#F1F1F1" height="47.6094" rx="2.5" ry="2.5" style="stroke:#181818;stroke-width:0.5;" width="84" x="222" y="42"/><rect fill="#F1F1F1" height="10" style="stroke:#181818;stroke-width:0.5;" width="15" x="286" y="47"/><rect fill="#F1F1F1" height="2" style="stroke:#181818;stroke-width:0.5;" width="4" x="284" y="49"/><rect fill="#F1F1F1" height="2" style="stroke:#181818;stroke-width:0.5;" width="4" x="284" y="53"/><text fill="#000000" font-family="sans-serif" font-size="14" lengthAdjust="spacing" textLength="44" x="237" y="76.5332">Sprites</text></g><!--MD5=[eccc74c5d4e81b373d80cabf52c45d8c]
entity Recipe Json--><g id="elem_Recipe Json"><rect fill="#F1F1F1" height="47.6094" rx="2.5" ry="2.5" style="stroke:#181818;stroke-width:0.5;" width="117" x="341.5" y="42"/><rect fill="#F1F1F1" height="10" style="stroke:#181818;stroke-width:0.5;" width="15" x="438.5" y="47"/><rect fill="#F1F1F1" height="2" style="stroke:#181818;stroke-width:0.5;" width="4" x="436.5" y="49"/><rect fill="#F1F1F1" height="2" style="stroke:#181818;stroke-width:0.5;" width="4" x="436.5" y="53"/><text fill="#000000" font-family="sans-serif" font-size="14" lengthAdjust="spacing" textLength="77" x="356.5" y="76.5332">Recipe Json</text></g><!--MD5=[ec467500b4fd5e3c9827eac1bb8e0f6b]
entity Game Settings--><g id="elem_Game Settings"><rect fill="#F1F1F1" height="47.6094" rx="2.5" ry="2.5" style="stroke:#181818;stroke-width:0.5;" width="133" x="474.5" y="954"/><rect fill="#F1F1F1" height="10" style="stroke:#181818;stroke-width:0.5;" width="15" x="587.5" y="959"/><rect fill="#F1F1F1" height="2" style="stroke:#181818;stroke-width:0.5;" width="4" x="585.5" y="961"/><rect fill="#F1F1F1" height="2" style="stroke:#181818;stroke-width:0.5;" width="4" x="585.5" y="965"/><text fill="#000000" font-family="sans-serif" font-size="14" lengthAdjust="spacing" textLength="93" x="489.5" y="988.5332">Game Settings</text></g><!--MD5=[20a1033d75ee8087235cacd9e4898522]
entity Crafting--><g id="elem_Crafting"><rect fill="#F1F1F1" height="47.6094" rx="2.5" ry="2.5" style="stroke:#181818;stroke-width:0.5;" width="90" x="1816" y="270"/><rect fill="#F1F1F1" height="10" style="stroke:#181818;stroke-width:0.5;" width="15" x="1886" y="275"/><rect fill="#F1F1F1" height="2" style="stroke:#181818;stroke-width:0.5;" width="4" x="1884" y="277"/><rect fill="#F1F1F1" height="2" style="stroke:#181818;stroke-width:0.5;" width="4" x="1884" y="281"/><text fill="#000000" font-family="sans-serif" font-size="14" lengthAdjust="spacing" textLength="50" x="1831" y="304.5332">Crafting</text></g><!--MD5=[45d7808020dbd92216b02228f7e599f6]
entity Block--><g id="elem_Block"><rect fill="#F1F1F1" height="47.6094" rx="2.5" ry="2.5" style="stroke:#181818;stroke-width:0.5;" width="74" x="504" y="726"/><rect fill="#F1F1F1" height="10" style="stroke:#181818;stroke-width:0.5;" width="15" x="558" y="731"/><rect fill="#F1F1F1" height="2" style="stroke:#181818;stroke-width:0.5;" width="4" x="556" y="733"/><rect fill="#F1F1F1" height="2" style="stroke:#181818;stroke-width:0.5;" width="4" x="556" y="737"/><text fill="#000000" font-family="sans-serif" font-size="14" lengthAdjust="spacing" textLength="34" x="519" y="760.5332">Block</text></g><!--MD5=[ab59c2c83936ce77a0901c710a4c2b89]
entity Item--><g id="elem_Item"><rect fill="#F1F1F1" height="47.6094" rx="2.5" ry="2.5" style="stroke:#181818;stroke-width:0.5;" width="66" x="881" y="726"/><rect fill="#F1F1F1" height="10" style="stroke:#181818;stroke-width:0.5;" width="15" x="927" y="731"/><rect fill="#F1F1F1" height="2" style="stroke:#181818;stroke-width:0.5;" width="4" x="925" y="733"/><rect fill="#F1F1F1" height="2" style="stroke:#181818;stroke-width:0.5;" width="4" x="925" y="737"/><text fill="#000000" font-family="sans-serif" font-size="14" lengthAdjust="spacing" textLength="26" x="896" y="760.5332">Item</text></g><!--MD5=[3d6f32cb5b891463c0dffd3944c7a07b]
entity Breaking and Placing--><g id="elem_Breaking and Placing"><rect fill="#F1F1F1" height="47.6094" rx="2.5" ry="2.5" style="stroke:#181818;stroke-width:0.5;" width="174" x="891" y="42"/><rect fill="#F1F1F1" height="10" style="stroke:#181818;stroke-width:0.5;" width="15" x="1045" y="47"/><rect fill="#F1F1F1" height="2" style="stroke:#181818;stroke-width:0.5;" width="4" x="1043" y="49"/><rect fill="#F1F1F1" height="2" style="stroke:#181818;stroke-width:0.5;" width="4" x="1043" y="53"/><text fill="#000000" font-family="sans-serif" font-size="14" lengthAdjust="spacing" textLength="134" x="906" y="76.5332">Breaking and Placing</text></g><!--MD5=[de2effd8dc5bf946a609466312d0f75f]
entity Player--><g id="elem_Player"><rect fill="#F1F1F1" height="47.6094" rx="2.5" ry="2.5" style="stroke:#181818;stroke-width:0.5;" width="80" x="938" y="270"/><rect fill="#F1F1F1" height="10" style="stroke:#181818;stroke-width:0.5;" width="15" x="998" y="275"/><rect fill="#F1F1F1" height="2" style="stroke:#181818;stroke-width:0.5;" width="4" x="996" y="277"/><rect fill="#F1F1F1" height="2" style="stroke:#181818;stroke-width:0.5;" width="4" x="996" y="281"/><text fill="#000000" font-family="sans-serif" font-size="14" lengthAdjust="spacing" textLength="40" x="953" y="304.5332">Player</text></g><!--MD5=[c8f729b8e352a0860913e8756c4779b6]
entity Camera--><g id="elem_Camera"><rect fill="#F1F1F1" height="47.6094" rx="2.5" ry="2.5" style="stroke:#181818;stroke-width:0.5;" width="90" x="778" y="270"/><rect fill="#F1F1F1" height="10" style="stroke:#181818;stroke-width:0.5;" width="15" x="848" y="275"/><rect fill="#F1F1F1" height="2" style="stroke:#181818;stroke-width:0.5;" width="4" x="846" y="277"/><rect fill="#F1F1F1" height="2" style="stroke:#181818;stroke-width:0.5;" width="4" x="846" y="281"/><text fill="#000000" font-family="sans-serif" font-size="14" lengthAdjust="spacing" textLength="50" x="793" y="304.5332">Camera</text></g><!--MD5=[6a30fd0128a7413820ab77e27b80c321]
entity Game World--><g id="elem_Game World"><rect fill="#F1F1F1" height="47.6094" rx="2.5" ry="2.5" style="stroke:#181818;stroke-width:0.5;" width="119" x="415.5" y="270"/><rect fill="#F1F1F1" height="10" style="stroke:#181818;stroke-width:0.5;" width="15" x="514.5" y="275"/><rect fill="#F1F1F1" height="2" style="stroke:#181818;stroke-width:0.5;" width="4" x="512.5" y="277"/><rect fill="#F1F1F1" height="2" style="stroke:#181818;stroke-width:0.5;" width="4" x="512.5" y="281"/><text fill="#000000" font-family="sans-serif" font-size="14" lengthAdjust="spacing" textLength="79" x="430.5" y="304.5332">Game World</text></g><!--MD5=[c3a82e844d23968b7ce72d3a5f9fb6d3]
entity Inventory--><g id="elem_Inventory"><rect fill="#F1F1F1" height="47.6094" rx="2.5" ry="2.5" style="stroke:#181818;stroke-width:0.5;" width="98" x="1327" y="498"/><rect fill="#F1F1F1" height="10" style="stroke:#181818;stroke-width:0.5;" width="15" x="1405" y="503"/><rect fill="#F1F1F1" height="2" style="stroke:#181818;stroke-width:0.5;" width="4" x="1403" y="505"/><rect fill="#F1F1F1" height="2" style="stroke:#181818;stroke-width:0.5;" width="4" x="1403" y="509"/><text fill="#000000" font-family="sans-serif" font-size="14" lengthAdjust="spacing" textLength="58" x="1342" y="532.5332">Inventory</text></g><!--MD5=[9c626053e623f48c145be2aac1d12849]
entity User Interface--><g id="elem_User Interface"><rect fill="#F1F1F1" height="47.6094" rx="2.5" ry="2.5" style="stroke:#181818;stroke-width:0.5;" width="128" x="1618" y="270"/><rect fill="#F1F1F1" height="10" style="stroke:#181818;stroke-width:0.5;" width="15" x="1726" y="275"/><rect fill="#F1F1F1" height="2" style="stroke:#181818;stroke-width:0.5;" width="4" x="1724" y="277"/><rect fill="#F1F1F1" height="2" style="stroke:#181818;stroke-width:0.5;" width="4" x="1724" y="281"/><text fill="#000000" font-family="sans-serif" font-size="14" lengthAdjust="spacing" textLength="88" x="1633" y="304.5332">User Interface</text></g><!--MD5=[176614c6f3a8e6e15f452eeb3396fe40]
entity Game Menu--><g id="elem_Game Menu"><rect fill="#F1F1F1" height="47.6094" rx="2.5" ry="2.5" style="stroke:#181818;stroke-width:0.5;" width="117" x="284.5" y="498"/><rect fill="#F1F1F1" height="10" style="stroke:#181818;stroke-width:0.5;" width="15" x="381.5" y="503"/><rect fill="#F1F1F1" height="2" style="stroke:#181818;stroke-width:0.5;" width="4" x="379.5" y="505"/><rect fill="#F1F1F1" height="2" style="stroke:#181818;stroke-width:0.5;" width="4" x="379.5" y="509"/><text fill="#000000" font-family="sans-serif" font-size="14" lengthAdjust="spacing" textLength="77" x="299.5" y="532.5332">Game Menu</text></g><!--MD5=[9bf38e2b6fa784581ad2b7a500786e52]
entity Audio--><g id="elem_Audio"><rect fill="#F1F1F1" height="47.6094" rx="2.5" ry="2.5" style="stroke:#181818;stroke-width:0.5;" width="76" x="1411" y="270"/><rect fill="#F1F1F1" height="10" style="stroke:#181818;stroke-width:0.5;" width="15" x="1467" y="275"/><rect fill="#F1F1F1" height="2" style="stroke:#181818;stroke-width:0.5;" width="4" x="1465" y="277"/><rect fill="#F1F1F1" height="2" style="stroke:#181818;stroke-width:0.5;" width="4" x="1465" y="281"/><text fill="#000000" font-family="sans-serif" font-size="14" lengthAdjust="spacing" textLength="36" x="1426" y="304.5332">Audio</text></g><!--MD5=[1a8f18ec5d3b3f418f4294ccc7f67a9b]
entity GT1--><g id="elem_GT1"><ellipse cx="51" cy="180" fill="#F1F1F1" rx="8" ry="8" style="stroke:#181818;stroke-width:0.5;"/><text fill="#000000" font-family="sans-serif" font-size="14" lengthAdjust="spacing" textLength="75" x="13.5" y="211.5332">Get Texture</text></g><!--MD5=[f1ff46596a9076ec4408fb4820ef3e2e]
entity GT2--><g id="elem_GT2"><ellipse cx="264" cy="180" fill="#F1F1F1" rx="8" ry="8" style="stroke:#181818;stroke-width:0.5;"/><text fill="#000000" font-family="sans-serif" font-size="14" lengthAdjust="spacing" textLength="75" x="226.5" y="211.5332">Get Texture</text></g><!--MD5=[8aa48eece13b069ef17ea2b2a2e0d94a]
entity GBlockInfo--><g id="elem_GBlockInfo"><ellipse cx="541" cy="864" fill="#F1F1F1" rx="8" ry="8" style="stroke:#181818;stroke-width:0.5;"/><text fill="#000000" font-family="sans-serif" font-size="14" lengthAdjust="spacing" textLength="130" x="476" y="895.5332">Get Block Properties</text></g><!--MD5=[eaef40ceae70d53d702928da1ceb95c0]
entity GBItemInfo--><g id="elem_GBItemInfo"><ellipse cx="820" cy="864" fill="#F1F1F1" rx="8" ry="8" style="stroke:#181818;stroke-width:0.5;"/><text fill="#000000" font-family="sans-serif" font-size="14" lengthAdjust="spacing" textLength="122" x="759" y="895.5332">Get Item Properties</text></g><!--MD5=[88072e861a9acb9d8434eb03350cf594]
entity GBlock--><g id="elem_GBlock"><ellipse cx="682" cy="636" fill="#F1F1F1" rx="8" ry="8" style="stroke:#181818;stroke-width:0.5;"/><text fill="#000000" font-family="sans-serif" font-size="14" lengthAdjust="spacing" textLength="61" x="651.5" y="667.5332">Get Block</text></g><!--MD5=[42405b7584953efb4ee1e909ccfc963b]
entity GItem--><g id="elem_GItem"><ellipse cx="1008" cy="636" fill="#F1F1F1" rx="8" ry="8" style="stroke:#181818;stroke-width:0.5;"/><text fill="#000000" font-family="sans-serif" font-size="14" lengthAdjust="spacing" textLength="53" x="981.5" y="667.5332">Get Item</text></g><!--MD5=[da147cd71508b1913a41bb6b4b01a772]
entity StoreRetrieveBlock--><g id="elem_StoreRetrieveBlock"><ellipse cx="2084" cy="180" fill="#F1F1F1" rx="8" ry="8" style="stroke:#181818;stroke-width:0.5;"/><text fill="#000000" font-family="sans-serif" font-size="14" lengthAdjust="spacing" textLength="129" x="2019.5" y="211.5332">Store/Retrieve Block</text></g><!--MD5=[d26c08427d166fc46bfdb907375634c7]
entity SelectItemBlock--><g id="elem_SelectItemBlock"><ellipse cx="1290" cy="408" fill="#F1F1F1" rx="8" ry="8" style="stroke:#181818;stroke-width:0.5;"/><text fill="#000000" font-family="sans-serif" font-size="14" lengthAdjust="spacing" textLength="107" x="1236.5" y="439.5332">Select Item/Block</text></g><!--MD5=[a9ca98f5762c40b68b842c463b31ef35]
entity BreakPlaceBlock--><g id="elem_BreakPlaceBlock"><ellipse cx="978" cy="180" fill="#F1F1F1" rx="8" ry="8" style="stroke:#181818;stroke-width:0.5;"/><text fill="#000000" font-family="sans-serif" font-size="14" lengthAdjust="spacing" textLength="114" x="921" y="211.5332">Break/Place Block</text></g><!--MD5=[f912c3dc76be78071eecc274b3d6d7ff]
entity PlaceBlock--><g id="elem_PlaceBlock"><ellipse cx="103" cy="408" fill="#F1F1F1" rx="8" ry="8" style="stroke:#181818;stroke-width:0.5;"/><text fill="#000000" font-family="sans-serif" font-size="14" lengthAdjust="spacing" textLength="73" x="66.5" y="439.5332">Place Block</text></g><!--MD5=[801d9971c74be9d07ffc18d022fa1b86]
entity Craft--><g id="elem_Craft"><ellipse cx="1746" cy="408" fill="#F1F1F1" rx="8" ry="8" style="stroke:#181818;stroke-width:0.5;"/><text fill="#000000" font-family="sans-serif" font-size="14" lengthAdjust="spacing" textLength="99" x="1696.5" y="439.5332">Craft Item/Block</text></g><!--MD5=[e25fa1a09df03286a4013fc67ada0c07]
entity GetRecipes--><g id="elem_GetRecipes"><ellipse cx="2107" cy="408" fill="#F1F1F1" rx="8" ry="8" style="stroke:#181818;stroke-width:0.5;"/><text fill="#000000" font-family="sans-serif" font-size="14" lengthAdjust="spacing" textLength="78" x="2068" y="439.5332">Get Recipes</text></g><!--MD5=[74aef968b7954e707f3796f5a35ab757]
entity StoreRetrieveBlockItem--><g id="elem_StoreRetrieveBlockItem"><ellipse cx="1827" cy="636" fill="#F1F1F1" rx="8" ry="8" style="stroke:#181818;stroke-width:0.5;"/><text fill="#000000" font-family="sans-serif" font-size="14" lengthAdjust="spacing" textLength="159" x="1747.5" y="667.5332">Store/Retrieve Item/Block</text></g><!--MD5=[ea574140fec53518e19733d715d15af5]
entity BlocKGen--><g id="elem_BlocKGen"><ellipse cx="310" cy="864" fill="#F1F1F1" rx="8" ry="8" style="stroke:#181818;stroke-width:0.5;"/><text fill="#000000" font-family="sans-serif" font-size="14" lengthAdjust="spacing" textLength="120" x="250" y="895.5332">Get Blocks for Gen</text></g><!--MD5=[da9abac6f303204ac08af8f3142bbdb5]
entity GenWorld--><g id="elem_GenWorld"><ellipse cx="343" cy="408" fill="#F1F1F1" rx="8" ry="8" style="stroke:#181818;stroke-width:0.5;"/><text fill="#000000" font-family="sans-serif" font-size="14" lengthAdjust="spacing" textLength="164" x="261" y="439.5332">Generate world from seed</text></g><!--MD5=[56ee8b33924492548bd9da39795eb7ef]
entity DisplayWorld--><g id="elem_DisplayWorld"><ellipse cx="519" cy="408" fill="#F1F1F1" rx="8" ry="8" style="stroke:#181818;stroke-width:0.5;"/><text fill="#000000" font-family="sans-serif" font-size="14" lengthAdjust="spacing" textLength="87" x="475.5" y="439.5332">Display World</text></g><!--MD5=[0e27917c4a4f58a74db95a6dbb62aec7]
entity DisplayPlayer--><g id="elem_DisplayPlayer"><ellipse cx="787" cy="408" fill="#F1F1F1" rx="8" ry="8" style="stroke:#181818;stroke-width:0.5;"/><text fill="#000000" font-family="sans-serif" font-size="14" lengthAdjust="spacing" textLength="90" x="742" y="439.5332">Display Player</text></g><!--MD5=[beea72e0d01653e4c9f99928df8e17cd]
entity DisplayUI--><g id="elem_DisplayUI"><ellipse cx="1155" cy="408" fill="#F1F1F1" rx="8" ry="8" style="stroke:#181818;stroke-width:0.5;"/><text fill="#000000" font-family="sans-serif" font-size="14" lengthAdjust="spacing" textLength="62" x="1124" y="439.5332">Display UI</text></g><!--MD5=[941f54ee38a768d85a8ad4c4b4555377]
entity DisplayCrafting--><g id="elem_DisplayCrafting"><ellipse cx="1896" cy="408" fill="#F1F1F1" rx="8" ry="8" style="stroke:#181818;stroke-width:0.5;"/><text fill="#000000" font-family="sans-serif" font-size="14" lengthAdjust="spacing" textLength="100" x="1846" y="439.5332">Display Crafting</text></g><!--MD5=[206894d240f45f21cb6119ef6cf55bbc]
entity DisplayInventory--><g id="elem_DisplayInventory"><ellipse cx="1463" cy="636" fill="#F1F1F1" rx="8" ry="8" style="stroke:#181818;stroke-width:0.5;"/><text fill="#000000" font-family="sans-serif" font-size="14" lengthAdjust="spacing" textLength="108" x="1409" y="667.5332">Display Inventory</text></g><!--MD5=[45c23742ac8285756e1ac42d52cd8745]
entity MovePlayerWorld--><g id="elem_MovePlayerWorld"><ellipse cx="652" cy="408" fill="#F1F1F1" rx="8" ry="8" style="stroke:#181818;stroke-width:0.5;"/><text fill="#000000" font-family="sans-serif" font-size="14" lengthAdjust="spacing" textLength="78" x="613" y="439.5332">Move Player</text></g><!--MD5=[3f2a2fb92bf9f01413912c470826f626]
entity MovePlayerCamera--><g id="elem_MovePlayerCamera"><ellipse cx="978" cy="408" fill="#F1F1F1" rx="8" ry="8" style="stroke:#181818;stroke-width:0.5;"/><text fill="#000000" font-family="sans-serif" font-size="14" lengthAdjust="spacing" textLength="190" x="883" y="439.5332">Move Camera on Player Move</text></g><!--MD5=[ba6fbc4d8a307ff6afd8c39c2e8d8322]
entity playAudio--><g id="elem_playAudio"><ellipse cx="1449" cy="408" fill="#F1F1F1" rx="8" ry="8" style="stroke:#181818;stroke-width:0.5;"/><text fill="#000000" font-family="sans-serif" font-size="14" lengthAdjust="spacing" textLength="110" x="1394" y="439.5332">Get Audio to Play</text></g><!--MD5=[833bae06c0cf30466acbc405d55ed788]
link Sprites to GT1--><g id="link_Sprites_GT1"><path d="M221.92,89.13 C170.75,116.03 87.82,159.64 60.24,174.14 " fill="none" id="Sprites-GT1" style="stroke:#181818;stroke-width:1.0;"/></g><!--MD5=[31406db7eb95a52c6e3387555d623df7]
reverse link GT1 to Game Settings--><g id="link_GT1_Game Settings"><path d="M45.03,198.63 C32.78,236.37 6,327.99 6,407 C6,407 6,407 6,751 C6,851.58 330.91,932.65 474.32,963.53 " fill="none" id="GT1-backto-Game Settings" style="stroke:#181818;stroke-width:1.0;"/><path d="M39.1935,189.3399 A9,9 0 0 0 55.2424 194.6814" fill="none" style="stroke:#181818;stroke-width:1.5;"/></g><!--MD5=[b04ad571f909b26a9d4513388aff1f63]
link Sprites to GT2--><g id="link_Sprites_GT2"><path d="M264,90.21 C264,115.32 264,154.03 264,170.79 " fill="none" id="Sprites-GT2" style="stroke:#181818;stroke-width:1.0;"/></g><!--MD5=[51160945cc9d277d81098ce725fef6d8]
reverse link GT2 to Player--><g id="link_GT2_Player"><path d="M283.26,183.02 C359.88,191.23 650.28,223.8 886,270 C903.13,273.36 921.84,277.88 937.9,282.02 " fill="none" id="GT2-backto-Player" style="stroke:#181818;stroke-width:1.0;"/><path d="M275.3692,190.6822 A9,9 0 0 0 277.1336 173.86" fill="none" style="stroke:#181818;stroke-width:1.5;"/></g><!--MD5=[6cbb0df46079e74cba3e8104e07a3a5e]
link Block to GBlockInfo--><g id="link_Block_GBlockInfo"><path d="M541,774.21 C541,795.1 541,825.41 541,844.66 " fill="none" id="Block-to-GBlockInfo" style="stroke:#181818;stroke-width:1.0;"/><path d="M549.4572,851.7118 A9,9 0 0 0 532.5428 851.7118" fill="none" style="stroke:#181818;stroke-width:1.5;"/></g><!--MD5=[3c272064933e94207695fb4d13fb9d77]
link GBlockInfo to Game Settings--><g id="link_GBlockInfo_Game Settings"><path d="M541,873.05 C541,889.71 541,928.47 541,953.67 " fill="none" id="GBlockInfo-Game Settings" style="stroke:#181818;stroke-width:1.0;"/></g><!--MD5=[2f4c065f2b491914fbcaa0c0a9dced04]
link Item to GBItemInfo--><g id="link_Item_GBItemInfo"><path d="M894.52,774.21 C876.24,795.99 849.39,827.99 833.4,847.04 " fill="none" id="Item-to-GBItemInfo" style="stroke:#181818;stroke-width:1.0;"/><path d="M835.3464,857.8704 A9,9 0 0 0 822.3921 846.9946" fill="none" style="stroke:#181818;stroke-width:1.5;"/></g><!--MD5=[a3942f16af6aea663a47f2af12875deb]
link GBItemInfo to Game Settings--><g id="link_GBItemInfo_Game Settings"><path d="M810.72,868.73 C778.19,881.78 667.62,926.17 598.56,953.9 " fill="none" id="GBItemInfo-Game Settings" style="stroke:#181818;stroke-width:1.0;"/></g><!--MD5=[d6d32cedfe030439373b336cb5000e96]
link Inventory to GBlock--><g id="link_Inventory_GBlock"><path d="M1326.92,530.92 C1187.6,553.4 793.79,616.96 701.52,631.85 " fill="none" id="Inventory-to-GBlock" style="stroke:#181818;stroke-width:1.0;"/><path d="M695.7506,641.352 A9,9 0 0 0 693.0679 624.6516" fill="none" style="stroke:#181818;stroke-width:1.5;"/></g><!--MD5=[118a765e966355423c34d4af725f384a]
link GBlock to Block--><g id="link_GBlock_Block"><path d="M672.75,644.35 C652.22,660.65 602.16,700.42 569.99,725.97 " fill="none" id="GBlock-Block" style="stroke:#181818;stroke-width:1.0;"/></g><!--MD5=[dfa6cd361c6b793f4677081cbc43bb1d]
link Inventory to GItem--><g id="link_Inventory_GItem"><path d="M1326.75,537.99 C1244.3,563.08 1081.93,612.5 1026.82,629.27 " fill="none" id="Inventory-to-GItem" style="stroke:#181818;stroke-width:1.0;"/><path d="M1022.4211,639.4517 A9,9 0 0 0 1017.4876 623.2727" fill="none" style="stroke:#181818;stroke-width:1.5;"/></g><!--MD5=[325b17ebab9b6016a31cb1a9784fdd6b]
link GItem to Item--><g id="link_GItem_Item"><path d="M1001.24,645.05 C987.26,661.71 954.73,700.47 933.58,725.67 " fill="none" id="GItem-Item" style="stroke:#181818;stroke-width:1.0;"/></g><!--MD5=[25af1755c2324c2326503938705c752b]
link Breaking and Placing to StoreRetrieveBlock--><g id="link_Breaking and Placing_StoreRetrieveBlock"><path d="M1065.33,68.26 C1240.97,72.1 1648.9,87.59 1985,150 C2013.53,155.3 2045.59,165.5 2065.3,172.28 " fill="none" id="Breaking and Placing-to-StoreRetrieveBlock" style="stroke:#181818;stroke-width:1.0;"/><path d="M2074.7585,166.6507 A9,9 0 0 0 2069.1708 182.6156" fill="none" style="stroke:#181818;stroke-width:1.5;"/></g><!--MD5=[9e217f0be4295e8271d6a435f23b87a2]
link StoreRetrieveBlock to Inventory--><g id="link_StoreRetrieveBlock_Inventory"><path d="M2074.88,181.52 C2015.03,185.1 1678.45,207.8 1601,270 C1537.8,320.75 1584.55,378.04 1530,438 C1501.59,469.23 1458.63,491.01 1425.3,504.41 " fill="none" id="StoreRetrieveBlock-Inventory" style="stroke:#181818;stroke-width:1.0;"/></g><!--MD5=[e74f0ae00824837c9572152c9f65e0cd]
link SelectItemBlock to Inventory--><g id="link_SelectItemBlock_Inventory"><path d="M1296.18,417.05 C1308.97,433.71 1338.74,472.47 1358.08,497.67 " fill="none" id="SelectItemBlock-Inventory" style="stroke:#181818;stroke-width:1.0;"/></g><!--MD5=[40106af54c5523aa758db7b9d86448e4]
link Player to SelectItemBlock--><g id="link_Player_SelectItemBlock"><path d="M1018.23,309.06 C1064.9,325.42 1144.14,353.35 1212,378 C1232.3,385.37 1255.49,394.03 1271.27,399.95 " fill="none" id="Player-to-SelectItemBlock" style="stroke:#181818;stroke-width:1.0;"/><path d="M1280.9819,394.5605 A9,9 0 0 0 1275.0348 410.395" fill="none" style="stroke:#181818;stroke-width:1.5;"/></g><!--MD5=[1ee7cbf5ef8d2075090c0756baf58aec]
link Breaking and Placing to BreakPlaceBlock--><g id="link_Breaking and Placing_BreakPlaceBlock"><path d="M978,90.21 C978,115.32 978,154.03 978,170.79 " fill="none" id="Breaking and Placing-BreakPlaceBlock" style="stroke:#181818;stroke-width:1.0;"/></g><!--MD5=[4ba018fd2aac3000e629c9054405dd99]
reverse link BreakPlaceBlock to Player--><g id="link_BreakPlaceBlock_Player"><path d="M978,199.15 C978,218.35 978,248.7 978,269.67 " fill="none" id="BreakPlaceBlock-backto-Player" style="stroke:#181818;stroke-width:1.0;"/><path d="M969.5428,192.1282 A9,9 0 0 0 986.4572 192.1282" fill="none" style="stroke:#181818;stroke-width:1.5;"/></g><!--MD5=[bf2800027f078a606b20da05126be894]
link Game World to PlaceBlock--><g id="link_Game World_PlaceBlock"><path d="M415.24,311.07 C334.2,332.92 196.9,370.2 174,378 C151.31,385.73 125.43,396.93 112.06,402.89 " fill="none" id="Game World-PlaceBlock" style="stroke:#181818;stroke-width:1.0;"/></g><!--MD5=[d85fcbc4def0fba87b6109e07813c447]
link Breaking and Placing to PlaceBlock--><g id="link_Breaking and Placing_PlaceBlock"><path d="M904.81,90.06 C793.96,125.56 577.4,197.15 398,270 C290.99,313.45 166.67,374.92 121,397.88 " fill="none" id="Breaking and Placing-to-PlaceBlock" style="stroke:#181818;stroke-width:1.0;"/><path d="M118.593,408.5685 A9,9 0 0 0 110.9611 393.4737" fill="none" style="stroke:#181818;stroke-width:1.5;"/></g><!--MD5=[d97bc650b134c668d2d0bc8760395a7b]
link Crafting to Craft--><g id="link_Crafting_Craft"><path d="M1837.17,318.21 C1811.38,343.32 1771.64,382.03 1754.43,398.79 " fill="none" id="Crafting-Craft" style="stroke:#181818;stroke-width:1.0;"/></g><!--MD5=[5f3df63fa38e93bd3dec1679891c80ef]
link Player to Craft--><g id="link_Player_Craft"><path d="M1018.21,300.86 C1158.93,321.39 1626.18,389.53 1726.8,404.2 " fill="none" id="Player-to-Craft" style="stroke:#181818;stroke-width:1.0;"/><path d="M1735.1637,396.8772 A9,9 0 0 0 1732.7243 413.6149" fill="none" style="stroke:#181818;stroke-width:1.5;"/></g><!--MD5=[dbaa1f3b8b77d9001dabe906e4ed8be3]
link Crafting to GetRecipes--><g id="link_Crafting_GetRecipes"><path d="M1906.12,315.54 C1960.64,340.36 2049.83,380.97 2088.34,398.5 " fill="none" id="Crafting-to-GetRecipes" style="stroke:#181818;stroke-width:1.0;"/><path d="M2098.4774,393.8271 A9,9 0 0 0 2091.4781 409.2254" fill="none" style="stroke:#181818;stroke-width:1.5;"/></g><!--MD5=[c98b33fc196342044df8e7c9a7be6562]
link Recipe Json to GetRecipes--><g id="link_Recipe Json_GetRecipes"><path d="M458.56,73.01 C721.44,100.23 1785.69,213.08 1924,270 C2001.44,301.87 2075.54,374.27 2099.2,398.74 " fill="none" id="Recipe Json-GetRecipes" style="stroke:#181818;stroke-width:1.0;"/></g><!--MD5=[faf5538fb3abce4c287cd57d989a2286]
link Crafting to StoreRetrieveBlockItem--><g id="link_Crafting_StoreRetrieveBlockItem"><path d="M1906.15,315.85 C1930.46,329.71 1958.21,350.46 1972,378 C1983.94,401.84 1980.32,412.66 1972,438 C1946.23,516.48 1875.91,589.43 1843.62,619.95 " fill="none" id="Crafting-to-StoreRetrieveBlockItem" style="stroke:#181818;stroke-width:1.0;"/><path d="M1844.2789,630.8758 A9,9 0 0 0 1832.774 618.4767" fill="none" style="stroke:#181818;stroke-width:1.5;"/></g><!--MD5=[8316efd59f7fcc42c947664f8b098d59]
link Inventory to StoreRetrieveBlockItem--><g id="link_Inventory_StoreRetrieveBlockItem"><path d="M1425.12,535.2 C1529.46,561.11 1767.71,620.28 1817.7,632.69 " fill="none" id="Inventory-StoreRetrieveBlockItem" style="stroke:#181818;stroke-width:1.0;"/></g><!--MD5=[d6acfa1a20bd9ae53f8d0b34dda04335]
link Game World to BlocKGen--><g id="link_Game World_BlocKGen"><path d="M415.44,308.67 C352.68,324.24 259.57,351.03 235,378 C190.93,426.37 200,455.57 200,521 C200,521 200,521 200,637 C200,723.49 265.94,811.53 295.71,846.87 " fill="none" id="Game World-to-BlocKGen" style="stroke:#181818;stroke-width:1.0;"/><path d="M306.8422,846.8401 A9,9 0 0 0 294.0219 857.8737" fill="none" style="stroke:#181818;stroke-width:1.5;"/></g><!--MD5=[8d2b84f7b19e966e9b06e221bc4e6082]
link Block to BlocKGen--><g id="link_Block_BlocKGen"><path d="M503.89,768.99 C449.05,795.58 349.56,843.82 319.11,858.58 " fill="none" id="Block-BlocKGen" style="stroke:#181818;stroke-width:1.0;"/></g><!--MD5=[3b02fe774791b8c2ad1de92b05cb65d4]
link Game World to GenWorld--><g id="link_Game World_GenWorld"><path d="M447.65,318.21 C417.75,343.58 371.5,382.82 352.08,399.3 " fill="none" id="Game World-GenWorld" style="stroke:#181818;stroke-width:1.0;"/></g><!--MD5=[718477ea6ad283fbc8dcaa0c99902448]
reverse link GenWorld to Game Menu--><g id="link_GenWorld_Game Menu"><path d="M343,427.15 C343,446.35 343,476.7 343,497.67 " fill="none" id="GenWorld-backto-Game Menu" style="stroke:#181818;stroke-width:1.0;"/><path d="M334.5428,420.1282 A9,9 0 0 0 351.4572 420.1282" fill="none" style="stroke:#181818;stroke-width:1.5;"/></g><!--MD5=[ce53c0dd0a691013d768cd79576454a5]
link User Interface to DisplayCrafting--><g id="link_User Interface_DisplayCrafting"><path d="M1726.08,318.07 C1772.87,342.56 1844.57,380.08 1877.85,397.5 " fill="none" id="User Interface-to-DisplayCrafting" style="stroke:#181818;stroke-width:1.0;"/><path d="M1888.0689,393.3089 A9,9 0 0 0 1880.2349 408.2998" fill="none" style="stroke:#181818;stroke-width:1.5;"/></g><!--MD5=[edf66ab3cdf5bca1abd96e2616a0233c]
link User Interface to DisplayInventory--><g id="link_User Interface_DisplayInventory"><path d="M1667.25,318.33 C1649.31,346.67 1618.06,395.92 1591,438 C1548.03,504.82 1496.35,584 1474.09,618.05 " fill="none" id="User Interface-to-DisplayInventory" style="stroke:#181818;stroke-width:1.0;"/><path d="M1477.1534,628.8103 A9,9 0 0 0 1462.9948 619.5564" fill="none" style="stroke:#181818;stroke-width:1.5;"/></g><!--MD5=[c24d5849b99aa7b41bd365c538f4a333]
link Crafting to DisplayCrafting--><g id="link_Crafting_DisplayCrafting"><path d="M1868.25,318.21 C1876.1,343.32 1888.2,382.03 1893.44,398.79 " fill="none" id="Crafting-DisplayCrafting" style="stroke:#181818;stroke-width:1.0;"/></g><!--MD5=[070fbf2d164a533150642b1b43fee6b6]
link Inventory to DisplayInventory--><g id="link_Inventory_DisplayInventory"><path d="M1394.03,546.21 C1413.54,571.32 1443.6,610.03 1456.62,626.79 " fill="none" id="Inventory-DisplayInventory" style="stroke:#181818;stroke-width:1.0;"/></g><!--MD5=[26c4895d8cc59df4a395c8c051f0ed9e]
link Camera to DisplayWorld--><g id="link_Camera_DisplayWorld"><path d="M777.88,309.9 C730.14,325.88 652.78,352.44 587,378 C570.03,384.59 550.99,392.78 537.38,398.78 " fill="none" id="Camera-to-DisplayWorld" style="stroke:#181818;stroke-width:1.0;"/><path d="M534.4039,409.3518 A9,9 0 0 0 527.5433 393.8912" fill="none" style="stroke:#181818;stroke-width:1.5;"/></g><!--MD5=[4c1498c39fa8a73509cefd8bf87ee60c]
link Camera to DisplayPlayer--><g id="link_Camera_DisplayPlayer"><path d="M815.54,318.21 C808.76,339.3 798.9,369.98 792.72,389.2 " fill="none" id="Camera-to-DisplayPlayer" style="stroke:#181818;stroke-width:1.0;"/><path d="M798.6334,398.4466 A9,9 0 0 0 782.5299 393.2722" fill="none" style="stroke:#181818;stroke-width:1.5;"/></g><!--MD5=[c97f339238bcf692952904a793869808]
link Camera to DisplayUI--><g id="link_Camera_DisplayUI"><path d="M868.34,305.87 C923.76,319.78 1019.93,345.96 1099,378 C1112.05,383.29 1126.13,390.58 1136.9,396.53 " fill="none" id="Camera-to-DisplayUI" style="stroke:#181818;stroke-width:1.0;"/><path d="M1147.2131,392.6414 A9,9 0 0 0 1138.9045 407.3746" fill="none" style="stroke:#181818;stroke-width:1.5;"/></g><!--MD5=[2b59e7a64008b19389b948aca0ac1d81]
link Game World to DisplayWorld--><g id="link_Game World_DisplayWorld"><path d="M484.12,318.21 C493.98,343.32 509.19,382.03 515.78,398.79 " fill="none" id="Game World-DisplayWorld" style="stroke:#181818;stroke-width:1.0;"/></g><!--MD5=[36976bc424124ba4f6508b3d1bf060a2]
link Player to DisplayPlayer--><g id="link_Player_DisplayPlayer"><path d="M938.42,318.21 C892.97,344.86 821.41,386.82 796.18,401.62 " fill="none" id="Player-DisplayPlayer" style="stroke:#181818;stroke-width:1.0;"/></g><!--MD5=[b85e66af217458cd32f6b66e79a12a70]
link User Interface to DisplayUI--><g id="link_User Interface_DisplayUI"><path d="M1617.97,303.91 C1507.63,319.67 1286.36,353.13 1212,378 C1194.31,383.92 1175.29,394.56 1164.3,401.17 " fill="none" id="User Interface-DisplayUI" style="stroke:#181818;stroke-width:1.0;"/></g><!--MD5=[1149a06f0ba453b7a15ef21c9cd0fba3]
link Player to MovePlayerWorld--><g id="link_Player_MovePlayerWorld"><path d="M937.99,306.07 C886.16,320.77 793.3,348.36 716,378 C700.36,384 683.09,391.9 670.43,397.94 " fill="none" id="Player-to-MovePlayerWorld" style="stroke:#181818;stroke-width:1.0;"/><path d="M667.8458,408.5908 A9,9 0 0 0 660.4754 393.3666" fill="none" style="stroke:#181818;stroke-width:1.5;"/></g><!--MD5=[e95873f13a987f744203a66e819b773a]
link Game World to MovePlayerWorld--><g id="link_Game World_MovePlayerWorld"><path d="M511.67,318.21 C553.39,344.6 618.83,386.01 642.81,401.18 " fill="none" id="Game World-MovePlayerWorld" style="stroke:#181818;stroke-width:1.0;"/></g><!--MD5=[f23ca20a5e6f486cbdfa5965fd657bef]
link Camera to MovePlayerCamera--><g id="link_Camera_MovePlayerCamera"><path d="M855.12,318.21 C890.94,344.09 946.74,384.41 968.69,400.27 " fill="none" id="Camera-MovePlayerCamera" style="stroke:#181818;stroke-width:1.0;"/></g><!--MD5=[661f1571f64c8c5c6a143056833ac226]
link Player to MovePlayerCamera--><g id="link_Player_MovePlayerCamera"><path d="M978,318.21 C978,339.1 978,369.41 978,388.66 " fill="none" id="Player-to-MovePlayerCamera" style="stroke:#181818;stroke-width:1.0;"/><path d="M986.4572,395.7118 A9,9 0 0 0 969.5428 395.7118" fill="none" style="stroke:#181818;stroke-width:1.5;"/></g><!--MD5=[0b99405415a53418dc6fa046b41e1821]
link Audio to playAudio--><g id="link_Audio_playAudio"><path d="M1449,318.21 C1449,343.32 1449,382.03 1449,398.79 " fill="none" id="Audio-playAudio" style="stroke:#181818;stroke-width:1.0;"/></g><!--MD5=[f402ee7afc1e17ae3e272ee2aa9ccd08]
link Player to playAudio--><g id="link_Player_playAudio"><path d="M1018.13,301.62 C1089.47,313.81 1242.73,341.9 1369,378 C1390.44,384.13 1414.41,393.11 1430.47,399.45 " fill="none" id="Player-to-playAudio" style="stroke:#181818;stroke-width:1.0;"/><path d="M1440.0748,394.1848 A9,9 0 0 0 1433.7722 409.8812" fill="none" style="stroke:#181818;stroke-width:1.5;"/></g><!--MD5=[82022b521b692dfc6867d4126163b330]
@startuml
[Game Settings]

[Crafting]
[Block]
[Item]
[Breaking and Placing]
[Player]
[Camera]
[Game World]
[Inventory]
[User Interface]
[Game Menu]
[Audio]
folder "Files"{
    [Sprites]
    [Recipe Json]
}
() "Get Texture" as GT1
() "Get Texture" as GT2
[Sprites] - - GT1
GT1 )- - [Game Settings]
[Sprites] - - GT2
GT2 )- - [Player]

() "Get Block Properties" as GBlockInfo
() "Get Item Properties" as GBItemInfo
[Block] - -( GBlockInfo
GBlockInfo - - [Game Settings]
[Item] - -( GBItemInfo
GBItemInfo - - [Game Settings]

() "Get Block" as GBlock
() "Get Item" as GItem

[Inventory] - -( GBlock
GBlock - - [Block]
[Inventory] - -( GItem
GItem - - [Item]

() "Store/Retrieve Block" as StoreRetrieveBlock
[Breaking and Placing] - -( StoreRetrieveBlock
StoreRetrieveBlock - - [Inventory]

() "Select Item/Block" as SelectItemBlock
SelectItemBlock - - [Inventory]
[Player] - -( SelectItemBlock

() "Break/Place Block" as BreakPlaceBlock
[Breaking and Placing] - - BreakPlaceBlock
BreakPlaceBlock )- - [Player]

() "Place Block" as PlaceBlock
[Game World] - - PlaceBlock
[Breaking and Placing] - -( PlaceBlock

() "Craft Item/Block" as Craft
[Crafting] - - Craft
[Player] - -( Craft

() "Get Recipes" as GetRecipes
[Crafting] - -( GetRecipes
[Recipe Json] - - GetRecipes

() "Store/Retrieve Item/Block" as StoreRetrieveBlockItem
[Crafting] - -( StoreRetrieveBlockItem
[Inventory] - - StoreRetrieveBlockItem

() "Get Blocks for Gen" as BlocKGen
[Game World] - -( BlocKGen
[Block] - - BlocKGen

() "Generate world from seed" as GenWorld
[Game World] - - GenWorld
GenWorld )- - [Game Menu]

() "Display World" as DisplayWorld
() "Display Player" as DisplayPlayer
() "Display UI" as DisplayUI

() "Display Crafting" as DisplayCrafting
() "Display Inventory" as DisplayInventory

[User Interface] - -( DisplayCrafting
[User Interface] - -( DisplayInventory
[Crafting] - - DisplayCrafting
[Inventory] - - DisplayInventory

[Camera] - -( DisplayWorld
[Camera] - -( DisplayPlayer
[Camera] - -( DisplayUI
[Game World] - - DisplayWorld
[Player] - - DisplayPlayer
[User Interface] - - DisplayUI

() "Move Player" as MovePlayerWorld
[Player] - -( MovePlayerWorld
[Game World] - - MovePlayerWorld

() "Move Camera on Player Move" as MovePlayerCamera
[Camera] - - MovePlayerCamera
[Player] - -( MovePlayerCamera

() "Get Audio to Play" as playAudio
[Audio] - - playAudio
[Player] - -( playAudio

@enduml

PlantUML version 1.2022.4(Sat Apr 09 15:29:17 CAT 2022)
(GPL source distribution)
Java Runtime: OpenJDK Runtime Environment
JVM: OpenJDK 64-Bit Server VM
Default Encoding: Cp1252
Language: en
Country: GB
--></g></svg>