<?xml version="1.0" encoding="UTF-8" standalone="no"?><svg xmlns="http://www.w3.org/2000/svg" xmlns:xlink="http://www.w3.org/1999/xlink" contentScriptType="application/ecmascript" contentStyleType="text/css" height="7963.5417px" preserveAspectRatio="none" style="width:9880px;height:7963px;background:#FFFFFF;" version="1.1" viewBox="0 0 9880 7963" width="9880.2083px" zoomAndPan="magnify"><defs><filter height="300%" id="ft9z18uns42ta" width="300%" x="-1" y="-1"><feGaussianBlur result="blurOut" stdDeviation="10.416666666666666"/><feColorMatrix in="blurOut" result="blurOut2" type="matrix" values="0 0 0 0 0 0 0 0 0 0 0 0 0 0 0 0 0 0 .4 0"/><feOffset dx="20.833333333333332" dy="20.833333333333332" in="blurOut2" result="blurOut3"/><feBlend in="SourceGraphic" in2="blurOut3" mode="normal"/></filter></defs><g><rect fill="#000000" filter="url(#ft9z18uns42ta)" height="41.6667" style="stroke:none;stroke-width:5.208333333333333;" width="416.6667" x="8385.4167" y="36.4583"/><rect fill="#000000" filter="url(#ft9z18uns42ta)" height="41.6667" style="stroke:none;stroke-width:5.208333333333333;" width="416.6667" x="5859.375" y="2666.6667"/><rect fill="#000000" filter="url(#ft9z18uns42ta)" height="41.6667" style="stroke:none;stroke-width:5.208333333333333;" width="416.6667" x="6760.4167" y="4057.2917"/><rect fill="#000000" filter="url(#ft9z18uns42ta)" height="41.6667" style="stroke:none;stroke-width:5.208333333333333;" width="416.6667" x="2119.7917" y="4890.625"/><rect fill="#000000" filter="url(#ft9z18uns42ta)" height="41.6667" style="stroke:none;stroke-width:5.208333333333333;" width="416.6667" x="3401.0417" y="6692.7083"/><rect fill="#000000" filter="url(#ft9z18uns42ta)" height="41.6667" style="stroke:none;stroke-width:5.208333333333333;" width="416.6667" x="5859.375" y="1729.1667"/><ellipse cx="9416.6667" cy="614.5833" fill="#000000" filter="url(#ft9z18uns42ta)" rx="52.0833" ry="52.0833" style="stroke:none;stroke-width:5.208333333333333;"/><g id="StartScreen"><rect fill="#FEFECE" filter="url(#ft9z18uns42ta)" height="260.4167" rx="65.1042" ry="65.1042" style="stroke:#A80036;stroke-width:7.8125;" width="494.7917" x="9200.5208" y="1151.0417"/><line style="stroke:#A80036;stroke-width:7.8125;" x1="9200.5208" x2="9695.3125" y1="1294.8405" y2="1294.8405"/><text fill="#000000" font-family="sans-serif" font-size="72.9167" lengthAdjust="spacing" textLength="390.625" x="9252.6042" y="1252.7771">StartScreen</text></g><g id="BeginGame"><rect fill="#FEFECE" filter="url(#ft9z18uns42ta)" height="260.4167" rx="65.1042" ry="65.1042" style="stroke:#A80036;stroke-width:7.8125;" width="489.5833" x="6536.4583" y="484.375"/><line style="stroke:#A80036;stroke-width:7.8125;" x1="6536.4583" x2="7026.0417" y1="628.1738" y2="628.1738"/><text fill="#000000" font-family="sans-serif" font-size="72.9167" lengthAdjust="spacing" textLength="385.4167" x="6588.5417" y="586.1104">BeginGame</text></g><g id="ExitGame"><rect fill="#FEFECE" filter="url(#ft9z18uns42ta)" height="260.4167" rx="65.1042" ry="65.1042" style="stroke:#A80036;stroke-width:7.8125;" width="416.6667" x="7786.4583" y="4781.25"/><line style="stroke:#A80036;stroke-width:7.8125;" x1="7786.4583" x2="8203.125" y1="4925.0488" y2="4925.0488"/><text fill="#000000" font-family="sans-serif" font-size="72.9167" lengthAdjust="spacing" textLength="312.5" x="7838.5417" y="4882.9854">ExitGame</text></g><g id="Options"><rect fill="#FEFECE" filter="url(#ft9z18uns42ta)" height="260.4167" rx="65.1042" ry="65.1042" style="stroke:#A80036;stroke-width:7.8125;" width="359.375" x="8721.3542" y="484.375"/><line style="stroke:#A80036;stroke-width:7.8125;" x1="8721.3542" x2="9080.7292" y1="628.1738" y2="628.1738"/><text fill="#000000" font-family="sans-serif" font-size="72.9167" lengthAdjust="spacing" textLength="255.2083" x="8773.4375" y="586.1104">Options</text></g><g id="RandmolyGenerateWorld"><rect fill="#FEFECE" filter="url(#ft9z18uns42ta)" height="260.4167" rx="65.1042" ry="65.1042" style="stroke:#A80036;stroke-width:7.8125;" width="937.5" x="7229.1667" y="1151.0417"/><line style="stroke:#A80036;stroke-width:7.8125;" x1="7229.1667" x2="8166.6667" y1="1294.8405" y2="1294.8405"/><text fill="#000000" font-family="sans-serif" font-size="72.9167" lengthAdjust="spacing" textLength="833.3333" x="7281.25" y="1252.7771">RandmolyGenerateWorld</text></g><g id="LoadPlayer"><rect fill="#FEFECE" filter="url(#ft9z18uns42ta)" height="260.4167" rx="65.1042" ry="65.1042" style="stroke:#A80036;stroke-width:7.8125;" width="479.1667" x="5109.375" y="1151.0417"/><line style="stroke:#A80036;stroke-width:7.8125;" x1="5109.375" x2="5588.5417" y1="1294.8405" y2="1294.8405"/><text fill="#000000" font-family="sans-serif" font-size="72.9167" lengthAdjust="spacing" textLength="375" x="5161.4583" y="1252.7771">LoadPlayer</text></g><g id="LoadTextures"><rect fill="#FEFECE" filter="url(#ft9z18uns42ta)" height="260.4167" rx="65.1042" ry="65.1042" style="stroke:#A80036;stroke-width:7.8125;" width="557.2917" x="5773.4375" y="1151.0417"/><line style="stroke:#A80036;stroke-width:7.8125;" x1="5773.4375" x2="6330.7292" y1="1294.8405" y2="1294.8405"/><text fill="#000000" font-family="sans-serif" font-size="72.9167" lengthAdjust="spacing" textLength="453.125" x="5825.5208" y="1252.7771">LoadTextures</text></g><g id="LoadCamera"><rect fill="#FEFECE" filter="url(#ft9z18uns42ta)" height="260.4167" rx="65.1042" ry="65.1042" style="stroke:#A80036;stroke-width:7.8125;" width="531.25" x="6515.625" y="1151.0417"/><line style="stroke:#A80036;stroke-width:7.8125;" x1="6515.625" x2="7046.875" y1="1294.8405" y2="1294.8405"/><text fill="#000000" font-family="sans-serif" font-size="72.9167" lengthAdjust="spacing" textLength="427.0833" x="6567.7083" y="1252.7771">LoadCamera</text></g><g id="LoadGame"><rect fill="#FEFECE" filter="url(#ft9z18uns42ta)" height="260.4167" rx="65.1042" ry="65.1042" style="stroke:#A80036;stroke-width:7.8125;" width="468.75" x="5833.3333" y="2088.5417"/><line style="stroke:#A80036;stroke-width:7.8125;" x1="5833.3333" x2="6302.0833" y1="2232.3405" y2="2232.3405"/><text fill="#000000" font-family="sans-serif" font-size="72.9167" lengthAdjust="spacing" textLength="364.5833" x="5885.4167" y="2190.2771">LoadGame</text></g><g id="UpdateWorld"><rect fill="#FEFECE" filter="url(#ft9z18uns42ta)" height="260.4167" rx="65.1042" ry="65.1042" style="stroke:#A80036;stroke-width:7.8125;" width="531.25" x="3807.2917" y="7630.2083"/><line style="stroke:#A80036;stroke-width:7.8125;" x1="3807.2917" x2="4338.5417" y1="7774.0072" y2="7774.0072"/><text fill="#000000" font-family="sans-serif" font-size="72.9167" lengthAdjust="spacing" textLength="427.0833" x="3859.375" y="7731.9438">UpdateWorld</text></g><g id="MovePlayer"><rect fill="#FEFECE" filter="url(#ft9z18uns42ta)" height="260.4167" rx="65.1042" ry="65.1042" style="stroke:#A80036;stroke-width:7.8125;" width="489.5833" x="2677.0833" y="3114.5833"/><line style="stroke:#A80036;stroke-width:7.8125;" x1="2677.0833" x2="3166.6667" y1="3258.3822" y2="3258.3822"/><text fill="#000000" font-family="sans-serif" font-size="72.9167" lengthAdjust="spacing" textLength="385.4167" x="2729.1667" y="3216.3188">MovePlayer</text></g><g id="BreakBlocks"><rect fill="#FEFECE" filter="url(#ft9z18uns42ta)" height="260.4167" rx="65.1042" ry="65.1042" style="stroke:#A80036;stroke-width:7.8125;" width="510.4167" x="578.125" y="3531.25"/><line style="stroke:#A80036;stroke-width:7.8125;" x1="578.125" x2="1088.5417" y1="3675.0488" y2="3675.0488"/><text fill="#000000" font-family="sans-serif" font-size="72.9167" lengthAdjust="spacing" textLength="406.25" x="630.2083" y="3632.9854">BreakBlocks</text></g><g id="AddInventory"><rect fill="#FEFECE" filter="url(#ft9z18uns42ta)" height="260.4167" rx="65.1042" ry="65.1042" style="stroke:#A80036;stroke-width:7.8125;" width="536.4583" x="2549.4792" y="6114.5833"/><line style="stroke:#A80036;stroke-width:7.8125;" x1="2549.4792" x2="3085.9375" y1="6258.3822" y2="6258.3822"/><text fill="#000000" font-family="sans-serif" font-size="72.9167" lengthAdjust="spacing" textLength="432.2917" x="2601.5625" y="6216.3188">AddInventory</text></g><g id="PlaceBlocks"><rect fill="#FEFECE" filter="url(#ft9z18uns42ta)" height="260.4167" rx="65.1042" ry="65.1042" style="stroke:#A80036;stroke-width:7.8125;" width="500" x="4265.625" y="4364.5833"/><line style="stroke:#A80036;stroke-width:7.8125;" x1="4265.625" x2="4765.625" y1="4508.3822" y2="4508.3822"/><text fill="#000000" font-family="sans-serif" font-size="72.9167" lengthAdjust="spacing" textLength="395.8333" x="4317.7083" y="4466.3188">PlaceBlocks</text></g><g id="RemoveInventory"><rect fill="#FEFECE" filter="url(#ft9z18uns42ta)" height="260.4167" rx="65.1042" ry="65.1042" style="stroke:#A80036;stroke-width:7.8125;" width="677.0833" x="3270.8333" y="6114.5833"/><line style="stroke:#A80036;stroke-width:7.8125;" x1="3270.8333" x2="3947.9167" y1="6258.3822" y2="6258.3822"/><text fill="#000000" font-family="sans-serif" font-size="72.9167" lengthAdjust="spacing" textLength="572.9167" x="3322.9167" y="6216.3188">RemoveInventory</text></g><g id="CraftMenu"><rect fill="#FEFECE" filter="url(#ft9z18uns42ta)" height="260.4167" rx="65.1042" ry="65.1042" style="stroke:#A80036;stroke-width:7.8125;" width="447.9167" x="1744.7917" y="3947.9167"/><line style="stroke:#A80036;stroke-width:7.8125;" x1="1744.7917" x2="2192.7083" y1="4091.7155" y2="4091.7155"/><text fill="#000000" font-family="sans-serif" font-size="72.9167" lengthAdjust="spacing" textLength="343.75" x="1796.875" y="4049.6521">CraftMenu</text></g><g id="CanCraft"><rect fill="#FEFECE" filter="url(#ft9z18uns42ta)" height="260.4167" rx="65.1042" ry="65.1042" style="stroke:#A80036;stroke-width:7.8125;" width="401.0417" x="2924.4792" y="5447.9167"/><line style="stroke:#A80036;stroke-width:7.8125;" x1="2924.4792" x2="3325.5208" y1="5591.7155" y2="5591.7155"/><text fill="#000000" font-family="sans-serif" font-size="72.9167" lengthAdjust="spacing" textLength="296.875" x="2976.5625" y="5549.6521">CanCraft</text></g><g id="CannotCraft"><rect fill="#FEFECE" filter="url(#ft9z18uns42ta)" height="260.4167" rx="65.1042" ry="65.1042" style="stroke:#A80036;stroke-width:7.8125;" width="505.2083" x="1742.1875" y="5447.9167"/><line style="stroke:#A80036;stroke-width:7.8125;" x1="1742.1875" x2="2247.3958" y1="5591.7155" y2="5591.7155"/><text fill="#000000" font-family="sans-serif" font-size="72.9167" lengthAdjust="spacing" textLength="401.0417" x="1794.2708" y="5549.6521">CannotCraft</text></g><g id="UpdateInventory"><rect fill="#FEFECE" filter="url(#ft9z18uns42ta)" height="260.4167" rx="65.1042" ry="65.1042" style="stroke:#A80036;stroke-width:7.8125;" width="640.625" x="3299.4792" y="7052.0833"/><line style="stroke:#A80036;stroke-width:7.8125;" x1="3299.4792" x2="3940.1042" y1="7195.8822" y2="7195.8822"/><text fill="#000000" font-family="sans-serif" font-size="72.9167" lengthAdjust="spacing" textLength="536.4583" x="3351.5625" y="7153.8188">UpdateInventory</text></g><g id="PauseMenu"><rect fill="#FEFECE" filter="url(#ft9z18uns42ta)" height="260.4167" rx="65.1042" ry="65.1042" style="stroke:#A80036;stroke-width:7.8125;" width="494.7917" x="6721.3542" y="3114.5833"/><line style="stroke:#A80036;stroke-width:7.8125;" x1="6721.3542" x2="7216.1458" y1="3258.3822" y2="3258.3822"/><text fill="#000000" font-family="sans-serif" font-size="72.9167" lengthAdjust="spacing" textLength="390.625" x="6773.4375" y="3216.3188">PauseMenu</text></g><g id="Continue"><rect fill="#FEFECE" filter="url(#ft9z18uns42ta)" height="260.4167" rx="65.1042" ry="65.1042" style="stroke:#A80036;stroke-width:7.8125;" width="401.0417" x="6450.5208" y="4781.25"/><line style="stroke:#A80036;stroke-width:7.8125;" x1="6450.5208" x2="6851.5625" y1="4925.0488" y2="4925.0488"/><text fill="#000000" font-family="sans-serif" font-size="72.9167" lengthAdjust="spacing" textLength="296.875" x="6502.6042" y="4882.9854">Continue</text></g><ellipse cx="7994.7917" cy="5578.125" filter="url(#ft9z18uns42ta)" rx="52.0833" ry="52.0833" style="stroke:#000000;stroke-width:5.208333333333333;fill:none;"/><ellipse cx="7997.3958" cy="5580.7292" fill="#000000" rx="31.25" ry="31.25" style="stroke:none;stroke-width:5.208333333333333;"/><!--MD5=[c9486b866dadd91f17859818c6564407]
link *start to StartScreen--><path d="M9418.9063,666.9792 C9423.3854,761.0417 9433.5938,975.5208 9440.625,1123.125 " fill="none" id="*start-to-StartScreen" style="stroke:#A80036;stroke-width:5.208333333333333;"/><polygon fill="#A80036" points="9441.9271,1149.8437,9460.4618,1102.0132,9440.6637,1123.8327,9418.8442,1104.0347,9441.9271,1149.8437" style="stroke:#A80036;stroke-width:5.208333333333333;"/><text fill="#000000" font-family="sans-serif" font-size="67.7083" lengthAdjust="spacing" textLength="145.8333" x="9442.7083" y="976.5371">Start</text><!--MD5=[e4a90c7e25d9549eea9e0fb760dd34b5]
link StartScreen to fork_startScreen--><path d="M9551.0938,1150.7813 C9582.9167,1104.5833 9613.8542,1050.0521 9630.2083,994.7917 C9726.0417,670.6771 9844.4792,491.4062 9625,234.375 C9524.7396,116.9271 9102.1354,79.6875 8830.0521,67.9167 " fill="none" id="StartScreen-to-fork_startScreen" style="stroke:#A80036;stroke-width:5.208333333333333;"/><polygon fill="#A80036" points="8802.5521,66.7708,8848.4893,89.5978,8828.5697,67.8891,8850.2784,47.9695,8802.5521,66.7708" style="stroke:#A80036;stroke-width:5.208333333333333;"/><!--MD5=[ec8b7ce55dafc24eb0deab78f713c58c]
link fork_startScreen to BeginGame--><path d="M8383.6979,77.6042 C8166.1458,97.6042 7818.4375,141.7188 7531.25,234.375 C7349.1146,293.125 7156.25,390.4167 7011.7188,471.1979 " fill="none" id="fork_startScreen-to-BeginGame" style="stroke:#A80036;stroke-width:5.208333333333333;"/><polygon fill="#A80036" points="6988.9583,484.0104,7040.0339,479.2589,7011.6735,471.275,7019.6573,442.9146,6988.9583,484.0104" style="stroke:#A80036;stroke-width:5.208333333333333;"/><text fill="#000000" font-family="sans-serif" font-size="67.7083" lengthAdjust="spacing" textLength="765.625" x="7536.4583" y="309.8704">Click Begin Game Button</text><!--MD5=[722c67201264527e489bb028302e8570]
link fork_startScreen to ExitGame--><path d="M8585.625,79.0625 C8554.2708,144.5313 8442.7083,392.6563 8442.7083,609.375 C8442.7083,609.375 8442.7083,609.375 8442.7083,4083.3333 C8442.7083,4329.4271 8454.4792,4413.8542 8328.125,4625 C8297.7083,4675.8333 8254.7917,4721.8229 8209.7917,4761.25 " fill="none" id="fork_startScreen-to-ExitGame" style="stroke:#A80036;stroke-width:5.208333333333333;"/><polygon fill="#A80036" points="8187.6042,4780.0521,8236.8426,4765.6692,8207.4812,4763.2273,8209.923,4733.8659,8187.6042,4780.0521" style="stroke:#A80036;stroke-width:5.208333333333333;"/><text fill="#000000" font-family="sans-serif" font-size="67.7083" lengthAdjust="spacing" textLength="713.5417" x="8447.9167" y="2247.3704">Click Exit Game Button</text><!--MD5=[44e118f013666fc62f3d539e7c7aeea6]
link fork_startScreen to Options--><path d="M8602.6042,78.2812 C8633.6979,133.5938 8739.8958,322.6563 8816.8229,459.4792 " fill="none" id="fork_startScreen-to-Options" style="stroke:#A80036;stroke-width:5.208333333333333;"/><polygon fill="#A80036" points="8829.8438,482.6563,8824.965,431.5927,8817.0518,459.9729,8788.6716,452.0597,8829.8438,482.6563" style="stroke:#A80036;stroke-width:5.208333333333333;"/><text fill="#000000" font-family="sans-serif" font-size="67.7083" lengthAdjust="spacing" textLength="833.3333" x="8744.7917" y="309.8704">Click Question Mark Button</text><!--MD5=[328815cb37bd29d2792feca1a0e00540]
link BeginGame to RandmolyGenerateWorld--><path d="M6957.9688,746.3021 C7113.8542,857.9167 7340.5729,1020.2083 7501.9271,1135.7292 " fill="none" id="BeginGame-to-RandmolyGenerateWorld" style="stroke:#A80036;stroke-width:5.208333333333333;"/><polygon fill="#A80036" points="7523.2813,1150.9896,7497.2906,1106.7654,7502.1053,1135.8321,7473.0386,1140.6468,7523.2813,1150.9896" style="stroke:#A80036;stroke-width:5.208333333333333;"/><!--MD5=[0fe61ca331243effb9640ad7aabe1868]
link BeginGame to LoadPlayer--><path d="M6535.0521,732.6042 C6278.5417,850.1042 5878.125,1033.5938 5614.6354,1154.3229 " fill="none" id="BeginGame-to-LoadPlayer" style="stroke:#A80036;stroke-width:5.208333333333333;"/><polygon fill="#A80036" points="5589.5833,1165.7812,5640.8771,1165.2895,5613.278,1154.9771,5623.5904,1127.378,5589.5833,1165.7812" style="stroke:#A80036;stroke-width:5.208333333333333;"/><!--MD5=[ea37bd0547947a1f0f48734fc04139f4]
link BeginGame to LoadTextures--><path d="M6640.6771,746.3021 C6518.0729,856.6146 6340.4167,1016.5625 6212.3438,1131.8229 " fill="none" id="BeginGame-to-LoadTextures" style="stroke:#A80036;stroke-width:5.208333333333333;"/><polygon fill="#A80036" points="6192.2396,1149.8958,6241.0485,1134.1165,6211.6294,1132.5118,6213.2341,1103.0928,6192.2396,1149.8958" style="stroke:#A80036;stroke-width:5.208333333333333;"/><!--MD5=[d231969e3ab5195fe261c24c261fe059]
link BeginGame to LoadCamera--><path d="M6781.25,746.3021 C6781.25,853.9063 6781.25,1008.6979 6781.25,1123.1771 " fill="none" id="BeginGame-to-LoadCamera" style="stroke:#A80036;stroke-width:5.208333333333333;"/><polygon fill="#A80036" points="6781.25,1149.8958,6802.0833,1103.0208,6781.25,1123.8542,6760.4167,1103.0208,6781.25,1149.8958" style="stroke:#A80036;stroke-width:5.208333333333333;"/><!--MD5=[3b2733094dfb028813f83ede44ebe1b1]
link RandmolyGenerateWorld to join_loadGame--><path d="M7252.4479,1411.7187 C6871.4583,1518.8021 6353.8021,1664.375 6152.6042,1720.9375 " fill="none" id="RandmolyGenerateWorld-to-join_loadGame" style="stroke:#A80036;stroke-width:5.208333333333333;"/><polygon fill="#A80036" points="6125.2604,1728.5938,6176.0093,1736.0669,6150.3445,1721.597,6164.8144,1695.9323,6125.2604,1728.5938" style="stroke:#A80036;stroke-width:5.208333333333333;"/><!--MD5=[3f7b2f1ca9bc4f5feee3be775773cba5]
link LoadPlayer to join_loadGame--><path d="M5545.3646,1411.7187 C5706.4583,1514.4271 5922.9688,1652.5 6018.6979,1713.5417 " fill="none" id="LoadPlayer-to-join_loadGame" style="stroke:#A80036;stroke-width:5.208333333333333;"/><polygon fill="#A80036" points="6042.3438,1728.5938,6014.0101,1685.8328,6020.3826,1714.5982,5991.6172,1720.9706,6042.3438,1728.5938" style="stroke:#A80036;stroke-width:5.208333333333333;"/><!--MD5=[8067513c0b58af5dde9ce2c45e4123f1]
link LoadTextures to join_loadGame--><path d="M6056.3542,1411.7187 C6059.6354,1508.2812 6064.0104,1636.0938 6066.25,1701.7708 " fill="none" id="LoadTextures-to-join_loadGame" style="stroke:#A80036;stroke-width:5.208333333333333;"/><polygon fill="#A80036" points="6067.1354,1728.5938,6086.3503,1681.0324,6066.2431,1702.5674,6044.7081,1682.4601,6067.1354,1728.5938" style="stroke:#A80036;stroke-width:5.208333333333333;"/><!--MD5=[43bfee96cd6c1957d33026fb3c92d161]
link LoadCamera to join_loadGame--><path d="M6586.25,1411.7187 C6426.3542,1514.4271 6211.4062,1652.5 6116.3542,1713.5417 " fill="none" id="LoadCamera-to-join_loadGame" style="stroke:#A80036;stroke-width:5.208333333333333;"/><polygon fill="#A80036" points="6092.9167,1728.5938,6143.6127,1720.7703,6114.8224,1714.5115,6121.0811,1685.7212,6092.9167,1728.5938" style="stroke:#A80036;stroke-width:5.208333333333333;"/><!--MD5=[f08c0755306175e78014a8fe8c733cb3]
link join_loadGame to LoadGame--><path d="M6067.7083,1772.6042 C6067.7083,1819.6354 6067.7083,1952.9688 6067.7083,2060.8333 " fill="none" id="join_loadGame-to-LoadGame" style="stroke:#A80036;stroke-width:5.208333333333333;"/><polygon fill="#A80036" points="6067.7083,2087.6042,6088.5417,2040.7292,6067.7083,2061.5625,6046.875,2040.7292,6067.7083,2087.6042" style="stroke:#A80036;stroke-width:5.208333333333333;"/><!--MD5=[ddff583c54e7308260b45522063551e8]
link LoadGame to fork_beginGame--><path d="M6067.7083,2349.2187 C6067.7083,2445.7812 6067.7083,2573.5938 6067.7083,2639.2708 " fill="none" id="LoadGame-to-fork_beginGame" style="stroke:#A80036;stroke-width:5.208333333333333;"/><polygon fill="#A80036" points="6067.7083,2666.0938,6088.5417,2619.2188,6067.7083,2640.0521,6046.875,2619.2188,6067.7083,2666.0938" style="stroke:#A80036;stroke-width:5.208333333333333;"/><!--MD5=[8081990edf0186226a335e70e442671f]
link UpdateWorld to fork_beginGame--><path d="M4340.5729,7735.4688 C4885.5729,7687.9167 6072.9167,7543.4896 6072.9167,7187.5 C6072.9167,3239.5833 6072.9167,3239.5833 6072.9167,3239.5833 C6072.9167,3053.5417 6069.8438,2831.9271 6068.4375,2738.1771 " fill="none" id="UpdateWorld-to-fork_beginGame" style="stroke:#A80036;stroke-width:5.208333333333333;"/><polygon fill="#A80036" points="6067.9687,2709.7396,6047.8071,2756.9074,6068.3407,2735.7786,6089.4695,2756.3122,6067.9687,2709.7396" style="stroke:#A80036;stroke-width:5.208333333333333;"/><text fill="#000000" font-family="sans-serif" font-size="67.7083" lengthAdjust="spacing" textLength="942.7083" x="6078.125" y="5606.7454">Update the way the world looks</text><!--MD5=[2a323248cc828a3b9769b47e28b7a51d]
link fork_beginGame to MovePlayer--><path d="M5858.2292,2696.25 C5168.6979,2709.0104 3007.8125,2757.3437 2906.25,2864.5833 C2851.0937,2922.8125 2852.6042,3011.7188 2869.0104,3088.3854 " fill="none" id="fork_beginGame-to-MovePlayer" style="stroke:#A80036;stroke-width:5.208333333333333;"/><polygon fill="#A80036" points="2875.1042,3113.8542,2884.5404,3063.4334,2869.0858,3088.5175,2844.0017,3073.0629,2875.1042,3113.8542" style="stroke:#A80036;stroke-width:5.208333333333333;"/><text fill="#000000" font-family="sans-serif" font-size="67.7083" lengthAdjust="spacing" textLength="1463.5417" x="2911.4583" y="2940.0787">Use A, D and SpaceBar keys to move the player</text><!--MD5=[1736c186f2710464b4c4db128c2f510b]
link MovePlayer to UpdateWorld--><path d="M3168.0729,3299.375 C3525.5208,3386.9792 4145.8333,3606.25 4145.8333,4072.9167 C4145.8333,4072.9167 4145.8333,4072.9167 4145.8333,5250 C4145.8333,5691.1979 4223.9583,5798.3854 4223.9583,6239.5833 C4223.9583,6239.5833 4223.9583,6239.5833 4223.9583,7187.5 C4223.9583,7332.5521 4177.3437,7491.7188 4135.8854,7604.4792 " fill="none" id="MovePlayer-to-UpdateWorld" style="stroke:#A80036;stroke-width:5.208333333333333;"/><polygon fill="#A80036" points="4126.6146,7629.2187,4162.5804,7592.6434,4135.7584,7604.8352,4123.5666,7578.0132,4126.6146,7629.2187" style="stroke:#A80036;stroke-width:5.208333333333333;"/><!--MD5=[fbcd5ea9e5fab6c2163552ece2c4f6c8]
link fork_beginGame to BreakBlocks--><path d="M5858.8542,2695.1563 C5085.5208,2705.1563 2410.5208,2747.9688 2046.875,2864.5833 C1624.5313,3000.0521 1208.3333,3324.4271 990.1042,3513.2812 " fill="none" id="fork_beginGame-to-BreakBlocks" style="stroke:#A80036;stroke-width:5.208333333333333;"/><polygon fill="#A80036" points="969.6354,3531.0938,1018.6638,3516.0104,989.2706,3513.9874,991.2936,3484.5941,969.6354,3531.0938" style="stroke:#A80036;stroke-width:5.208333333333333;"/><text fill="#000000" font-family="sans-serif" font-size="67.7083" lengthAdjust="spacing" textLength="765.625" x="2052.0833" y="2940.0787">Left Click to break blocks</text><!--MD5=[47d9fc84f8d549d22b5a1170f2782e06]
link BreakBlocks to AddInventory--><path d="M579.5313,3792.3958 C344.5833,3928.75 31.25,4170.3646 31.25,4489.5833 C31.25,4489.5833 31.25,4489.5833 31.25,5583.3333 C31.25,6124.1667 1883.2812,5976.875 2406.25,6114.5833 C2443.8021,6124.4792 2483.0729,6135.5208 2521.8229,6146.7708 " fill="none" id="BreakBlocks-to-AddInventory" style="stroke:#A80036;stroke-width:5.208333333333333;"/><polygon fill="#A80036" points="2548.4896,6154.6354,2509.4138,6121.4032,2523.5097,6147.2753,2497.6376,6161.3711,2548.4896,6154.6354" style="stroke:#A80036;stroke-width:5.208333333333333;"/><text fill="#000000" font-family="sans-serif" font-size="67.7083" lengthAdjust="spacing" textLength="932.2917" x="36.4583" y="4940.0787">Add the blocks to the inventory</text><!--MD5=[d3dbce93dd45aed1e38a8e33ed6bfd50]
link fork_beginGame to PlaceBlocks--><path d="M5859.0625,2688.125 C5544.4271,2693.6458 4953.75,2754.9479 4656.25,3114.5833 C4363.5937,3468.3333 4429.8438,4061.3542 4481.9792,4338.3854 " fill="none" id="fork_beginGame-to-PlaceBlocks" style="stroke:#A80036;stroke-width:5.208333333333333;"/><polygon fill="#A80036" points="4486.9792,4364.2187,4498.607,4314.2579,4482.0723,4338.6435,4457.6866,4322.1089,4486.9792,4364.2187" style="stroke:#A80036;stroke-width:5.208333333333333;"/><text fill="#000000" font-family="sans-serif" font-size="67.7083" lengthAdjust="spacing" textLength="1270.8333" x="4661.4583" y="3273.4121">right Click to remove blocks from inventory</text><!--MD5=[6c1d1dc5b8aaec9b489dc3c2a8287d71]
link PlaceBlocks to RemoveInventory--><path d="M4514.6875,4625.8333 C4506.4063,4898.0729 4451.7708,5549.9479 4130.2083,5958.3333 C4085.2083,6015.5208 4025.2604,6062.5521 3962.0313,6100.7292 " fill="none" id="PlaceBlocks-to-RemoveInventory" style="stroke:#A80036;stroke-width:5.208333333333333;"/><polygon fill="#A80036" points="3938.6458,6114.375,3989.6351,6108.7724,3961.1455,6101.2626,3968.6553,6072.773,3938.6458,6114.375" style="stroke:#A80036;stroke-width:5.208333333333333;"/><text fill="#000000" font-family="sans-serif" font-size="67.7083" lengthAdjust="spacing" textLength="906.25" x="4458.3333" y="5273.4121">Remove Blocks from inventory</text><!--MD5=[6d2ca83513a17f1a9792830a42ba5398]
link MovePlayer to CraftMenu--><path d="M2775.0521,3376.7708 C2602.4479,3525.8333 2316.6146,3772.6042 2135.7292,3928.75 " fill="none" id="MovePlayer-to-CraftMenu" style="stroke:#A80036;stroke-width:5.208333333333333;"/><polygon fill="#A80036" points="2114.1667,3947.3437,2163.2875,3932.5643,2133.9074,3930.3593,2136.1124,3900.9791,2114.1667,3947.3437" style="stroke:#A80036;stroke-width:5.208333333333333;"/><text fill="#000000" font-family="sans-serif" font-size="67.7083" lengthAdjust="spacing" textLength="1119.7917" x="2593.75" y="3690.0787">Open Craft Menu if near crafting table</text><!--MD5=[3207c0e16045ddb758676add8ce4bd26]
link CraftMenu to fork_craft--><path d="M2024.1146,4210.1042 C2106.875,4399.6354 2258.6979,4747.2396 2310.3646,4865.5729 " fill="none" id="CraftMenu-to-fork_craft" style="stroke:#A80036;stroke-width:5.208333333333333;"/><polygon fill="#A80036" points="2321.25,4890.4688,2321.6069,4839.1739,2310.8393,4866.5986,2283.4146,4855.8309,2321.25,4890.4688" style="stroke:#A80036;stroke-width:5.208333333333333;"/><!--MD5=[f942464669e684a5f7d7b80f46c78f9d]
link fork_craft to CanCraft--><path d="M2391.0937,4932.3958 C2508.3854,4964.4271 2762.9167,5047.2917 2921.875,5197.9167 C2987.0833,5259.6875 3036.0937,5347.0833 3069.6354,5421.9792 " fill="none" id="fork_craft-to-CanCraft" style="stroke:#A80036;stroke-width:5.208333333333333;"/><polygon fill="#A80036" points="3080.4167,5446.875,3080.908,5395.5812,3070.0686,5422.9776,3042.6722,5412.1382,3080.4167,5446.875" style="stroke:#A80036;stroke-width:5.208333333333333;"/><text fill="#000000" font-family="sans-serif" font-size="67.7083" lengthAdjust="spacing" textLength="661.4583" x="3005.2083" y="5273.4121">Able to Craft new Tool</text><!--MD5=[fcd79d5c6715be188cde788c51620b11]
link fork_craft to CannotCraft--><path d="M2313.9063,4933.3854 C2278.75,4975.4167 2186.4583,5089.8958 2130.2083,5197.9167 C2093.2292,5269.0104 2061.9792,5352.5 2038.8542,5422.6563 " fill="none" id="fork_craft-to-CannotCraft" style="stroke:#A80036;stroke-width:5.208333333333333;"/><polygon fill="#A80036" points="2030.7292,5447.8125,2064.9036,5409.558,2038.6957,5423.0193,2025.2345,5396.8115,2030.7292,5447.8125" style="stroke:#A80036;stroke-width:5.208333333333333;"/><text fill="#000000" font-family="sans-serif" font-size="67.7083" lengthAdjust="spacing" textLength="760.4167" x="2135.4167" y="5273.4121">Not able to Craft new tool</text><!--MD5=[c894ec830cfbfdb5a5eef76f31273b4b]
link CanCraft to RemoveInventory--><path d="M3201.6146,5709.3229 C3248.0729,5783.3854 3309.7396,5878.0208 3369.7917,5958.3333 C3403.4375,6003.3854 3442.1354,6050.5208 3478.4896,6093.0729 " fill="none" id="CanCraft-to-RemoveInventory" style="stroke:#A80036;stroke-width:5.208333333333333;"/><polygon fill="#A80036" points="3496.0938,6113.5937,3481.3143,6064.4729,3479.1093,6093.853,3449.7291,6091.648,3496.0938,6113.5937" style="stroke:#A80036;stroke-width:5.208333333333333;"/><text fill="#000000" font-family="sans-serif" font-size="67.7083" lengthAdjust="spacing" textLength="708.3333" x="3375" y="5940.0787">Remove Blocks needed</text><!--MD5=[44dd9d090d2642ff8ca10c9370ee3314]
link CanCraft to AddInventory--><path d="M2923.8542,5598.0729 C2747.7604,5622.8646 2501.6146,5688.9063 2380.2083,5864.5833 C2311.1458,5964.4792 2405.9896,6053.9583 2524.7917,6120.4688 " fill="none" id="CanCraft-to-AddInventory" style="stroke:#A80036;stroke-width:5.208333333333333;"/><polygon fill="#A80036" points="2548.8542,6133.4375,2517.4749,6092.8588,2525.93,6121.0823,2497.7065,6129.5374,2548.8542,6133.4375" style="stroke:#A80036;stroke-width:5.208333333333333;"/><text fill="#000000" font-family="sans-serif" font-size="67.7083" lengthAdjust="spacing" textLength="770.8333" x="2385.4167" y="5940.0787">Add new Tool to inventory</text><!--MD5=[fd47b4992ea6f05bd84e952de90e5c3d]
link CannotCraft to CraftMenu--><path d="M1992.5521,5446.25 C1987.8125,5173.9063 1976.6146,4533.4375 1971.4583,4237.8646 " fill="none" id="CannotCraft-to-CraftMenu" style="stroke:#A80036;stroke-width:5.208333333333333;"/><polygon fill="#A80036" points="1970.9896,4210.3125,1950.9628,4257.5377,1971.4359,4236.3503,1992.6233,4256.8235,1970.9896,4210.3125" style="stroke:#A80036;stroke-width:5.208333333333333;"/><!--MD5=[52b7ef89ea914d37f8d696822bd3f466]
link CraftMenu to UpdateWorld--><path d="M1751.1458,4209.1146 C1539.5833,4349.5313 1250,4598.0208 1250,4906.25 C1250,4906.25 1250,4906.25 1250,7187.5 C1250,7698.9583 3053.4896,7755.4687 3777.3958,7757.6042 " fill="none" id="CraftMenu-to-UpdateWorld" style="stroke:#A80036;stroke-width:5.208333333333333;"/><polygon fill="#A80036" points="3804.7917,7757.6563,3757.9167,7736.8229,3778.75,7757.6563,3757.9167,7778.4896,3804.7917,7757.6563" style="stroke:#A80036;stroke-width:5.208333333333333;"/><text fill="#000000" font-family="sans-serif" font-size="67.7083" lengthAdjust="spacing" textLength="1104.1667" x="1255.2083" y="6273.4121">Press ESC key to exit crafting menu</text><!--MD5=[5c4362e8a0cb43f880af60fbbf4817f2]
link RemoveInventory to join_inventory--><path d="M3609.375,6375.2604 C3609.375,6471.8229 3609.375,6599.6354 3609.375,6665.3125 " fill="none" id="RemoveInventory-to-join_inventory" style="stroke:#A80036;stroke-width:5.208333333333333;"/><polygon fill="#A80036" points="3609.375,6692.1354,3630.2083,6645.2604,3609.375,6666.0937,3588.5417,6645.2604,3609.375,6692.1354" style="stroke:#A80036;stroke-width:5.208333333333333;"/><!--MD5=[7f341bcbcbd48b562cc8ee4d0a84157e]
link AddInventory to join_inventory--><path d="M3034.0104,6375.2604 C3212.9687,6478.8542 3454.0104,6618.3854 3558.0729,6678.6458 " fill="none" id="AddInventory-to-join_inventory" style="stroke:#A80036;stroke-width:5.208333333333333;"/><polygon fill="#A80036" points="3581.4063,6692.1354,3551.2344,6650.651,3558.8555,6679.1111,3530.3955,6686.7322,3581.4063,6692.1354" style="stroke:#A80036;stroke-width:5.208333333333333;"/><!--MD5=[ec57456a8d91d079e1c98afe8008d279]
link join_inventory to UpdateInventory--><path d="M3609.7917,6736.1458 C3610.8333,6783.1771 3613.8542,6916.5104 3616.3021,7024.375 " fill="none" id="join_inventory-to-UpdateInventory" style="stroke:#A80036;stroke-width:5.208333333333333;"/><polygon fill="#A80036" points="3616.9271,7051.1458,3636.6838,7003.807,3616.332,7025.111,3595.028,7004.7591,3616.9271,7051.1458" style="stroke:#A80036;stroke-width:5.208333333333333;"/><!--MD5=[8464d68489ed7c322edf446fa3807338]
link UpdateInventory to UpdateWorld--><path d="M3720.3646,7313.4896 C3789.5833,7400.2083 3881.8229,7515.7812 3954.5833,7606.9271 " fill="none" id="UpdateInventory-to-UpdateWorld" style="stroke:#A80036;stroke-width:5.208333333333333;"/><polygon fill="#A80036" points="3972.6563,7629.5833,3959.6861,7579.954,3956.4063,7609.2337,3927.1267,7605.9539,3972.6563,7629.5833" style="stroke:#A80036;stroke-width:5.208333333333333;"/><!--MD5=[cfaa48ce86dc64c4f40e97086f212ca2]
link fork_beginGame to PauseMenu--><path d="M6148.4375,2708.3333 C6253.1771,2731.1458 6439.0104,2780.2604 6578.125,2864.5833 C6678.9062,2925.6771 6774.6875,3016.875 6846.1458,3094.0104 " fill="none" id="fork_beginGame-to-PauseMenu" style="stroke:#A80036;stroke-width:5.208333333333333;"/><polygon fill="#A80036" points="6863.8021,3113.3333,6847.6299,3064.6532,6846.2624,3094.0843,6816.8313,3092.7167,6863.8021,3113.3333" style="stroke:#A80036;stroke-width:5.208333333333333;"/><text fill="#000000" font-family="sans-serif" font-size="67.7083" lengthAdjust="spacing" textLength="828.125" x="6703.125" y="2940.0787">Press P to pause the game</text><!--MD5=[d4e7c3132c2429a51c6cec983bd33e69]
link PauseMenu to fork_pause--><path d="M6968.75,3376.7708 C6968.75,3565.5208 6968.75,3910.9375 6968.75,4030.7292 " fill="none" id="PauseMenu-to-fork_pause" style="stroke:#A80036;stroke-width:5.208333333333333;"/><polygon fill="#A80036" points="6968.75,4057.1354,6989.5833,4010.2604,6968.75,4031.0938,6947.9167,4010.2604,6968.75,4057.1354" style="stroke:#A80036;stroke-width:5.208333333333333;"/><!--MD5=[4a3f44e0c9a5d97052047b6d0e8a9c10]
link fork_pause to Continue--><path d="M6948.3854,4099.8438 C6900.8333,4139.6354 6782.5,4246.5104 6729.1667,4364.5833 C6673.3854,4488.0208 6655.5208,4641.9792 6650.625,4754.1667 " fill="none" id="fork_pause-to-Continue" style="stroke:#A80036;stroke-width:5.208333333333333;"/><polygon fill="#A80036" points="6649.6875,4780.3125,6672.1148,4734.1789,6650.5798,4754.2861,6630.4726,4732.7512,6649.6875,4780.3125" style="stroke:#A80036;stroke-width:5.208333333333333;"/><text fill="#000000" font-family="sans-serif" font-size="67.7083" lengthAdjust="spacing" textLength="588.5417" x="6734.375" y="4523.4121">press C to continue</text><!--MD5=[c152fc27801946a7b2331d847a291588]
link Continue to fork_beginGame--><path d="M6631.7708,4780.8854 C6570.7292,4392.0833 6376.0417,3212.0313 6208.3333,2864.5833 C6182.7604,2811.5625 6137.6042,2760.625 6105.3646,2728.125 " fill="none" id="Continue-to-fork_beginGame" style="stroke:#A80036;stroke-width:5.208333333333333;"/><polygon fill="#A80036" points="6085.5208,2708.8542,6104.6102,2756.466,6104.1936,2727.0062,6133.6534,2726.5896,6085.5208,2708.8542" style="stroke:#A80036;stroke-width:5.208333333333333;"/><!--MD5=[d9aac3f5d91ebcf8727f786d38ba5419]
link fork_pause to ExitGame--><path d="M6996.8229,4099.8438 C7063.0729,4139.6875 7232.4479,4246.5625 7348.9583,4364.5833 C7449.1667,4466.0938 7431.9792,4527.9167 7536.4583,4625 C7603.3854,4687.1875 7686.1458,4742.9167 7762.8646,4788.0729 " fill="none" id="fork_pause-to-ExitGame" style="stroke:#A80036;stroke-width:5.208333333333333;"/><polygon fill="#A80036" points="7786.4063,4801.7187,7756.2344,4760.2344,7763.8555,4788.6944,7735.3955,4796.3155,7786.4063,4801.7187" style="stroke:#A80036;stroke-width:5.208333333333333;"/><text fill="#000000" font-family="sans-serif" font-size="67.7083" lengthAdjust="spacing" textLength="760.4167" x="7541.6667" y="4523.4121">Press Q to exit the game</text><!--MD5=[acaf5f71a481102909d7e108d08f32f4]
link Options to StartScreen--><path d="M8874.1667,745.4167 C8864.5833,822.9687 8865.625,921.3021 8911.4583,994.7917 C8970.9896,1090.2083 9074.375,1154.9479 9174.6354,1198.0729 " fill="none" id="Options-to-StartScreen" style="stroke:#A80036;stroke-width:5.208333333333333;"/><polygon fill="#A80036" points="9200,1208.5417,9164.6456,1171.375,9175.9353,1198.589,9148.7213,1209.8786,9200,1208.5417" style="stroke:#A80036;stroke-width:5.208333333333333;"/><text fill="#000000" font-family="sans-serif" font-size="67.7083" lengthAdjust="spacing" textLength="468.75" x="8916.6667" y="976.5371">Press ESC key</text><!--MD5=[0571f3b32aafadf6499669f77f8bf9ef]
link ExitGame to *end--><path d="M7994.7917,5043.1771 C7994.7917,5177.9167 7994.7917,5386.6146 7994.7917,5497.6042 " fill="none" id="ExitGame-to-*end" style="stroke:#A80036;stroke-width:5.208333333333333;"/><polygon fill="#A80036" points="7994.7917,5524.8438,8015.625,5477.9688,7994.7917,5498.8021,7973.9583,5477.9688,7994.7917,5524.8438" style="stroke:#A80036;stroke-width:5.208333333333333;"/><text fill="#000000" font-family="sans-serif" font-size="67.7083" lengthAdjust="spacing" textLength="296.875" x="8000" y="5273.4121">end game</text><!--MD5=[1b50b69bfceb484cafb3dd9752352445]
@startuml state

skinparam dpi 500

state fork_startScreen <<fork>>
state fork_beginGame <<fork>>
state fork_pause <<fork>>
state fork_craft <<fork>>
state join_inventory <<join>>
state join_loadGame <<join>>

[*] - -> StartScreen : Start
StartScreen - -> fork_startScreen
fork_startScreen - -> BeginGame : Click Begin Game Button
fork_startScreen - -> ExitGame : Click Exit Game Button
fork_startScreen - -> Options : Click Question Mark Button
BeginGame - -> RandmolyGenerateWorld
BeginGame - -> LoadPlayer
BeginGame - -> LoadTextures
BeginGame - -> LoadCamera

RandmolyGenerateWorld - -> join_loadGame 
LoadPlayer - -> join_loadGame
LoadTextures - -> join_loadGame
LoadCamera - -> join_loadGame
join_loadGame - -> LoadGame 
LoadGame - -> fork_beginGame

UpdateWorld - -> fork_beginGame : Update the way the world looks


fork_beginGame - -> MovePlayer : Use A, D and SpaceBar keys to move the player
MovePlayer - -> UpdateWorld

fork_beginGame - -> BreakBlocks : Left Click to break blocks
BreakBlocks - -> AddInventory : Add the blocks to the inventory 

fork_beginGame - -> PlaceBlocks : right Click to remove blocks from inventory
PlaceBlocks - -> RemoveInventory : Remove Blocks from inventory

MovePlayer - -> CraftMenu : Open Craft Menu if near crafting table
CraftMenu - -> fork_craft
fork_craft - -> CanCraft : Able to Craft new Tool
fork_craft - -> CannotCraft : Not able to Craft new tool
CanCraft - -> RemoveInventory : Remove Blocks needed 
CanCraft - -> AddInventory : Add new Tool to inventory
CannotCraft - -> CraftMenu
CraftMenu - -> UpdateWorld : Press ESC key to exit crafting menu

RemoveInventory - -> join_inventory
AddInventory - -> join_inventory
join_inventory - -> UpdateInventory 

UpdateInventory - -> UpdateWorld
fork_beginGame - -> PauseMenu : Press P to pause the game


PauseMenu - -> fork_pause
fork_pause - -> Continue : press C to continue
Continue - -> fork_beginGame
fork_pause - -> ExitGame : Press Q to exit the game
Options - -> StartScreen : Press ESC key
ExitGame - -> [*] : end game
@enduml 

PlantUML version 1.2022.0(Tue Jan 11 18:16:42 SAST 2022)
(GPL source distribution)
Java Runtime: Java(TM) SE Runtime Environment
JVM: Java HotSpot(TM) 64-Bit Server VM
Default Encoding: Cp1252
Language: en
Country: ZA
--></g></svg>