<?xml version="1.0" encoding="UTF-8" standalone="no"?><svg xmlns="http://www.w3.org/2000/svg" xmlns:xlink="http://www.w3.org/1999/xlink" contentStyleType="text/css" height="1132px" preserveAspectRatio="none" style="width:2522px;height:1132px;background:#FFFFFF;" version="1.1" viewBox="0 0 2522 1132" width="2522px" zoomAndPan="magnify"><defs/><g><!--MD5=[6a7bbfa3d72452af17f24c65754d4e2c]
cluster Files--><g id="cluster_Files"><path d="M578.33,6 L613.33,6 A3.75,3.75 0 0 1 615.83,8.5 L622.83,29.6094 L689.33,29.6094 A2.5,2.5 0 0 1 691.83,32.1094 L691.83,103.5 A2.5,2.5 0 0 1 689.33,106 L578.33,106 A2.5,2.5 0 0 1 575.83,103.5 L575.83,8.5 A2.5,2.5 0 0 1 578.33,6 " style="stroke:#000000;stroke-width:1.5;fill:none;"/><line style="stroke:#000000;stroke-width:1.5;fill:none;" x1="575.83" x2="622.83" y1="29.6094" y2="29.6094"/><text fill="#000000" font-family="sans-serif" font-size="14" font-weight="bold" lengthAdjust="spacing" textLength="34" x="579.83" y="22.5332">Files</text></g><!--MD5=[5a6c27f358c7f62697650bbfa284c9f6]
cluster JSON Files--><g id="cluster_JSON Files"><path d="M278.33,918 L355.33,918 A3.75,3.75 0 0 1 357.83,920.5 L364.83,941.6094 L739.33,941.6094 A2.5,2.5 0 0 1 741.83,944.1094 L741.83,1015.5 A2.5,2.5 0 0 1 739.33,1018 L278.33,1018 A2.5,2.5 0 0 1 275.83,1015.5 L275.83,920.5 A2.5,2.5 0 0 1 278.33,918 " style="stroke:#000000;stroke-width:1.5;fill:none;"/><line style="stroke:#000000;stroke-width:1.5;fill:none;" x1="275.83" x2="364.83" y1="941.6094" y2="941.6094"/><text fill="#000000" font-family="sans-serif" font-size="14" font-weight="bold" lengthAdjust="spacing" textLength="76" x="279.83" y="934.5332">JSON Files</text></g><!--MD5=[e56f7492f04ae9d94986440eb8a25ddd]
entity Sprites--><g id="elem_Sprites"><rect fill="#F1F1F1" height="47.6094" rx="2.5" ry="2.5" style="stroke:#181818;stroke-width:0.5;" width="84" x="591.83" y="42"/><rect fill="#F1F1F1" height="10" style="stroke:#181818;stroke-width:0.5;" width="15" x="655.83" y="47"/><rect fill="#F1F1F1" height="2" style="stroke:#181818;stroke-width:0.5;" width="4" x="653.83" y="49"/><rect fill="#F1F1F1" height="2" style="stroke:#181818;stroke-width:0.5;" width="4" x="653.83" y="53"/><text fill="#000000" font-family="sans-serif" font-size="14" lengthAdjust="spacing" textLength="44" x="606.83" y="76.5332">Sprites</text></g><!--MD5=[0a5be9542fdab9622dd70abe41fcba5e]
entity Item JSON--><g id="elem_Item JSON"><rect fill="#F1F1F1" height="47.6094" rx="2.5" ry="2.5" style="stroke:#181818;stroke-width:0.5;" width="105" x="620.33" y="954"/><rect fill="#F1F1F1" height="10" style="stroke:#181818;stroke-width:0.5;" width="15" x="705.33" y="959"/><rect fill="#F1F1F1" height="2" style="stroke:#181818;stroke-width:0.5;" width="4" x="703.33" y="961"/><rect fill="#F1F1F1" height="2" style="stroke:#181818;stroke-width:0.5;" width="4" x="703.33" y="965"/><text fill="#000000" font-family="sans-serif" font-size="14" lengthAdjust="spacing" textLength="65" x="635.33" y="988.5332">Item JSON</text></g><!--MD5=[7ae646a886a45ea40bc571e7a370cce0]
entity Recipe JSON--><g id="elem_Recipe JSON"><rect fill="#F1F1F1" height="47.6094" rx="2.5" ry="2.5" style="stroke:#181818;stroke-width:0.5;" width="123" x="292.33" y="954"/><rect fill="#F1F1F1" height="10" style="stroke:#181818;stroke-width:0.5;" width="15" x="395.33" y="959"/><rect fill="#F1F1F1" height="2" style="stroke:#181818;stroke-width:0.5;" width="4" x="393.33" y="961"/><rect fill="#F1F1F1" height="2" style="stroke:#181818;stroke-width:0.5;" width="4" x="393.33" y="965"/><text fill="#000000" font-family="sans-serif" font-size="14" lengthAdjust="spacing" textLength="83" x="307.33" y="988.5332">Recipe JSON</text></g><!--MD5=[36bd4fb1b3036177690cb47f87a99de5]
entity Rewards JSON--><g id="elem_Rewards JSON"><rect fill="#F1F1F1" height="47.6094" rx="2.5" ry="2.5" style="stroke:#181818;stroke-width:0.5;" width="134" x="450.83" y="954"/><rect fill="#F1F1F1" height="10" style="stroke:#181818;stroke-width:0.5;" width="15" x="564.83" y="959"/><rect fill="#F1F1F1" height="2" style="stroke:#181818;stroke-width:0.5;" width="4" x="562.83" y="961"/><rect fill="#F1F1F1" height="2" style="stroke:#181818;stroke-width:0.5;" width="4" x="562.83" y="965"/><text fill="#000000" font-family="sans-serif" font-size="14" lengthAdjust="spacing" textLength="94" x="465.83" y="988.5332">Rewards JSON</text></g><!--MD5=[ec467500b4fd5e3c9827eac1bb8e0f6b]
entity Game Settings--><g id="elem_Game Settings"><rect fill="#F1F1F1" height="47.6094" rx="2.5" ry="2.5" style="stroke:#181818;stroke-width:0.5;" width="133" x="2224.33" y="498"/><rect fill="#F1F1F1" height="10" style="stroke:#181818;stroke-width:0.5;" width="15" x="2337.33" y="503"/><rect fill="#F1F1F1" height="2" style="stroke:#181818;stroke-width:0.5;" width="4" x="2335.33" y="505"/><rect fill="#F1F1F1" height="2" style="stroke:#181818;stroke-width:0.5;" width="4" x="2335.33" y="509"/><text fill="#000000" font-family="sans-serif" font-size="14" lengthAdjust="spacing" textLength="93" x="2239.33" y="532.5332">Game Settings</text></g><!--MD5=[20a1033d75ee8087235cacd9e4898522]
entity Crafting--><g id="elem_Crafting"><rect fill="#F1F1F1" height="47.6094" rx="2.5" ry="2.5" style="stroke:#181818;stroke-width:0.5;" width="90" x="603.83" y="498"/><rect fill="#F1F1F1" height="10" style="stroke:#181818;stroke-width:0.5;" width="15" x="673.83" y="503"/><rect fill="#F1F1F1" height="2" style="stroke:#181818;stroke-width:0.5;" width="4" x="671.83" y="505"/><rect fill="#F1F1F1" height="2" style="stroke:#181818;stroke-width:0.5;" width="4" x="671.83" y="509"/><text fill="#000000" font-family="sans-serif" font-size="14" lengthAdjust="spacing" textLength="50" x="618.83" y="532.5332">Crafting</text></g><!--MD5=[45d7808020dbd92216b02228f7e599f6]
entity Block--><g id="elem_Block"><rect fill="#F1F1F1" height="47.6094" rx="2.5" ry="2.5" style="stroke:#181818;stroke-width:0.5;" width="74" x="813.83" y="726"/><rect fill="#F1F1F1" height="10" style="stroke:#181818;stroke-width:0.5;" width="15" x="867.83" y="731"/><rect fill="#F1F1F1" height="2" style="stroke:#181818;stroke-width:0.5;" width="4" x="865.83" y="733"/><rect fill="#F1F1F1" height="2" style="stroke:#181818;stroke-width:0.5;" width="4" x="865.83" y="737"/><text fill="#000000" font-family="sans-serif" font-size="14" lengthAdjust="spacing" textLength="34" x="828.83" y="760.5332">Block</text></g><!--MD5=[ab59c2c83936ce77a0901c710a4c2b89]
entity Item--><g id="elem_Item"><rect fill="#F1F1F1" height="47.6094" rx="2.5" ry="2.5" style="stroke:#181818;stroke-width:0.5;" width="66" x="501.83" y="726"/><rect fill="#F1F1F1" height="10" style="stroke:#181818;stroke-width:0.5;" width="15" x="547.83" y="731"/><rect fill="#F1F1F1" height="2" style="stroke:#181818;stroke-width:0.5;" width="4" x="545.83" y="733"/><rect fill="#F1F1F1" height="2" style="stroke:#181818;stroke-width:0.5;" width="4" x="545.83" y="737"/><text fill="#000000" font-family="sans-serif" font-size="14" lengthAdjust="spacing" textLength="26" x="516.83" y="760.5332">Item</text></g><!--MD5=[3d6f32cb5b891463c0dffd3944c7a07b]
entity Breaking and Placing--><g id="elem_Breaking and Placing"><rect fill="#F1F1F1" height="47.6094" rx="2.5" ry="2.5" style="stroke:#181818;stroke-width:0.5;" width="174" x="1067.83" y="42"/><rect fill="#F1F1F1" height="10" style="stroke:#181818;stroke-width:0.5;" width="15" x="1221.83" y="47"/><rect fill="#F1F1F1" height="2" style="stroke:#181818;stroke-width:0.5;" width="4" x="1219.83" y="49"/><rect fill="#F1F1F1" height="2" style="stroke:#181818;stroke-width:0.5;" width="4" x="1219.83" y="53"/><text fill="#000000" font-family="sans-serif" font-size="14" lengthAdjust="spacing" textLength="134" x="1082.83" y="76.5332">Breaking and Placing</text></g><!--MD5=[de2effd8dc5bf946a609466312d0f75f]
entity Player--><g id="elem_Player"><rect fill="#F1F1F1" height="47.6094" rx="2.5" ry="2.5" style="stroke:#181818;stroke-width:0.5;" width="80" x="1114.83" y="270"/><rect fill="#F1F1F1" height="10" style="stroke:#181818;stroke-width:0.5;" width="15" x="1174.83" y="275"/><rect fill="#F1F1F1" height="2" style="stroke:#181818;stroke-width:0.5;" width="4" x="1172.83" y="277"/><rect fill="#F1F1F1" height="2" style="stroke:#181818;stroke-width:0.5;" width="4" x="1172.83" y="281"/><text fill="#000000" font-family="sans-serif" font-size="14" lengthAdjust="spacing" textLength="40" x="1129.83" y="304.5332">Player</text></g><!--MD5=[c8f729b8e352a0860913e8756c4779b6]
entity Camera--><g id="elem_Camera"><rect fill="#F1F1F1" height="47.6094" rx="2.5" ry="2.5" style="stroke:#181818;stroke-width:0.5;" width="90" x="1519.83" y="270"/><rect fill="#F1F1F1" height="10" style="stroke:#181818;stroke-width:0.5;" width="15" x="1589.83" y="275"/><rect fill="#F1F1F1" height="2" style="stroke:#181818;stroke-width:0.5;" width="4" x="1587.83" y="277"/><rect fill="#F1F1F1" height="2" style="stroke:#181818;stroke-width:0.5;" width="4" x="1587.83" y="281"/><text fill="#000000" font-family="sans-serif" font-size="14" lengthAdjust="spacing" textLength="50" x="1534.83" y="304.5332">Camera</text></g><!--MD5=[6a30fd0128a7413820ab77e27b80c321]
entity Game World--><g id="elem_Game World"><rect fill="#F1F1F1" height="47.6094" rx="2.5" ry="2.5" style="stroke:#181818;stroke-width:0.5;" width="119" x="1966.33" y="270"/><rect fill="#F1F1F1" height="10" style="stroke:#181818;stroke-width:0.5;" width="15" x="2065.33" y="275"/><rect fill="#F1F1F1" height="2" style="stroke:#181818;stroke-width:0.5;" width="4" x="2063.33" y="277"/><rect fill="#F1F1F1" height="2" style="stroke:#181818;stroke-width:0.5;" width="4" x="2063.33" y="281"/><text fill="#000000" font-family="sans-serif" font-size="14" lengthAdjust="spacing" textLength="79" x="1981.33" y="304.5332">Game World</text></g><!--MD5=[c3a82e844d23968b7ce72d3a5f9fb6d3]
entity Inventory--><g id="elem_Inventory"><rect fill="#F1F1F1" height="47.6094" rx="2.5" ry="2.5" style="stroke:#181818;stroke-width:0.5;" width="98" x="728.83" y="498"/><rect fill="#F1F1F1" height="10" style="stroke:#181818;stroke-width:0.5;" width="15" x="806.83" y="503"/><rect fill="#F1F1F1" height="2" style="stroke:#181818;stroke-width:0.5;" width="4" x="804.83" y="505"/><rect fill="#F1F1F1" height="2" style="stroke:#181818;stroke-width:0.5;" width="4" x="804.83" y="509"/><text fill="#000000" font-family="sans-serif" font-size="14" lengthAdjust="spacing" textLength="58" x="743.83" y="532.5332">Inventory</text></g><!--MD5=[9c626053e623f48c145be2aac1d12849]
entity User Interface--><g id="elem_User Interface"><rect fill="#F1F1F1" height="47.6094" rx="2.5" ry="2.5" style="stroke:#181818;stroke-width:0.5;" width="128" x="861.83" y="498"/><rect fill="#F1F1F1" height="10" style="stroke:#181818;stroke-width:0.5;" width="15" x="969.83" y="503"/><rect fill="#F1F1F1" height="2" style="stroke:#181818;stroke-width:0.5;" width="4" x="967.83" y="505"/><rect fill="#F1F1F1" height="2" style="stroke:#181818;stroke-width:0.5;" width="4" x="967.83" y="509"/><text fill="#000000" font-family="sans-serif" font-size="14" lengthAdjust="spacing" textLength="88" x="876.83" y="532.5332">User Interface</text></g><!--MD5=[176614c6f3a8e6e15f452eeb3396fe40]
entity Game Menu--><g id="elem_Game Menu"><rect fill="#F1F1F1" height="47.6094" rx="2.5" ry="2.5" style="stroke:#181818;stroke-width:0.5;" width="117" x="2039.33" y="498"/><rect fill="#F1F1F1" height="10" style="stroke:#181818;stroke-width:0.5;" width="15" x="2136.33" y="503"/><rect fill="#F1F1F1" height="2" style="stroke:#181818;stroke-width:0.5;" width="4" x="2134.33" y="505"/><rect fill="#F1F1F1" height="2" style="stroke:#181818;stroke-width:0.5;" width="4" x="2134.33" y="509"/><text fill="#000000" font-family="sans-serif" font-size="14" lengthAdjust="spacing" textLength="77" x="2054.33" y="532.5332">Game Menu</text></g><!--MD5=[9bf38e2b6fa784581ad2b7a500786e52]
entity Audio--><g id="elem_Audio"><rect fill="#F1F1F1" height="47.6094" rx="2.5" ry="2.5" style="stroke:#181818;stroke-width:0.5;" width="76" x="782.83" y="270"/><rect fill="#F1F1F1" height="10" style="stroke:#181818;stroke-width:0.5;" width="15" x="838.83" y="275"/><rect fill="#F1F1F1" height="2" style="stroke:#181818;stroke-width:0.5;" width="4" x="836.83" y="277"/><rect fill="#F1F1F1" height="2" style="stroke:#181818;stroke-width:0.5;" width="4" x="836.83" y="281"/><text fill="#000000" font-family="sans-serif" font-size="14" lengthAdjust="spacing" textLength="36" x="797.83" y="304.5332">Audio</text></g><!--MD5=[59b14afb858980ea7003269802d67a0c]
entity AI Environment--><g id="elem_AI Environment"><rect fill="#ADD8E6" height="47.6094" rx="2.5" ry="2.5" style="stroke:#181818;stroke-width:0.5;" width="135" x="976.33" y="954"/><rect fill="#ADD8E6" height="10" style="stroke:#181818;stroke-width:0.5;" width="15" x="1091.33" y="959"/><rect fill="#ADD8E6" height="2" style="stroke:#181818;stroke-width:0.5;" width="4" x="1089.33" y="961"/><rect fill="#ADD8E6" height="2" style="stroke:#181818;stroke-width:0.5;" width="4" x="1089.33" y="965"/><text fill="#000000" font-family="sans-serif" font-size="14" lengthAdjust="spacing" textLength="95" x="991.33" y="988.5332">AI Environment</text></g><!--MD5=[f729ed9953a2240e6d53ecaaf3984f69]
entity Minecraft Environment--><g id="elem_Minecraft Environment"><rect fill="#ADD8E6" height="47.6094" rx="2.5" ry="2.5" style="stroke:#181818;stroke-width:0.5;" width="181" x="760.33" y="954"/><rect fill="#ADD8E6" height="10" style="stroke:#181818;stroke-width:0.5;" width="15" x="921.33" y="959"/><rect fill="#ADD8E6" height="2" style="stroke:#181818;stroke-width:0.5;" width="4" x="919.33" y="961"/><rect fill="#ADD8E6" height="2" style="stroke:#181818;stroke-width:0.5;" width="4" x="919.33" y="965"/><text fill="#000000" font-family="sans-serif" font-size="14" lengthAdjust="spacing" textLength="141" x="775.33" y="988.5332">Minecraft Environment</text></g><!--MD5=[1a8f18ec5d3b3f418f4294ccc7f67a9b]
entity GT1--><g id="elem_GT1"><ellipse cx="633.83" cy="180" fill="#F1F1F1" rx="8" ry="8" style="stroke:#181818;stroke-width:0.5;"/><text fill="#000000" font-family="sans-serif" font-size="14" lengthAdjust="spacing" textLength="75" x="596.33" y="211.5332">Get Texture</text></g><!--MD5=[f1ff46596a9076ec4408fb4820ef3e2e]
entity GT2--><g id="elem_GT2"><ellipse cx="769.83" cy="180" fill="#F1F1F1" rx="8" ry="8" style="stroke:#181818;stroke-width:0.5;"/><text fill="#000000" font-family="sans-serif" font-size="14" lengthAdjust="spacing" textLength="75" x="732.33" y="211.5332">Get Texture</text></g><!--MD5=[8b509e6bc2cddbe9d8b77f4d4a325065]
entity GT3--><g id="elem_GT3"><ellipse cx="263.83" cy="180" fill="#F1F1F1" rx="8" ry="8" style="stroke:#181818;stroke-width:0.5;"/><text fill="#000000" font-family="sans-serif" font-size="14" lengthAdjust="spacing" textLength="75" x="226.33" y="211.5332">Get Texture</text></g><!--MD5=[8aa48eece13b069ef17ea2b2a2e0d94a]
entity GBlockInfo--><g id="elem_GBlockInfo"><ellipse cx="810.83" cy="864" fill="#F1F1F1" rx="8" ry="8" style="stroke:#181818;stroke-width:0.5;"/><text fill="#000000" font-family="sans-serif" font-size="14" lengthAdjust="spacing" textLength="130" x="745.83" y="895.5332">Get Block Properties</text></g><!--MD5=[eaef40ceae70d53d702928da1ceb95c0]
entity GBItemInfo--><g id="elem_GBItemInfo"><ellipse cx="613.83" cy="864" fill="#F1F1F1" rx="8" ry="8" style="stroke:#181818;stroke-width:0.5;"/><text fill="#000000" font-family="sans-serif" font-size="14" lengthAdjust="spacing" textLength="122" x="552.83" y="895.5332">Get Item Properties</text></g><!--MD5=[d975503b492e622d24638f3a681ef370]
entity GGameSetting--><g id="elem_GGameSetting"><ellipse cx="2290.83" cy="408" fill="#F1F1F1" rx="8" ry="8" style="stroke:#181818;stroke-width:0.5;"/><text fill="#000000" font-family="sans-serif" font-size="14" lengthAdjust="spacing" textLength="120" x="2230.83" y="439.5332">Get Game Settings</text></g><!--MD5=[88072e861a9acb9d8434eb03350cf594]
entity GBlock--><g id="elem_GBlock"><ellipse cx="792.83" cy="636" fill="#F1F1F1" rx="8" ry="8" style="stroke:#181818;stroke-width:0.5;"/><text fill="#000000" font-family="sans-serif" font-size="14" lengthAdjust="spacing" textLength="61" x="762.33" y="667.5332">Get Block</text></g><!--MD5=[42405b7584953efb4ee1e909ccfc963b]
entity GItem--><g id="elem_GItem"><ellipse cx="534.83" cy="636" fill="#F1F1F1" rx="8" ry="8" style="stroke:#181818;stroke-width:0.5;"/><text fill="#000000" font-family="sans-serif" font-size="14" lengthAdjust="spacing" textLength="53" x="508.33" y="667.5332">Get Item</text></g><!--MD5=[da147cd71508b1913a41bb6b4b01a772]
entity StoreRetrieveBlock--><g id="elem_StoreRetrieveBlock"><ellipse cx="941.83" cy="180" fill="#F1F1F1" rx="8" ry="8" style="stroke:#181818;stroke-width:0.5;"/><text fill="#000000" font-family="sans-serif" font-size="14" lengthAdjust="spacing" textLength="129" x="877.33" y="211.5332">Store/Retrieve Block</text></g><!--MD5=[d26c08427d166fc46bfdb907375634c7]
entity SelectItemBlock--><g id="elem_SelectItemBlock"><ellipse cx="1050.83" cy="408" fill="#F1F1F1" rx="8" ry="8" style="stroke:#181818;stroke-width:0.5;"/><text fill="#000000" font-family="sans-serif" font-size="14" lengthAdjust="spacing" textLength="107" x="997.33" y="439.5332">Select Item/Block</text></g><!--MD5=[a9ca98f5762c40b68b842c463b31ef35]
entity BreakPlaceBlock--><g id="elem_BreakPlaceBlock"><ellipse cx="1154.83" cy="180" fill="#F1F1F1" rx="8" ry="8" style="stroke:#181818;stroke-width:0.5;"/><text fill="#000000" font-family="sans-serif" font-size="14" lengthAdjust="spacing" textLength="114" x="1097.83" y="211.5332">Break/Place Block</text></g><!--MD5=[f912c3dc76be78071eecc274b3d6d7ff]
entity PlaceBlock--><g id="elem_PlaceBlock"><ellipse cx="2458.83" cy="408" fill="#F1F1F1" rx="8" ry="8" style="stroke:#181818;stroke-width:0.5;"/><text fill="#000000" font-family="sans-serif" font-size="14" lengthAdjust="spacing" textLength="114" x="2401.83" y="439.5332">Break/Place Block</text></g><!--MD5=[801d9971c74be9d07ffc18d022fa1b86]
entity Craft--><g id="elem_Craft"><ellipse cx="128.83" cy="636" fill="#F1F1F1" rx="8" ry="8" style="stroke:#181818;stroke-width:0.5;"/><text fill="#000000" font-family="sans-serif" font-size="14" lengthAdjust="spacing" textLength="99" x="79.33" y="667.5332">Craft Item/Block</text></g><!--MD5=[e25fa1a09df03286a4013fc67ada0c07]
entity GetRecipes--><g id="elem_GetRecipes"><ellipse cx="296.83" cy="1092" fill="#F1F1F1" rx="8" ry="8" style="stroke:#181818;stroke-width:0.5;"/><text fill="#000000" font-family="sans-serif" font-size="14" lengthAdjust="spacing" textLength="78" x="257.83" y="1123.5332">Get Recipes</text></g><!--MD5=[74aef968b7954e707f3796f5a35ab757]
entity StoreRetrieveBlockItem--><g id="elem_StoreRetrieveBlockItem"><ellipse cx="378.83" cy="636" fill="#F1F1F1" rx="8" ry="8" style="stroke:#181818;stroke-width:0.5;"/><text fill="#000000" font-family="sans-serif" font-size="14" lengthAdjust="spacing" textLength="159" x="299.33" y="667.5332">Store/Retrieve Item/Block</text></g><!--MD5=[ea574140fec53518e19733d715d15af5]
entity BlocKGen--><g id="elem_BlocKGen"><ellipse cx="1620.83" cy="864" fill="#F1F1F1" rx="8" ry="8" style="stroke:#181818;stroke-width:0.5;"/><text fill="#000000" font-family="sans-serif" font-size="14" lengthAdjust="spacing" textLength="120" x="1560.83" y="895.5332">Get Blocks for Gen</text></g><!--MD5=[da9abac6f303204ac08af8f3142bbdb5]
entity GenWorld--><g id="elem_GenWorld"><ellipse cx="2097.83" cy="408" fill="#F1F1F1" rx="8" ry="8" style="stroke:#181818;stroke-width:0.5;"/><text fill="#000000" font-family="sans-serif" font-size="14" lengthAdjust="spacing" textLength="164" x="2015.83" y="439.5332">Generate world from seed</text></g><!--MD5=[56ee8b33924492548bd9da39795eb7ef]
entity DisplayWorld--><g id="elem_DisplayWorld"><ellipse cx="1850.83" cy="408" fill="#F1F1F1" rx="8" ry="8" style="stroke:#181818;stroke-width:0.5;"/><text fill="#000000" font-family="sans-serif" font-size="14" lengthAdjust="spacing" textLength="87" x="1807.33" y="439.5332">Display World</text></g><!--MD5=[0e27917c4a4f58a74db95a6dbb62aec7]
entity DisplayPlayer--><g id="elem_DisplayPlayer"><ellipse cx="1511.83" cy="408" fill="#F1F1F1" rx="8" ry="8" style="stroke:#181818;stroke-width:0.5;"/><text fill="#000000" font-family="sans-serif" font-size="14" lengthAdjust="spacing" textLength="90" x="1466.83" y="439.5332">Display Player</text></g><!--MD5=[beea72e0d01653e4c9f99928df8e17cd]
entity DisplayUI--><g id="elem_DisplayUI"><ellipse cx="1436.83" cy="636" fill="#F1F1F1" rx="8" ry="8" style="stroke:#181818;stroke-width:0.5;"/><text fill="#000000" font-family="sans-serif" font-size="14" lengthAdjust="spacing" textLength="62" x="1405.83" y="667.5332">Display UI</text></g><!--MD5=[941f54ee38a768d85a8ad4c4b4555377]
entity DisplayCrafting--><g id="elem_DisplayCrafting"><ellipse cx="661.83" cy="636" fill="#F1F1F1" rx="8" ry="8" style="stroke:#181818;stroke-width:0.5;"/><text fill="#000000" font-family="sans-serif" font-size="14" lengthAdjust="spacing" textLength="100" x="611.83" y="667.5332">Display Crafting</text></g><!--MD5=[206894d240f45f21cb6119ef6cf55bbc]
entity DisplayInventory--><g id="elem_DisplayInventory"><ellipse cx="927.83" cy="636" fill="#F1F1F1" rx="8" ry="8" style="stroke:#181818;stroke-width:0.5;"/><text fill="#000000" font-family="sans-serif" font-size="14" lengthAdjust="spacing" textLength="108" x="873.83" y="667.5332">Display Inventory</text></g><!--MD5=[45c23742ac8285756e1ac42d52cd8745]
entity MovePlayerWorld--><g id="elem_MovePlayerWorld"><ellipse cx="1717.83" cy="408" fill="#F1F1F1" rx="8" ry="8" style="stroke:#181818;stroke-width:0.5;"/><text fill="#000000" font-family="sans-serif" font-size="14" lengthAdjust="spacing" textLength="78" x="1678.83" y="439.5332">Move Player</text></g><!--MD5=[3f2a2fb92bf9f01413912c470826f626]
entity MovePlayerCamera--><g id="elem_MovePlayerCamera"><ellipse cx="1320.83" cy="408" fill="#F1F1F1" rx="8" ry="8" style="stroke:#181818;stroke-width:0.5;"/><text fill="#000000" font-family="sans-serif" font-size="14" lengthAdjust="spacing" textLength="190" x="1225.83" y="439.5332">Move Camera on Player Move</text></g><!--MD5=[ba6fbc4d8a307ff6afd8c39c2e8d8322]
entity playAudio--><g id="elem_playAudio"><ellipse cx="820.83" cy="408" fill="#F1F1F1" rx="8" ry="8" style="stroke:#181818;stroke-width:0.5;"/><text fill="#000000" font-family="sans-serif" font-size="14" lengthAdjust="spacing" textLength="110" x="765.83" y="439.5332">Get Audio to Play</text></g><!--MD5=[271f3f1b4075cf156e175a144c3b2af6]
entity AgentInterface--><g id="elem_AgentInterface"><ellipse cx="1103.83" cy="1092" fill="#ADD8E6" rx="8" ry="8" style="stroke:#181818;stroke-width:0.5;"/><text fill="#000000" font-family="sans-serif" font-size="14" lengthAdjust="spacing" textLength="141" x="1033.33" y="1123.5332">Interface through Gym</text></g><!--MD5=[65a4e37a3e23aced28dd339060f68402]
entity nextAIMove--><g id="elem_nextAIMove"><ellipse cx="893.83" cy="1092" fill="#ADD8E6" rx="8" ry="8" style="stroke:#181818;stroke-width:0.5;"/><text fill="#000000" font-family="sans-serif" font-size="14" lengthAdjust="spacing" textLength="91" x="848.33" y="1123.5332">Get next move</text></g><!--MD5=[f58829e590dc994f666e4996299c8731]
entity rewardValues--><g id="elem_rewardValues"><ellipse cx="607.83" cy="1092" fill="#ADD8E6" rx="8" ry="8" style="stroke:#181818;stroke-width:0.5;"/><text fill="#000000" font-family="sans-serif" font-size="14" lengthAdjust="spacing" textLength="115" x="550.33" y="1123.5332">Get reward values</text></g><!--MD5=[833bae06c0cf30466acbc405d55ed788]
link Sprites to GT1--><g id="link_Sprites_GT1"><path d="M633.83,90.21 C633.83,115.32 633.83,154.03 633.83,170.79 " fill="none" id="Sprites-GT1" style="stroke:#181818;stroke-width:1.0;"/></g><!--MD5=[0a8e280e73dc7516b9ff8603758ea9ba]
reverse link GT1 to Block--><g id="link_GT1_Block"><path d="M635.76,199.24 C641.77,246.56 664.6,373.96 740.83,438 C833.96,516.23 931.84,403.04 1007.83,498 C1054.49,556.3 1046.37,602.04 1007.83,666 C981.98,708.91 925.69,730.79 888.02,741.05 " fill="none" id="GT1-backto-Block" style="stroke:#181818;stroke-width:1.0;"/><path d="M626.556,193.2865 A9,9 0 0 0 643.3567 191.3284" fill="none" style="stroke:#181818;stroke-width:1.5;"/></g><!--MD5=[03c499e48b351fcdd248ed0494db4aa8]
link Sprites to GT3--><g id="link_Sprites_GT3"><path d="M591.75,79.74 C506.33,105.6 316.96,162.92 273.05,176.21 " fill="none" id="Sprites-GT3" style="stroke:#181818;stroke-width:1.0;"/></g><!--MD5=[e0adc95032a11aff11fac671a7bd99c5]
reverse link GT3 to Item--><g id="link_GT3_Item"><path d="M245.25,187.62 C188.1,209.29 18.83,283.87 18.83,407 C18.83,407 18.83,407 18.83,523 C18.83,588.43 6,621.36 53.83,666 C119.2,726.99 403.58,743.83 501.53,747.86 " fill="none" id="GT3-backto-Item" style="stroke:#181818;stroke-width:1.0;"/><path d="M249.0084,177.2179 A9,9 0 0 0 254.8547 193.0899" fill="none" style="stroke:#181818;stroke-width:1.5;"/></g><!--MD5=[b04ad571f909b26a9d4513388aff1f63]
link Sprites to GT2--><g id="link_Sprites_GT2"><path d="M662.01,90.21 C692.98,115.71 740.96,155.22 760.78,171.55 " fill="none" id="Sprites-GT2" style="stroke:#181818;stroke-width:1.0;"/></g><!--MD5=[51160945cc9d277d81098ce725fef6d8]
reverse link GT2 to Player--><g id="link_GT2_Player"><path d="M788.64,187.98 C805.39,194.1 830.6,203.07 852.83,210 C945.76,238.97 1056.38,268 1114.52,282.85 " fill="none" id="GT2-backto-Player" style="stroke:#181818;stroke-width:1.0;"/><path d="M778.9453,193.4199 A9,9 0 0 0 784.7916 177.5479" fill="none" style="stroke:#181818;stroke-width:1.5;"/></g><!--MD5=[6cbb0df46079e74cba3e8104e07a3a5e]
link Block to GBlockInfo--><g id="link_Block_GBlockInfo"><path d="M842.55,774.21 C835.01,795.3 824.06,825.98 817.19,845.2 " fill="none" id="Block-to-GBlockInfo" style="stroke:#181818;stroke-width:1.0;"/><path d="M822.7698,854.727 A9,9 0 0 0 806.8353 849.0533" fill="none" style="stroke:#181818;stroke-width:1.5;"/></g><!--MD5=[8d0fd7fb13614a440b35b8f86292f370]
link GBlockInfo to Item JSON--><g id="link_GBlockInfo_Item JSON"><path d="M801.68,870.34 C788.27,878.31 762.74,894.1 742.83,910 C725.88,923.54 708.24,940.45 694.91,953.89 " fill="none" id="GBlockInfo-Item JSON" style="stroke:#181818;stroke-width:1.0;"/></g><!--MD5=[2f4c065f2b491914fbcaa0c0a9dced04]
link Item to GBItemInfo--><g id="link_Item_GBItemInfo"><path d="M551.2,774.21 C566.43,795.79 588.73,827.41 602.21,846.52 " fill="none" id="Item-to-GBItemInfo" style="stroke:#181818;stroke-width:1.0;"/><path d="M613.1821,847.3967 A9,9 0 0 0 599.3662 857.1548" fill="none" style="stroke:#181818;stroke-width:1.5;"/></g><!--MD5=[9373437895d68328a4fe6f6abff5fc9d]
link GBItemInfo to Item JSON--><g id="link_GBItemInfo_Item JSON"><path d="M618.08,873.05 C626.85,889.71 647.27,928.47 660.54,953.67 " fill="none" id="GBItemInfo-Item JSON" style="stroke:#181818;stroke-width:1.0;"/></g><!--MD5=[51f1794e20f86b976f156231ef3c8a71]
link Game World to GGameSetting--><g id="link_Game World_GGameSetting"><path d="M2080.42,318.07 C2140.38,343.41 2233.35,382.7 2272.48,399.24 " fill="none" id="Game World-to-GGameSetting" style="stroke:#181818;stroke-width:1.0;"/><path d="M2282.2699,394.2013 A9,9 0 0 0 2275.6975 409.7866" fill="none" style="stroke:#181818;stroke-width:1.5;"/></g><!--MD5=[2ec794340a9d2606fa0fb8649d3783de]
link GGameSetting to Game Settings--><g id="link_GGameSetting_Game Settings"><path d="M2290.83,417.05 C2290.83,433.71 2290.83,472.47 2290.83,497.67 " fill="none" id="GGameSetting-Game Settings" style="stroke:#181818;stroke-width:1.0;"/></g><!--MD5=[d6d32cedfe030439373b336cb5000e96]
link Inventory to GBlock--><g id="link_Inventory_GBlock"><path d="M780.94,546.21 C783.74,567.1 787.8,597.41 790.38,616.66 " fill="none" id="Inventory-to-GBlock" style="stroke:#181818;stroke-width:1.0;"/><path d="M799.7135,622.6158 A9,9 0 0 0 782.9489 624.8624" fill="none" style="stroke:#181818;stroke-width:1.5;"/></g><!--MD5=[118a765e966355423c34d4af725f384a]
link GBlock to Block--><g id="link_GBlock_Block"><path d="M797.01,645.05 C805.63,661.71 825.7,700.47 838.75,725.67 " fill="none" id="GBlock-Block" style="stroke:#181818;stroke-width:1.0;"/></g><!--MD5=[dfa6cd361c6b793f4677081cbc43bb1d]
link Inventory to GItem--><g id="link_Inventory_GItem"><path d="M728.55,542.84 C689.62,558.89 634.15,582.6 586.83,606 C575.3,611.71 562.69,618.72 552.77,624.42 " fill="none" id="Inventory-to-GItem" style="stroke:#181818;stroke-width:1.0;"/><path d="M550.8037,635.352 A9,9 0 0 0 542.2975 620.732" fill="none" style="stroke:#181818;stroke-width:1.5;"/></g><!--MD5=[325b17ebab9b6016a31cb1a9784fdd6b]
link GItem to Item--><g id="link_GItem_Item"><path d="M534.83,645.05 C534.83,661.71 534.83,700.47 534.83,725.67 " fill="none" id="GItem-Item" style="stroke:#181818;stroke-width:1.0;"/></g><!--MD5=[25af1755c2324c2326503938705c752b]
link Breaking and Placing to StoreRetrieveBlock--><g id="link_Breaking and Placing_StoreRetrieveBlock"><path d="M1110.96,90.07 C1064.38,114.56 993.03,152.08 959.9,169.5 " fill="none" id="Breaking and Placing-to-StoreRetrieveBlock" style="stroke:#181818;stroke-width:1.0;"/><path d="M957.5745,180.2785 A9,9 0 0 0 949.6926 165.3127" fill="none" style="stroke:#181818;stroke-width:1.5;"/></g><!--MD5=[9e217f0be4295e8271d6a435f23b87a2]
link StoreRetrieveBlock to Inventory--><g id="link_StoreRetrieveBlock_Inventory"><path d="M932.83,182.74 C903.66,188.89 811.05,212.34 765.83,270 C719.25,329.4 725.12,364.16 740.83,438 C745.37,459.29 755.76,481.75 764.39,497.93 " fill="none" id="StoreRetrieveBlock-Inventory" style="stroke:#181818;stroke-width:1.0;"/></g><!--MD5=[e74f0ae00824837c9572152c9f65e0cd]
link SelectItemBlock to Inventory--><g id="link_SelectItemBlock_Inventory"><path d="M1041.75,412.73 C1008.77,426.26 893.77,473.44 826.95,500.85 " fill="none" id="SelectItemBlock-Inventory" style="stroke:#181818;stroke-width:1.0;"/></g><!--MD5=[40106af54c5523aa758db7b9d86448e4]
link Player to SelectItemBlock--><g id="link_Player_SelectItemBlock"><path d="M1133.29,318.21 C1112.97,340.09 1083.08,372.28 1065.42,391.29 " fill="none" id="Player-to-SelectItemBlock" style="stroke:#181818;stroke-width:1.0;"/><path d="M1066.7496,402.2946 A9,9 0 0 0 1054.3625 390.7768" fill="none" style="stroke:#181818;stroke-width:1.5;"/></g><!--MD5=[1ee7cbf5ef8d2075090c0756baf58aec]
link Breaking and Placing to BreakPlaceBlock--><g id="link_Breaking and Placing_BreakPlaceBlock"><path d="M1154.83,90.21 C1154.83,115.32 1154.83,154.03 1154.83,170.79 " fill="none" id="Breaking and Placing-BreakPlaceBlock" style="stroke:#181818;stroke-width:1.0;"/></g><!--MD5=[4ba018fd2aac3000e629c9054405dd99]
reverse link BreakPlaceBlock to Player--><g id="link_BreakPlaceBlock_Player"><path d="M1154.83,199.15 C1154.83,218.35 1154.83,248.7 1154.83,269.67 " fill="none" id="BreakPlaceBlock-backto-Player" style="stroke:#181818;stroke-width:1.0;"/><path d="M1146.3728,192.1282 A9,9 0 0 0 1163.2872 192.1282" fill="none" style="stroke:#181818;stroke-width:1.5;"/></g><!--MD5=[bf2800027f078a606b20da05126be894]
link Game World to PlaceBlock--><g id="link_Game World_PlaceBlock"><path d="M2085.34,307.03 C2155.57,321.69 2275.61,348.23 2376.83,378 C2403.49,385.84 2434.19,397.39 2449.35,403.27 " fill="none" id="Game World-PlaceBlock" style="stroke:#181818;stroke-width:1.0;"/></g><!--MD5=[d85fcbc4def0fba87b6109e07813c447]
link Breaking and Placing to PlaceBlock--><g id="link_Breaking and Placing_PlaceBlock"><path d="M1241.92,80.95 C1410.27,108.94 1791.27,177.31 2102.83,270 C2235.26,309.4 2388.28,375.57 2440.38,398.71 " fill="none" id="Breaking and Placing-to-PlaceBlock" style="stroke:#181818;stroke-width:1.0;"/><path d="M2450.2984,393.882 A9,9 0 0 0 2443.4176 409.3336" fill="none" style="stroke:#181818;stroke-width:1.5;"/></g><!--MD5=[d97bc650b134c668d2d0bc8760395a7b]
link Crafting to Craft--><g id="link_Crafting_Craft"><path d="M603.8,538.5 C594.93,541.23 585.64,543.88 576.83,546 C417.43,584.38 371.78,565.77 212.83,606 C185.02,613.04 153.28,625.16 138,631.26 " fill="none" id="Crafting-Craft" style="stroke:#181818;stroke-width:1.0;"/></g><!--MD5=[5f3df63fa38e93bd3dec1679891c80ef]
link Player to Craft--><g id="link_Player_Craft"><path d="M1114.53,309.69 C1076.54,324.37 1018.74,348.91 972.83,378 C937.94,400.11 939.13,420.22 901.83,438 C773.19,499.34 725.45,464.86 586.83,498 C418.56,538.23 377.77,553.75 212.83,606 C190.39,613.11 164.86,622.05 147.9,628.11 " fill="none" id="Player-to-Craft" style="stroke:#181818;stroke-width:1.0;"/><path d="M143.8686,638.5365 A9,9 0 0 0 138.1445 622.6201" fill="none" style="stroke:#181818;stroke-width:1.5;"/></g><!--MD5=[dbaa1f3b8b77d9001dabe906e4ed8be3]
link Crafting to GetRecipes--><g id="link_Crafting_GetRecipes"><path d="M603.6,531.73 C506.66,550.6 286.71,594.45 274.83,606 C227.84,651.68 238.83,683.46 238.83,749 C238.83,749 238.83,749 238.83,865 C238.83,945 273.36,1036.08 289.13,1073.52 " fill="none" id="Crafting-to-GetRecipes" style="stroke:#181818;stroke-width:1.0;"/><path d="M299.7593,1076.8069 A9,9 0 0 0 284.225 1083.499" fill="none" style="stroke:#181818;stroke-width:1.5;"/></g><!--MD5=[6a0b37a33b574d3a28b5c92c47136553]
link Recipe JSON to GetRecipes--><g id="link_Recipe JSON_GetRecipes"><path d="M342.02,1002.21 C329.24,1027.32 309.54,1066.03 301.01,1082.79 " fill="none" id="Recipe JSON-GetRecipes" style="stroke:#181818;stroke-width:1.0;"/></g><!--MD5=[faf5538fb3abce4c287cd57d989a2286]
link Crafting to StoreRetrieveBlockItem--><g id="link_Crafting_StoreRetrieveBlockItem"><path d="M603.64,541.75 C543.3,566.78 439.16,609.98 397.17,627.39 " fill="none" id="Crafting-to-StoreRetrieveBlockItem" style="stroke:#181818;stroke-width:1.0;"/><path d="M393.9927,637.8641 A9,9 0 0 0 387.4906 622.2493" fill="none" style="stroke:#181818;stroke-width:1.5;"/></g><!--MD5=[8316efd59f7fcc42c947664f8b098d59]
link Inventory to StoreRetrieveBlockItem--><g id="link_Inventory_StoreRetrieveBlockItem"><path d="M728.6,540.63 C722.97,542.51 717.29,544.33 711.83,546 C611.62,576.6 585,578.72 483.83,606 C448.41,615.55 406.38,627.28 388.09,632.4 " fill="none" id="Inventory-StoreRetrieveBlockItem" style="stroke:#181818;stroke-width:1.0;"/></g><!--MD5=[d6acfa1a20bd9ae53f8d0b34dda04335]
link Game World to BlocKGen--><g id="link_Game World_BlocKGen"><path d="M2013.47,318 C1993.13,358.04 1954.83,443.68 1954.83,521 C1954.83,521 1954.83,521 1954.83,637 C1954.83,789.87 1711.87,846.38 1640.39,859.69 " fill="none" id="Game World-to-BlocKGen" style="stroke:#181818;stroke-width:1.0;"/><path d="M1634.6366,869.3046 A9,9 0 0 0 1631.664 852.6534" fill="none" style="stroke:#181818;stroke-width:1.5;"/></g><!--MD5=[8d2b84f7b19e966e9b06e221bc4e6082]
link Block to BlocKGen--><g id="link_Block_BlocKGen"><path d="M887.97,756.4 C1030.37,777.11 1537.22,850.84 1611.68,861.67 " fill="none" id="Block-BlocKGen" style="stroke:#181818;stroke-width:1.0;"/></g><!--MD5=[3b02fe774791b8c2ad1de92b05cb65d4]
link Game World to GenWorld--><g id="link_Game World_GenWorld"><path d="M2040.75,318.21 C2056.9,343.32 2081.78,382.03 2092.56,398.79 " fill="none" id="Game World-GenWorld" style="stroke:#181818;stroke-width:1.0;"/></g><!--MD5=[718477ea6ad283fbc8dcaa0c99902448]
reverse link GenWorld to Game Menu--><g id="link_GenWorld_Game Menu"><path d="M2097.83,427.15 C2097.83,446.35 2097.83,476.7 2097.83,497.67 " fill="none" id="GenWorld-backto-Game Menu" style="stroke:#181818;stroke-width:1.0;"/><path d="M2089.3728,420.1282 A9,9 0 0 0 2106.2872 420.1282" fill="none" style="stroke:#181818;stroke-width:1.5;"/></g><!--MD5=[ce53c0dd0a691013d768cd79576454a5]
link User Interface to DisplayCrafting--><g id="link_User Interface_DisplayCrafting"><path d="M871.45,546.07 C812,571.29 719.96,610.34 680.66,627.01 " fill="none" id="User Interface-to-DisplayCrafting" style="stroke:#181818;stroke-width:1.0;"/><path d="M677.3849,637.5951 A9,9 0 0 0 670.7833 622.0221" fill="none" style="stroke:#181818;stroke-width:1.5;"/></g><!--MD5=[edf66ab3cdf5bca1abd96e2616a0233c]
link User Interface to DisplayInventory--><g id="link_User Interface_DisplayInventory"><path d="M926.25,546.21 C926.62,567.1 927.16,597.41 927.51,616.66 " fill="none" id="User Interface-to-DisplayInventory" style="stroke:#181818;stroke-width:1.0;"/><path d="M936.0886,623.5553 A9,9 0 0 0 919.1771 623.8694" fill="none" style="stroke:#181818;stroke-width:1.5;"/></g><!--MD5=[c24d5849b99aa7b41bd365c538f4a333]
link Crafting to DisplayCrafting--><g id="link_Crafting_DisplayCrafting"><path d="M651.53,546.21 C654.44,571.32 658.94,610.03 660.88,626.79 " fill="none" id="Crafting-DisplayCrafting" style="stroke:#181818;stroke-width:1.0;"/></g><!--MD5=[070fbf2d164a533150642b1b43fee6b6]
link Inventory to DisplayInventory--><g id="link_Inventory_DisplayInventory"><path d="M808.91,546.21 C843.58,572.09 897.58,612.41 918.82,628.27 " fill="none" id="Inventory-DisplayInventory" style="stroke:#181818;stroke-width:1.0;"/></g><!--MD5=[26c4895d8cc59df4a395c8c051f0ed9e]
link Camera to DisplayWorld--><g id="link_Camera_DisplayWorld"><path d="M1610.13,311.65 C1654.36,328.06 1723.5,354.06 1782.83,378 C1799.72,384.81 1818.77,392.98 1832.4,398.91 " fill="none" id="Camera-to-DisplayWorld" style="stroke:#181818;stroke-width:1.0;"/><path d="M1842.1994,393.9574 A9,9 0 0 0 1835.4375 409.4615" fill="none" style="stroke:#181818;stroke-width:1.5;"/></g><!--MD5=[4c1498c39fa8a73509cefd8bf87ee60c]
link Camera to DisplayPlayer--><g id="link_Camera_DisplayPlayer"><path d="M1553.85,318.21 C1543.78,339.5 1529.08,370.55 1520.01,389.73 " fill="none" id="Camera-to-DisplayPlayer" style="stroke:#181818;stroke-width:1.0;"/><path d="M1524.6818,399.6188 A9,9 0 0 0 1509.3876 392.3946" fill="none" style="stroke:#181818;stroke-width:1.5;"/></g><!--MD5=[c97f339238bcf692952904a793869808]
link Camera to DisplayUI--><g id="link_Camera_DisplayUI"><path d="M1573.82,318.14 C1583.64,346.92 1596.29,397.25 1582.83,438 C1556.87,516.63 1486.07,589.51 1453.56,619.97 " fill="none" id="Camera-to-DisplayUI" style="stroke:#181818;stroke-width:1.0;"/><path d="M1454.1666,630.9198 A9,9 0 0 0 1442.6988 618.4863" fill="none" style="stroke:#181818;stroke-width:1.5;"/></g><!--MD5=[2b59e7a64008b19389b948aca0ac1d81]
link Game World to DisplayWorld--><g id="link_Game World_DisplayWorld"><path d="M1989.57,318.21 C1948.33,344.6 1883.63,386.01 1859.92,401.18 " fill="none" id="Game World-DisplayWorld" style="stroke:#181818;stroke-width:1.0;"/></g><!--MD5=[36976bc424124ba4f6508b3d1bf060a2]
link Player to DisplayPlayer--><g id="link_Player_DisplayPlayer"><path d="M1195.21,305.16 C1251.16,319.58 1355.2,347.63 1441.83,378 C1463.93,385.75 1489.14,396.74 1502.45,402.72 " fill="none" id="Player-DisplayPlayer" style="stroke:#181818;stroke-width:1.0;"/></g><!--MD5=[b85e66af217458cd32f6b66e79a12a70]
link User Interface to DisplayUI--><g id="link_User Interface_DisplayUI"><path d="M990.04,537.07 C1113.34,564.1 1375.73,621.61 1427.76,633.01 " fill="none" id="User Interface-DisplayUI" style="stroke:#181818;stroke-width:1.0;"/></g><!--MD5=[1149a06f0ba453b7a15ef21c9cd0fba3]
link Player to MovePlayerWorld--><g id="link_Player_MovePlayerWorld"><path d="M1195.01,302.51 C1270.89,316.76 1440.45,348.9 1582.83,378 C1624.16,386.45 1672.46,396.98 1698.62,402.74 " fill="none" id="Player-to-MovePlayerWorld" style="stroke:#181818;stroke-width:1.0;"/><path d="M1707.4973,396.048 A9,9 0 0 0 1703.8511 412.5648" fill="none" style="stroke:#181818;stroke-width:1.5;"/></g><!--MD5=[e95873f13a987f744203a66e819b773a]
link Game World to MovePlayerWorld--><g id="link_Game World_MovePlayerWorld"><path d="M1965.87,313.81 C1916.35,329.74 1844.45,353.79 1782.83,378 C1762.59,385.95 1739.46,396.68 1726.98,402.6 " fill="none" id="Game World-MovePlayerWorld" style="stroke:#181818;stroke-width:1.0;"/></g><!--MD5=[f23ca20a5e6f486cbdfa5965fd657bef]
link Camera to MovePlayerCamera--><g id="link_Camera_MovePlayerCamera"><path d="M1519.8,315.67 C1460.59,342.85 1360.5,388.8 1329.95,402.81 " fill="none" id="Camera-MovePlayerCamera" style="stroke:#181818;stroke-width:1.0;"/></g><!--MD5=[661f1571f64c8c5c6a143056833ac226]
link Player to MovePlayerCamera--><g id="link_Player_MovePlayerCamera"><path d="M1189.23,318.21 C1223.89,341.59 1276.01,376.76 1303.08,395.02 " fill="none" id="Player-to-MovePlayerCamera" style="stroke:#181818;stroke-width:1.0;"/><path d="M1313.7251,391.9968 A9,9 0 0 0 1304.2702 406.0219" fill="none" style="stroke:#181818;stroke-width:1.5;"/></g><!--MD5=[0b99405415a53418dc6fa046b41e1821]
link Audio to playAudio--><g id="link_Audio_playAudio"><path d="M820.83,318.21 C820.83,343.32 820.83,382.03 820.83,398.79 " fill="none" id="Audio-playAudio" style="stroke:#181818;stroke-width:1.0;"/></g><!--MD5=[f402ee7afc1e17ae3e272ee2aa9ccd08]
link Player to playAudio--><g id="link_Player_playAudio"><path d="M1114.55,308.51 C1042.14,332.79 892.64,382.92 839.82,400.63 " fill="none" id="Player-to-playAudio" style="stroke:#181818;stroke-width:1.0;"/><path d="M835.6905,410.9372 A9,9 0 0 0 830.3055 394.9028" fill="none" style="stroke:#181818;stroke-width:1.5;"/></g><!--MD5=[a51d301371a038be98e0c24957a4439c]
link AI Environment to AgentInterface--><g id="link_AI Environment_AgentInterface"><path d="M1056.27,1002.21 C1069.72,1027.32 1090.46,1066.03 1099.44,1082.79 " fill="none" id="AI Environment-AgentInterface" style="stroke:#181818;stroke-width:1.0;"/></g><!--MD5=[279d7903ef7ac725e40696ae00d943f6]
link Player to AgentInterface--><g id="link_Player_AgentInterface"><path d="M1156.53,318.08 C1159.38,358.96 1164.83,446.77 1164.83,521 C1164.83,521 1164.83,521 1164.83,865 C1164.83,944.9 1128.86,1035.36 1112.16,1073.05 " fill="none" id="Player-to-AgentInterface" style="stroke:#181818;stroke-width:1.0;"/><path d="M1116.8138,1083.2857 A9,9 0 0 0 1101.4064 1076.3065" fill="none" style="stroke:#181818;stroke-width:1.5;"/></g><!--MD5=[2ee9db1b30f032a1532cb144174f0b81]
link AI Environment to nextAIMove--><g id="link_AI Environment_nextAIMove"><path d="M1012.75,1002.21 C981.88,1025.26 935.67,1059.76 910.93,1078.24 " fill="none" id="AI Environment-to-nextAIMove" style="stroke:#181818;stroke-width:1.0;"/><path d="M910.377,1089.2039 A9,9 0 0 0 900.2554 1075.6521" fill="none" style="stroke:#181818;stroke-width:1.5;"/></g><!--MD5=[1ba3870d60e1b3d0a6a53b17efb62f2d]
link Minecraft Environment to nextAIMove--><g id="link_Minecraft Environment_nextAIMove"><path d="M859.74,1002.21 C869.39,1027.32 884.25,1066.03 890.68,1082.79 " fill="none" id="Minecraft Environment-nextAIMove" style="stroke:#181818;stroke-width:1.0;"/></g><!--MD5=[cdffb75ba46a426f2ca91327b5183f5f]
link Rewards JSON to rewardValues--><g id="link_Rewards JSON_rewardValues"><path d="M536.48,1002.21 C556.67,1027.32 587.77,1066.03 601.24,1082.79 " fill="none" id="Rewards JSON-rewardValues" style="stroke:#181818;stroke-width:1.0;"/></g><!--MD5=[ceaa740c7d84dc0e2538d2b68d92aa4a]
link Minecraft Environment to rewardValues--><g id="link_Minecraft Environment_rewardValues"><path d="M800.78,1002.07 C746.66,1027.02 663.2,1065.48 626.38,1082.45 " fill="none" id="Minecraft Environment-to-rewardValues" style="stroke:#181818;stroke-width:1.0;"/><path d="M623.2445,1093.2133 A9,9 0 0 0 616.1671 1077.8507" fill="none" style="stroke:#181818;stroke-width:1.5;"/></g><!--MD5=[5b96dce63e510446263db7b39e181356]
@startuml
[Game Settings]

[Crafting]
[Block]
[Item]
[Breaking and Placing]
[Player]
[Camera]
[Game World]
[Inventory]
[User Interface]
[Game Menu]
[Audio]
[AI Environment] #ADD8E6
[Minecraft Environment] #ADD8E6

folder "Files"{
    [Sprites]

}

folder "JSON Files"{
    [Item JSON]
    [Recipe JSON]
    [Rewards JSON]
}
() "Get Texture" as GT1
() "Get Texture" as GT2
() "Get Texture" as GT3
[Sprites] - - GT1
GT1 )- - [Block]
[Sprites] - - GT3
GT3 )- - [Item]
[Sprites] - - GT2
GT2 )- - [Player]

() "Get Block Properties" as GBlockInfo
() "Get Item Properties" as GBItemInfo
[Block] - -( GBlockInfo
GBlockInfo - - [Item JSON]
[Item] - -( GBItemInfo
GBItemInfo - - [Item JSON]

() "Get Game Settings" as GGameSetting
[Game World] - -( GGameSetting
GGameSetting - - [Game Settings]

() "Get Block" as GBlock
() "Get Item" as GItem

[Inventory] - -( GBlock
GBlock - - [Block]
[Inventory] - -( GItem
GItem - - [Item]

() "Store/Retrieve Block" as StoreRetrieveBlock
[Breaking and Placing] - -( StoreRetrieveBlock
StoreRetrieveBlock - - [Inventory]

() "Select Item/Block" as SelectItemBlock
SelectItemBlock - - [Inventory]
[Player] - -( SelectItemBlock

() "Break/Place Block" as BreakPlaceBlock
[Breaking and Placing] - - BreakPlaceBlock
BreakPlaceBlock )- - [Player]

() "Break/Place Block" as PlaceBlock
[Game World] - - PlaceBlock
[Breaking and Placing] - -( PlaceBlock

() "Craft Item/Block" as Craft
[Crafting] - - Craft
[Player] - -( Craft

() "Get Recipes" as GetRecipes
[Crafting] - -( GetRecipes
[Recipe JSON] - - GetRecipes

() "Store/Retrieve Item/Block" as StoreRetrieveBlockItem
[Crafting] - -( StoreRetrieveBlockItem
[Inventory] - - StoreRetrieveBlockItem

() "Get Blocks for Gen" as BlocKGen
[Game World] - -( BlocKGen
[Block] - - BlocKGen

() "Generate world from seed" as GenWorld
[Game World] - - GenWorld
GenWorld )- - [Game Menu]

() "Display World" as DisplayWorld
() "Display Player" as DisplayPlayer
() "Display UI" as DisplayUI

() "Display Crafting" as DisplayCrafting
() "Display Inventory" as DisplayInventory

[User Interface] - -( DisplayCrafting
[User Interface] - -( DisplayInventory
[Crafting] - - DisplayCrafting
[Inventory] - - DisplayInventory

[Camera] - -( DisplayWorld
[Camera] - -( DisplayPlayer
[Camera] - -( DisplayUI
[Game World] - - DisplayWorld
[Player] - - DisplayPlayer
[User Interface] - - DisplayUI

() "Move Player" as MovePlayerWorld
[Player] - -( MovePlayerWorld
[Game World] - - MovePlayerWorld

() "Move Camera on Player Move" as MovePlayerCamera
[Camera] - - MovePlayerCamera
[Player] - -( MovePlayerCamera

() "Get Audio to Play" as playAudio
[Audio] - - playAudio
[Player] - -( playAudio

() "Interface through Gym" as AgentInterface #ADD8E6
[AI Environment] - - AgentInterface
[Player] - -( AgentInterface

() "Get next move" as nextAIMove #ADD8E6
[AI Environment] - -( nextAIMove
[Minecraft Environment] - - nextAIMove

() "Get reward values" as rewardValues #ADD8E6
[Rewards JSON] - - rewardValues
[Minecraft Environment] - -( rewardValues


@enduml

PlantUML version 1.2022.4(Sat Apr 09 15:29:17 GMT+02:00 2022)
(GPL source distribution)
Java Runtime: OpenJDK Runtime Environment
JVM: OpenJDK 64-Bit Server VM
Default Encoding: Cp1252
Language: en
Country: GB
--></g></svg>