<?xml version="1.0" encoding="UTF-8" standalone="no"?><svg xmlns="http://www.w3.org/2000/svg" xmlns:xlink="http://www.w3.org/1999/xlink" contentStyleType="text/css" height="905.6px" preserveAspectRatio="none" style="width:1838px;height:905px;background:#FFFFFF;" version="1.1" viewBox="0 0 1838 905" width="1838.4px" zoomAndPan="magnify"><defs/><g><!--MD5=[6a7bbfa3d72452af17f24c65754d4e2c]
cluster Files--><g id="cluster_Files"><path d="M1658.8,4.8 L1686.8,4.8 A3,3 0 0 1 1688.8,6.8 L1694.4,23.6875 L1747.6,23.6875 A2,2 0 0 1 1749.6,25.6875 L1749.6,82.8 A2,2 0 0 1 1747.6,84.8 L1658.8,84.8 A2,2 0 0 1 1656.8,82.8 L1656.8,6.8 A2,2 0 0 1 1658.8,4.8 " style="stroke:#000000;stroke-width:1.2000000000000002;fill:none;"/><line style="stroke:#000000;stroke-width:1.2000000000000002;fill:none;" x1="1656.8" x2="1694.4" y1="23.6875" y2="23.6875"/><text fill="#000000" font-family="sans-serif" font-size="11.2" font-weight="bold" lengthAdjust="spacing" textLength="27.2" x="1660" y="18.0266">Files</text></g><!--MD5=[5a6c27f358c7f62697650bbfa284c9f6]
cluster JSON Files--><g id="cluster_JSON Files"><path d="M863.6,734.4 L925.2,734.4 A3,3 0 0 1 927.2,736.4 L932.8,753.2875 L1096.4,753.2875 A2,2 0 0 1 1098.4,755.2875 L1098.4,812.4 A2,2 0 0 1 1096.4,814.4 L863.6,814.4 A2,2 0 0 1 861.6,812.4 L861.6,736.4 A2,2 0 0 1 863.6,734.4 " style="stroke:#000000;stroke-width:1.2000000000000002;fill:none;"/><line style="stroke:#000000;stroke-width:1.2000000000000002;fill:none;" x1="861.6" x2="932.8" y1="753.2875" y2="753.2875"/><text fill="#000000" font-family="sans-serif" font-size="11.2" font-weight="bold" lengthAdjust="spacing" textLength="60.8" x="864.8" y="747.6266">JSON Files</text></g><!--MD5=[e56f7492f04ae9d94986440eb8a25ddd]
entity Sprites--><g id="elem_Sprites"><rect fill="#F1F1F1" height="38.0875" rx="2" ry="2" style="stroke:#181818;stroke-width:0.4000000000000001;" width="67.2" x="1669.6" y="33.6"/><rect fill="#F1F1F1" height="8" style="stroke:#181818;stroke-width:0.4000000000000001;" width="12" x="1720.8" y="37.6"/><rect fill="#F1F1F1" height="1.6" style="stroke:#181818;stroke-width:0.4000000000000001;" width="3.2" x="1719.2" y="39.2"/><rect fill="#F1F1F1" height="1.6" style="stroke:#181818;stroke-width:0.4000000000000001;" width="3.2" x="1719.2" y="42.4"/><text fill="#000000" font-family="sans-serif" font-size="11.2" lengthAdjust="spacing" textLength="35.2" x="1681.6" y="61.2266">Sprites</text></g><!--MD5=[0a5be9542fdab9622dd70abe41fcba5e]
entity Item JSON--><g id="elem_Item JSON"><rect fill="#F1F1F1" height="38.0875" rx="2" ry="2" style="stroke:#181818;stroke-width:0.4000000000000001;" width="84" x="1001.2" y="763.2"/><rect fill="#F1F1F1" height="8" style="stroke:#181818;stroke-width:0.4000000000000001;" width="12" x="1069.2" y="767.2"/><rect fill="#F1F1F1" height="1.6" style="stroke:#181818;stroke-width:0.4000000000000001;" width="3.2" x="1067.6" y="768.8"/><rect fill="#F1F1F1" height="1.6" style="stroke:#181818;stroke-width:0.4000000000000001;" width="3.2" x="1067.6" y="772"/><text fill="#000000" font-family="sans-serif" font-size="11.2" lengthAdjust="spacing" textLength="52" x="1013.2" y="790.8266">Item JSON</text></g><!--MD5=[7ae646a886a45ea40bc571e7a370cce0]
entity Recipe JSON--><g id="elem_Recipe JSON"><rect fill="#F1F1F1" height="38.0875" rx="2" ry="2" style="stroke:#181818;stroke-width:0.4000000000000001;" width="98.4" x="874.8" y="763.2"/><rect fill="#F1F1F1" height="8" style="stroke:#181818;stroke-width:0.4000000000000001;" width="12" x="957.2" y="767.2"/><rect fill="#F1F1F1" height="1.6" style="stroke:#181818;stroke-width:0.4000000000000001;" width="3.2" x="955.6" y="768.8"/><rect fill="#F1F1F1" height="1.6" style="stroke:#181818;stroke-width:0.4000000000000001;" width="3.2" x="955.6" y="772"/><text fill="#000000" font-family="sans-serif" font-size="11.2" lengthAdjust="spacing" textLength="66.4" x="886.8" y="790.8266">Recipe JSON</text></g><!--MD5=[ec467500b4fd5e3c9827eac1bb8e0f6b]
entity Game Settings--><g id="elem_Game Settings"><rect fill="#F1F1F1" height="38.0875" rx="2" ry="2" style="stroke:#181818;stroke-width:0.4000000000000001;" width="106.4" x="131.6" y="398.4"/><rect fill="#F1F1F1" height="8" style="stroke:#181818;stroke-width:0.4000000000000001;" width="12" x="222" y="402.4"/><rect fill="#F1F1F1" height="1.6" style="stroke:#181818;stroke-width:0.4000000000000001;" width="3.2" x="220.4" y="404"/><rect fill="#F1F1F1" height="1.6" style="stroke:#181818;stroke-width:0.4000000000000001;" width="3.2" x="220.4" y="407.2"/><text fill="#000000" font-family="sans-serif" font-size="11.2" lengthAdjust="spacing" textLength="74.4" x="143.6" y="426.0266">Game Settings</text></g><!--MD5=[20a1033d75ee8087235cacd9e4898522]
entity Crafting--><g id="elem_Crafting"><rect fill="#F1F1F1" height="38.0875" rx="2" ry="2" style="stroke:#181818;stroke-width:0.4000000000000001;" width="72" x="1142.4" y="398.4"/><rect fill="#F1F1F1" height="8" style="stroke:#181818;stroke-width:0.4000000000000001;" width="12" x="1198.4" y="402.4"/><rect fill="#F1F1F1" height="1.6" style="stroke:#181818;stroke-width:0.4000000000000001;" width="3.2" x="1196.8" y="404"/><rect fill="#F1F1F1" height="1.6" style="stroke:#181818;stroke-width:0.4000000000000001;" width="3.2" x="1196.8" y="407.2"/><text fill="#000000" font-family="sans-serif" font-size="11.2" lengthAdjust="spacing" textLength="40" x="1154.4" y="426.0266">Crafting</text></g><!--MD5=[45d7808020dbd92216b02228f7e599f6]
entity Block--><g id="elem_Block"><rect fill="#F1F1F1" height="38.0875" rx="2" ry="2" style="stroke:#181818;stroke-width:0.4000000000000001;" width="59.2" x="714.4" y="580.8"/><rect fill="#F1F1F1" height="8" style="stroke:#181818;stroke-width:0.4000000000000001;" width="12" x="757.6" y="584.8"/><rect fill="#F1F1F1" height="1.6" style="stroke:#181818;stroke-width:0.4000000000000001;" width="3.2" x="756" y="586.4"/><rect fill="#F1F1F1" height="1.6" style="stroke:#181818;stroke-width:0.4000000000000001;" width="3.2" x="756" y="589.6"/><text fill="#000000" font-family="sans-serif" font-size="11.2" lengthAdjust="spacing" textLength="27.2" x="726.4" y="608.4266">Block</text></g><!--MD5=[ab59c2c83936ce77a0901c710a4c2b89]
entity Item--><g id="elem_Item"><rect fill="#F1F1F1" height="38.0875" rx="2" ry="2" style="stroke:#181818;stroke-width:0.4000000000000001;" width="52.8" x="1016.8" y="580.8"/><rect fill="#F1F1F1" height="8" style="stroke:#181818;stroke-width:0.4000000000000001;" width="12" x="1053.6" y="584.8"/><rect fill="#F1F1F1" height="1.6" style="stroke:#181818;stroke-width:0.4000000000000001;" width="3.2" x="1052" y="586.4"/><rect fill="#F1F1F1" height="1.6" style="stroke:#181818;stroke-width:0.4000000000000001;" width="3.2" x="1052" y="589.6"/><text fill="#000000" font-family="sans-serif" font-size="11.2" lengthAdjust="spacing" textLength="20.8" x="1028.8" y="608.4266">Item</text></g><!--MD5=[3d6f32cb5b891463c0dffd3944c7a07b]
entity Breaking and Placing--><g id="elem_Breaking and Placing"><rect fill="#F1F1F1" height="38.0875" rx="2" ry="2" style="stroke:#181818;stroke-width:0.4000000000000001;" width="139.2" x="653.6" y="33.6"/><rect fill="#F1F1F1" height="8" style="stroke:#181818;stroke-width:0.4000000000000001;" width="12" x="776.8" y="37.6"/><rect fill="#F1F1F1" height="1.6" style="stroke:#181818;stroke-width:0.4000000000000001;" width="3.2" x="775.2" y="39.2"/><rect fill="#F1F1F1" height="1.6" style="stroke:#181818;stroke-width:0.4000000000000001;" width="3.2" x="775.2" y="42.4"/><text fill="#000000" font-family="sans-serif" font-size="11.2" lengthAdjust="spacing" textLength="107.2" x="665.6" y="61.2266">Breaking and Placing</text></g><!--MD5=[de2effd8dc5bf946a609466312d0f75f]
entity Player--><g id="elem_Player"><rect fill="#F1F1F1" height="38.0875" rx="2" ry="2" style="stroke:#181818;stroke-width:0.4000000000000001;" width="64" x="1144.8" y="216"/><rect fill="#F1F1F1" height="8" style="stroke:#181818;stroke-width:0.4000000000000001;" width="12" x="1192.8" y="220"/><rect fill="#F1F1F1" height="1.6" style="stroke:#181818;stroke-width:0.4000000000000001;" width="3.2" x="1191.2" y="221.6"/><rect fill="#F1F1F1" height="1.6" style="stroke:#181818;stroke-width:0.4000000000000001;" width="3.2" x="1191.2" y="224.8"/><text fill="#000000" font-family="sans-serif" font-size="11.2" lengthAdjust="spacing" textLength="32" x="1156.8" y="243.6266">Player</text></g><!--MD5=[c8f729b8e352a0860913e8756c4779b6]
entity Camera--><g id="elem_Camera"><rect fill="#F1F1F1" height="38.0875" rx="2" ry="2" style="stroke:#181818;stroke-width:0.4000000000000001;" width="72" x="797.6" y="216"/><rect fill="#F1F1F1" height="8" style="stroke:#181818;stroke-width:0.4000000000000001;" width="12" x="853.6" y="220"/><rect fill="#F1F1F1" height="1.6" style="stroke:#181818;stroke-width:0.4000000000000001;" width="3.2" x="852" y="221.6"/><rect fill="#F1F1F1" height="1.6" style="stroke:#181818;stroke-width:0.4000000000000001;" width="3.2" x="852" y="224.8"/><text fill="#000000" font-family="sans-serif" font-size="11.2" lengthAdjust="spacing" textLength="40" x="809.6" y="243.6266">Camera</text></g><!--MD5=[6a30fd0128a7413820ab77e27b80c321]
entity Game World--><g id="elem_Game World"><rect fill="#F1F1F1" height="38.0875" rx="2" ry="2" style="stroke:#181818;stroke-width:0.4000000000000001;" width="95.2" x="291.6" y="216"/><rect fill="#F1F1F1" height="8" style="stroke:#181818;stroke-width:0.4000000000000001;" width="12" x="370.8" y="220"/><rect fill="#F1F1F1" height="1.6" style="stroke:#181818;stroke-width:0.4000000000000001;" width="3.2" x="369.2" y="221.6"/><rect fill="#F1F1F1" height="1.6" style="stroke:#181818;stroke-width:0.4000000000000001;" width="3.2" x="369.2" y="224.8"/><text fill="#000000" font-family="sans-serif" font-size="11.2" lengthAdjust="spacing" textLength="63.2" x="303.6" y="243.6266">Game World</text></g><!--MD5=[c3a82e844d23968b7ce72d3a5f9fb6d3]
entity Inventory--><g id="elem_Inventory"><rect fill="#F1F1F1" height="38.0875" rx="2" ry="2" style="stroke:#181818;stroke-width:0.4000000000000001;" width="78.4" x="826.4" y="398.4"/><rect fill="#F1F1F1" height="8" style="stroke:#181818;stroke-width:0.4000000000000001;" width="12" x="888.8" y="402.4"/><rect fill="#F1F1F1" height="1.6" style="stroke:#181818;stroke-width:0.4000000000000001;" width="3.2" x="887.2" y="404"/><rect fill="#F1F1F1" height="1.6" style="stroke:#181818;stroke-width:0.4000000000000001;" width="3.2" x="887.2" y="407.2"/><text fill="#000000" font-family="sans-serif" font-size="11.2" lengthAdjust="spacing" textLength="46.4" x="838.4" y="426.0266">Inventory</text></g><!--MD5=[9c626053e623f48c145be2aac1d12849]
entity User Interface--><g id="elem_User Interface"><rect fill="#F1F1F1" height="38.0875" rx="2" ry="2" style="stroke:#181818;stroke-width:0.4000000000000001;" width="102.4" x="1310.4" y="398.4"/><rect fill="#F1F1F1" height="8" style="stroke:#181818;stroke-width:0.4000000000000001;" width="12" x="1396.8" y="402.4"/><rect fill="#F1F1F1" height="1.6" style="stroke:#181818;stroke-width:0.4000000000000001;" width="3.2" x="1395.2" y="404"/><rect fill="#F1F1F1" height="1.6" style="stroke:#181818;stroke-width:0.4000000000000001;" width="3.2" x="1395.2" y="407.2"/><text fill="#000000" font-family="sans-serif" font-size="11.2" lengthAdjust="spacing" textLength="70.4" x="1322.4" y="426.0266">User Interface</text></g><!--MD5=[176614c6f3a8e6e15f452eeb3396fe40]
entity Game Menu--><g id="elem_Game Menu"><rect fill="#F1F1F1" height="38.0875" rx="2" ry="2" style="stroke:#181818;stroke-width:0.4000000000000001;" width="93.6" x="349.2" y="398.4"/><rect fill="#F1F1F1" height="8" style="stroke:#181818;stroke-width:0.4000000000000001;" width="12" x="426.8" y="402.4"/><rect fill="#F1F1F1" height="1.6" style="stroke:#181818;stroke-width:0.4000000000000001;" width="3.2" x="425.2" y="404"/><rect fill="#F1F1F1" height="1.6" style="stroke:#181818;stroke-width:0.4000000000000001;" width="3.2" x="425.2" y="407.2"/><text fill="#000000" font-family="sans-serif" font-size="11.2" lengthAdjust="spacing" textLength="61.6" x="361.2" y="426.0266">Game Menu</text></g><!--MD5=[9bf38e2b6fa784581ad2b7a500786e52]
entity Audio--><g id="elem_Audio"><rect fill="#F1F1F1" height="38.0875" rx="2" ry="2" style="stroke:#181818;stroke-width:0.4000000000000001;" width="60.8" x="1330.4" y="216"/><rect fill="#F1F1F1" height="8" style="stroke:#181818;stroke-width:0.4000000000000001;" width="12" x="1375.2" y="220"/><rect fill="#F1F1F1" height="1.6" style="stroke:#181818;stroke-width:0.4000000000000001;" width="3.2" x="1373.6" y="221.6"/><rect fill="#F1F1F1" height="1.6" style="stroke:#181818;stroke-width:0.4000000000000001;" width="3.2" x="1373.6" y="224.8"/><text fill="#000000" font-family="sans-serif" font-size="11.2" lengthAdjust="spacing" textLength="28.8" x="1342.4" y="243.6266">Audio</text></g><!--MD5=[59b14afb858980ea7003269802d67a0c]
entity AI Environment--><g id="elem_AI Environment"><rect fill="#ADD8E6" height="38.0875" rx="2" ry="2" style="stroke:#181818;stroke-width:0.4000000000000001;" width="108" x="1422.8" y="216"/><rect fill="#ADD8E6" height="8" style="stroke:#181818;stroke-width:0.4000000000000001;" width="12" x="1514.8" y="220"/><rect fill="#ADD8E6" height="1.6" style="stroke:#181818;stroke-width:0.4000000000000001;" width="3.2" x="1513.2" y="221.6"/><rect fill="#ADD8E6" height="1.6" style="stroke:#181818;stroke-width:0.4000000000000001;" width="3.2" x="1513.2" y="224.8"/><text fill="#000000" font-family="sans-serif" font-size="11.2" lengthAdjust="spacing" textLength="76" x="1434.8" y="243.6266">AI Environment</text></g><!--MD5=[f729ed9953a2240e6d53ecaaf3984f69]
entity Minecraft Environment--><g id="elem_Minecraft Environment"><rect fill="#ADD8E6" height="38.0875" rx="2" ry="2" style="stroke:#181818;stroke-width:0.4000000000000001;" width="144.8" x="1558.8" y="216"/><rect fill="#ADD8E6" height="8" style="stroke:#181818;stroke-width:0.4000000000000001;" width="12" x="1687.6" y="220"/><rect fill="#ADD8E6" height="1.6" style="stroke:#181818;stroke-width:0.4000000000000001;" width="3.2" x="1686" y="221.6"/><rect fill="#ADD8E6" height="1.6" style="stroke:#181818;stroke-width:0.4000000000000001;" width="3.2" x="1686" y="224.8"/><text fill="#000000" font-family="sans-serif" font-size="11.2" lengthAdjust="spacing" textLength="112.8" x="1570.8" y="243.6266">Minecraft Environment</text></g><!--MD5=[1a8f18ec5d3b3f418f4294ccc7f67a9b]
entity GT1--><g id="elem_GT1"><ellipse cx="1703.2" cy="144" fill="#F1F1F1" rx="6.4" ry="6.4" style="stroke:#181818;stroke-width:0.4000000000000001;"/><text fill="#000000" font-family="sans-serif" font-size="11.2" lengthAdjust="spacing" textLength="60" x="1673.2" y="169.2266">Get Texture</text></g><!--MD5=[f1ff46596a9076ec4408fb4820ef3e2e]
entity GT2--><g id="elem_GT2"><ellipse cx="1284.8" cy="144" fill="#F1F1F1" rx="6.4" ry="6.4" style="stroke:#181818;stroke-width:0.4000000000000001;"/><text fill="#000000" font-family="sans-serif" font-size="11.2" lengthAdjust="spacing" textLength="60" x="1254.8" y="169.2266">Get Texture</text></g><!--MD5=[8b509e6bc2cddbe9d8b77f4d4a325065]
entity GT3--><g id="elem_GT3"><ellipse cx="1803.2" cy="144" fill="#F1F1F1" rx="6.4" ry="6.4" style="stroke:#181818;stroke-width:0.4000000000000001;"/><text fill="#000000" font-family="sans-serif" font-size="11.2" lengthAdjust="spacing" textLength="60" x="1773.2" y="169.2266">Get Texture</text></g><!--MD5=[8aa48eece13b069ef17ea2b2a2e0d94a]
entity GBlockInfo--><g id="elem_GBlockInfo"><ellipse cx="796.8" cy="691.2" fill="#F1F1F1" rx="6.4" ry="6.4" style="stroke:#181818;stroke-width:0.4000000000000001;"/><text fill="#000000" font-family="sans-serif" font-size="11.2" lengthAdjust="spacing" textLength="104" x="744.8" y="716.4266">Get Block Properties</text></g><!--MD5=[eaef40ceae70d53d702928da1ceb95c0]
entity GBItemInfo--><g id="elem_GBItemInfo"><ellipse cx="1043.2" cy="691.2" fill="#F1F1F1" rx="6.4" ry="6.4" style="stroke:#181818;stroke-width:0.4000000000000001;"/><text fill="#000000" font-family="sans-serif" font-size="11.2" lengthAdjust="spacing" textLength="97.6" x="994.4" y="716.4266">Get Item Properties</text></g><!--MD5=[d975503b492e622d24638f3a681ef370]
entity GGameSetting--><g id="elem_GGameSetting"><ellipse cx="184.8" cy="326.4" fill="#F1F1F1" rx="6.4" ry="6.4" style="stroke:#181818;stroke-width:0.4000000000000001;"/><text fill="#000000" font-family="sans-serif" font-size="11.2" lengthAdjust="spacing" textLength="96" x="136.8" y="351.6266">Get Game Settings</text></g><!--MD5=[88072e861a9acb9d8434eb03350cf594]
entity GBlock--><g id="elem_GBlock"><ellipse cx="717.6" cy="508.8" fill="#F1F1F1" rx="6.4" ry="6.4" style="stroke:#181818;stroke-width:0.4000000000000001;"/><text fill="#000000" font-family="sans-serif" font-size="11.2" lengthAdjust="spacing" textLength="48.8" x="693.2" y="534.0266">Get Block</text></g><!--MD5=[42405b7584953efb4ee1e909ccfc963b]
entity GItem--><g id="elem_GItem"><ellipse cx="803.2" cy="508.8" fill="#F1F1F1" rx="6.4" ry="6.4" style="stroke:#181818;stroke-width:0.4000000000000001;"/><text fill="#000000" font-family="sans-serif" font-size="11.2" lengthAdjust="spacing" textLength="42.4" x="782" y="534.0266">Get Item</text></g><!--MD5=[da147cd71508b1913a41bb6b4b01a772]
entity StoreRetrieveBlock--><g id="elem_StoreRetrieveBlock"><ellipse cx="723.2" cy="144" fill="#F1F1F1" rx="6.4" ry="6.4" style="stroke:#181818;stroke-width:0.4000000000000001;"/><text fill="#000000" font-family="sans-serif" font-size="11.2" lengthAdjust="spacing" textLength="103.2" x="671.6" y="169.2266">Store/Retrieve Block</text></g><!--MD5=[d26c08427d166fc46bfdb907375634c7]
entity SelectItemBlock--><g id="elem_SelectItemBlock"><ellipse cx="1176.8" cy="326.4" fill="#F1F1F1" rx="6.4" ry="6.4" style="stroke:#181818;stroke-width:0.4000000000000001;"/><text fill="#000000" font-family="sans-serif" font-size="11.2" lengthAdjust="spacing" textLength="85.6" x="1134" y="351.6266">Select Item/Block</text></g><!--MD5=[a9ca98f5762c40b68b842c463b31ef35]
entity BreakPlaceBlock--><g id="elem_BreakPlaceBlock"><ellipse cx="1068.8" cy="144" fill="#F1F1F1" rx="6.4" ry="6.4" style="stroke:#181818;stroke-width:0.4000000000000001;"/><text fill="#000000" font-family="sans-serif" font-size="11.2" lengthAdjust="spacing" textLength="91.2" x="1023.2" y="169.2266">Break/Place Block</text></g><!--MD5=[f912c3dc76be78071eecc274b3d6d7ff]
entity PlaceBlock--><g id="elem_PlaceBlock"><ellipse cx="50.4" cy="326.4" fill="#F1F1F1" rx="6.4" ry="6.4" style="stroke:#181818;stroke-width:0.4000000000000001;"/><text fill="#000000" font-family="sans-serif" font-size="11.2" lengthAdjust="spacing" textLength="91.2" x="4.8" y="351.6266">Break/Place Block</text></g><!--MD5=[801d9971c74be9d07ffc18d022fa1b86]
entity Craft--><g id="elem_Craft"><ellipse cx="1255.2" cy="508.8" fill="#F1F1F1" rx="6.4" ry="6.4" style="stroke:#181818;stroke-width:0.4000000000000001;"/><text fill="#000000" font-family="sans-serif" font-size="11.2" lengthAdjust="spacing" textLength="79.2" x="1215.6" y="534.0266">Craft Item/Block</text></g><!--MD5=[e25fa1a09df03286a4013fc67ada0c07]
entity GetRecipes--><g id="elem_GetRecipes"><ellipse cx="1058.4" cy="873.6" fill="#F1F1F1" rx="6.4" ry="6.4" style="stroke:#181818;stroke-width:0.4000000000000001;"/><text fill="#000000" font-family="sans-serif" font-size="11.2" lengthAdjust="spacing" textLength="62.4" x="1027.2" y="898.8266">Get Recipes</text></g><!--MD5=[74aef968b7954e707f3796f5a35ab757]
entity StoreRetrieveBlockItem--><g id="elem_StoreRetrieveBlockItem"><ellipse cx="928" cy="508.8" fill="#F1F1F1" rx="6.4" ry="6.4" style="stroke:#181818;stroke-width:0.4000000000000001;"/><text fill="#000000" font-family="sans-serif" font-size="11.2" lengthAdjust="spacing" textLength="127.2" x="864.4" y="534.0266">Store/Retrieve Item/Block</text></g><!--MD5=[ea574140fec53518e19733d715d15af5]
entity BlocKGen--><g id="elem_BlocKGen"><ellipse cx="508.8" cy="691.2" fill="#F1F1F1" rx="6.4" ry="6.4" style="stroke:#181818;stroke-width:0.4000000000000001;"/><text fill="#000000" font-family="sans-serif" font-size="11.2" lengthAdjust="spacing" textLength="96" x="460.8" y="716.4266">Get Blocks for Gen</text></g><!--MD5=[da9abac6f303204ac08af8f3142bbdb5]
entity GenWorld--><g id="elem_GenWorld"><ellipse cx="396" cy="326.4" fill="#F1F1F1" rx="6.4" ry="6.4" style="stroke:#181818;stroke-width:0.4000000000000001;"/><text fill="#000000" font-family="sans-serif" font-size="11.2" lengthAdjust="spacing" textLength="131.2" x="330.4" y="351.6266">Generate world from seed</text></g><!--MD5=[56ee8b33924492548bd9da39795eb7ef]
entity DisplayWorld--><g id="elem_DisplayWorld"><ellipse cx="536.8" cy="326.4" fill="#F1F1F1" rx="6.4" ry="6.4" style="stroke:#181818;stroke-width:0.4000000000000001;"/><text fill="#000000" font-family="sans-serif" font-size="11.2" lengthAdjust="spacing" textLength="69.6" x="502" y="351.6266">Display World</text></g><!--MD5=[0e27917c4a4f58a74db95a6dbb62aec7]
entity DisplayPlayer--><g id="elem_DisplayPlayer"><ellipse cx="864.8" cy="326.4" fill="#F1F1F1" rx="6.4" ry="6.4" style="stroke:#181818;stroke-width:0.4000000000000001;"/><text fill="#000000" font-family="sans-serif" font-size="11.2" lengthAdjust="spacing" textLength="72" x="828.8" y="351.6266">Display Player</text></g><!--MD5=[beea72e0d01653e4c9f99928df8e17cd]
entity DisplayUI--><g id="elem_DisplayUI"><ellipse cx="1480.8" cy="508.8" fill="#F1F1F1" rx="6.4" ry="6.4" style="stroke:#181818;stroke-width:0.4000000000000001;"/><text fill="#000000" font-family="sans-serif" font-size="11.2" lengthAdjust="spacing" textLength="49.6" x="1456" y="534.0266">Display UI</text></g><!--MD5=[941f54ee38a768d85a8ad4c4b4555377]
entity DisplayCrafting--><g id="elem_DisplayCrafting"><ellipse cx="1375.2" cy="508.8" fill="#F1F1F1" rx="6.4" ry="6.4" style="stroke:#181818;stroke-width:0.4000000000000001;"/><text fill="#000000" font-family="sans-serif" font-size="11.2" lengthAdjust="spacing" textLength="80" x="1335.2" y="534.0266">Display Crafting</text></g><!--MD5=[206894d240f45f21cb6119ef6cf55bbc]
entity DisplayInventory--><g id="elem_DisplayInventory"><ellipse cx="1075.2" cy="508.8" fill="#F1F1F1" rx="6.4" ry="6.4" style="stroke:#181818;stroke-width:0.4000000000000001;"/><text fill="#000000" font-family="sans-serif" font-size="11.2" lengthAdjust="spacing" textLength="86.4" x="1032" y="534.0266">Display Inventory</text></g><!--MD5=[45c23742ac8285756e1ac42d52cd8745]
entity MovePlayerWorld--><g id="elem_MovePlayerWorld"><ellipse cx="643.2" cy="326.4" fill="#F1F1F1" rx="6.4" ry="6.4" style="stroke:#181818;stroke-width:0.4000000000000001;"/><text fill="#000000" font-family="sans-serif" font-size="11.2" lengthAdjust="spacing" textLength="62.4" x="612" y="351.6266">Move Player</text></g><!--MD5=[3f2a2fb92bf9f01413912c470826f626]
entity MovePlayerCamera--><g id="elem_MovePlayerCamera"><ellipse cx="1017.6" cy="326.4" fill="#F1F1F1" rx="6.4" ry="6.4" style="stroke:#181818;stroke-width:0.4000000000000001;"/><text fill="#000000" font-family="sans-serif" font-size="11.2" lengthAdjust="spacing" textLength="152" x="941.6" y="351.6266">Move Camera on Player Move</text></g><!--MD5=[ba6fbc4d8a307ff6afd8c39c2e8d8322]
entity playAudio--><g id="elem_playAudio"><ellipse cx="1360.8" cy="326.4" fill="#F1F1F1" rx="6.4" ry="6.4" style="stroke:#181818;stroke-width:0.4000000000000001;"/><text fill="#000000" font-family="sans-serif" font-size="11.2" lengthAdjust="spacing" textLength="88" x="1316.8" y="351.6266">Get Audio to Play</text></g><!--MD5=[271f3f1b4075cf156e175a144c3b2af6]
entity AgentInterface--><g id="elem_AgentInterface"><ellipse cx="1501.6" cy="326.4" fill="#ADD8E6" rx="6.4" ry="6.4" style="stroke:#181818;stroke-width:0.4000000000000001;"/><text fill="#000000" font-family="sans-serif" font-size="11.2" lengthAdjust="spacing" textLength="112.8" x="1445.2" y="351.6266">Interface through Gym</text></g><!--MD5=[65a4e37a3e23aced28dd339060f68402]
entity nextAIMove--><g id="elem_nextAIMove"><ellipse cx="1634.4" cy="326.4" fill="#ADD8E6" rx="6.4" ry="6.4" style="stroke:#181818;stroke-width:0.4000000000000001;"/><text fill="#000000" font-family="sans-serif" font-size="11.2" lengthAdjust="spacing" textLength="72.8" x="1598" y="351.6266">Get next move</text></g><!--MD5=[833bae06c0cf30466acbc405d55ed788]
link Sprites to GT1--><g id="link_Sprites_GT1"><path d="M1703.2,72.168 C1703.2,92.256 1703.2,123.224 1703.2,136.632 " fill="none" id="Sprites-GT1" style="stroke:#181818;stroke-width:0.8000000000000002;"/></g><!--MD5=[0a8e280e73dc7516b9ff8603758ea9ba]
reverse link GT1 to Block--><g id="link_GT1_Block"><path d="M1708.936,158.824 C1720.688,188.856 1746.4,261.864 1746.4,325.6 C1746.4,325.6 1746.4,325.6 1746.4,418.4 C1746.4,528.608 1632.248,502.12 1526.4,532.8 C1489.552,543.48 912.456,586.728 773.792,597 " fill="none" id="GT1-backto-Block" style="stroke:#181818;stroke-width:0.8000000000000002;"/><path d="M1700.5367,156.0312 A7.2,7.2 0 0 0 1713.1004 151.0057" fill="none" style="stroke:#181818;stroke-width:1.2000000000000002;"/></g><!--MD5=[03c499e48b351fcdd248ed0494db4aa8]
link Sprites to GT3--><g id="link_Sprites_GT3"><path d="M1723.92,72.168 C1746.344,92.256 1780.904,123.224 1795.872,136.632 " fill="none" id="Sprites-GT3" style="stroke:#181818;stroke-width:0.8000000000000002;"/></g><!--MD5=[e0adc95032a11aff11fac671a7bd99c5]
reverse link GT3 to Item--><g id="link_GT3_Item"><path d="M1803.2,159.488 C1803.2,190.288 1803.2,263.872 1803.2,325.6 C1803.2,325.6 1803.2,325.6 1803.2,418.4 C1803.2,471.704 1808.688,499.336 1767.2,532.8 C1711.872,577.424 1193.392,594.928 1069.632,598.488 " fill="none" id="GT3-backto-Item" style="stroke:#181818;stroke-width:0.8000000000000002;"/><path d="M1796.4342,153.8305 A7.2,7.2 0 0 0 1809.9658 153.8305" fill="none" style="stroke:#181818;stroke-width:1.2000000000000002;"/></g><!--MD5=[b04ad571f909b26a9d4513388aff1f63]
link Sprites to GT2--><g id="link_Sprites_GT2"><path d="M1669.312,60.856 C1579.24,80.144 1337.64,131.888 1292.216,141.608 " fill="none" id="Sprites-GT2" style="stroke:#181818;stroke-width:0.8000000000000002;"/></g><!--MD5=[51160945cc9d277d81098ce725fef6d8]
reverse link GT2 to Player--><g id="link_GT2_Player"><path d="M1271.168,156.104 C1253.032,171.152 1220.736,197.952 1199.048,215.944 " fill="none" id="GT2-backto-Player" style="stroke:#181818;stroke-width:0.8000000000000002;"/><path d="M1271.1615,147.3241 A7.2,7.2 0 0 0 1279.7995 157.7399" fill="none" style="stroke:#181818;stroke-width:1.2000000000000002;"/></g><!--MD5=[6cbb0df46079e74cba3e8104e07a3a5e]
link Block to GBlockInfo--><g id="link_Block_GBlockInfo"><path d="M754.944,619.368 C765.024,636.472 779.752,661.472 788.784,676.792 " fill="none" id="Block-to-GBlockInfo" style="stroke:#181818;stroke-width:0.8000000000000002;"/><path d="M797.5091,678.2774 A7.2,7.2 0 0 0 785.8483 685.1424" fill="none" style="stroke:#181818;stroke-width:1.2000000000000002;"/></g><!--MD5=[8d0fd7fb13614a440b35b8f86292f370]
link GBlockInfo to Item JSON--><g id="link_GBlockInfo_Item JSON"><path d="M804.192,691.928 C830.616,691.96 922.288,694.6 987.2,728 C1003.592,736.432 1018.48,751.192 1028.776,763.088 " fill="none" id="GBlockInfo-Item JSON" style="stroke:#181818;stroke-width:0.8000000000000002;"/></g><!--MD5=[2f4c065f2b491914fbcaa0c0a9dced04]
link Item to GBItemInfo--><g id="link_Item_GBItemInfo"><path d="M1043.2,619.368 C1043.2,636.08 1043.2,660.328 1043.2,675.728 " fill="none" id="Item-to-GBItemInfo" style="stroke:#181818;stroke-width:0.8000000000000002;"/><path d="M1049.9658,681.3695 A7.2,7.2 0 0 0 1036.4342 681.3695" fill="none" style="stroke:#181818;stroke-width:1.2000000000000002;"/></g><!--MD5=[9373437895d68328a4fe6f6abff5fc9d]
link GBItemInfo to Item JSON--><g id="link_GBItemInfo_Item JSON"><path d="M1043.2,698.44 C1043.2,711.768 1043.2,742.776 1043.2,762.936 " fill="none" id="GBItemInfo-Item JSON" style="stroke:#181818;stroke-width:0.8000000000000002;"/></g><!--MD5=[51f1794e20f86b976f156231ef3c8a71]
link Game World to GGameSetting--><g id="link_Game World_GGameSetting"><path d="M307.208,254.568 C274.048,273.808 223.72,303.016 199.216,317.232 " fill="none" id="Game World-to-GGameSetting" style="stroke:#181818;stroke-width:0.8000000000000002;"/><path d="M197.7493,325.9124 A7.2,7.2 0 0 0 190.9588 314.208" fill="none" style="stroke:#181818;stroke-width:1.2000000000000002;"/></g><!--MD5=[2ec794340a9d2606fa0fb8649d3783de]
link GGameSetting to Game Settings--><g id="link_GGameSetting_Game Settings"><path d="M184.8,333.64 C184.8,346.968 184.8,377.976 184.8,398.136 " fill="none" id="GGameSetting-Game Settings" style="stroke:#181818;stroke-width:0.8000000000000002;"/></g><!--MD5=[d6d32cedfe030439373b336cb5000e96]
link Inventory to GBlock--><g id="link_Inventory_GBlock"><path d="M834.936,436.968 C803.44,456.032 755.784,484.888 732.064,499.24 " fill="none" id="Inventory-to-GBlock" style="stroke:#181818;stroke-width:0.8000000000000002;"/><path d="M730.607,508.0368 A7.2,7.2 0 0 0 723.6081 496.4558" fill="none" style="stroke:#181818;stroke-width:1.2000000000000002;"/></g><!--MD5=[118a765e966355423c34d4af725f384a]
link GBlock to Block--><g id="link_GBlock_Block"><path d="M719.496,516.04 C723.424,529.368 732.56,560.376 738.496,580.536 " fill="none" id="GBlock-Block" style="stroke:#181818;stroke-width:0.8000000000000002;"/></g><!--MD5=[dfa6cd361c6b793f4677081cbc43bb1d]
link Inventory to GItem--><g id="link_Inventory_GItem"><path d="M852.672,436.968 C840.648,454.232 823.024,479.528 812.384,494.816 " fill="none" id="Inventory-to-GItem" style="stroke:#181818;stroke-width:0.8000000000000002;"/><path d="M814.7348,503.2799 A7.2,7.2 0 0 0 803.633 495.5434" fill="none" style="stroke:#181818;stroke-width:1.2000000000000002;"/></g><!--MD5=[325b17ebab9b6016a31cb1a9784fdd6b]
link GItem to Item--><g id="link_GItem_Item"><path d="M810.488,514.328 C818.48,519.368 831.792,527.36 844,532.8 C903.768,559.448 977.656,581.368 1016.48,592.096 " fill="none" id="GItem-Item" style="stroke:#181818;stroke-width:0.8000000000000002;"/></g><!--MD5=[25af1755c2324c2326503938705c752b]
link Breaking and Placing to StoreRetrieveBlock--><g id="link_Breaking and Placing_StoreRetrieveBlock"><path d="M723.2,72.168 C723.2,88.88 723.2,113.128 723.2,128.528 " fill="none" id="Breaking and Placing-to-StoreRetrieveBlock" style="stroke:#181818;stroke-width:0.8000000000000002;"/><path d="M729.9658,134.1695 A7.2,7.2 0 0 0 716.4342 134.1695" fill="none" style="stroke:#181818;stroke-width:1.2000000000000002;"/></g><!--MD5=[9e217f0be4295e8271d6a435f23b87a2]
link StoreRetrieveBlock to Inventory--><g id="link_StoreRetrieveBlock_Inventory"><path d="M722.528,151.552 C720.128,179.016 714.44,283.992 759.2,350.4 C775.264,374.232 803.048,391.144 826.2,401.928 " fill="none" id="StoreRetrieveBlock-Inventory" style="stroke:#181818;stroke-width:0.8000000000000002;"/></g><!--MD5=[e74f0ae00824837c9572152c9f65e0cd]
link SelectItemBlock to Inventory--><g id="link_SelectItemBlock_Inventory"><path d="M1169.48,330.136 C1157.784,334.76 1134.104,343.904 1113.6,350.4 C1040.728,373.48 954.192,395.44 905,407.416 " fill="none" id="SelectItemBlock-Inventory" style="stroke:#181818;stroke-width:0.8000000000000002;"/></g><!--MD5=[40106af54c5523aa758db7b9d86448e4]
link Player to SelectItemBlock--><g id="link_Player_SelectItemBlock"><path d="M1176.8,254.568 C1176.8,271.28 1176.8,295.528 1176.8,310.928 " fill="none" id="Player-to-SelectItemBlock" style="stroke:#181818;stroke-width:0.8000000000000002;"/><path d="M1183.5658,316.5695 A7.2,7.2 0 0 0 1170.0342 316.5695" fill="none" style="stroke:#181818;stroke-width:1.2000000000000002;"/></g><!--MD5=[1ee7cbf5ef8d2075090c0756baf58aec]
link Breaking and Placing to BreakPlaceBlock--><g id="link_Breaking and Placing_BreakPlaceBlock"><path d="M792.928,71.68 C881.656,94.68 1027.52,132.496 1061.544,141.32 " fill="none" id="Breaking and Placing-BreakPlaceBlock" style="stroke:#181818;stroke-width:0.8000000000000002;"/></g><!--MD5=[4ba018fd2aac3000e629c9054405dd99]
reverse link BreakPlaceBlock to Player--><g id="link_BreakPlaceBlock_Player"><path d="M1082.432,156.104 C1100.568,171.152 1132.864,197.952 1154.552,215.944 " fill="none" id="BreakPlaceBlock-backto-Player" style="stroke:#181818;stroke-width:0.8000000000000002;"/><path d="M1073.8005,157.7399 A7.2,7.2 0 0 0 1082.4385 147.3241" fill="none" style="stroke:#181818;stroke-width:1.2000000000000002;"/></g><!--MD5=[bf2800027f078a606b20da05126be894]
link Game World to PlaceBlock--><g id="link_Game World_PlaceBlock"><path d="M291.52,249.424 C246.184,262.368 176.168,282.824 116,302.4 C94.632,309.352 69.688,318.448 57.64,322.904 " fill="none" id="Game World-PlaceBlock" style="stroke:#181818;stroke-width:0.8000000000000002;"/></g><!--MD5=[d85fcbc4def0fba87b6109e07813c447]
link Breaking and Placing to PlaceBlock--><g id="link_Breaking and Placing_PlaceBlock"><path d="M666.928,72.088 C581.72,100.536 415.28,157.872 277.6,216 C195.624,250.608 100.664,299.32 64.96,317.944 " fill="none" id="Breaking and Placing-to-PlaceBlock" style="stroke:#181818;stroke-width:0.8000000000000002;"/><path d="M63.0441,326.5838 A7.2,7.2 0 0 0 56.7769 314.5911" fill="none" style="stroke:#181818;stroke-width:1.2000000000000002;"/></g><!--MD5=[d97bc650b134c668d2d0bc8760395a7b]
link Crafting to Craft--><g id="link_Crafting_Craft"><path d="M1194.312,436.968 C1211.536,457.056 1238.08,488.024 1249.576,501.432 " fill="none" id="Crafting-Craft" style="stroke:#181818;stroke-width:0.8000000000000002;"/></g><!--MD5=[5f3df63fa38e93bd3dec1679891c80ef]
link Player to Craft--><g id="link_Player_Craft"><path d="M1200.912,254.472 C1214.68,266.504 1230.824,283.448 1239.2,302.4 C1268.488,368.696 1261.464,458.712 1257.24,493.472 " fill="none" id="Player-to-Craft" style="stroke:#181818;stroke-width:0.8000000000000002;"/><path d="M1263.2023,500.012 A7.2,7.2 0 0 0 1249.7831 498.2718" fill="none" style="stroke:#181818;stroke-width:1.2000000000000002;"/></g><!--MD5=[dbaa1f3b8b77d9001dabe906e4ed8be3]
link Crafting to GetRecipes--><g id="link_Crafting_GetRecipes"><path d="M1176.504,436.856 C1173.304,469.544 1167.2,539.76 1167.2,599.2 C1167.2,599.2 1167.2,599.2 1167.2,692 C1167.2,764.92 1101.424,833.744 1072.16,860.76 " fill="none" id="Crafting-to-GetRecipes" style="stroke:#181818;stroke-width:0.8000000000000002;"/><path d="M1072.2436,869.8001 A7.2,7.2 0 0 0 1063.1702 859.7614" fill="none" style="stroke:#181818;stroke-width:1.2000000000000002;"/></g><!--MD5=[6a0b37a33b574d3a28b5c92c47136553]
link Recipe JSON to GetRecipes--><g id="link_Recipe JSON_GetRecipes"><path d="M951.848,801.768 C983.368,822.784 1032.736,855.688 1051.152,867.968 " fill="none" id="Recipe JSON-GetRecipes" style="stroke:#181818;stroke-width:0.8000000000000002;"/></g><!--MD5=[faf5538fb3abce4c287cd57d989a2286]
link Crafting to StoreRetrieveBlockItem--><g id="link_Crafting_StoreRetrieveBlockItem"><path d="M1142.256,431.336 C1086.48,451.296 981.8,488.752 942.984,502.64 " fill="none" id="Crafting-to-StoreRetrieveBlockItem" style="stroke:#181818;stroke-width:0.8000000000000002;"/><path d="M939.9595,510.9074 A7.2,7.2 0 0 0 935.3973 498.1681" fill="none" style="stroke:#181818;stroke-width:1.2000000000000002;"/></g><!--MD5=[8316efd59f7fcc42c947664f8b098d59]
link Inventory to StoreRetrieveBlockItem--><g id="link_Inventory_StoreRetrieveBlockItem"><path d="M878.528,436.968 C892.52,457.056 914.088,488.024 923.424,501.432 " fill="none" id="Inventory-StoreRetrieveBlockItem" style="stroke:#181818;stroke-width:0.8000000000000002;"/></g><!--MD5=[d6acfa1a20bd9ae53f8d0b34dda04335]
link Game World to BlocKGen--><g id="link_Game World_BlocKGen"><path d="M329.032,254.64 C312.496,286.752 281.6,355.032 281.6,416.8 C281.6,416.8 281.6,416.8 281.6,509.6 C281.6,618.264 442.688,672.12 493.584,686.424 " fill="none" id="Game World-to-BlocKGen" style="stroke:#181818;stroke-width:0.8000000000000002;"/><path d="M500.8968,681.401 A7.2,7.2 0 0 0 497.343 694.4575" fill="none" style="stroke:#181818;stroke-width:1.2000000000000002;"/></g><!--MD5=[8d2b84f7b19e966e9b06e221bc4e6082]
link Block to BlocKGen--><g id="link_Block_BlocKGen"><path d="M714.208,612.144 C659.448,633.008 545.672,676.352 516,687.656 " fill="none" id="Block-BlocKGen" style="stroke:#181818;stroke-width:0.8000000000000002;"/></g><!--MD5=[3b02fe774791b8c2ad1de92b05cb65d4]
link Game World to GenWorld--><g id="link_Game World_GenWorld"><path d="M350.968,254.568 C363.704,274.656 383.336,305.624 391.84,319.032 " fill="none" id="Game World-GenWorld" style="stroke:#181818;stroke-width:0.8000000000000002;"/></g><!--MD5=[718477ea6ad283fbc8dcaa0c99902448]
reverse link GenWorld to Game Menu--><g id="link_GenWorld_Game Menu"><path d="M396,341.72 C396,357.08 396,381.36 396,398.136 " fill="none" id="GenWorld-backto-Game Menu" style="stroke:#181818;stroke-width:0.8000000000000002;"/><path d="M389.2342,336.1025 A7.2,7.2 0 0 0 402.7658 336.1025" fill="none" style="stroke:#181818;stroke-width:1.2000000000000002;"/></g><!--MD5=[ce53c0dd0a691013d768cd79576454a5]
link User Interface to DisplayCrafting--><g id="link_User Interface_DisplayCrafting"><path d="M1364.416,436.968 C1366.952,453.68 1370.632,477.928 1372.976,493.328 " fill="none" id="User Interface-to-DisplayCrafting" style="stroke:#181818;stroke-width:0.8000000000000002;"/><path d="M1380.5198,497.9823 A7.2,7.2 0 0 0 1367.1414 500.0123" fill="none" style="stroke:#181818;stroke-width:1.2000000000000002;"/></g><!--MD5=[edf66ab3cdf5bca1abd96e2616a0233c]
link User Interface to DisplayInventory--><g id="link_User Interface_DisplayInventory"><path d="M1310.4,434.416 C1243.696,455.288 1130.808,490.608 1090.256,503.288 " fill="none" id="User Interface-to-DisplayInventory" style="stroke:#181818;stroke-width:0.8000000000000002;"/><path d="M1086.9225,511.4258 A7.2,7.2 0 0 0 1082.8819 498.5116" fill="none" style="stroke:#181818;stroke-width:1.2000000000000002;"/></g><!--MD5=[c24d5849b99aa7b41bd365c538f4a333]
link Crafting to DisplayCrafting--><g id="link_Crafting_DisplayCrafting"><path d="M1214.496,434.832 C1262.208,456.56 1343.128,493.4 1367.824,504.64 " fill="none" id="Crafting-DisplayCrafting" style="stroke:#181818;stroke-width:0.8000000000000002;"/></g><!--MD5=[070fbf2d164a533150642b1b43fee6b6]
link Inventory to DisplayInventory--><g id="link_Inventory_DisplayInventory"><path d="M905.024,435.256 C956.256,457.152 1042.184,493.888 1067.784,504.832 " fill="none" id="Inventory-DisplayInventory" style="stroke:#181818;stroke-width:0.8000000000000002;"/></g><!--MD5=[26c4895d8cc59df4a395c8c051f0ed9e]
link Camera to DisplayWorld--><g id="link_Camera_DisplayWorld"><path d="M797.4,244.288 C749.608,255.6 663.104,277.352 591.2,302.4 C577.448,307.192 562.232,313.792 551.4,318.736 " fill="none" id="Camera-to-DisplayWorld" style="stroke:#181818;stroke-width:0.8000000000000002;"/><path d="M549.1413,327.233 A7.2,7.2 0 0 0 543.456 314.9537" fill="none" style="stroke:#181818;stroke-width:1.2000000000000002;"/></g><!--MD5=[4c1498c39fa8a73509cefd8bf87ee60c]
link Camera to DisplayPlayer--><g id="link_Camera_DisplayPlayer"><path d="M840.064,254.568 C845.944,271.44 854.488,295.984 859.84,311.36 " fill="none" id="Camera-to-DisplayPlayer" style="stroke:#181818;stroke-width:0.8000000000000002;"/><path d="M868.0927,314.4828 A7.2,7.2 0 0 0 855.3127 318.9297" fill="none" style="stroke:#181818;stroke-width:1.2000000000000002;"/></g><!--MD5=[c97f339238bcf692952904a793869808]
link Camera to DisplayUI--><g id="link_Camera_DisplayUI"><path d="M820.8,254.408 C805.136,279.392 783.536,323.96 808,350.4 C901.616,451.568 1312.16,321.28 1426.4,398.4 C1459.344,420.64 1473.192,468.912 1478.256,493.288 " fill="none" id="Camera-to-DisplayUI" style="stroke:#181818;stroke-width:0.8000000000000002;"/><path d="M1485.9829,497.6761 A7.2,7.2 0 0 0 1472.6866 500.1885" fill="none" style="stroke:#181818;stroke-width:1.2000000000000002;"/></g><!--MD5=[2b59e7a64008b19389b948aca0ac1d81]
link Game World to DisplayWorld--><g id="link_Game World_DisplayWorld"><path d="M379.904,254.456 C428.256,276.384 505.408,311.368 529.424,322.256 " fill="none" id="Game World-DisplayWorld" style="stroke:#181818;stroke-width:0.8000000000000002;"/></g><!--MD5=[36976bc424124ba4f6508b3d1bf060a2]
link Player to DisplayPlayer--><g id="link_Player_DisplayPlayer"><path d="M1144.656,242.824 C1095.736,253.552 999.928,275.888 920.8,302.4 C903.04,308.352 882.904,317.24 872.28,322.112 " fill="none" id="Player-DisplayPlayer" style="stroke:#181818;stroke-width:0.8000000000000002;"/></g><!--MD5=[b85e66af217458cd32f6b66e79a12a70]
link User Interface to DisplayUI--><g id="link_User Interface_DisplayUI"><path d="M1386.296,436.968 C1413.712,457.568 1456.336,489.608 1473.384,502.424 " fill="none" id="User Interface-DisplayUI" style="stroke:#181818;stroke-width:0.8000000000000002;"/></g><!--MD5=[1149a06f0ba453b7a15ef21c9cd0fba3]
link Player to MovePlayerWorld--><g id="link_Player_MovePlayerWorld"><path d="M1144.624,241.4 C1043.064,258.456 731.728,310.736 658.664,323 " fill="none" id="Player-to-MovePlayerWorld" style="stroke:#181818;stroke-width:0.8000000000000002;"/><path d="M654.1807,330.6167 A7.2,7.2 0 0 0 651.9404 317.2719" fill="none" style="stroke:#181818;stroke-width:1.2000000000000002;"/></g><!--MD5=[e95873f13a987f744203a66e819b773a]
link Game World to MovePlayerWorld--><g id="link_Game World_MovePlayerWorld"><path d="M387.032,246.168 C438.24,257.616 521.536,277.864 591.2,302.4 C607.608,308.176 626.032,316.976 635.944,321.912 " fill="none" id="Game World-MovePlayerWorld" style="stroke:#181818;stroke-width:0.8000000000000002;"/></g><!--MD5=[f23ca20a5e6f486cbdfa5965fd657bef]
link Camera to MovePlayerCamera--><g id="link_Camera_MovePlayerCamera"><path d="M869.736,253.592 C914.32,275.304 987.072,310.736 1010.256,322.024 " fill="none" id="Camera-MovePlayerCamera" style="stroke:#181818;stroke-width:0.8000000000000002;"/></g><!--MD5=[661f1571f64c8c5c6a143056833ac226]
link Player to MovePlayerCamera--><g id="link_Player_MovePlayerCamera"><path d="M1144.584,254.128 C1110.312,273.416 1057.624,303.072 1032.248,317.352 " fill="none" id="Player-to-MovePlayerCamera" style="stroke:#181818;stroke-width:0.8000000000000002;"/><path d="M1030.5004,326.0997 A7.2,7.2 0 0 0 1023.8536 314.3131" fill="none" style="stroke:#181818;stroke-width:1.2000000000000002;"/></g><!--MD5=[0b99405415a53418dc6fa046b41e1821]
link Audio to playAudio--><g id="link_Audio_playAudio"><path d="M1360.8,254.568 C1360.8,274.656 1360.8,305.624 1360.8,319.032 " fill="none" id="Audio-playAudio" style="stroke:#181818;stroke-width:0.8000000000000002;"/></g><!--MD5=[f402ee7afc1e17ae3e272ee2aa9ccd08]
link Player to playAudio--><g id="link_Player_playAudio"><path d="M1208.848,251.608 C1249.128,271.224 1316.568,304.064 1346.144,318.464 " fill="none" id="Player-to-playAudio" style="stroke:#181818;stroke-width:0.8000000000000002;"/><path d="M1354.1774,314.8467 A7.2,7.2 0 0 0 1348.2578 327.0148" fill="none" style="stroke:#181818;stroke-width:1.2000000000000002;"/></g><!--MD5=[a51d301371a038be98e0c24957a4439c]
link AI Environment to AgentInterface--><g id="link_AI Environment_AgentInterface"><path d="M1481.936,254.568 C1487.504,274.656 1496.072,305.624 1499.784,319.032 " fill="none" id="AI Environment-AgentInterface" style="stroke:#181818;stroke-width:0.8000000000000002;"/></g><!--MD5=[279d7903ef7ac725e40696ae00d943f6]
link Player to AgentInterface--><g id="link_Player_AgentInterface"><path d="M1208.992,244.272 C1256.376,256.52 1347.64,280.424 1424.8,302.4 C1446.288,308.52 1471,316.08 1486.464,320.872 " fill="none" id="Player-to-AgentInterface" style="stroke:#181818;stroke-width:0.8000000000000002;"/><path d="M1493.8683,316.088 A7.2,7.2 0 0 0 1489.8453 329.0078" fill="none" style="stroke:#181818;stroke-width:1.2000000000000002;"/></g><!--MD5=[2ee9db1b30f032a1532cb144174f0b81]
link AI Environment to nextAIMove--><g id="link_AI Environment_nextAIMove"><path d="M1509.456,254.568 C1543.464,273.896 1595.168,303.296 1620.048,317.44 " fill="none" id="AI Environment-to-nextAIMove" style="stroke:#181818;stroke-width:0.8000000000000002;"/><path d="M1628.3211,314.3649 A7.2,7.2 0 0 0 1621.6367 326.1302" fill="none" style="stroke:#181818;stroke-width:1.2000000000000002;"/></g><!--MD5=[1ba3870d60e1b3d0a6a53b17efb62f2d]
link Minecraft Environment to nextAIMove--><g id="link_Minecraft Environment_nextAIMove"><path d="M1631.864,254.568 C1632.584,274.656 1633.688,305.624 1634.168,319.032 " fill="none" id="Minecraft Environment-nextAIMove" style="stroke:#181818;stroke-width:0.8000000000000002;"/></g><!--MD5=[6194d00aec98f2662094751fb4002455]
@startuml
[Game Settings]

[Crafting]
[Block]
[Item]
[Breaking and Placing]
[Player]
[Camera]
[Game World]
[Inventory]
[User Interface]
[Game Menu]
[Audio]
[AI Environment] #ADD8E6
[Minecraft Environment] #ADD8E6

folder "Files"{
    [Sprites]

}

folder "JSON Files"{
    [Item JSON]
    [Recipe JSON]
}
() "Get Texture" as GT1
() "Get Texture" as GT2
() "Get Texture" as GT3
[Sprites] - - GT1
GT1 )- - [Block]
[Sprites] - - GT3
GT3 )- - [Item]
[Sprites] - - GT2
GT2 )- - [Player]

() "Get Block Properties" as GBlockInfo
() "Get Item Properties" as GBItemInfo
[Block] - -( GBlockInfo
GBlockInfo - - [Item JSON]
[Item] - -( GBItemInfo
GBItemInfo - - [Item JSON]

() "Get Game Settings" as GGameSetting
[Game World] - -( GGameSetting
GGameSetting - - [Game Settings]

() "Get Block" as GBlock
() "Get Item" as GItem

[Inventory] - -( GBlock
GBlock - - [Block]
[Inventory] - -( GItem
GItem - - [Item]

() "Store/Retrieve Block" as StoreRetrieveBlock
[Breaking and Placing] - -( StoreRetrieveBlock
StoreRetrieveBlock - - [Inventory]

() "Select Item/Block" as SelectItemBlock
SelectItemBlock - - [Inventory]
[Player] - -( SelectItemBlock

() "Break/Place Block" as BreakPlaceBlock
[Breaking and Placing] - - BreakPlaceBlock
BreakPlaceBlock )- - [Player]

() "Break/Place Block" as PlaceBlock
[Game World] - - PlaceBlock
[Breaking and Placing] - -( PlaceBlock

() "Craft Item/Block" as Craft
[Crafting] - - Craft
[Player] - -( Craft

() "Get Recipes" as GetRecipes
[Crafting] - -( GetRecipes
[Recipe JSON] - - GetRecipes

() "Store/Retrieve Item/Block" as StoreRetrieveBlockItem
[Crafting] - -( StoreRetrieveBlockItem
[Inventory] - - StoreRetrieveBlockItem

() "Get Blocks for Gen" as BlocKGen
[Game World] - -( BlocKGen
[Block] - - BlocKGen

() "Generate world from seed" as GenWorld
[Game World] - - GenWorld
GenWorld )- - [Game Menu]

() "Display World" as DisplayWorld
() "Display Player" as DisplayPlayer
() "Display UI" as DisplayUI

() "Display Crafting" as DisplayCrafting
() "Display Inventory" as DisplayInventory

[User Interface] - -( DisplayCrafting
[User Interface] - -( DisplayInventory
[Crafting] - - DisplayCrafting
[Inventory] - - DisplayInventory

[Camera] - -( DisplayWorld
[Camera] - -( DisplayPlayer
[Camera] - -( DisplayUI
[Game World] - - DisplayWorld
[Player] - - DisplayPlayer
[User Interface] - - DisplayUI

() "Move Player" as MovePlayerWorld
[Player] - -( MovePlayerWorld
[Game World] - - MovePlayerWorld

() "Move Camera on Player Move" as MovePlayerCamera
[Camera] - - MovePlayerCamera
[Player] - -( MovePlayerCamera

() "Get Audio to Play" as playAudio
[Audio] - - playAudio
[Player] - -( playAudio

() "Interface through Gym" as AgentInterface #ADD8E6
[AI Environment] - - AgentInterface
[Player] - -( AgentInterface

() "Get next move" as nextAIMove #ADD8E6
[AI Environment] - -( nextAIMove
[Minecraft Environment] - - nextAIMove


@enduml

PlantUML version 1.2022.4(Sat Apr 09 15:29:17 GMT+02:00 2022)
(GPL source distribution)
Java Runtime: OpenJDK Runtime Environment
JVM: OpenJDK 64-Bit Server VM
Default Encoding: Cp1252
Language: en
Country: GB
--></g></svg>